<svg xmlns="http://www.w3.org/2000/svg" width="40px" height="40px" viewBox="0 0 40 40" version="1.1">
<style type="text/css">.line{stroke:rgb(0%,0%,0%);stroke-width:2}
.text{fill:rgb(0%,0%,0%)}</style><g id="surface1">
<path style="fill:none;stroke-linecap:butt;stroke-linejoin:miter;stroke-opacity:1;stroke-miterlimit:4;" d="M 0 20 H 40" class="line" />
<path transform="translate(0, -2)" style=" stroke:none;fill-rule:nonzero;fill-opacity:1;" d="M 16.542969 20.253906 L 16.542969 20.125 L 16.910156 20.125 L 16.910156 19.09375 L 16.886719 19.085938 C 16.828125 19.117188 16.777344 19.140625 16.730469 19.15625 C 16.6875 19.171875 16.628906 19.183594 16.558594 19.199219 L 16.558594 19.054688 C 16.628906 19.039062 16.699219 19.019531 16.765625 18.996094 C 16.832031 18.96875 16.894531 18.941406 16.949219 18.90625 L 17.066406 18.90625 L 17.066406 20.125 L 17.394531 20.125 L 17.394531 20.253906 Z M 16.542969 20.253906 " class="text" />
<path transform="translate(0, -2)" style=" stroke:none;fill-rule:nonzero;fill-opacity:1;" d="M 18.113281 20.273438 C 18.015625 20.273438 17.925781 20.25 17.847656 20.203125 C 17.769531 20.15625 17.707031 20.078125 17.660156 19.976562 C 17.613281 19.871094 17.589844 19.738281 17.589844 19.582031 C 17.589844 19.421875 17.613281 19.289062 17.660156 19.183594 C 17.707031 19.082031 17.769531 19.007812 17.847656 18.957031 C 17.925781 18.910156 18.015625 18.886719 18.113281 18.886719 C 18.214844 18.886719 18.300781 18.910156 18.378906 18.957031 C 18.460938 19.007812 18.523438 19.082031 18.566406 19.183594 C 18.613281 19.289062 18.636719 19.421875 18.636719 19.582031 C 18.636719 19.738281 18.613281 19.871094 18.566406 19.976562 C 18.523438 20.078125 18.460938 20.15625 18.378906 20.203125 C 18.300781 20.25 18.214844 20.273438 18.113281 20.273438 Z M 18.113281 20.128906 C 18.230469 20.128906 18.320312 20.085938 18.382812 20 C 18.441406 19.914062 18.472656 19.777344 18.472656 19.582031 C 18.472656 19.386719 18.441406 19.246094 18.382812 19.160156 C 18.320312 19.074219 18.230469 19.03125 18.113281 19.03125 C 18.035156 19.03125 17.972656 19.050781 17.917969 19.085938 C 17.867188 19.121094 17.824219 19.179688 17.796875 19.261719 C 17.769531 19.34375 17.753906 19.449219 17.753906 19.582031 C 17.753906 19.710938 17.769531 19.820312 17.796875 19.898438 C 17.824219 19.980469 17.867188 20.039062 17.917969 20.074219 C 17.972656 20.109375 18.035156 20.128906 18.113281 20.128906 Z M 18.113281 20.128906 " class="text" />
<path transform="translate(0, -2)" style=" stroke:none;fill-rule:nonzero;fill-opacity:1;" d="M 19.441406 20.273438 C 19.339844 20.273438 19.253906 20.25 19.175781 20.203125 C 19.09375 20.15625 19.03125 20.078125 18.984375 19.976562 C 18.9375 19.871094 18.914062 19.738281 18.914062 19.582031 C 18.914062 19.421875 18.9375 19.289062 18.984375 19.183594 C 19.03125 19.082031 19.09375 19.007812 19.175781 18.957031 C 19.253906 18.910156 19.339844 18.886719 19.441406 18.886719 C 19.539062 18.886719 19.628906 18.910156 19.707031 18.957031 C 19.785156 19.007812 19.847656 19.082031 19.894531 19.183594 C 19.941406 19.289062 19.964844 19.421875 19.964844 19.582031 C 19.964844 19.738281 19.941406 19.871094 19.894531 19.976562 C 19.847656 20.078125 19.785156 20.15625 19.707031 20.203125 C 19.628906 20.25 19.539062 20.273438 19.441406 20.273438 Z M 19.441406 20.128906 C 19.558594 20.128906 19.648438 20.085938 19.707031 20 C 19.769531 19.914062 19.796875 19.777344 19.796875 19.582031 C 19.796875 19.386719 19.769531 19.246094 19.707031 19.160156 C 19.648438 19.074219 19.558594 19.03125 19.441406 19.03125 C 19.363281 19.03125 19.296875 19.050781 19.246094 19.085938 C 19.191406 19.121094 19.152344 19.179688 19.125 19.261719 C 19.09375 19.34375 19.082031 19.449219 19.082031 19.582031 C 19.082031 19.710938 19.09375 19.820312 19.125 19.898438 C 19.152344 19.980469 19.191406 20.039062 19.246094 20.074219 C 19.296875 20.109375 19.363281 20.128906 19.441406 20.128906 Z M 19.441406 20.128906 " class="text" />
<path transform="translate(0, -2)" style=" stroke:none;fill-rule:nonzero;fill-opacity:1;" d="M 20.28125 20.253906 L 20.28125 19.238281 L 20.421875 19.238281 L 20.421875 19.386719 L 20.441406 19.390625 C 20.476562 19.332031 20.519531 19.289062 20.566406 19.261719 C 20.617188 19.230469 20.675781 19.21875 20.742188 19.21875 C 20.824219 19.21875 20.882812 19.234375 20.925781 19.261719 C 20.96875 19.292969 21.003906 19.339844 21.027344 19.40625 L 21.046875 19.40625 C 21.082031 19.34375 21.125 19.296875 21.175781 19.265625 C 21.226562 19.234375 21.289062 19.21875 21.367188 19.21875 C 21.46875 19.21875 21.546875 19.246094 21.597656 19.300781 C 21.648438 19.359375 21.675781 19.445312 21.675781 19.5625 L 21.675781 20.253906 L 21.527344 20.253906 L 21.527344 19.5625 C 21.527344 19.492188 21.511719 19.4375 21.480469 19.402344 C 21.449219 19.367188 21.398438 19.347656 21.328125 19.347656 C 21.25 19.347656 21.183594 19.378906 21.128906 19.4375 C 21.078125 19.496094 21.054688 19.59375 21.054688 19.730469 L 21.054688 20.253906 L 20.902344 20.253906 L 20.902344 19.5625 C 20.902344 19.492188 20.886719 19.4375 20.855469 19.402344 C 20.824219 19.367188 20.777344 19.347656 20.707031 19.347656 C 20.625 19.347656 20.558594 19.378906 20.507812 19.433594 C 20.457031 19.492188 20.429688 19.585938 20.429688 19.714844 L 20.429688 20.253906 Z M 20.28125 20.253906 " class="text" />
<path transform="translate(0, -2)" style=" stroke:none;fill-rule:nonzero;fill-opacity:1;" d="M 22.015625 20.253906 L 22.015625 19.238281 L 22.15625 19.238281 L 22.15625 19.386719 L 22.175781 19.390625 C 22.210938 19.332031 22.253906 19.289062 22.300781 19.261719 C 22.351562 19.230469 22.410156 19.21875 22.476562 19.21875 C 22.554688 19.21875 22.617188 19.234375 22.660156 19.261719 C 22.703125 19.292969 22.738281 19.339844 22.761719 19.40625 L 22.78125 19.40625 C 22.816406 19.34375 22.859375 19.296875 22.910156 19.265625 C 22.960938 19.234375 23.023438 19.21875 23.097656 19.21875 C 23.203125 19.21875 23.28125 19.246094 23.332031 19.300781 C 23.382812 19.359375 23.410156 19.445312 23.410156 19.5625 L 23.410156 20.253906 L 23.257812 20.253906 L 23.257812 19.5625 C 23.257812 19.492188 23.242188 19.4375 23.210938 19.402344 C 23.183594 19.367188 23.132812 19.347656 23.0625 19.347656 C 22.980469 19.347656 22.914062 19.378906 22.863281 19.4375 C 22.8125 19.496094 22.789062 19.59375 22.789062 19.730469 L 22.789062 20.253906 L 22.636719 20.253906 L 22.636719 19.5625 C 22.636719 19.492188 22.621094 19.4375 22.589844 19.402344 C 22.558594 19.367188 22.507812 19.347656 22.441406 19.347656 C 22.359375 19.347656 22.292969 19.378906 22.242188 19.433594 C 22.191406 19.492188 22.164062 19.585938 22.164062 19.714844 L 22.164062 20.253906 Z M 22.015625 20.253906 " class="text" />
</g>
</svg>