<?xml version="1.0" encoding="UTF-8"?>
<svg xmlns="http://www.w3.org/2000/svg" xmlns:xlink="http://www.w3.org/1999/xlink" width="40px" height="40px" viewBox="0 0 40 40" version="1.1">
<g id="surface1">
<rect x="0" y="0" width="40" height="40" style="fill:rgb(100%,100%,100%);fill-opacity:1;stroke:none;"/>
<path style="fill:none;stroke-width:40;stroke-linecap:butt;stroke-linejoin:miter;stroke:rgb(0%,0%,0%);stroke-opacity:1;stroke-miterlimit:4;" d="M -0.0467987 19.963833 L 483.890701 19.963833 " transform="matrix(0.0208333,0.000000000000000015,-0.000000000000000015,0.0208333,10.0791,20.580181)"/>
<path style="fill:none;stroke-width:40;stroke-linecap:butt;stroke-linejoin:miter;stroke:rgb(0%,0%,0%);stroke-opacity:1;stroke-miterlimit:4;" d="M -0.0000266667 19.963833 L 438.749973 19.963833 " transform="matrix(0.0208333,0.000000000000000011,-0.000000000000000011,0.0208333,4.000001,20.580181)"/>
<path style="fill:none;stroke-width:40;stroke-linecap:butt;stroke-linejoin:miter;stroke:rgb(0%,0%,0%);stroke-opacity:1;stroke-miterlimit:4;" d="M 0.06288 19.963833 L 351.25038 19.963833 " transform="matrix(0.0208333,0,0,0.0208333,28.682284,20.580181)"/>
<path style="fill:none;stroke-width:40;stroke-linecap:butt;stroke-linejoin:miter;stroke:rgb(0%,0%,0%);stroke-opacity:1;stroke-miterlimit:4;" d="M -0.09386 19.963833 L 483.84364 19.963833 " transform="matrix(0.0208333,0.000000000000000034,-0.000000000000000034,0.0208333,19.841799,20.580181)"/>
<path style=" stroke:none;fill-rule:nonzero;fill:rgb(0%,0%,0%);fill-opacity:1;" d="M 16.917969 20.171875 C 16.917969 20.105469 16.925781 20.050781 16.9375 20.011719 C 16.953125 19.972656 16.976562 19.933594 17.011719 19.898438 C 17.046875 19.863281 17.101562 19.820312 17.179688 19.761719 L 17.308594 19.667969 C 17.359375 19.632812 17.398438 19.601562 17.429688 19.570312 C 17.457031 19.539062 17.484375 19.507812 17.5 19.472656 C 17.519531 19.4375 17.527344 19.398438 17.527344 19.355469 C 17.527344 19.285156 17.507812 19.230469 17.46875 19.195312 C 17.433594 19.160156 17.375 19.140625 17.292969 19.140625 C 17.230469 19.140625 17.175781 19.15625 17.125 19.1875 C 17.078125 19.214844 17.039062 19.257812 17.007812 19.308594 L 16.992188 19.3125 L 16.90625 19.226562 C 16.945312 19.160156 17 19.109375 17.066406 19.070312 C 17.128906 19.035156 17.207031 19.015625 17.292969 19.015625 C 17.378906 19.015625 17.449219 19.03125 17.503906 19.058594 C 17.5625 19.089844 17.601562 19.128906 17.628906 19.179688 C 17.65625 19.230469 17.667969 19.289062 17.667969 19.355469 C 17.667969 19.410156 17.660156 19.457031 17.636719 19.503906 C 17.613281 19.550781 17.582031 19.59375 17.542969 19.636719 C 17.5 19.675781 17.449219 19.71875 17.386719 19.761719 L 17.253906 19.859375 C 17.207031 19.898438 17.167969 19.929688 17.140625 19.953125 C 17.113281 19.980469 17.09375 20.003906 17.082031 20.027344 C 17.070312 20.050781 17.066406 20.078125 17.066406 20.109375 L 17.667969 20.109375 L 17.667969 20.226562 L 16.917969 20.226562 Z M 16.917969 20.171875 "/>
<path style=" stroke:none;fill-rule:nonzero;fill:rgb(0%,0%,0%);fill-opacity:1;" d="M 18.347656 20.242188 C 18.261719 20.242188 18.179688 20.222656 18.113281 20.179688 C 18.042969 20.136719 17.988281 20.070312 17.945312 19.976562 C 17.90625 19.886719 17.882812 19.769531 17.882812 19.628906 C 17.882812 19.488281 17.90625 19.371094 17.945312 19.28125 C 17.988281 19.1875 18.042969 19.121094 18.113281 19.078125 C 18.179688 19.039062 18.261719 19.015625 18.347656 19.015625 C 18.433594 19.015625 18.515625 19.039062 18.582031 19.078125 C 18.652344 19.121094 18.707031 19.1875 18.75 19.28125 C 18.789062 19.371094 18.8125 19.488281 18.8125 19.628906 C 18.8125 19.769531 18.789062 19.886719 18.75 19.976562 C 18.707031 20.070312 18.652344 20.136719 18.582031 20.179688 C 18.515625 20.222656 18.433594 20.242188 18.347656 20.242188 Z M 18.347656 20.113281 C 18.453125 20.113281 18.53125 20.074219 18.582031 20 C 18.636719 19.925781 18.664062 19.800781 18.664062 19.628906 C 18.664062 19.457031 18.636719 19.332031 18.582031 19.257812 C 18.53125 19.183594 18.453125 19.144531 18.347656 19.144531 C 18.277344 19.144531 18.222656 19.160156 18.175781 19.191406 C 18.128906 19.222656 18.09375 19.277344 18.066406 19.347656 C 18.042969 19.417969 18.03125 19.511719 18.03125 19.628906 C 18.03125 19.746094 18.042969 19.839844 18.066406 19.910156 C 18.09375 19.980469 18.128906 20.035156 18.175781 20.066406 C 18.222656 20.097656 18.277344 20.113281 18.347656 20.113281 Z M 18.347656 20.113281 "/>
<path style=" stroke:none;fill-rule:nonzero;fill:rgb(0%,0%,0%);fill-opacity:1;" d="M 19.519531 20.242188 C 19.433594 20.242188 19.351562 20.222656 19.285156 20.179688 C 19.214844 20.136719 19.160156 20.070312 19.117188 19.976562 C 19.078125 19.886719 19.054688 19.769531 19.054688 19.628906 C 19.054688 19.488281 19.078125 19.371094 19.117188 19.28125 C 19.160156 19.1875 19.214844 19.121094 19.285156 19.078125 C 19.351562 19.039062 19.433594 19.015625 19.519531 19.015625 C 19.605469 19.015625 19.6875 19.039062 19.753906 19.078125 C 19.824219 19.121094 19.878906 19.1875 19.921875 19.28125 C 19.960938 19.371094 19.984375 19.488281 19.984375 19.628906 C 19.984375 19.769531 19.960938 19.886719 19.921875 19.976562 C 19.878906 20.070312 19.824219 20.136719 19.753906 20.179688 C 19.6875 20.222656 19.605469 20.242188 19.519531 20.242188 Z M 19.519531 20.113281 C 19.625 20.113281 19.703125 20.074219 19.753906 20 C 19.808594 19.925781 19.835938 19.800781 19.835938 19.628906 C 19.835938 19.457031 19.808594 19.332031 19.753906 19.257812 C 19.703125 19.183594 19.625 19.144531 19.519531 19.144531 C 19.449219 19.144531 19.394531 19.160156 19.347656 19.191406 C 19.300781 19.222656 19.265625 19.277344 19.238281 19.347656 C 19.214844 19.417969 19.203125 19.511719 19.203125 19.628906 C 19.203125 19.746094 19.214844 19.839844 19.238281 19.910156 C 19.265625 19.980469 19.300781 20.035156 19.347656 20.066406 C 19.394531 20.097656 19.449219 20.113281 19.519531 20.113281 Z M 19.519531 20.113281 "/>
<path style=" stroke:none;fill-rule:nonzero;fill:rgb(0%,0%,0%);fill-opacity:1;" d="M 20.261719 20.226562 L 20.261719 19.324219 L 20.386719 19.324219 L 20.386719 19.457031 L 20.40625 19.460938 C 20.4375 19.410156 20.472656 19.375 20.515625 19.347656 C 20.558594 19.320312 20.609375 19.308594 20.671875 19.308594 C 20.742188 19.308594 20.792969 19.320312 20.832031 19.347656 C 20.871094 19.375 20.898438 19.417969 20.921875 19.476562 L 20.9375 19.476562 C 20.96875 19.421875 21.007812 19.378906 21.054688 19.351562 C 21.097656 19.324219 21.152344 19.308594 21.21875 19.308594 C 21.3125 19.308594 21.382812 19.332031 21.425781 19.382812 C 21.472656 19.433594 21.496094 19.511719 21.496094 19.613281 L 21.496094 20.226562 L 21.363281 20.226562 L 21.363281 19.613281 C 21.363281 19.550781 21.347656 19.503906 21.320312 19.472656 C 21.292969 19.441406 21.25 19.425781 21.1875 19.425781 C 21.117188 19.425781 21.058594 19.449219 21.011719 19.503906 C 20.96875 19.554688 20.945312 19.640625 20.945312 19.761719 L 20.945312 20.226562 L 20.8125 20.226562 L 20.8125 19.613281 C 20.8125 19.550781 20.796875 19.503906 20.769531 19.472656 C 20.742188 19.441406 20.699219 19.425781 20.636719 19.425781 C 20.566406 19.425781 20.507812 19.449219 20.460938 19.5 C 20.417969 19.550781 20.394531 19.632812 20.394531 19.746094 L 20.394531 20.226562 Z M 20.261719 20.226562 "/>
<path style=" stroke:none;fill-rule:nonzero;fill:rgb(0%,0%,0%);fill-opacity:1;" d="M 21.792969 20.226562 L 21.792969 19.324219 L 21.921875 19.324219 L 21.921875 19.457031 L 21.9375 19.460938 C 21.96875 19.410156 22.003906 19.375 22.046875 19.347656 C 22.089844 19.320312 22.144531 19.308594 22.203125 19.308594 C 22.273438 19.308594 22.328125 19.320312 22.363281 19.347656 C 22.402344 19.375 22.433594 19.417969 22.453125 19.476562 L 22.46875 19.476562 C 22.5 19.421875 22.539062 19.378906 22.585938 19.351562 C 22.628906 19.324219 22.6875 19.308594 22.753906 19.308594 C 22.84375 19.308594 22.914062 19.332031 22.957031 19.382812 C 23.003906 19.433594 23.027344 19.511719 23.027344 19.613281 L 23.027344 20.226562 L 22.894531 20.226562 L 22.894531 19.613281 C 22.894531 19.550781 22.878906 19.503906 22.851562 19.472656 C 22.824219 19.441406 22.78125 19.425781 22.71875 19.425781 C 22.648438 19.425781 22.589844 19.449219 22.542969 19.503906 C 22.5 19.554688 22.476562 19.640625 22.476562 19.761719 L 22.476562 20.226562 L 22.34375 20.226562 L 22.34375 19.613281 C 22.34375 19.550781 22.332031 19.503906 22.300781 19.472656 C 22.273438 19.441406 22.230469 19.425781 22.171875 19.425781 C 22.097656 19.425781 22.039062 19.449219 21.996094 19.5 C 21.949219 19.550781 21.925781 19.632812 21.925781 19.746094 L 21.925781 20.226562 Z M 21.792969 20.226562 "/>
</g>
</svg>
