<?xml version="1.0" encoding="UTF-8"?>
<svg xmlns="http://www.w3.org/2000/svg" xmlns:xlink="http://www.w3.org/1999/xlink" width="40px" height="40px" viewBox="0 0 40 40" version="1.1">
<g id="surface1">
<rect x="0" y="0" width="40" height="40" style="fill:rgb(100%,100%,100%);fill-opacity:1;stroke:none;"/>
<path style="fill:none;stroke-width:40;stroke-linecap:butt;stroke-linejoin:miter;stroke:rgb(0%,0%,0%);stroke-opacity:1;stroke-miterlimit:4;" d="M -0.0467987 20.023833 L 483.890701 20.023833 " transform="matrix(0.0208333,0.000000000000000015,-0.000000000000000015,0.0208333,10.0791,20.578931)"/>
<path style="fill:none;stroke-width:40;stroke-linecap:butt;stroke-linejoin:miter;stroke:rgb(0%,0%,0%);stroke-opacity:1;stroke-miterlimit:4;" d="M 0.0887533 20.023833 L 557.526253 20.023833 " transform="matrix(0.0208333,0,0,0.0208333,-0.298724,20.578931)"/>
<path style="fill:none;stroke-width:40;stroke-linecap:butt;stroke-linejoin:miter;stroke:rgb(0%,0%,0%);stroke-opacity:1;stroke-miterlimit:4;" d="M -0.059304 20.023833 L 620.565696 20.023833 " transform="matrix(0.0208333,0,0,0.0208333,28.755142,20.578931)"/>
<path style="fill:none;stroke-width:40;stroke-linecap:butt;stroke-linejoin:miter;stroke:rgb(0%,0%,0%);stroke-opacity:1;stroke-miterlimit:4;" d="M -0.09386 20.023833 L 483.84364 20.023833 " transform="matrix(0.0208333,0.000000000000000034,-0.000000000000000034,0.0208333,19.841799,20.578931)"/>
<path style=" stroke:none;fill-rule:nonzero;fill:rgb(0%,0%,0%);fill-opacity:1;" d="M 17.292969 20.238281 C 17.183594 20.238281 17.09375 20.210938 17.027344 20.164062 C 16.960938 20.113281 16.917969 20.042969 16.894531 19.953125 L 17 19.90625 L 17.019531 19.910156 C 17.03125 19.953125 17.050781 19.992188 17.070312 20.023438 C 17.09375 20.050781 17.121094 20.074219 17.160156 20.089844 C 17.195312 20.101562 17.238281 20.109375 17.292969 20.109375 C 17.375 20.109375 17.4375 20.085938 17.480469 20.039062 C 17.527344 19.992188 17.546875 19.921875 17.546875 19.828125 C 17.546875 19.734375 17.527344 19.664062 17.480469 19.617188 C 17.4375 19.566406 17.378906 19.542969 17.300781 19.542969 C 17.242188 19.542969 17.191406 19.554688 17.15625 19.578125 C 17.117188 19.601562 17.085938 19.640625 17.058594 19.6875 L 16.945312 19.679688 L 16.96875 19.027344 L 17.636719 19.027344 L 17.636719 19.148438 L 17.089844 19.148438 L 17.078125 19.542969 L 17.09375 19.546875 C 17.121094 19.503906 17.15625 19.472656 17.195312 19.453125 C 17.238281 19.433594 17.285156 19.421875 17.34375 19.421875 C 17.414062 19.421875 17.476562 19.4375 17.527344 19.46875 C 17.582031 19.503906 17.621094 19.550781 17.652344 19.609375 C 17.679688 19.671875 17.695312 19.742188 17.695312 19.828125 C 17.695312 19.914062 17.679688 19.988281 17.644531 20.046875 C 17.609375 20.109375 17.5625 20.15625 17.503906 20.1875 C 17.445312 20.222656 17.375 20.238281 17.292969 20.238281 Z M 17.292969 20.238281 "/>
<path style=" stroke:none;fill-rule:nonzero;fill:rgb(0%,0%,0%);fill-opacity:1;" d="M 18.375 20.238281 C 18.289062 20.238281 18.207031 20.214844 18.140625 20.175781 C 18.070312 20.132812 18.015625 20.066406 17.972656 19.972656 C 17.929688 19.882812 17.910156 19.765625 17.910156 19.625 C 17.910156 19.484375 17.929688 19.367188 17.972656 19.273438 C 18.015625 19.183594 18.070312 19.117188 18.140625 19.074219 C 18.207031 19.03125 18.289062 19.011719 18.375 19.011719 C 18.460938 19.011719 18.539062 19.03125 18.609375 19.074219 C 18.679688 19.117188 18.734375 19.183594 18.777344 19.273438 C 18.816406 19.367188 18.835938 19.484375 18.835938 19.625 C 18.835938 19.765625 18.816406 19.882812 18.777344 19.972656 C 18.734375 20.066406 18.679688 20.132812 18.609375 20.175781 C 18.539062 20.214844 18.460938 20.238281 18.375 20.238281 Z M 18.375 20.109375 C 18.476562 20.109375 18.558594 20.070312 18.609375 19.996094 C 18.664062 19.921875 18.691406 19.796875 18.691406 19.625 C 18.691406 19.453125 18.664062 19.328125 18.609375 19.253906 C 18.558594 19.179688 18.476562 19.140625 18.375 19.140625 C 18.304688 19.140625 18.25 19.15625 18.203125 19.1875 C 18.15625 19.21875 18.121094 19.269531 18.09375 19.34375 C 18.070312 19.414062 18.058594 19.507812 18.058594 19.625 C 18.058594 19.742188 18.070312 19.835938 18.09375 19.90625 C 18.121094 19.976562 18.15625 20.027344 18.203125 20.058594 C 18.25 20.09375 18.304688 20.109375 18.375 20.109375 Z M 18.375 20.109375 "/>
<path style=" stroke:none;fill-rule:nonzero;fill:rgb(0%,0%,0%);fill-opacity:1;" d="M 19.546875 20.238281 C 19.460938 20.238281 19.378906 20.214844 19.3125 20.175781 C 19.242188 20.132812 19.1875 20.066406 19.144531 19.972656 C 19.101562 19.882812 19.082031 19.765625 19.082031 19.625 C 19.082031 19.484375 19.101562 19.367188 19.144531 19.273438 C 19.1875 19.183594 19.242188 19.117188 19.3125 19.074219 C 19.378906 19.03125 19.460938 19.011719 19.546875 19.011719 C 19.632812 19.011719 19.710938 19.03125 19.78125 19.074219 C 19.851562 19.117188 19.90625 19.183594 19.949219 19.273438 C 19.988281 19.367188 20.007812 19.484375 20.007812 19.625 C 20.007812 19.765625 19.988281 19.882812 19.949219 19.972656 C 19.90625 20.066406 19.851562 20.132812 19.78125 20.175781 C 19.710938 20.214844 19.632812 20.238281 19.546875 20.238281 Z M 19.546875 20.109375 C 19.648438 20.109375 19.730469 20.070312 19.78125 19.996094 C 19.835938 19.921875 19.863281 19.796875 19.863281 19.625 C 19.863281 19.453125 19.835938 19.328125 19.78125 19.253906 C 19.730469 19.179688 19.648438 19.140625 19.546875 19.140625 C 19.476562 19.140625 19.421875 19.15625 19.375 19.1875 C 19.328125 19.21875 19.292969 19.269531 19.265625 19.34375 C 19.242188 19.414062 19.230469 19.507812 19.230469 19.625 C 19.230469 19.742188 19.242188 19.835938 19.265625 19.90625 C 19.292969 19.976562 19.328125 20.027344 19.375 20.058594 C 19.421875 20.09375 19.476562 20.109375 19.546875 20.109375 Z M 19.546875 20.109375 "/>
<path style=" stroke:none;fill-rule:nonzero;fill:rgb(0%,0%,0%);fill-opacity:1;" d="M 20.289062 20.21875 L 20.289062 19.320312 L 20.414062 19.320312 L 20.414062 19.453125 L 20.433594 19.457031 C 20.460938 19.40625 20.5 19.367188 20.542969 19.34375 C 20.585938 19.316406 20.636719 19.304688 20.699219 19.304688 C 20.769531 19.304688 20.820312 19.316406 20.859375 19.34375 C 20.898438 19.371094 20.925781 19.414062 20.949219 19.472656 L 20.964844 19.472656 C 20.996094 19.417969 21.035156 19.375 21.078125 19.347656 C 21.125 19.316406 21.179688 19.304688 21.246094 19.304688 C 21.339844 19.304688 21.410156 19.328125 21.453125 19.378906 C 21.5 19.429688 21.523438 19.503906 21.523438 19.605469 L 21.523438 20.21875 L 21.390625 20.21875 L 21.390625 19.609375 C 21.390625 19.546875 21.375 19.496094 21.347656 19.464844 C 21.320312 19.433594 21.277344 19.417969 21.214844 19.417969 C 21.144531 19.417969 21.085938 19.445312 21.039062 19.496094 C 20.996094 19.550781 20.972656 19.636719 20.972656 19.753906 L 20.972656 20.21875 L 20.839844 20.21875 L 20.839844 19.609375 C 20.839844 19.546875 20.824219 19.496094 20.796875 19.464844 C 20.769531 19.433594 20.726562 19.417969 20.664062 19.417969 C 20.59375 19.417969 20.535156 19.445312 20.488281 19.496094 C 20.445312 19.546875 20.421875 19.628906 20.421875 19.742188 L 20.421875 20.21875 Z M 20.289062 20.21875 "/>
<path style=" stroke:none;fill-rule:nonzero;fill:rgb(0%,0%,0%);fill-opacity:1;" d="M 21.820312 20.21875 L 21.820312 19.320312 L 21.949219 19.320312 L 21.949219 19.453125 L 21.964844 19.457031 C 21.996094 19.40625 22.03125 19.367188 22.074219 19.34375 C 22.117188 19.316406 22.167969 19.304688 22.230469 19.304688 C 22.300781 19.304688 22.351562 19.316406 22.390625 19.34375 C 22.429688 19.371094 22.460938 19.414062 22.480469 19.472656 L 22.496094 19.472656 C 22.527344 19.417969 22.566406 19.375 22.613281 19.347656 C 22.65625 19.316406 22.714844 19.304688 22.78125 19.304688 C 22.871094 19.304688 22.941406 19.328125 22.984375 19.378906 C 23.03125 19.429688 23.054688 19.503906 23.054688 19.605469 L 23.054688 20.21875 L 22.921875 20.21875 L 22.921875 19.609375 C 22.921875 19.546875 22.90625 19.496094 22.878906 19.464844 C 22.851562 19.433594 22.808594 19.417969 22.746094 19.417969 C 22.675781 19.417969 22.617188 19.445312 22.570312 19.496094 C 22.527344 19.550781 22.503906 19.636719 22.503906 19.753906 L 22.503906 20.21875 L 22.371094 20.21875 L 22.371094 19.609375 C 22.371094 19.546875 22.355469 19.496094 22.328125 19.464844 C 22.300781 19.433594 22.257812 19.417969 22.199219 19.417969 C 22.125 19.417969 22.066406 19.445312 22.023438 19.496094 C 21.976562 19.546875 21.953125 19.628906 21.953125 19.742188 L 21.953125 20.21875 Z M 21.820312 20.21875 "/>
</g>
</svg>
