<?xml version="1.0" encoding="UTF-8"?>
<svg xmlns="http://www.w3.org/2000/svg" xmlns:xlink="http://www.w3.org/1999/xlink" width="40px" height="40px" viewBox="0 0 40 40" version="1.1">
<g id="surface1">
<rect x="0" y="0" width="40" height="40" style="fill:rgb(100%,100%,100%);fill-opacity:1;stroke:none;"/>
<path style="fill:none;stroke-width:45;stroke-linecap:butt;stroke-linejoin:miter;stroke:rgb(0%,0%,0%);stroke-opacity:1;stroke-miterlimit:4;" d="M 0.012032 22.536306 L 547.512032 22.536306 " transform="matrix(0.0208333,0.000000000000000035,-0.000000000000000035,0.0208333,14.296624,20.6594)"/>
<path style=" stroke:none;fill-rule:nonzero;fill:rgb(0%,0%,0%);fill-opacity:1;" d="M 17.601562 20.273438 C 17.472656 20.273438 17.375 20.246094 17.296875 20.191406 C 17.222656 20.132812 17.171875 20.054688 17.152344 19.953125 L 17.269531 19.898438 L 17.289062 19.902344 C 17.304688 19.953125 17.324219 19.996094 17.351562 20.03125 C 17.375 20.0625 17.40625 20.089844 17.449219 20.105469 C 17.488281 20.121094 17.539062 20.128906 17.601562 20.128906 C 17.691406 20.128906 17.761719 20.105469 17.8125 20.050781 C 17.863281 19.996094 17.890625 19.914062 17.890625 19.8125 C 17.890625 19.707031 17.863281 19.625 17.8125 19.570312 C 17.765625 19.515625 17.695312 19.488281 17.609375 19.488281 C 17.539062 19.488281 17.484375 19.5 17.445312 19.527344 C 17.402344 19.554688 17.367188 19.597656 17.332031 19.652344 L 17.207031 19.640625 L 17.230469 18.90625 L 17.988281 18.90625 L 17.988281 19.039062 L 17.371094 19.039062 L 17.355469 19.488281 L 17.375 19.492188 C 17.40625 19.445312 17.445312 19.410156 17.492188 19.386719 C 17.535156 19.363281 17.589844 19.351562 17.65625 19.351562 C 17.734375 19.351562 17.804688 19.371094 17.867188 19.40625 C 17.925781 19.441406 17.972656 19.496094 18.003906 19.5625 C 18.039062 19.632812 18.054688 19.714844 18.054688 19.8125 C 18.054688 19.90625 18.035156 19.992188 18 20.058594 C 17.960938 20.128906 17.90625 20.183594 17.839844 20.21875 C 17.769531 20.253906 17.691406 20.273438 17.601562 20.273438 Z M 17.601562 20.273438 "/>
<path style=" stroke:none;fill-rule:nonzero;fill:rgb(0%,0%,0%);fill-opacity:1;" d="M 18.824219 20.273438 C 18.726562 20.273438 18.636719 20.25 18.558594 20.203125 C 18.480469 20.15625 18.417969 20.078125 18.371094 19.976562 C 18.324219 19.871094 18.300781 19.738281 18.300781 19.582031 C 18.300781 19.421875 18.324219 19.289062 18.371094 19.183594 C 18.417969 19.082031 18.480469 19.007812 18.558594 18.957031 C 18.636719 18.910156 18.726562 18.886719 18.824219 18.886719 C 18.921875 18.886719 19.011719 18.910156 19.089844 18.957031 C 19.167969 19.007812 19.230469 19.082031 19.277344 19.183594 C 19.324219 19.289062 19.347656 19.421875 19.347656 19.582031 C 19.347656 19.738281 19.324219 19.871094 19.277344 19.976562 C 19.230469 20.078125 19.167969 20.15625 19.089844 20.203125 C 19.011719 20.25 18.921875 20.273438 18.824219 20.273438 Z M 18.824219 20.128906 C 18.941406 20.128906 19.03125 20.085938 19.089844 20 C 19.152344 19.914062 19.183594 19.777344 19.183594 19.582031 C 19.183594 19.386719 19.152344 19.246094 19.089844 19.160156 C 19.03125 19.074219 18.941406 19.03125 18.824219 19.03125 C 18.746094 19.03125 18.679688 19.050781 18.628906 19.085938 C 18.574219 19.121094 18.535156 19.179688 18.507812 19.261719 C 18.480469 19.34375 18.464844 19.449219 18.464844 19.582031 C 18.464844 19.710938 18.480469 19.820312 18.507812 19.898438 C 18.535156 19.980469 18.574219 20.039062 18.628906 20.074219 C 18.679688 20.109375 18.746094 20.128906 18.824219 20.128906 Z M 18.824219 20.128906 "/>
<path style=" stroke:none;fill-rule:nonzero;fill:rgb(0%,0%,0%);fill-opacity:1;" d="M 19.664062 20.253906 L 19.664062 19.238281 L 19.808594 19.238281 L 19.808594 19.386719 L 19.828125 19.390625 C 19.859375 19.332031 19.902344 19.289062 19.953125 19.261719 C 20 19.230469 20.058594 19.21875 20.128906 19.21875 C 20.207031 19.21875 20.265625 19.234375 20.308594 19.261719 C 20.351562 19.292969 20.386719 19.339844 20.410156 19.40625 L 20.429688 19.40625 C 20.464844 19.34375 20.507812 19.296875 20.558594 19.265625 C 20.609375 19.234375 20.675781 19.21875 20.75 19.21875 C 20.851562 19.21875 20.929688 19.246094 20.980469 19.300781 C 21.035156 19.359375 21.058594 19.445312 21.058594 19.5625 L 21.058594 20.253906 L 20.910156 20.253906 L 20.910156 19.5625 C 20.910156 19.492188 20.894531 19.4375 20.863281 19.402344 C 20.832031 19.367188 20.78125 19.347656 20.710938 19.347656 C 20.632812 19.347656 20.566406 19.378906 20.515625 19.4375 C 20.460938 19.496094 20.4375 19.59375 20.4375 19.730469 L 20.4375 20.253906 L 20.285156 20.253906 L 20.285156 19.5625 C 20.285156 19.492188 20.269531 19.4375 20.238281 19.402344 C 20.210938 19.367188 20.160156 19.347656 20.089844 19.347656 C 20.007812 19.347656 19.941406 19.378906 19.890625 19.433594 C 19.839844 19.492188 19.8125 19.585938 19.8125 19.714844 L 19.8125 20.253906 Z M 19.664062 20.253906 "/>
<path style=" stroke:none;fill-rule:nonzero;fill:rgb(0%,0%,0%);fill-opacity:1;" d="M 21.398438 20.253906 L 21.398438 19.238281 L 21.539062 19.238281 L 21.539062 19.386719 L 21.558594 19.390625 C 21.59375 19.332031 21.636719 19.289062 21.683594 19.261719 C 21.734375 19.230469 21.792969 19.21875 21.859375 19.21875 C 21.941406 19.21875 22 19.234375 22.042969 19.261719 C 22.085938 19.292969 22.121094 19.339844 22.144531 19.40625 L 22.164062 19.40625 C 22.199219 19.34375 22.242188 19.296875 22.292969 19.265625 C 22.34375 19.234375 22.40625 19.21875 22.484375 19.21875 C 22.585938 19.21875 22.664062 19.246094 22.714844 19.300781 C 22.769531 19.359375 22.792969 19.445312 22.792969 19.5625 L 22.792969 20.253906 L 22.644531 20.253906 L 22.644531 19.5625 C 22.644531 19.492188 22.628906 19.4375 22.597656 19.402344 C 22.566406 19.367188 22.515625 19.347656 22.445312 19.347656 C 22.367188 19.347656 22.300781 19.378906 22.246094 19.4375 C 22.195312 19.496094 22.171875 19.59375 22.171875 19.730469 L 22.171875 20.253906 L 22.019531 20.253906 L 22.019531 19.5625 C 22.019531 19.492188 22.003906 19.4375 21.972656 19.402344 C 21.941406 19.367188 21.894531 19.347656 21.824219 19.347656 C 21.742188 19.347656 21.675781 19.378906 21.625 19.433594 C 21.574219 19.492188 21.546875 19.585938 21.546875 19.714844 L 21.546875 20.253906 Z M 21.398438 20.253906 "/>
</g>
</svg>
