<?xml version="1.0" encoding="UTF-8"?>
<svg xmlns="http://www.w3.org/2000/svg" xmlns:xlink="http://www.w3.org/1999/xlink" width="40px" height="40px" viewBox="0 0 40 40" version="1.1">
<g id="surface1">
<rect x="0" y="0" width="40" height="40" style="fill:rgb(100%,100%,100%);fill-opacity:1;stroke:none;"/>
<path style=" stroke:none;fill-rule:nonzero;fill:rgb(0%,0%,0%);fill-opacity:1;" d="M 20 0 C 8.953125 0 0 8.960938 0 20 C 0 31.039062 8.953125 40 20 40 C 31.046875 40 40 31.039062 40 20 C 40 8.960938 31.046875 0 20 0 Z M 20 38.734375 C 9.652344 38.734375 1.265625 30.347656 1.265625 20 C 1.265625 9.652344 9.652344 1.265625 20 1.265625 C 30.347656 1.265625 38.734375 9.652344 38.734375 20 C 38.734375 30.347656 30.347656 38.734375 20 38.734375 Z M 20 38.734375 "/>
<path style=" stroke:none;fill-rule:nonzero;fill:rgb(0%,0%,0%);fill-opacity:1;" d="M 7.160156 24.871094 L 5.332031 24.871094 L 8.007812 20.226562 L 5.460938 15.84375 L 7.359375 15.84375 L 9.230469 19.078125 L 9.382812 19.078125 L 11.285156 15.84375 L 13.089844 15.84375 L 10.542969 20.226562 L 13.21875 24.871094 L 11.328125 24.871094 L 9.320312 21.390625 L 9.167969 21.390625 Z M 7.160156 24.871094 "/>
<path style=" stroke:none;fill-rule:nonzero;fill:rgb(0%,0%,0%);fill-opacity:1;" d="M 21.300781 24.871094 L 19.515625 24.871094 L 19.515625 21.328125 L 16.398438 15.84375 L 18.3125 15.84375 L 20.375 19.394531 L 20.53125 19.394531 L 22.550781 15.84375 L 24.421875 15.84375 L 21.300781 21.328125 Z M 21.300781 24.871094 "/>
<path style=" stroke:none;fill-rule:nonzero;fill:rgb(0%,0%,0%);fill-opacity:1;" d="M 34.445312 24.871094 L 27.816406 24.871094 L 27.816406 23.296875 L 32.34375 17.46875 L 32.300781 17.339844 L 27.996094 17.339844 L 27.996094 15.84375 L 34.402344 15.84375 L 34.402344 17.417969 L 29.875 23.25 L 29.917969 23.378906 L 34.445312 23.378906 Z M 34.445312 24.871094 "/>
</g>
</svg>
