<?xml version="1.0" encoding="UTF-8"?>
<svg xmlns="http://www.w3.org/2000/svg" xmlns:xlink="http://www.w3.org/1999/xlink" width="40px" height="40px" viewBox="0 0 40 40" version="1.1">
<defs>
<clipPath id="clip1">
  <path d="M 0.972656 11.492188 L 34.375 11.492188 L 34.375 21.609375 L 0.972656 21.609375 Z M 0.972656 11.492188 "/>
</clipPath>
<clipPath id="clip2">
  <path d="M 0.640625 7.101562 L 22.609375 7.101562 L 22.609375 17.222656 L 0.640625 17.222656 Z M 0.640625 7.101562 "/>
</clipPath>
<clipPath id="clip3">
  <path d="M 0.648438 24.332031 L 22.605469 24.332031 L 22.605469 34.4375 L 0.648438 34.4375 Z M 0.648438 24.332031 "/>
</clipPath>
</defs>
<g id="surface1">
<rect x="0" y="0" width="40" height="40" style="fill:rgb(100%,100%,100%);fill-opacity:1;stroke:none;"/>
<path style=" stroke:none;fill-rule:nonzero;fill:rgb(0%,0%,0%);fill-opacity:1;" d="M 20 0 C 8.953125 0 0 8.960938 0 20 C 0 31.039062 8.953125 40 20 40 C 31.046875 40 40 31.039062 40 20 C 40 8.960938 31.046875 0 20 0 Z M 20 38.734375 C 9.652344 38.734375 1.265625 30.347656 1.265625 20 C 1.265625 9.652344 9.652344 1.265625 20 1.265625 C 30.347656 1.265625 38.734375 9.652344 38.734375 20 C 38.734375 30.347656 30.347656 38.734375 20 38.734375 Z M 20 38.734375 "/>
<g clip-path="url(#clip1)" clip-rule="nonzero">
<path style=" stroke:none;fill-rule:nonzero;fill:rgb(0%,0%,0%);fill-opacity:1;" d="M 1.507812 20.53125 C 1.21875 20.53125 0.980469 20.769531 0.980469 21.058594 C 0.980469 21.351562 1.21875 21.585938 1.507812 21.585938 L 29.328125 21.585938 C 30.722656 21.585938 31.984375 21.023438 32.898438 20.109375 C 33.808594 19.195312 34.375 17.933594 34.375 16.539062 C 34.375 15.148438 33.808594 13.886719 32.898438 12.972656 C 31.984375 12.058594 30.722656 11.496094 29.328125 11.496094 C 27.9375 11.496094 26.675781 12.058594 25.761719 12.972656 C 24.847656 13.886719 24.28125 15.148438 24.28125 16.539062 C 24.28125 16.832031 24.519531 17.066406 24.808594 17.066406 C 25.101562 17.066406 25.335938 16.832031 25.335938 16.539062 C 25.335938 15.4375 25.785156 14.441406 26.507812 13.71875 C 27.226562 12.996094 28.226562 12.546875 29.328125 12.546875 C 30.429688 12.546875 31.429688 12.996094 32.152344 13.71875 C 32.875 14.441406 33.320312 15.4375 33.320312 16.539062 C 33.320312 17.644531 32.875 18.640625 32.152344 19.363281 C 31.429688 20.085938 30.429688 20.53125 29.328125 20.53125 L 1.507812 20.53125 "/>
</g>
<g clip-path="url(#clip2)" clip-rule="nonzero">
<path style=" stroke:none;fill-rule:nonzero;fill:rgb(0%,0%,0%);fill-opacity:1;" d="M 1.175781 16.140625 C 0.886719 16.140625 0.648438 16.378906 0.648438 16.667969 C 0.648438 16.960938 0.886719 17.195312 1.175781 17.195312 L 17.554688 17.195312 C 18.949219 17.195312 20.210938 16.628906 21.121094 15.71875 C 22.035156 14.804688 22.601562 13.542969 22.601562 12.148438 C 22.601562 10.753906 22.035156 9.496094 21.121094 8.582031 C 20.210938 7.667969 18.949219 7.101562 17.554688 7.101562 C 16.160156 7.101562 14.898438 7.667969 13.984375 8.582031 C 13.074219 9.496094 12.507812 10.753906 12.507812 12.148438 C 12.507812 12.441406 12.742188 12.675781 13.035156 12.675781 C 13.324219 12.675781 13.5625 12.441406 13.5625 12.148438 C 13.5625 11.046875 14.007812 10.046875 14.730469 9.328125 C 15.453125 8.605469 16.453125 8.15625 17.554688 8.15625 C 18.65625 8.15625 19.65625 8.605469 20.375 9.328125 C 21.101562 10.046875 21.546875 11.046875 21.546875 12.148438 C 21.546875 13.25 21.101562 14.25 20.375 14.972656 C 19.65625 15.695312 18.65625 16.140625 17.554688 16.140625 L 1.175781 16.140625 "/>
</g>
<g clip-path="url(#clip3)" clip-rule="nonzero">
<path style=" stroke:none;fill-rule:nonzero;fill:rgb(0%,0%,0%);fill-opacity:1;" d="M 1.175781 24.351562 C 0.886719 24.351562 0.648438 24.585938 0.648438 24.878906 C 0.648438 25.167969 0.886719 25.40625 1.175781 25.40625 L 17.554688 25.40625 C 18.65625 25.40625 19.65625 25.851562 20.375 26.574219 C 21.101562 27.296875 21.546875 28.292969 21.546875 29.398438 C 21.546875 30.5 21.101562 31.496094 20.375 32.21875 C 19.65625 32.941406 18.65625 33.390625 17.554688 33.390625 C 16.453125 33.390625 15.453125 32.941406 14.730469 32.21875 C 14.007812 31.496094 13.5625 30.5 13.5625 29.398438 C 13.5625 29.105469 13.324219 28.871094 13.035156 28.871094 C 12.742188 28.871094 12.507812 29.105469 12.507812 29.398438 C 12.507812 30.789062 13.074219 32.050781 13.984375 32.964844 C 14.898438 33.878906 16.160156 34.441406 17.554688 34.441406 C 18.949219 34.441406 20.210938 33.878906 21.121094 32.964844 C 22.035156 32.050781 22.601562 30.789062 22.601562 29.398438 C 22.601562 28.003906 22.035156 26.742188 21.121094 25.828125 C 20.210938 24.914062 18.949219 24.351562 17.554688 24.351562 L 1.175781 24.351562 "/>
</g>
</g>
</svg>
