<?xml version="1.0" encoding="UTF-8"?>
<svg xmlns="http://www.w3.org/2000/svg" xmlns:xlink="http://www.w3.org/1999/xlink" width="40px" height="40px" viewBox="0 0 40 40" version="1.1">
<defs>
<clipPath id="clip1">
  <path d="M 19.5 7.28125 L 20.5 7.28125 L 20.5 11.167969 L 19.5 11.167969 Z M 19.5 7.28125 "/>
</clipPath>
<clipPath id="clip2">
  <path d="M 28.152344 18.804688 L 32.019531 18.804688 L 32.019531 19.804688 L 28.152344 19.804688 Z M 28.152344 18.804688 "/>
</clipPath>
<clipPath id="clip3">
  <path d="M 7.980469 18.804688 L 11.859375 18.804688 L 11.859375 19.804688 L 7.980469 19.804688 Z M 7.980469 18.804688 "/>
</clipPath>
<clipPath id="clip4">
  <path d="M 17.332031 31.082031 L 22.609375 31.082031 L 22.609375 32.71875 L 17.332031 32.71875 Z M 17.332031 31.082031 "/>
</clipPath>
</defs>
<g id="surface1">
<rect x="0" y="0" width="40" height="40" style="fill:rgb(100%,100%,100%);fill-opacity:1;stroke:none;"/>
<path style=" stroke:none;fill-rule:nonzero;fill:rgb(0%,0%,0%);fill-opacity:1;" d="M 20 0 C 8.953125 0 0 8.960938 0 20 C 0 31.039062 8.953125 40 20 40 C 31.046875 40 40 31.039062 40 20 C 40 8.960938 31.046875 0 20 0 Z M 20 38.734375 C 9.652344 38.734375 1.265625 30.347656 1.265625 20 C 1.265625 9.652344 9.652344 1.265625 20 1.265625 C 30.347656 1.265625 38.734375 9.652344 38.734375 20 C 38.734375 30.347656 30.347656 38.734375 20 38.734375 Z M 20 38.734375 "/>
<path style=" stroke:none;fill-rule:nonzero;fill:rgb(0%,0%,0%);fill-opacity:1;" d="M 24.125 22.496094 C 22.65625 24.273438 22.65625 25.792969 22.65625 25.792969 L 22.65625 26.824219 L 17.339844 26.824219 L 17.339844 25.792969 C 17.339844 25.792969 17.339844 24.273438 15.875 22.496094 C 15.875 22.496094 14.058594 20.375 15.082031 17.628906 C 16.082031 14.957031 18.410156 14.113281 19.878906 14.113281 C 19.921875 14.113281 19.960938 14.113281 20 14.117188 C 20.039062 14.113281 20.078125 14.113281 20.117188 14.113281 C 21.589844 14.113281 23.917969 14.957031 24.914062 17.628906 C 25.941406 20.375 24.125 22.496094 24.125 22.496094 Z M 26.191406 19.59375 C 26.226562 18.816406 26.105469 18.039062 25.824219 17.292969 C 25.550781 16.554688 25.171875 15.894531 24.695312 15.328125 C 24.269531 14.820312 23.765625 14.386719 23.199219 14.042969 C 22.703125 13.738281 22.167969 13.503906 21.605469 13.351562 C 21.109375 13.214844 20.59375 13.144531 20.117188 13.144531 C 20.078125 13.144531 20.039062 13.144531 20 13.144531 C 19.960938 13.144531 19.921875 13.144531 19.878906 13.144531 C 19.40625 13.144531 18.890625 13.214844 18.394531 13.351562 C 17.832031 13.503906 17.292969 13.738281 16.796875 14.042969 C 16.234375 14.386719 15.730469 14.820312 15.304688 15.328125 C 14.828125 15.894531 14.449219 16.554688 14.175781 17.292969 C 13.894531 18.039062 13.769531 18.816406 13.804688 19.59375 C 13.832031 20.210938 13.960938 20.828125 14.1875 21.429688 C 14.546875 22.398438 15.042969 23.011719 15.128906 23.117188 C 15.78125 23.910156 16.089844 24.628906 16.230469 25.09375 C 16.359375 25.515625 16.371094 25.792969 16.371094 25.792969 L 16.371094 27.097656 C 16.371094 27.484375 16.683594 27.792969 17.066406 27.792969 L 22.933594 27.792969 C 23.316406 27.792969 23.628906 27.484375 23.628906 27.097656 L 23.628906 25.804688 C 23.628906 25.769531 23.644531 25.46875 23.796875 25.011719 C 23.941406 24.566406 24.246094 23.875 24.867188 23.117188 C 24.957031 23.011719 25.453125 22.398438 25.8125 21.429688 C 26.039062 20.828125 26.164062 20.210938 26.191406 19.59375 "/>
<g clip-path="url(#clip1)" clip-rule="nonzero">
<path style=" stroke:none;fill-rule:nonzero;fill:rgb(0%,0%,0%);fill-opacity:1;" d="M 20.484375 7.78125 C 20.484375 7.511719 20.265625 7.296875 20 7.296875 C 19.730469 7.296875 19.515625 7.511719 19.515625 7.78125 L 19.515625 11.160156 L 20.484375 11.160156 L 20.484375 7.78125 "/>
</g>
<g clip-path="url(#clip2)" clip-rule="nonzero">
<path style=" stroke:none;fill-rule:nonzero;fill:rgb(0%,0%,0%);fill-opacity:1;" d="M 31.535156 18.828125 L 28.15625 18.828125 L 28.15625 19.800781 L 31.535156 19.800781 C 31.800781 19.800781 32.019531 19.582031 32.019531 19.3125 C 32.019531 19.046875 31.800781 18.828125 31.535156 18.828125 "/>
</g>
<path style=" stroke:none;fill-rule:nonzero;fill:rgb(0%,0%,0%);fill-opacity:1;" d="M 26.109375 24.738281 L 25.421875 25.421875 L 27.8125 27.8125 C 28.003906 28.003906 28.308594 28.003906 28.5 27.8125 C 28.6875 27.625 28.6875 27.316406 28.5 27.125 L 26.109375 24.738281 "/>
<path style=" stroke:none;fill-rule:nonzero;fill:rgb(0%,0%,0%);fill-opacity:1;" d="M 28.5 11.5 C 28.6875 11.3125 28.6875 11.003906 28.5 10.816406 C 28.308594 10.625 28.003906 10.625 27.8125 10.816406 L 25.421875 13.203125 L 26.109375 13.890625 L 28.5 11.5 "/>
<g clip-path="url(#clip3)" clip-rule="nonzero">
<path style=" stroke:none;fill-rule:nonzero;fill:rgb(0%,0%,0%);fill-opacity:1;" d="M 11.84375 18.828125 L 8.464844 18.828125 C 8.195312 18.828125 7.980469 19.046875 7.980469 19.3125 C 7.980469 19.582031 8.195312 19.800781 8.464844 19.800781 L 11.84375 19.800781 L 11.84375 18.828125 "/>
</g>
<path style=" stroke:none;fill-rule:nonzero;fill:rgb(0%,0%,0%);fill-opacity:1;" d="M 11.5 27.125 C 11.308594 27.316406 11.308594 27.625 11.5 27.8125 C 11.6875 28.003906 11.996094 28.003906 12.1875 27.8125 L 14.574219 25.421875 L 13.890625 24.738281 L 11.5 27.125 "/>
<path style=" stroke:none;fill-rule:nonzero;fill:rgb(0%,0%,0%);fill-opacity:1;" d="M 13.890625 13.890625 L 14.574219 13.203125 L 12.1875 10.816406 C 11.996094 10.625 11.6875 10.625 11.5 10.816406 C 11.308594 11.003906 11.308594 11.3125 11.5 11.5 L 13.890625 13.890625 "/>
<path style=" stroke:none;fill-rule:nonzero;fill:rgb(0%,0%,0%);fill-opacity:1;" d="M 19.90625 15.351562 C 19.886719 15.070312 19.625 14.867188 19.347656 14.914062 C 18.050781 15.128906 17.246094 15.78125 16.789062 16.320312 C 16.542969 16.609375 16.371094 16.894531 16.253906 17.128906 C 16.117188 17.398438 16.261719 17.726562 16.554688 17.804688 L 16.566406 17.808594 C 16.785156 17.867188 17.015625 17.765625 17.117188 17.5625 C 17.378906 17.046875 18.042969 16.117188 19.503906 15.871094 C 19.75 15.832031 19.921875 15.613281 19.90625 15.367188 L 19.90625 15.351562 "/>
<path style=" stroke:none;fill-rule:nonzero;fill:rgb(0%,0%,0%);fill-opacity:1;" d="M 22.714844 28.246094 L 17.25 28.246094 C 16.992188 28.246094 16.78125 28.464844 16.78125 28.730469 C 16.78125 29 16.992188 29.21875 17.25 29.21875 L 22.714844 29.21875 C 22.972656 29.21875 23.183594 29 23.183594 28.730469 C 23.183594 28.464844 22.972656 28.246094 22.714844 28.246094 "/>
<path style=" stroke:none;fill-rule:nonzero;fill:rgb(0%,0%,0%);fill-opacity:1;" d="M 22.714844 29.671875 L 17.25 29.671875 C 16.992188 29.671875 16.78125 29.886719 16.78125 30.15625 C 16.78125 30.425781 16.992188 30.640625 17.25 30.640625 L 22.714844 30.640625 C 22.972656 30.640625 23.183594 30.425781 23.183594 30.15625 C 23.183594 29.886719 22.972656 29.671875 22.714844 29.671875 "/>
<g clip-path="url(#clip4)" clip-rule="nonzero">
<path style=" stroke:none;fill-rule:nonzero;fill:rgb(0%,0%,0%);fill-opacity:1;" d="M 22.445312 31.09375 L 17.519531 31.09375 C 17.378906 31.09375 17.304688 31.269531 17.40625 31.371094 L 18.222656 32.1875 C 18.460938 32.425781 18.769531 32.582031 19.101562 32.636719 C 19.328125 32.671875 19.625 32.699219 19.984375 32.699219 C 20.34375 32.699219 20.636719 32.671875 20.863281 32.636719 C 21.199219 32.582031 21.503906 32.425781 21.742188 32.1875 L 22.558594 31.371094 C 22.660156 31.269531 22.589844 31.09375 22.445312 31.09375 "/>
</g>
</g>
</svg>
