<?xml version="1.0" encoding="UTF-8"?>
<svg xmlns="http://www.w3.org/2000/svg" xmlns:xlink="http://www.w3.org/1999/xlink" width="40px" height="40px" viewBox="0 0 40 40" version="1.1">
<defs>
<clipPath id="clip1">
  <path d="M 1.824219 4.742188 L 38.167969 4.742188 L 38.167969 36.230469 L 1.824219 36.230469 Z M 1.824219 4.742188 "/>
</clipPath>
<clipPath id="clip2">
  <path d="M 1.007812 3.925781 L 38.964844 3.925781 L 38.964844 36.828125 L 1.007812 36.828125 Z M 1.007812 3.925781 "/>
</clipPath>
<clipPath id="clip3">
  <path d="M 0.863281 3.917969 L 39.140625 3.917969 L 39.140625 37.082031 L 0.863281 37.082031 Z M 0.863281 3.917969 "/>
</clipPath>
<clipPath id="clip4">
  <path d="M 0 2.675781 L 39.984375 2.675781 L 39.984375 37.332031 L 0 37.332031 Z M 0 2.675781 "/>
</clipPath>
</defs>
<g id="surface1">
<rect x="0" y="0" width="40" height="40" style="fill:rgb(100%,100%,100%);fill-opacity:1;stroke:none;"/>
<g clip-path="url(#clip1)" clip-rule="nonzero">
<path style=" stroke:none;fill-rule:nonzero;fill:rgb(0%,0%,0%);fill-opacity:1;" d="M 38.175781 36.226562 L 1.824219 36.226562 L 20 4.746094 Z M 3.503906 35.257812 L 36.496094 35.257812 L 20 6.6875 Z M 3.503906 35.257812 "/>
</g>
<g clip-path="url(#clip2)" clip-rule="nonzero">
<path style=" stroke:none;fill-rule:nonzero;fill:rgb(0%,0%,0%);fill-opacity:1;" d="M 38.992188 36.828125 L 1.007812 36.828125 L 20 3.933594 Z M 2.761719 35.820312 L 37.238281 35.820312 L 20 5.960938 Z M 2.761719 35.820312 "/>
</g>
<g clip-path="url(#clip3)" clip-rule="nonzero">
<path style=" stroke:none;fill-rule:nonzero;fill:rgb(0%,0%,0%);fill-opacity:1;" d="M 39.136719 37.066406 L 0.863281 37.066406 L 20 3.921875 Z M 2.632812 36.046875 L 37.367188 36.046875 L 20 5.964844 Z M 2.632812 36.046875 "/>
</g>
<g clip-path="url(#clip4)" clip-rule="nonzero">
<path style=" stroke:none;fill-rule:nonzero;fill:rgb(0%,0%,0%);fill-opacity:1;" d="M 40 37.320312 L 0 37.320312 L 20 2.679688 Z M 1.847656 36.253906 L 38.152344 36.253906 L 20 4.816406 Z M 1.847656 36.253906 "/>
</g>
<path style=" stroke:none;fill-rule:nonzero;fill:rgb(0%,0%,0%);fill-opacity:1;" d="M 15.332031 34.445312 L 15.332031 28.945312 L 17.683594 28.945312 C 18.019531 28.945312 18.308594 28.996094 18.542969 29.105469 C 18.777344 29.210938 18.953125 29.363281 19.074219 29.558594 C 19.195312 29.757812 19.253906 29.988281 19.253906 30.257812 C 19.253906 30.5 19.195312 30.714844 19.078125 30.902344 C 18.960938 31.085938 18.789062 31.234375 18.570312 31.347656 L 18.570312 31.429688 C 18.914062 31.519531 19.183594 31.683594 19.371094 31.921875 C 19.558594 32.160156 19.652344 32.453125 19.652344 32.796875 C 19.652344 33.324219 19.496094 33.730469 19.175781 34.015625 C 18.859375 34.304688 18.390625 34.445312 17.765625 34.445312 Z M 17.457031 31.136719 C 17.960938 31.136719 18.214844 30.910156 18.214844 30.453125 C 18.214844 30.21875 18.152344 30.046875 18.027344 29.933594 C 17.902344 29.816406 17.710938 29.761719 17.457031 29.761719 L 16.421875 29.761719 L 16.421875 31.136719 Z M 17.65625 33.585938 C 18.253906 33.585938 18.554688 33.3125 18.554688 32.769531 C 18.554688 32.222656 18.253906 31.949219 17.65625 31.949219 L 16.421875 31.949219 L 16.421875 33.585938 Z M 17.65625 33.585938 "/>
<path style=" stroke:none;fill-rule:nonzero;fill:rgb(0%,0%,0%);fill-opacity:1;" d="M 20.714844 34.445312 L 20.714844 28.945312 L 23.0625 28.945312 C 23.402344 28.945312 23.6875 28.996094 23.921875 29.105469 C 24.15625 29.210938 24.335938 29.363281 24.457031 29.558594 C 24.574219 29.757812 24.636719 29.988281 24.636719 30.257812 C 24.636719 30.5 24.578125 30.714844 24.457031 30.902344 C 24.339844 31.085938 24.171875 31.234375 23.949219 31.347656 L 23.949219 31.429688 C 24.296875 31.519531 24.5625 31.683594 24.753906 31.921875 C 24.941406 32.160156 25.035156 32.453125 25.035156 32.796875 C 25.035156 33.324219 24.875 33.730469 24.558594 34.015625 C 24.242188 34.304688 23.769531 34.445312 23.144531 34.445312 Z M 22.835938 31.136719 C 23.34375 31.136719 23.597656 30.910156 23.597656 30.453125 C 23.597656 30.21875 23.535156 30.046875 23.410156 29.933594 C 23.285156 29.816406 23.09375 29.761719 22.835938 29.761719 L 21.800781 29.761719 L 21.800781 31.136719 Z M 23.035156 33.585938 C 23.636719 33.585938 23.9375 33.3125 23.9375 32.769531 C 23.9375 32.222656 23.636719 31.949219 23.035156 31.949219 L 21.800781 31.949219 L 21.800781 33.585938 Z M 23.035156 33.585938 "/>
</g>
</svg>
