<?xml version="1.0" encoding="UTF-8"?>
<svg xmlns="http://www.w3.org/2000/svg" xmlns:xlink="http://www.w3.org/1999/xlink" width="40px" height="40px" viewBox="0 0 40 40" version="1.1">
<defs>
<clipPath id="clip1">
  <path d="M 13.808594 11.078125 L 29.332031 11.078125 L 29.332031 28.929688 L 13.808594 28.929688 Z M 13.808594 11.078125 "/>
</clipPath>
</defs>
<g id="surface1">
<rect x="0" y="0" width="40" height="40" style="fill:rgb(100%,100%,100%);fill-opacity:1;stroke:none;"/>
<path style=" stroke:none;fill-rule:nonzero;fill:rgb(0%,0%,0%);fill-opacity:1;" d="M 20 0 C 8.953125 0 0 8.960938 0 20 C 0 31.039062 8.953125 40 20 40 C 31.046875 40 40 31.039062 40 20 C 40 8.960938 31.046875 0 20 0 Z M 20 38.734375 C 9.652344 38.734375 1.265625 30.347656 1.265625 20 C 1.265625 9.652344 9.652344 1.265625 20 1.265625 C 30.347656 1.265625 38.734375 9.652344 38.734375 20 C 38.734375 30.347656 30.347656 38.734375 20 38.734375 Z M 20 38.734375 "/>
<g clip-path="url(#clip1)" clip-rule="nonzero">
<path style=" stroke:none;fill-rule:nonzero;fill:rgb(6.666667%,6.666667%,6.666667%);fill-opacity:1;" d="M 19.339844 0.824219 C 8.761719 0.824219 0.160156 9.429688 0.160156 20.003906 C 0.160156 30.582031 8.761719 39.183594 19.339844 39.183594 C 29.914062 39.183594 38.519531 30.582031 38.519531 20.003906 C 38.519531 9.429688 29.914062 0.824219 19.339844 0.824219 Z M 19.339844 40.363281 C 8.113281 40.363281 -1.015625 31.230469 -1.015625 20.003906 C -1.015625 8.78125 8.113281 -0.351562 19.339844 -0.351562 C 30.5625 -0.351562 39.695312 8.78125 39.695312 20.003906 C 39.695312 31.230469 30.5625 40.363281 19.339844 40.363281 "/>
<path style=" stroke:none;fill-rule:nonzero;fill:rgb(6.666667%,6.666667%,6.666667%);fill-opacity:1;" d="M 29.363281 20.003906 L 13.769531 11.003906 L 13.769531 29.007812 L 29.363281 20.003906 L 13.769531 11.003906 L 13.769531 29.007812 L 29.363281 20.003906 "/>
</g>
</g>
</svg>
