<?xml version="1.0" encoding="UTF-8"?>
<svg xmlns="http://www.w3.org/2000/svg" xmlns:xlink="http://www.w3.org/1999/xlink" width="40px" height="40px" viewBox="0 0 40 40" version="1.1">
<g id="surface1">
<rect x="0" y="0" width="40" height="40" style="fill:rgb(100%,100%,100%);fill-opacity:1;stroke:none;"/>
<path style=" stroke:none;fill-rule:nonzero;fill:rgb(0%,0%,0%);fill-opacity:1;" d="M 20 0 C 8.953125 0 0 8.960938 0 20 C 0 31.039062 8.953125 40 20 40 C 31.046875 40 40 31.039062 40 20 C 40 8.960938 31.046875 0 20 0 Z M 20 38.734375 C 9.652344 38.734375 1.265625 30.347656 1.265625 20 C 1.265625 9.652344 9.652344 1.265625 20 1.265625 C 30.347656 1.265625 38.734375 9.652344 38.734375 20 C 38.734375 30.347656 30.347656 38.734375 20 38.734375 Z M 20 38.734375 "/>
<path style=" stroke:none;fill-rule:nonzero;fill:rgb(0%,0%,0%);fill-opacity:1;" d="M 18.421875 10.460938 C 18.375 10.445312 18.328125 10.429688 18.28125 10.417969 C 18.234375 10.410156 18.1875 10.402344 18.136719 10.398438 C 18.089844 10.394531 18.042969 10.398438 17.992188 10.402344 C 17.945312 10.40625 17.898438 10.414062 17.851562 10.425781 C 17.804688 10.4375 17.757812 10.449219 17.714844 10.46875 C 17.667969 10.488281 17.625 10.507812 17.585938 10.53125 C 17.542969 10.558594 17.503906 10.585938 17.464844 10.617188 C 17.429688 10.648438 17.394531 10.679688 17.363281 10.714844 L 13.3125 15.210938 L 9.894531 15.210938 C 9.859375 15.210938 9.828125 15.210938 9.796875 15.214844 C 9.765625 15.21875 9.734375 15.222656 9.703125 15.230469 C 9.675781 15.234375 9.644531 15.242188 9.613281 15.253906 C 9.582031 15.261719 9.554688 15.273438 9.523438 15.285156 C 9.496094 15.296875 9.46875 15.308594 9.4375 15.324219 C 9.410156 15.339844 9.382812 15.355469 9.359375 15.375 C 9.332031 15.390625 9.304688 15.410156 9.28125 15.429688 C 9.257812 15.449219 9.234375 15.472656 9.210938 15.492188 C 9.191406 15.515625 9.167969 15.539062 9.148438 15.5625 C 9.128906 15.585938 9.109375 15.613281 9.09375 15.640625 C 9.074219 15.664062 9.058594 15.691406 9.042969 15.71875 C 9.027344 15.746094 9.015625 15.777344 9.003906 15.804688 C 8.992188 15.835938 8.980469 15.863281 8.972656 15.894531 C 8.960938 15.925781 8.953125 15.953125 8.949219 15.984375 C 8.941406 16.015625 8.9375 16.046875 8.933594 16.078125 C 8.933594 16.109375 8.929688 16.140625 8.929688 16.171875 L 8.929688 24.355469 C 8.929688 24.386719 8.933594 24.417969 8.933594 24.449219 C 8.9375 24.480469 8.941406 24.511719 8.949219 24.542969 C 8.953125 24.574219 8.960938 24.605469 8.972656 24.636719 C 8.980469 24.664062 8.992188 24.695312 9.003906 24.722656 C 9.015625 24.753906 9.027344 24.78125 9.042969 24.808594 C 9.058594 24.835938 9.074219 24.863281 9.09375 24.890625 C 9.109375 24.917969 9.128906 24.941406 9.148438 24.964844 C 9.167969 24.992188 9.191406 25.015625 9.210938 25.035156 C 9.234375 25.058594 9.257812 25.078125 9.28125 25.101562 C 9.304688 25.121094 9.332031 25.136719 9.359375 25.15625 C 9.382812 25.171875 9.410156 25.191406 9.4375 25.203125 C 9.46875 25.21875 9.496094 25.234375 9.523438 25.246094 C 9.554688 25.257812 9.582031 25.269531 9.613281 25.277344 C 9.644531 25.285156 9.675781 25.292969 9.703125 25.300781 C 9.734375 25.304688 9.765625 25.308594 9.796875 25.3125 C 9.828125 25.316406 9.859375 25.316406 9.894531 25.316406 L 13.34375 25.316406 L 17.390625 29.367188 C 17.421875 29.398438 17.460938 29.429688 17.496094 29.457031 C 17.535156 29.488281 17.574219 29.511719 17.617188 29.535156 C 17.660156 29.558594 17.703125 29.578125 17.746094 29.59375 C 17.792969 29.609375 17.835938 29.621094 17.882812 29.632812 C 17.929688 29.640625 17.976562 29.648438 18.023438 29.648438 C 18.070312 29.652344 18.117188 29.652344 18.164062 29.644531 C 18.214844 29.640625 18.257812 29.632812 18.304688 29.621094 C 18.351562 29.609375 18.398438 29.597656 18.441406 29.578125 C 18.484375 29.558594 18.527344 29.539062 18.566406 29.515625 C 18.609375 29.488281 18.648438 29.460938 18.683594 29.433594 C 18.71875 29.402344 18.753906 29.371094 18.785156 29.335938 C 18.820312 29.300781 18.847656 29.261719 18.875 29.222656 C 18.898438 29.183594 18.921875 29.140625 18.945312 29.101562 C 18.964844 29.058594 18.980469 29.011719 18.996094 28.96875 C 19.007812 28.921875 19.019531 28.875 19.027344 28.828125 C 19.03125 28.78125 19.035156 28.734375 19.035156 28.6875 L 19.035156 11.359375 C 19.035156 11.3125 19.03125 11.265625 19.027344 11.214844 C 19.019531 11.167969 19.007812 11.121094 18.992188 11.074219 C 18.980469 11.027344 18.960938 10.984375 18.941406 10.941406 C 18.917969 10.898438 18.894531 10.855469 18.867188 10.816406 C 18.839844 10.773438 18.8125 10.738281 18.777344 10.703125 C 18.746094 10.667969 18.710938 10.632812 18.671875 10.605469 C 18.632812 10.574219 18.59375 10.546875 18.550781 10.523438 C 18.507812 10.5 18.464844 10.476562 18.421875 10.460938 Z M 17.109375 26.363281 L 14.421875 23.671875 C 14.375 23.628906 14.328125 23.589844 14.277344 23.554688 C 14.222656 23.519531 14.167969 23.488281 14.109375 23.464844 C 14.050781 23.441406 13.992188 23.421875 13.929688 23.410156 C 13.867188 23.398438 13.804688 23.394531 13.742188 23.394531 L 10.855469 23.394531 L 10.855469 17.136719 L 13.742188 17.136719 C 13.808594 17.136719 13.878906 17.128906 13.941406 17.117188 C 14.007812 17.101562 14.074219 17.082031 14.136719 17.054688 C 14.195312 17.027344 14.253906 16.992188 14.308594 16.953125 C 14.363281 16.914062 14.414062 16.867188 14.460938 16.820312 L 17.109375 13.867188 L 17.109375 26.382812 Z M 17.109375 26.363281 "/>
<path style=" stroke:none;fill-rule:nonzero;fill:rgb(0%,0%,0%);fill-opacity:1;" d="M 24.589844 13.285156 C 24.566406 13.265625 24.542969 13.242188 24.519531 13.222656 C 24.496094 13.203125 24.46875 13.183594 24.445312 13.167969 C 24.417969 13.148438 24.390625 13.132812 24.363281 13.117188 C 24.335938 13.101562 24.304688 13.089844 24.277344 13.078125 C 24.246094 13.066406 24.21875 13.054688 24.1875 13.046875 C 24.15625 13.039062 24.125 13.03125 24.09375 13.023438 C 24.066406 13.019531 24.035156 13.011719 24.003906 13.011719 C 23.96875 13.007812 23.9375 13.003906 23.90625 13.003906 C 23.875 13.003906 23.84375 13.007812 23.8125 13.011719 C 23.78125 13.015625 23.75 13.019531 23.71875 13.023438 C 23.6875 13.03125 23.65625 13.039062 23.628906 13.046875 C 23.597656 13.058594 23.566406 13.066406 23.539062 13.082031 C 23.511719 13.09375 23.480469 13.105469 23.453125 13.121094 C 23.425781 13.136719 23.398438 13.152344 23.371094 13.167969 C 23.347656 13.1875 23.320312 13.207031 23.296875 13.226562 C 23.273438 13.246094 23.25 13.269531 23.226562 13.289062 C 23.203125 13.3125 23.183594 13.335938 23.164062 13.359375 C 23.144531 13.386719 23.125 13.410156 23.109375 13.4375 C 23.089844 13.464844 23.074219 13.488281 23.058594 13.519531 C 23.042969 13.546875 23.03125 13.574219 23.019531 13.605469 C 23.007812 13.632812 22.996094 13.664062 22.988281 13.691406 C 22.980469 13.722656 22.972656 13.753906 22.964844 13.785156 C 22.960938 13.816406 22.953125 13.847656 22.953125 13.878906 C 22.949219 13.910156 22.949219 13.941406 22.949219 13.972656 C 22.949219 14.003906 22.949219 14.035156 22.953125 14.066406 C 22.957031 14.097656 22.960938 14.128906 22.96875 14.160156 C 22.972656 14.191406 22.980469 14.222656 22.992188 14.253906 C 23 14.28125 23.011719 14.3125 23.023438 14.339844 C 23.035156 14.371094 23.046875 14.398438 23.0625 14.425781 C 23.078125 14.453125 23.09375 14.480469 23.113281 14.507812 C 23.128906 14.535156 23.148438 14.558594 23.167969 14.582031 C 23.1875 14.609375 23.210938 14.628906 23.234375 14.652344 C 23.320312 14.742188 23.40625 14.832031 23.492188 14.921875 C 23.578125 15.015625 23.660156 15.109375 23.738281 15.207031 C 23.816406 15.300781 23.894531 15.398438 23.96875 15.5 C 24.046875 15.601562 24.117188 15.703125 24.1875 15.804688 C 24.257812 15.910156 24.324219 16.015625 24.390625 16.121094 C 24.453125 16.230469 24.515625 16.335938 24.574219 16.449219 C 24.632812 16.558594 24.691406 16.667969 24.742188 16.78125 C 24.796875 16.894531 24.847656 17.007812 24.898438 17.125 C 24.945312 17.238281 24.988281 17.355469 25.03125 17.472656 C 25.074219 17.589844 25.113281 17.710938 25.152344 17.828125 C 25.1875 17.949219 25.21875 18.070312 25.25 18.191406 C 25.28125 18.3125 25.308594 18.433594 25.332031 18.554688 C 25.359375 18.679688 25.378906 18.800781 25.398438 18.925781 C 25.417969 19.050781 25.433594 19.171875 25.445312 19.296875 C 25.457031 19.421875 25.464844 19.546875 25.472656 19.671875 C 25.476562 19.796875 25.480469 19.921875 25.480469 20.046875 C 25.480469 20.171875 25.476562 20.296875 25.472656 20.421875 C 25.464844 20.546875 25.457031 20.667969 25.445312 20.792969 C 25.433594 20.917969 25.417969 21.042969 25.398438 21.167969 C 25.378906 21.289062 25.359375 21.414062 25.332031 21.535156 C 25.308594 21.65625 25.28125 21.78125 25.25 21.902344 C 25.21875 22.023438 25.1875 22.144531 25.152344 22.261719 C 25.113281 22.382812 25.074219 22.5 25.03125 22.617188 C 24.988281 22.734375 24.945312 22.851562 24.898438 22.96875 C 24.847656 23.082031 24.796875 23.195312 24.742188 23.308594 C 24.691406 23.421875 24.632812 23.535156 24.574219 23.644531 C 24.515625 23.753906 24.453125 23.863281 24.390625 23.96875 C 24.324219 24.078125 24.257812 24.183594 24.1875 24.285156 C 24.117188 24.390625 24.046875 24.492188 23.96875 24.589844 C 23.894531 24.691406 23.816406 24.789062 23.738281 24.886719 C 23.660156 24.980469 23.578125 25.074219 23.492188 25.167969 C 23.40625 25.261719 23.320312 25.351562 23.234375 25.4375 C 23.203125 25.457031 23.175781 25.480469 23.152344 25.503906 C 23.125 25.527344 23.101562 25.550781 23.078125 25.578125 C 23.054688 25.605469 23.03125 25.632812 23.011719 25.660156 C 22.992188 25.6875 22.972656 25.71875 22.953125 25.75 C 22.9375 25.78125 22.921875 25.8125 22.910156 25.84375 C 22.894531 25.875 22.882812 25.910156 22.871094 25.941406 C 22.863281 25.976562 22.855469 26.007812 22.847656 26.042969 C 22.839844 26.078125 22.835938 26.113281 22.835938 26.148438 C 22.832031 26.183594 22.832031 26.21875 22.832031 26.253906 C 22.832031 26.289062 22.835938 26.324219 22.839844 26.359375 C 22.847656 26.390625 22.851562 26.425781 22.863281 26.460938 C 22.871094 26.496094 22.882812 26.527344 22.894531 26.5625 C 22.90625 26.59375 22.921875 26.625 22.9375 26.65625 C 22.953125 26.6875 22.96875 26.71875 22.988281 26.746094 C 23.007812 26.777344 23.027344 26.804688 23.050781 26.832031 C 23.074219 26.859375 23.097656 26.886719 23.121094 26.910156 C 23.148438 26.933594 23.171875 26.957031 23.203125 26.980469 C 23.230469 27 23.257812 27.019531 23.289062 27.039062 C 23.316406 27.058594 23.347656 27.074219 23.378906 27.089844 C 23.410156 27.105469 23.445312 27.117188 23.476562 27.128906 C 23.507812 27.140625 23.542969 27.148438 23.578125 27.15625 C 23.613281 27.164062 23.644531 27.171875 23.679688 27.175781 C 23.714844 27.179688 23.75 27.183594 23.785156 27.183594 C 23.820312 27.183594 23.855469 27.179688 23.890625 27.179688 C 23.925781 27.175781 23.960938 27.167969 23.992188 27.160156 C 24.027344 27.15625 24.0625 27.144531 24.09375 27.132812 C 24.128906 27.125 24.160156 27.109375 24.191406 27.097656 C 24.226562 27.082031 24.257812 27.066406 24.285156 27.046875 C 24.316406 27.03125 24.34375 27.011719 24.375 26.988281 C 24.402344 26.96875 24.429688 26.945312 24.453125 26.921875 C 24.480469 26.898438 24.503906 26.871094 24.527344 26.84375 C 24.546875 26.820312 24.570312 26.792969 24.589844 26.761719 C 24.699219 26.652344 24.808594 26.539062 24.914062 26.421875 C 25.019531 26.308594 25.121094 26.191406 25.21875 26.070312 C 25.316406 25.949219 25.414062 25.828125 25.507812 25.703125 C 25.601562 25.574219 25.691406 25.449219 25.777344 25.320312 C 25.863281 25.1875 25.949219 25.058594 26.027344 24.925781 C 26.109375 24.789062 26.183594 24.65625 26.257812 24.515625 C 26.332031 24.378906 26.402344 24.242188 26.46875 24.097656 C 26.535156 23.957031 26.597656 23.816406 26.660156 23.671875 C 26.71875 23.527344 26.773438 23.382812 26.828125 23.234375 C 26.878906 23.089844 26.929688 22.941406 26.976562 22.792969 C 27.019531 22.640625 27.0625 22.492188 27.101562 22.339844 C 27.136719 22.1875 27.171875 22.035156 27.203125 21.882812 C 27.234375 21.730469 27.261719 21.578125 27.28125 21.421875 C 27.304688 21.269531 27.324219 21.113281 27.339844 20.957031 C 27.355469 20.804688 27.367188 20.648438 27.375 20.492188 C 27.382812 20.335938 27.386719 20.179688 27.386719 20.023438 C 27.386719 19.867188 27.382812 19.710938 27.375 19.554688 C 27.367188 19.402344 27.355469 19.246094 27.339844 19.089844 C 27.324219 18.933594 27.304688 18.78125 27.28125 18.625 C 27.261719 18.472656 27.234375 18.316406 27.203125 18.164062 C 27.171875 18.011719 27.136719 17.859375 27.101562 17.707031 C 27.0625 17.554688 27.019531 17.40625 26.976562 17.257812 C 26.929688 17.109375 26.878906 16.960938 26.828125 16.8125 C 26.773438 16.664062 26.71875 16.519531 26.660156 16.375 C 26.597656 16.230469 26.535156 16.089844 26.46875 15.949219 C 26.402344 15.808594 26.332031 15.667969 26.257812 15.53125 C 26.183594 15.394531 26.109375 15.257812 26.027344 15.125 C 25.949219 14.992188 25.863281 14.859375 25.777344 14.730469 C 25.691406 14.597656 25.601562 14.472656 25.507812 14.347656 C 25.414062 14.222656 25.316406 14.097656 25.21875 13.976562 C 25.121094 13.859375 25.019531 13.738281 24.914062 13.625 C 24.808594 13.507812 24.699219 13.394531 24.589844 13.285156 Z M 24.589844 13.285156 "/>
<path style=" stroke:none;fill-rule:nonzero;fill:rgb(0%,0%,0%);fill-opacity:1;" d="M 27.179688 10.695312 C 27.15625 10.671875 27.132812 10.648438 27.109375 10.628906 C 27.085938 10.605469 27.058594 10.585938 27.035156 10.566406 C 27.007812 10.546875 26.980469 10.53125 26.953125 10.511719 C 26.925781 10.496094 26.894531 10.480469 26.867188 10.46875 C 26.835938 10.453125 26.804688 10.441406 26.777344 10.433594 C 26.746094 10.421875 26.714844 10.414062 26.683594 10.40625 C 26.648438 10.398438 26.617188 10.394531 26.585938 10.390625 C 26.554688 10.386719 26.519531 10.382812 26.488281 10.382812 C 26.457031 10.382812 26.421875 10.382812 26.390625 10.382812 C 26.359375 10.386719 26.328125 10.390625 26.292969 10.398438 C 26.261719 10.402344 26.230469 10.410156 26.199219 10.417969 C 26.167969 10.429688 26.136719 10.4375 26.109375 10.453125 C 26.078125 10.464844 26.046875 10.476562 26.019531 10.492188 C 25.992188 10.507812 25.960938 10.523438 25.9375 10.542969 C 25.910156 10.558594 25.882812 10.578125 25.855469 10.597656 C 25.832031 10.621094 25.808594 10.640625 25.785156 10.664062 C 25.761719 10.6875 25.742188 10.710938 25.71875 10.738281 C 25.699219 10.761719 25.679688 10.789062 25.664062 10.816406 C 25.644531 10.84375 25.628906 10.871094 25.613281 10.898438 C 25.597656 10.929688 25.585938 10.957031 25.574219 10.988281 C 25.558594 11.019531 25.550781 11.050781 25.539062 11.082031 C 25.53125 11.113281 25.523438 11.144531 25.519531 11.175781 C 25.511719 11.207031 25.507812 11.238281 25.507812 11.273438 C 25.503906 11.304688 25.503906 11.335938 25.503906 11.371094 C 25.503906 11.402344 25.507812 11.433594 25.511719 11.46875 C 25.515625 11.5 25.523438 11.53125 25.53125 11.5625 C 25.535156 11.59375 25.546875 11.625 25.554688 11.65625 C 25.566406 11.6875 25.578125 11.71875 25.59375 11.746094 C 25.605469 11.777344 25.621094 11.804688 25.636719 11.832031 C 25.652344 11.859375 25.671875 11.886719 25.691406 11.914062 C 25.710938 11.941406 25.730469 11.964844 25.753906 11.988281 C 25.773438 12.015625 25.796875 12.035156 25.820312 12.058594 C 25.953125 12.1875 26.082031 12.320312 26.203125 12.457031 C 26.328125 12.59375 26.449219 12.734375 26.566406 12.875 C 26.6875 13.019531 26.800781 13.164062 26.910156 13.308594 C 27.019531 13.457031 27.128906 13.609375 27.230469 13.761719 C 27.332031 13.914062 27.433594 14.070312 27.527344 14.226562 C 27.625 14.386719 27.714844 14.546875 27.800781 14.707031 C 27.890625 14.871094 27.972656 15.035156 28.054688 15.203125 C 28.132812 15.371094 28.207031 15.539062 28.277344 15.707031 C 28.347656 15.878906 28.414062 16.050781 28.476562 16.222656 C 28.539062 16.398438 28.597656 16.574219 28.652344 16.75 C 28.707031 16.925781 28.757812 17.101562 28.800781 17.28125 C 28.847656 17.460938 28.886719 17.640625 28.921875 17.820312 C 28.960938 18.003906 28.992188 18.183594 29.019531 18.367188 C 29.046875 18.550781 29.070312 18.734375 29.085938 18.917969 C 29.105469 19.101562 29.117188 19.285156 29.128906 19.46875 C 29.136719 19.652344 29.140625 19.835938 29.140625 20.023438 C 29.140625 20.207031 29.136719 20.390625 29.128906 20.574219 C 29.117188 20.757812 29.105469 20.941406 29.085938 21.125 C 29.070312 21.308594 29.046875 21.492188 29.019531 21.675781 C 28.992188 21.859375 28.960938 22.039062 28.921875 22.222656 C 28.886719 22.402344 28.847656 22.582031 28.800781 22.761719 C 28.757812 22.941406 28.707031 23.117188 28.652344 23.292969 C 28.597656 23.472656 28.539062 23.644531 28.476562 23.820312 C 28.414062 23.992188 28.347656 24.164062 28.277344 24.335938 C 28.207031 24.503906 28.132812 24.675781 28.054688 24.839844 C 27.972656 25.007812 27.890625 25.171875 27.800781 25.335938 C 27.714844 25.496094 27.625 25.65625 27.527344 25.816406 C 27.433594 25.972656 27.332031 26.128906 27.230469 26.28125 C 27.128906 26.433594 27.019531 26.585938 26.910156 26.734375 C 26.800781 26.878906 26.6875 27.027344 26.566406 27.167969 C 26.449219 27.308594 26.328125 27.449219 26.203125 27.585938 C 26.082031 27.722656 25.953125 27.855469 25.820312 27.984375 C 25.800781 28.007812 25.777344 28.03125 25.757812 28.054688 C 25.738281 28.078125 25.71875 28.105469 25.703125 28.128906 C 25.683594 28.15625 25.667969 28.183594 25.652344 28.210938 C 25.636719 28.238281 25.625 28.265625 25.613281 28.296875 C 25.601562 28.324219 25.589844 28.355469 25.578125 28.386719 C 25.570312 28.414062 25.5625 28.445312 25.554688 28.476562 C 25.550781 28.507812 25.546875 28.539062 25.542969 28.570312 C 25.539062 28.601562 25.539062 28.632812 25.539062 28.664062 C 25.539062 28.695312 25.539062 28.726562 25.542969 28.757812 C 25.542969 28.789062 25.550781 28.820312 25.554688 28.851562 C 25.5625 28.882812 25.570312 28.914062 25.578125 28.945312 C 25.585938 28.972656 25.597656 29.003906 25.609375 29.035156 C 25.621094 29.0625 25.632812 29.089844 25.648438 29.117188 C 25.664062 29.148438 25.679688 29.175781 25.699219 29.199219 C 25.714844 29.226562 25.734375 29.25 25.753906 29.277344 C 25.773438 29.300781 25.792969 29.324219 25.816406 29.347656 C 25.839844 29.367188 25.863281 29.390625 25.886719 29.410156 C 25.910156 29.429688 25.9375 29.449219 25.960938 29.46875 C 25.988281 29.484375 26.015625 29.5 26.042969 29.515625 C 26.070312 29.53125 26.097656 29.542969 26.128906 29.554688 C 26.15625 29.570312 26.1875 29.578125 26.21875 29.589844 C 26.246094 29.597656 26.277344 29.605469 26.308594 29.613281 C 26.339844 29.617188 26.371094 29.621094 26.402344 29.625 C 26.433594 29.628906 26.464844 29.632812 26.496094 29.632812 C 26.527344 29.632812 26.558594 29.628906 26.589844 29.625 C 26.621094 29.625 26.652344 29.621094 26.683594 29.613281 C 26.714844 29.605469 26.746094 29.601562 26.777344 29.589844 C 26.808594 29.582031 26.835938 29.570312 26.867188 29.558594 C 26.894531 29.546875 26.921875 29.535156 26.953125 29.519531 C 26.980469 29.503906 27.007812 29.488281 27.03125 29.46875 C 27.058594 29.453125 27.085938 29.433594 27.109375 29.414062 C 27.132812 29.394531 27.15625 29.375 27.179688 29.351562 C 27.332031 29.199219 27.480469 29.042969 27.628906 28.882812 C 27.773438 28.722656 27.914062 28.5625 28.054688 28.394531 C 28.191406 28.226562 28.324219 28.058594 28.453125 27.886719 C 28.582031 27.710938 28.707031 27.535156 28.828125 27.355469 C 28.949219 27.175781 29.066406 26.996094 29.175781 26.808594 C 29.289062 26.625 29.394531 26.4375 29.5 26.246094 C 29.601562 26.054688 29.699219 25.863281 29.789062 25.667969 C 29.882812 25.472656 29.972656 25.277344 30.054688 25.078125 C 30.136719 24.878906 30.214844 24.675781 30.289062 24.472656 C 30.363281 24.269531 30.429688 24.0625 30.492188 23.855469 C 30.558594 23.648438 30.613281 23.441406 30.667969 23.234375 C 30.71875 23.023438 30.769531 22.8125 30.808594 22.601562 C 30.851562 22.386719 30.890625 22.175781 30.921875 21.960938 C 30.953125 21.746094 30.980469 21.535156 31 21.320312 C 31.023438 21.101562 31.039062 20.886719 31.050781 20.671875 C 31.058594 20.457031 31.066406 20.238281 31.066406 20.023438 C 31.066406 19.808594 31.058594 19.59375 31.050781 19.375 C 31.039062 19.160156 31.023438 18.945312 31 18.730469 C 30.980469 18.515625 30.953125 18.300781 30.921875 18.085938 C 30.890625 17.871094 30.851562 17.660156 30.808594 17.449219 C 30.769531 17.234375 30.71875 17.023438 30.667969 16.816406 C 30.613281 16.605469 30.558594 16.398438 30.492188 16.191406 C 30.429688 15.984375 30.363281 15.777344 30.289062 15.574219 C 30.214844 15.371094 30.136719 15.171875 30.054688 14.972656 C 29.972656 14.773438 29.882812 14.574219 29.789062 14.378906 C 29.699219 14.183594 29.601562 13.992188 29.5 13.800781 C 29.394531 13.609375 29.289062 13.421875 29.175781 13.238281 C 29.066406 13.054688 28.949219 12.871094 28.828125 12.691406 C 28.707031 12.511719 28.582031 12.335938 28.453125 12.164062 C 28.324219 11.988281 28.191406 11.820312 28.054688 11.652344 C 27.914062 11.488281 27.773438 11.324219 27.628906 11.164062 C 27.480469 11.003906 27.332031 10.847656 27.179688 10.695312 Z M 27.179688 10.695312 "/>
<path style=" stroke:none;fill-rule:nonzero;fill:rgb(0%,0%,0%);fill-opacity:1;" d="M 21.875 15.960938 C 21.851562 15.941406 21.828125 15.917969 21.804688 15.898438 C 21.78125 15.878906 21.753906 15.859375 21.730469 15.84375 C 21.703125 15.824219 21.675781 15.808594 21.648438 15.792969 C 21.621094 15.78125 21.589844 15.765625 21.5625 15.753906 C 21.53125 15.742188 21.503906 15.730469 21.472656 15.722656 C 21.441406 15.714844 21.414062 15.707031 21.382812 15.699219 C 21.351562 15.695312 21.320312 15.691406 21.289062 15.6875 C 21.257812 15.683594 21.226562 15.683594 21.195312 15.683594 C 21.164062 15.683594 21.128906 15.683594 21.097656 15.6875 C 21.066406 15.691406 21.035156 15.695312 21.007812 15.703125 C 20.976562 15.707031 20.945312 15.714844 20.914062 15.726562 C 20.882812 15.734375 20.855469 15.746094 20.824219 15.757812 C 20.796875 15.769531 20.769531 15.78125 20.738281 15.796875 C 20.710938 15.8125 20.683594 15.828125 20.660156 15.847656 C 20.632812 15.863281 20.609375 15.882812 20.582031 15.902344 C 20.558594 15.921875 20.535156 15.945312 20.515625 15.96875 C 20.492188 15.988281 20.46875 16.011719 20.449219 16.035156 C 20.429688 16.0625 20.410156 16.085938 20.394531 16.113281 C 20.375 16.140625 20.359375 16.167969 20.347656 16.195312 C 20.332031 16.222656 20.316406 16.25 20.304688 16.28125 C 20.292969 16.308594 20.285156 16.339844 20.273438 16.367188 C 20.265625 16.398438 20.257812 16.429688 20.25 16.460938 C 20.246094 16.492188 20.242188 16.523438 20.238281 16.554688 C 20.234375 16.585938 20.234375 16.617188 20.234375 16.648438 C 20.234375 16.679688 20.234375 16.710938 20.238281 16.742188 C 20.242188 16.773438 20.246094 16.804688 20.253906 16.835938 C 20.257812 16.867188 20.265625 16.898438 20.277344 16.929688 C 20.285156 16.957031 20.296875 16.988281 20.308594 17.015625 C 20.320312 17.046875 20.335938 17.074219 20.347656 17.101562 C 20.363281 17.128906 20.378906 17.15625 20.398438 17.183594 C 20.414062 17.210938 20.433594 17.234375 20.453125 17.257812 C 20.476562 17.285156 20.496094 17.304688 20.519531 17.328125 C 20.5625 17.371094 20.605469 17.417969 20.648438 17.464844 C 20.691406 17.511719 20.730469 17.558594 20.769531 17.605469 C 20.8125 17.652344 20.851562 17.703125 20.886719 17.753906 C 20.925781 17.804688 20.960938 17.855469 20.996094 17.90625 C 21.03125 17.957031 21.0625 18.011719 21.097656 18.0625 C 21.128906 18.117188 21.160156 18.171875 21.191406 18.226562 C 21.21875 18.28125 21.246094 18.335938 21.273438 18.394531 C 21.300781 18.449219 21.328125 18.507812 21.351562 18.566406 C 21.375 18.621094 21.398438 18.679688 21.417969 18.738281 C 21.441406 18.796875 21.460938 18.859375 21.476562 18.917969 C 21.496094 18.976562 21.511719 19.039062 21.527344 19.097656 C 21.542969 19.160156 21.558594 19.21875 21.570312 19.28125 C 21.582031 19.34375 21.59375 19.402344 21.601562 19.464844 C 21.609375 19.527344 21.617188 19.589844 21.625 19.652344 C 21.628906 19.714844 21.636719 19.777344 21.636719 19.839844 C 21.640625 19.902344 21.644531 19.964844 21.644531 20.027344 C 21.644531 20.089844 21.640625 20.152344 21.636719 20.214844 C 21.636719 20.277344 21.628906 20.339844 21.625 20.402344 C 21.617188 20.464844 21.609375 20.523438 21.601562 20.585938 C 21.59375 20.648438 21.582031 20.710938 21.570312 20.773438 C 21.558594 20.832031 21.542969 20.894531 21.527344 20.953125 C 21.511719 21.015625 21.496094 21.074219 21.476562 21.136719 C 21.460938 21.195312 21.441406 21.253906 21.417969 21.3125 C 21.398438 21.371094 21.375 21.429688 21.351562 21.488281 C 21.328125 21.546875 21.300781 21.601562 21.273438 21.660156 C 21.246094 21.714844 21.21875 21.769531 21.191406 21.828125 C 21.160156 21.882812 21.128906 21.9375 21.097656 21.988281 C 21.0625 22.042969 21.03125 22.09375 20.996094 22.148438 C 20.960938 22.199219 20.925781 22.25 20.886719 22.300781 C 20.851562 22.351562 20.8125 22.398438 20.769531 22.449219 C 20.730469 22.496094 20.691406 22.542969 20.648438 22.589844 C 20.605469 22.636719 20.5625 22.679688 20.519531 22.722656 C 20.496094 22.746094 20.476562 22.769531 20.453125 22.792969 C 20.433594 22.816406 20.414062 22.84375 20.398438 22.871094 C 20.378906 22.894531 20.363281 22.921875 20.347656 22.949219 C 20.335938 22.976562 20.320312 23.007812 20.308594 23.035156 C 20.296875 23.066406 20.285156 23.09375 20.277344 23.125 C 20.265625 23.15625 20.257812 23.183594 20.253906 23.214844 C 20.246094 23.246094 20.242188 23.277344 20.238281 23.308594 C 20.234375 23.339844 20.234375 23.371094 20.234375 23.402344 C 20.234375 23.4375 20.234375 23.46875 20.238281 23.5 C 20.242188 23.53125 20.246094 23.5625 20.25 23.59375 C 20.257812 23.625 20.265625 23.652344 20.273438 23.683594 C 20.28125 23.714844 20.292969 23.742188 20.304688 23.773438 C 20.316406 23.800781 20.332031 23.832031 20.34375 23.859375 C 20.359375 23.886719 20.375 23.914062 20.394531 23.941406 C 20.410156 23.964844 20.429688 23.992188 20.449219 24.015625 C 20.46875 24.039062 20.492188 24.0625 20.511719 24.085938 C 20.535156 24.109375 20.558594 24.128906 20.582031 24.148438 C 20.609375 24.171875 20.632812 24.1875 20.660156 24.207031 C 20.683594 24.222656 20.710938 24.242188 20.738281 24.253906 C 20.765625 24.269531 20.796875 24.285156 20.824219 24.296875 C 20.855469 24.308594 20.882812 24.320312 20.914062 24.328125 C 20.945312 24.335938 20.976562 24.34375 21.003906 24.351562 C 21.035156 24.359375 21.066406 24.363281 21.097656 24.367188 C 21.128906 24.371094 21.160156 24.371094 21.195312 24.371094 C 21.226562 24.371094 21.257812 24.371094 21.289062 24.367188 C 21.320312 24.363281 21.351562 24.359375 21.382812 24.351562 C 21.414062 24.347656 21.441406 24.339844 21.472656 24.332031 C 21.503906 24.320312 21.53125 24.3125 21.5625 24.296875 C 21.589844 24.285156 21.621094 24.273438 21.648438 24.257812 C 21.675781 24.242188 21.703125 24.226562 21.730469 24.210938 C 21.753906 24.191406 21.78125 24.175781 21.804688 24.152344 C 21.828125 24.132812 21.851562 24.113281 21.875 24.089844 C 21.941406 24.023438 22.007812 23.957031 22.070312 23.886719 C 22.132812 23.816406 22.195312 23.746094 22.257812 23.675781 C 22.316406 23.601562 22.375 23.527344 22.429688 23.453125 C 22.488281 23.375 22.542969 23.300781 22.59375 23.222656 C 22.648438 23.144531 22.699219 23.0625 22.746094 22.984375 C 22.796875 22.902344 22.84375 22.820312 22.886719 22.738281 C 22.929688 22.65625 22.972656 22.570312 23.015625 22.484375 C 23.054688 22.402344 23.09375 22.316406 23.128906 22.226562 C 23.164062 22.140625 23.199219 22.054688 23.230469 21.964844 C 23.261719 21.875 23.292969 21.785156 23.320312 21.695312 C 23.347656 21.605469 23.375 21.515625 23.394531 21.425781 C 23.417969 21.332031 23.441406 21.242188 23.457031 21.148438 C 23.476562 21.058594 23.492188 20.964844 23.507812 20.871094 C 23.519531 20.777344 23.53125 20.683594 23.542969 20.589844 C 23.550781 20.496094 23.558594 20.402344 23.5625 20.308594 C 23.566406 20.214844 23.570312 20.121094 23.570312 20.027344 C 23.570312 19.933594 23.566406 19.839844 23.5625 19.742188 C 23.558594 19.648438 23.550781 19.554688 23.542969 19.460938 C 23.53125 19.367188 23.519531 19.273438 23.507812 19.183594 C 23.492188 19.089844 23.476562 18.996094 23.457031 18.902344 C 23.441406 18.8125 23.417969 18.71875 23.394531 18.628906 C 23.375 18.535156 23.347656 18.445312 23.320312 18.355469 C 23.292969 18.265625 23.261719 18.175781 23.230469 18.089844 C 23.199219 18 23.164062 17.910156 23.128906 17.824219 C 23.09375 17.738281 23.054688 17.652344 23.015625 17.566406 C 22.972656 17.480469 22.929688 17.398438 22.886719 17.316406 C 22.84375 17.230469 22.796875 17.148438 22.746094 17.070312 C 22.699219 16.988281 22.648438 16.910156 22.59375 16.832031 C 22.542969 16.753906 22.488281 16.675781 22.429688 16.601562 C 22.375 16.527344 22.316406 16.453125 22.257812 16.378906 C 22.195312 16.304688 22.132812 16.234375 22.070312 16.164062 C 22.007812 16.097656 21.941406 16.027344 21.875 15.960938 Z M 21.875 15.960938 "/>
</g>
</svg>
