<?xml version="1.0" encoding="UTF-8"?>
<svg xmlns="http://www.w3.org/2000/svg" xmlns:xlink="http://www.w3.org/1999/xlink" width="40px" height="40px" viewBox="0 0 40 40" version="1.1">
<defs>
<clipPath id="clip1">
  <path d="M 0 0.109375 L 40 0.109375 L 40 40 L 0 40 Z M 0 0.109375 "/>
</clipPath>
<clipPath id="clip2">
  <path d="M 9.019531 15.238281 L 11.53125 15.238281 L 11.53125 21.917969 L 9.019531 21.917969 Z M 9.019531 15.238281 "/>
</clipPath>
<clipPath id="clip3">
  <path d="M 9.304688 22.832031 L 11.25 22.832031 L 11.25 24.757812 L 9.304688 24.757812 Z M 9.304688 22.832031 "/>
</clipPath>
</defs>
<g id="surface1">
<rect x="0" y="0" width="40" height="40" style="fill:rgb(100%,100%,100%);fill-opacity:1;stroke:none;"/>
<g clip-path="url(#clip1)" clip-rule="nonzero">
<path style=" stroke:none;fill-rule:nonzero;fill:rgb(0%,0%,0%);fill-opacity:1;" d="M 20 0.109375 C 8.953125 0.109375 0 9.070312 0 20.109375 C 0 31.148438 8.953125 40.109375 20 40.109375 C 31.046875 40.109375 40 31.148438 40 20.109375 C 40 9.070312 31.046875 0.109375 20 0.109375 Z M 20 38.84375 C 9.652344 38.84375 1.265625 30.457031 1.265625 20.109375 C 1.265625 9.761719 9.652344 1.375 20 1.375 C 30.347656 1.375 38.734375 9.761719 38.734375 20.109375 C 38.734375 30.457031 30.347656 38.84375 20 38.84375 Z M 20 38.84375 "/>
</g>
<path style=" stroke:none;fill-rule:nonzero;fill:rgb(0%,0%,0%);fill-opacity:1;" d="M 21.847656 10.570312 C 21.800781 10.554688 21.757812 10.539062 21.707031 10.527344 C 21.660156 10.519531 21.613281 10.511719 21.566406 10.507812 C 21.515625 10.507812 21.46875 10.507812 21.421875 10.511719 C 21.375 10.515625 21.324219 10.523438 21.277344 10.535156 C 21.230469 10.546875 21.1875 10.558594 21.140625 10.578125 C 21.097656 10.597656 21.054688 10.617188 21.011719 10.640625 C 20.96875 10.667969 20.929688 10.695312 20.894531 10.726562 C 20.855469 10.757812 20.820312 10.789062 20.789062 10.824219 L 16.742188 15.320312 L 13.320312 15.320312 C 13.289062 15.320312 13.257812 15.320312 13.226562 15.324219 C 13.195312 15.328125 13.164062 15.332031 13.132812 15.339844 C 13.101562 15.34375 13.070312 15.351562 13.039062 15.363281 C 13.011719 15.371094 12.980469 15.382812 12.953125 15.394531 C 12.921875 15.40625 12.894531 15.417969 12.867188 15.433594 C 12.839844 15.449219 12.8125 15.464844 12.785156 15.484375 C 12.757812 15.5 12.734375 15.519531 12.710938 15.539062 C 12.683594 15.558594 12.660156 15.582031 12.640625 15.601562 C 12.617188 15.625 12.597656 15.648438 12.574219 15.671875 C 12.554688 15.695312 12.539062 15.722656 12.519531 15.75 C 12.503906 15.773438 12.484375 15.800781 12.472656 15.828125 C 12.457031 15.855469 12.441406 15.886719 12.429688 15.914062 C 12.417969 15.945312 12.40625 15.972656 12.398438 16.003906 C 12.390625 16.035156 12.382812 16.066406 12.375 16.09375 C 12.371094 16.125 12.363281 16.15625 12.363281 16.1875 C 12.359375 16.21875 12.359375 16.25 12.359375 16.285156 L 12.359375 24.464844 C 12.359375 24.496094 12.359375 24.527344 12.363281 24.558594 C 12.363281 24.589844 12.371094 24.621094 12.375 24.652344 C 12.382812 24.683594 12.390625 24.714844 12.398438 24.746094 C 12.40625 24.773438 12.417969 24.804688 12.429688 24.832031 C 12.441406 24.863281 12.457031 24.890625 12.472656 24.917969 C 12.484375 24.945312 12.503906 24.972656 12.519531 25 C 12.539062 25.027344 12.554688 25.050781 12.574219 25.074219 C 12.597656 25.101562 12.617188 25.125 12.640625 25.144531 C 12.660156 25.167969 12.683594 25.1875 12.710938 25.210938 C 12.734375 25.230469 12.757812 25.246094 12.785156 25.265625 C 12.8125 25.28125 12.839844 25.300781 12.867188 25.3125 C 12.894531 25.328125 12.921875 25.34375 12.953125 25.355469 C 12.980469 25.367188 13.011719 25.378906 13.039062 25.386719 C 13.070312 25.394531 13.101562 25.402344 13.132812 25.410156 C 13.164062 25.414062 13.195312 25.421875 13.226562 25.421875 C 13.257812 25.425781 13.289062 25.425781 13.320312 25.425781 L 16.769531 25.425781 L 20.816406 29.476562 C 20.851562 29.507812 20.886719 29.539062 20.925781 29.570312 C 20.960938 29.597656 21.003906 29.621094 21.042969 29.644531 C 21.085938 29.667969 21.128906 29.6875 21.171875 29.703125 C 21.21875 29.71875 21.265625 29.730469 21.308594 29.742188 C 21.355469 29.75 21.402344 29.757812 21.453125 29.757812 C 21.5 29.761719 21.546875 29.761719 21.59375 29.753906 C 21.640625 29.75 21.6875 29.742188 21.734375 29.730469 C 21.777344 29.71875 21.824219 29.707031 21.867188 29.6875 C 21.910156 29.667969 21.953125 29.648438 21.996094 29.625 C 22.035156 29.597656 22.074219 29.570312 22.109375 29.542969 C 22.148438 29.511719 22.183594 29.480469 22.214844 29.445312 C 22.246094 29.410156 22.273438 29.371094 22.300781 29.332031 C 22.328125 29.292969 22.351562 29.253906 22.371094 29.210938 C 22.390625 29.167969 22.410156 29.121094 22.421875 29.078125 C 22.4375 29.03125 22.445312 28.984375 22.453125 28.9375 C 22.460938 28.890625 22.464844 28.84375 22.464844 28.796875 L 22.464844 11.46875 C 22.464844 11.421875 22.460938 11.375 22.453125 11.324219 C 22.445312 11.277344 22.433594 11.230469 22.421875 11.183594 C 22.40625 11.136719 22.390625 11.09375 22.367188 11.050781 C 22.347656 11.007812 22.324219 10.964844 22.296875 10.925781 C 22.269531 10.882812 22.238281 10.847656 22.203125 10.8125 C 22.171875 10.777344 22.136719 10.742188 22.097656 10.714844 C 22.058594 10.683594 22.019531 10.65625 21.976562 10.632812 C 21.9375 10.609375 21.890625 10.585938 21.847656 10.570312 Z M 20.539062 26.472656 L 17.847656 23.78125 C 17.804688 23.738281 17.753906 23.699219 17.703125 23.664062 C 17.648438 23.628906 17.59375 23.597656 17.535156 23.574219 C 17.476562 23.550781 17.417969 23.53125 17.355469 23.519531 C 17.296875 23.507812 17.234375 23.503906 17.167969 23.503906 L 14.28125 23.503906 L 14.28125 17.246094 L 17.167969 17.246094 C 17.238281 17.246094 17.304688 17.238281 17.371094 17.226562 C 17.4375 17.210938 17.5 17.191406 17.5625 17.164062 C 17.625 17.136719 17.683594 17.101562 17.738281 17.0625 C 17.792969 17.023438 17.839844 16.976562 17.886719 16.929688 L 20.539062 13.976562 L 20.539062 26.492188 Z M 20.539062 26.472656 "/>
<path style=" stroke:none;fill-rule:nonzero;fill:rgb(0%,0%,0%);fill-opacity:1;" d="M 28.015625 13.394531 C 27.996094 13.375 27.972656 13.351562 27.945312 13.332031 C 27.921875 13.3125 27.898438 13.292969 27.871094 13.277344 C 27.84375 13.257812 27.816406 13.242188 27.789062 13.226562 C 27.761719 13.210938 27.734375 13.199219 27.703125 13.1875 C 27.675781 13.175781 27.644531 13.164062 27.613281 13.15625 C 27.585938 13.148438 27.554688 13.140625 27.523438 13.132812 C 27.492188 13.128906 27.460938 13.121094 27.429688 13.121094 C 27.398438 13.117188 27.367188 13.113281 27.335938 13.113281 C 27.304688 13.117188 27.273438 13.117188 27.242188 13.121094 C 27.210938 13.125 27.179688 13.128906 27.148438 13.132812 C 27.117188 13.140625 27.085938 13.148438 27.054688 13.15625 C 27.023438 13.167969 26.996094 13.175781 26.964844 13.191406 C 26.9375 13.203125 26.910156 13.214844 26.882812 13.230469 C 26.851562 13.246094 26.828125 13.261719 26.800781 13.28125 C 26.773438 13.296875 26.75 13.316406 26.722656 13.335938 C 26.699219 13.355469 26.675781 13.378906 26.65625 13.398438 C 26.632812 13.421875 26.609375 13.445312 26.589844 13.46875 C 26.570312 13.496094 26.550781 13.519531 26.535156 13.546875 C 26.519531 13.574219 26.5 13.597656 26.488281 13.628906 C 26.472656 13.65625 26.457031 13.683594 26.445312 13.714844 C 26.433594 13.742188 26.425781 13.773438 26.414062 13.800781 C 26.40625 13.832031 26.398438 13.863281 26.390625 13.894531 C 26.386719 13.925781 26.382812 13.957031 26.378906 13.988281 C 26.375 14.019531 26.375 14.050781 26.375 14.082031 C 26.375 14.113281 26.375 14.144531 26.378906 14.175781 C 26.382812 14.207031 26.386719 14.238281 26.394531 14.269531 C 26.398438 14.300781 26.40625 14.332031 26.417969 14.363281 C 26.425781 14.390625 26.4375 14.421875 26.449219 14.449219 C 26.460938 14.480469 26.476562 14.507812 26.492188 14.535156 C 26.503906 14.5625 26.523438 14.589844 26.539062 14.617188 C 26.558594 14.644531 26.574219 14.667969 26.597656 14.691406 C 26.617188 14.71875 26.636719 14.738281 26.660156 14.761719 C 26.75 14.851562 26.835938 14.941406 26.917969 15.03125 C 27.003906 15.125 27.085938 15.21875 27.164062 15.316406 C 27.246094 15.410156 27.324219 15.511719 27.398438 15.609375 C 27.472656 15.710938 27.542969 15.8125 27.613281 15.914062 C 27.683594 16.019531 27.75 16.125 27.816406 16.230469 C 27.878906 16.339844 27.941406 16.445312 28 16.558594 C 28.0625 16.667969 28.117188 16.777344 28.171875 16.890625 C 28.226562 17.003906 28.277344 17.117188 28.324219 17.234375 C 28.371094 17.347656 28.417969 17.464844 28.460938 17.582031 C 28.5 17.699219 28.542969 17.820312 28.578125 17.9375 C 28.613281 18.058594 28.648438 18.179688 28.679688 18.300781 C 28.710938 18.421875 28.738281 18.542969 28.761719 18.664062 C 28.785156 18.789062 28.808594 18.910156 28.824219 19.035156 C 28.84375 19.160156 28.859375 19.28125 28.871094 19.40625 C 28.882812 19.53125 28.894531 19.65625 28.898438 19.78125 C 28.90625 19.90625 28.910156 20.03125 28.910156 20.15625 C 28.910156 20.28125 28.90625 20.40625 28.898438 20.53125 C 28.894531 20.65625 28.882812 20.78125 28.871094 20.902344 C 28.859375 21.027344 28.84375 21.152344 28.824219 21.277344 C 28.808594 21.398438 28.785156 21.523438 28.761719 21.644531 C 28.738281 21.765625 28.710938 21.890625 28.679688 22.011719 C 28.648438 22.132812 28.613281 22.253906 28.578125 22.371094 C 28.542969 22.492188 28.5 22.609375 28.460938 22.726562 C 28.417969 22.84375 28.371094 22.960938 28.324219 23.078125 C 28.277344 23.191406 28.226562 23.304688 28.171875 23.417969 C 28.117188 23.53125 28.0625 23.644531 28 23.753906 C 27.941406 23.863281 27.878906 23.972656 27.816406 24.078125 C 27.75 24.1875 27.683594 24.292969 27.613281 24.394531 C 27.542969 24.5 27.472656 24.601562 27.398438 24.699219 C 27.324219 24.800781 27.246094 24.898438 27.164062 24.996094 C 27.085938 25.089844 27.003906 25.183594 26.917969 25.277344 C 26.835938 25.371094 26.75 25.460938 26.660156 25.546875 C 26.632812 25.570312 26.605469 25.589844 26.578125 25.613281 C 26.550781 25.636719 26.527344 25.660156 26.503906 25.6875 C 26.480469 25.714844 26.457031 25.742188 26.4375 25.769531 C 26.417969 25.796875 26.398438 25.828125 26.382812 25.859375 C 26.363281 25.890625 26.347656 25.921875 26.335938 25.953125 C 26.320312 25.984375 26.308594 26.019531 26.300781 26.050781 C 26.289062 26.085938 26.28125 26.121094 26.273438 26.152344 C 26.269531 26.1875 26.265625 26.222656 26.261719 26.257812 C 26.257812 26.292969 26.257812 26.328125 26.257812 26.363281 C 26.261719 26.398438 26.265625 26.433594 26.269531 26.46875 C 26.273438 26.5 26.28125 26.535156 26.289062 26.570312 C 26.296875 26.605469 26.308594 26.636719 26.320312 26.671875 C 26.332031 26.703125 26.347656 26.734375 26.363281 26.765625 C 26.378906 26.796875 26.398438 26.828125 26.417969 26.855469 C 26.433594 26.886719 26.457031 26.914062 26.476562 26.941406 C 26.5 26.96875 26.523438 26.996094 26.550781 27.019531 C 26.574219 27.042969 26.601562 27.066406 26.628906 27.089844 C 26.65625 27.109375 26.683594 27.128906 26.714844 27.148438 C 26.746094 27.167969 26.773438 27.183594 26.804688 27.199219 C 26.839844 27.214844 26.871094 27.226562 26.902344 27.238281 C 26.9375 27.25 26.96875 27.257812 27.003906 27.269531 C 27.039062 27.277344 27.074219 27.28125 27.109375 27.285156 C 27.144531 27.289062 27.175781 27.292969 27.210938 27.292969 C 27.246094 27.292969 27.28125 27.292969 27.316406 27.289062 C 27.351562 27.285156 27.386719 27.277344 27.421875 27.269531 C 27.457031 27.265625 27.488281 27.253906 27.523438 27.242188 C 27.554688 27.234375 27.589844 27.21875 27.621094 27.207031 C 27.652344 27.191406 27.683594 27.175781 27.714844 27.15625 C 27.742188 27.140625 27.773438 27.121094 27.800781 27.097656 C 27.828125 27.078125 27.855469 27.054688 27.878906 27.03125 C 27.90625 27.007812 27.929688 26.980469 27.953125 26.953125 C 27.976562 26.929688 27.996094 26.902344 28.015625 26.871094 C 28.128906 26.761719 28.234375 26.648438 28.339844 26.53125 C 28.445312 26.417969 28.546875 26.300781 28.644531 26.179688 C 28.746094 26.058594 28.839844 25.9375 28.933594 25.8125 C 29.027344 25.683594 29.117188 25.558594 29.203125 25.429688 C 29.289062 25.300781 29.375 25.167969 29.453125 25.035156 C 29.535156 24.898438 29.613281 24.765625 29.6875 24.625 C 29.757812 24.488281 29.828125 24.351562 29.898438 24.207031 C 29.964844 24.066406 30.027344 23.925781 30.085938 23.78125 C 30.144531 23.636719 30.203125 23.492188 30.253906 23.34375 C 30.308594 23.199219 30.355469 23.050781 30.402344 22.902344 C 30.449219 22.75 30.488281 22.601562 30.527344 22.449219 C 30.566406 22.296875 30.597656 22.144531 30.628906 21.992188 C 30.660156 21.839844 30.6875 21.6875 30.710938 21.53125 C 30.734375 21.378906 30.753906 21.222656 30.765625 21.066406 C 30.78125 20.914062 30.792969 20.757812 30.800781 20.601562 C 30.808594 20.445312 30.8125 20.289062 30.8125 20.132812 C 30.8125 19.976562 30.808594 19.820312 30.800781 19.664062 C 30.792969 19.511719 30.78125 19.355469 30.765625 19.199219 C 30.753906 19.042969 30.734375 18.890625 30.710938 18.734375 C 30.6875 18.582031 30.660156 18.425781 30.628906 18.273438 C 30.597656 18.121094 30.566406 17.96875 30.527344 17.816406 C 30.488281 17.667969 30.449219 17.515625 30.402344 17.367188 C 30.355469 17.21875 30.308594 17.070312 30.253906 16.921875 C 30.203125 16.777344 30.144531 16.628906 30.085938 16.484375 C 30.027344 16.339844 29.964844 16.199219 29.898438 16.058594 C 29.828125 15.917969 29.757812 15.777344 29.6875 15.640625 C 29.613281 15.503906 29.535156 15.367188 29.453125 15.234375 C 29.375 15.101562 29.289062 14.96875 29.203125 14.839844 C 29.117188 14.707031 29.027344 14.582031 28.933594 14.457031 C 28.839844 14.332031 28.746094 14.207031 28.644531 14.085938 C 28.546875 13.96875 28.445312 13.847656 28.339844 13.734375 C 28.234375 13.617188 28.128906 13.503906 28.015625 13.394531 Z M 28.015625 13.394531 "/>
<path style=" stroke:none;fill-rule:nonzero;fill:rgb(0%,0%,0%);fill-opacity:1;" d="M 30.605469 10.804688 C 30.585938 10.78125 30.5625 10.757812 30.535156 10.738281 C 30.511719 10.714844 30.488281 10.695312 30.460938 10.675781 C 30.433594 10.65625 30.40625 10.640625 30.378906 10.621094 C 30.351562 10.605469 30.324219 10.589844 30.292969 10.578125 C 30.265625 10.566406 30.234375 10.550781 30.203125 10.542969 C 30.171875 10.53125 30.140625 10.523438 30.109375 10.515625 C 30.078125 10.507812 30.046875 10.503906 30.011719 10.5 C 29.980469 10.496094 29.949219 10.492188 29.914062 10.492188 C 29.882812 10.492188 29.851562 10.492188 29.820312 10.496094 C 29.785156 10.496094 29.753906 10.5 29.722656 10.507812 C 29.691406 10.511719 29.660156 10.519531 29.628906 10.527344 C 29.597656 10.539062 29.566406 10.546875 29.535156 10.5625 C 29.503906 10.574219 29.476562 10.585938 29.445312 10.601562 C 29.417969 10.617188 29.390625 10.632812 29.363281 10.652344 C 29.335938 10.667969 29.308594 10.6875 29.285156 10.707031 C 29.257812 10.730469 29.234375 10.75 29.210938 10.773438 C 29.1875 10.796875 29.167969 10.820312 29.148438 10.847656 C 29.125 10.871094 29.105469 10.898438 29.089844 10.925781 C 29.070312 10.953125 29.054688 10.980469 29.039062 11.007812 C 29.023438 11.039062 29.011719 11.066406 29 11.097656 C 28.988281 11.128906 28.976562 11.160156 28.96875 11.191406 C 28.960938 11.222656 28.953125 11.253906 28.945312 11.285156 C 28.941406 11.316406 28.9375 11.347656 28.933594 11.382812 C 28.929688 11.414062 28.929688 11.445312 28.933594 11.480469 C 28.933594 11.511719 28.933594 11.542969 28.9375 11.578125 C 28.945312 11.609375 28.949219 11.640625 28.957031 11.671875 C 28.964844 11.703125 28.972656 11.734375 28.984375 11.765625 C 28.992188 11.796875 29.007812 11.828125 29.019531 11.855469 C 29.03125 11.886719 29.046875 11.914062 29.066406 11.941406 C 29.082031 11.96875 29.097656 11.996094 29.117188 12.023438 C 29.136719 12.050781 29.15625 12.074219 29.179688 12.097656 C 29.203125 12.125 29.226562 12.144531 29.25 12.167969 C 29.378906 12.296875 29.507812 12.429688 29.632812 12.566406 C 29.757812 12.703125 29.878906 12.84375 29.996094 12.984375 C 30.113281 13.128906 30.226562 13.273438 30.335938 13.417969 C 30.449219 13.566406 30.554688 13.71875 30.65625 13.871094 C 30.761719 14.023438 30.859375 14.179688 30.957031 14.335938 C 31.050781 14.496094 31.140625 14.65625 31.230469 14.820312 C 31.316406 14.980469 31.402344 15.144531 31.480469 15.3125 C 31.558594 15.480469 31.632812 15.648438 31.707031 15.816406 C 31.777344 15.988281 31.84375 16.160156 31.90625 16.332031 C 31.96875 16.507812 32.027344 16.683594 32.082031 16.859375 C 32.132812 17.035156 32.183594 17.210938 32.230469 17.390625 C 32.273438 17.570312 32.3125 17.75 32.351562 17.929688 C 32.386719 18.113281 32.417969 18.292969 32.445312 18.476562 C 32.472656 18.660156 32.496094 18.84375 32.515625 19.027344 C 32.53125 19.210938 32.546875 19.394531 32.554688 19.578125 C 32.5625 19.761719 32.570312 19.945312 32.570312 20.132812 C 32.570312 20.316406 32.5625 20.5 32.554688 20.683594 C 32.546875 20.867188 32.53125 21.050781 32.515625 21.234375 C 32.496094 21.421875 32.472656 21.601562 32.445312 21.785156 C 32.417969 21.96875 32.386719 22.148438 32.351562 22.332031 C 32.3125 22.511719 32.273438 22.691406 32.230469 22.871094 C 32.183594 23.050781 32.132812 23.226562 32.082031 23.402344 C 32.027344 23.582031 31.96875 23.753906 31.90625 23.929688 C 31.84375 24.101562 31.777344 24.273438 31.707031 24.445312 C 31.632812 24.613281 31.558594 24.785156 31.480469 24.949219 C 31.402344 25.117188 31.316406 25.28125 31.230469 25.445312 C 31.140625 25.605469 31.050781 25.765625 30.957031 25.925781 C 30.859375 26.082031 30.761719 26.238281 30.65625 26.390625 C 30.554688 26.542969 30.449219 26.695312 30.335938 26.84375 C 30.226562 26.988281 30.113281 27.136719 29.996094 27.277344 C 29.878906 27.417969 29.757812 27.558594 29.632812 27.695312 C 29.507812 27.832031 29.378906 27.964844 29.25 28.09375 C 29.226562 28.117188 29.207031 28.140625 29.183594 28.164062 C 29.164062 28.1875 29.144531 28.214844 29.128906 28.238281 C 29.109375 28.265625 29.09375 28.292969 29.078125 28.320312 C 29.066406 28.347656 29.050781 28.375 29.039062 28.40625 C 29.027344 28.433594 29.015625 28.464844 29.007812 28.496094 C 28.996094 28.523438 28.988281 28.554688 28.984375 28.585938 C 28.976562 28.617188 28.972656 28.648438 28.96875 28.679688 C 28.964844 28.710938 28.964844 28.742188 28.964844 28.773438 C 28.964844 28.804688 28.964844 28.835938 28.96875 28.867188 C 28.972656 28.898438 28.976562 28.929688 28.980469 28.960938 C 28.988281 28.992188 28.996094 29.023438 29.003906 29.054688 C 29.015625 29.082031 29.023438 29.113281 29.035156 29.144531 C 29.046875 29.171875 29.0625 29.199219 29.078125 29.226562 C 29.089844 29.257812 29.109375 29.285156 29.125 29.308594 C 29.140625 29.335938 29.160156 29.363281 29.179688 29.386719 C 29.199219 29.410156 29.222656 29.433594 29.242188 29.457031 C 29.265625 29.476562 29.289062 29.5 29.3125 29.519531 C 29.339844 29.539062 29.363281 29.558594 29.390625 29.578125 C 29.414062 29.59375 29.441406 29.609375 29.46875 29.625 C 29.5 29.640625 29.527344 29.652344 29.554688 29.664062 C 29.585938 29.679688 29.613281 29.6875 29.644531 29.699219 C 29.675781 29.707031 29.707031 29.714844 29.734375 29.722656 C 29.765625 29.726562 29.796875 29.730469 29.828125 29.734375 C 29.859375 29.738281 29.890625 29.742188 29.925781 29.742188 C 29.957031 29.742188 29.988281 29.738281 30.019531 29.734375 C 30.050781 29.734375 30.082031 29.730469 30.113281 29.722656 C 30.144531 29.714844 30.171875 29.710938 30.203125 29.699219 C 30.234375 29.691406 30.265625 29.679688 30.292969 29.667969 C 30.320312 29.65625 30.351562 29.644531 30.378906 29.628906 C 30.40625 29.613281 30.433594 29.597656 30.460938 29.582031 C 30.484375 29.5625 30.511719 29.542969 30.535156 29.523438 C 30.558594 29.503906 30.582031 29.484375 30.605469 29.460938 C 30.757812 29.308594 30.910156 29.152344 31.054688 28.992188 C 31.199219 28.832031 31.34375 28.671875 31.480469 28.503906 C 31.617188 28.335938 31.75 28.167969 31.878906 27.996094 C 32.011719 27.820312 32.136719 27.644531 32.253906 27.464844 C 32.375 27.285156 32.492188 27.105469 32.605469 26.917969 C 32.714844 26.734375 32.824219 26.546875 32.925781 26.355469 C 33.027344 26.164062 33.125 25.972656 33.21875 25.777344 C 33.3125 25.582031 33.398438 25.386719 33.480469 25.1875 C 33.566406 24.988281 33.644531 24.785156 33.714844 24.582031 C 33.789062 24.378906 33.859375 24.171875 33.921875 23.964844 C 33.984375 23.761719 34.042969 23.550781 34.09375 23.34375 C 34.148438 23.132812 34.195312 22.921875 34.238281 22.710938 C 34.28125 22.496094 34.316406 22.285156 34.347656 22.070312 C 34.382812 21.859375 34.40625 21.644531 34.429688 21.429688 C 34.449219 21.210938 34.464844 20.996094 34.476562 20.78125 C 34.488281 20.566406 34.492188 20.351562 34.492188 20.132812 C 34.492188 19.917969 34.488281 19.703125 34.476562 19.484375 C 34.464844 19.269531 34.449219 19.054688 34.429688 18.839844 C 34.40625 18.625 34.382812 18.410156 34.347656 18.195312 C 34.316406 17.980469 34.28125 17.769531 34.238281 17.558594 C 34.195312 17.34375 34.148438 17.132812 34.09375 16.925781 C 34.042969 16.714844 33.984375 16.507812 33.921875 16.300781 C 33.859375 16.09375 33.789062 15.890625 33.714844 15.683594 C 33.644531 15.480469 33.566406 15.28125 33.480469 15.082031 C 33.398438 14.882812 33.3125 14.683594 33.21875 14.488281 C 33.125 14.292969 33.027344 14.101562 32.925781 13.910156 C 32.824219 13.71875 32.714844 13.53125 32.605469 13.347656 C 32.492188 13.164062 32.375 12.980469 32.253906 12.800781 C 32.136719 12.621094 32.011719 12.445312 31.878906 12.273438 C 31.75 12.097656 31.617188 11.929688 31.480469 11.761719 C 31.34375 11.597656 31.199219 11.433594 31.054688 11.273438 C 30.910156 11.113281 30.757812 10.957031 30.605469 10.804688 Z M 30.605469 10.804688 "/>
<path style=" stroke:none;fill-rule:nonzero;fill:rgb(0%,0%,0%);fill-opacity:1;" d="M 25.304688 16.070312 C 25.28125 16.050781 25.257812 16.027344 25.234375 16.007812 C 25.207031 15.988281 25.183594 15.96875 25.15625 15.953125 C 25.128906 15.933594 25.101562 15.917969 25.074219 15.902344 C 25.046875 15.890625 25.019531 15.875 24.988281 15.863281 C 24.960938 15.851562 24.929688 15.839844 24.902344 15.832031 C 24.871094 15.824219 24.839844 15.816406 24.808594 15.808594 C 24.777344 15.804688 24.746094 15.800781 24.714844 15.796875 C 24.683594 15.792969 24.652344 15.792969 24.621094 15.792969 C 24.589844 15.792969 24.558594 15.792969 24.527344 15.796875 C 24.496094 15.800781 24.464844 15.804688 24.433594 15.8125 C 24.402344 15.816406 24.371094 15.824219 24.339844 15.835938 C 24.3125 15.84375 24.28125 15.855469 24.253906 15.867188 C 24.222656 15.878906 24.195312 15.890625 24.167969 15.90625 C 24.140625 15.921875 24.113281 15.9375 24.085938 15.957031 C 24.058594 15.972656 24.035156 15.992188 24.011719 16.011719 C 23.984375 16.03125 23.964844 16.054688 23.941406 16.078125 C 23.917969 16.097656 23.898438 16.121094 23.878906 16.148438 C 23.859375 16.171875 23.839844 16.195312 23.820312 16.222656 C 23.804688 16.25 23.789062 16.277344 23.773438 16.304688 C 23.757812 16.332031 23.746094 16.359375 23.734375 16.390625 C 23.722656 16.417969 23.710938 16.449219 23.703125 16.480469 C 23.691406 16.507812 23.683594 16.539062 23.679688 16.570312 C 23.671875 16.601562 23.667969 16.632812 23.664062 16.664062 C 23.664062 16.695312 23.660156 16.726562 23.660156 16.757812 C 23.660156 16.789062 23.664062 16.820312 23.667969 16.851562 C 23.667969 16.882812 23.675781 16.914062 23.679688 16.945312 C 23.6875 16.976562 23.695312 17.007812 23.703125 17.039062 C 23.710938 17.066406 23.722656 17.097656 23.734375 17.125 C 23.746094 17.15625 23.761719 17.183594 23.777344 17.210938 C 23.792969 17.238281 23.808594 17.265625 23.824219 17.292969 C 23.84375 17.320312 23.863281 17.34375 23.882812 17.367188 C 23.902344 17.394531 23.921875 17.417969 23.945312 17.4375 C 23.988281 17.480469 24.035156 17.527344 24.074219 17.574219 C 24.117188 17.621094 24.160156 17.667969 24.199219 17.714844 C 24.238281 17.761719 24.277344 17.8125 24.3125 17.863281 C 24.351562 17.914062 24.386719 17.964844 24.421875 18.015625 C 24.457031 18.066406 24.492188 18.121094 24.523438 18.171875 C 24.554688 18.226562 24.585938 18.28125 24.617188 18.335938 C 24.644531 18.390625 24.675781 18.445312 24.703125 18.503906 C 24.726562 18.558594 24.753906 18.617188 24.777344 18.675781 C 24.800781 18.730469 24.824219 18.789062 24.84375 18.847656 C 24.867188 18.90625 24.886719 18.96875 24.90625 19.027344 C 24.921875 19.085938 24.941406 19.148438 24.957031 19.207031 C 24.96875 19.269531 24.984375 19.328125 24.996094 19.390625 C 25.007812 19.453125 25.019531 19.511719 25.027344 19.574219 C 25.039062 19.636719 25.046875 19.699219 25.050781 19.761719 C 25.058594 19.824219 25.0625 19.886719 25.066406 19.949219 C 25.070312 20.011719 25.070312 20.074219 25.070312 20.136719 C 25.070312 20.199219 25.070312 20.261719 25.066406 20.324219 C 25.0625 20.386719 25.058594 20.449219 25.050781 20.511719 C 25.046875 20.574219 25.039062 20.632812 25.027344 20.695312 C 25.019531 20.757812 25.007812 20.820312 24.996094 20.882812 C 24.984375 20.941406 24.96875 21.003906 24.957031 21.0625 C 24.941406 21.125 24.921875 21.183594 24.90625 21.246094 C 24.886719 21.304688 24.867188 21.363281 24.84375 21.421875 C 24.824219 21.480469 24.800781 21.539062 24.777344 21.597656 C 24.753906 21.65625 24.726562 21.710938 24.703125 21.769531 C 24.675781 21.824219 24.644531 21.878906 24.617188 21.9375 C 24.585938 21.992188 24.554688 22.046875 24.523438 22.097656 C 24.492188 22.152344 24.457031 22.203125 24.421875 22.257812 C 24.386719 22.308594 24.351562 22.359375 24.3125 22.410156 C 24.277344 22.460938 24.238281 22.507812 24.199219 22.558594 C 24.160156 22.605469 24.117188 22.652344 24.074219 22.699219 C 24.035156 22.746094 23.988281 22.789062 23.945312 22.832031 C 23.921875 22.855469 23.902344 22.878906 23.882812 22.902344 C 23.863281 22.925781 23.84375 22.953125 23.824219 22.980469 C 23.808594 23.003906 23.792969 23.03125 23.777344 23.058594 C 23.761719 23.085938 23.746094 23.117188 23.734375 23.144531 C 23.722656 23.175781 23.710938 23.203125 23.703125 23.234375 C 23.695312 23.265625 23.6875 23.292969 23.679688 23.324219 C 23.671875 23.355469 23.667969 23.386719 23.664062 23.417969 C 23.664062 23.449219 23.660156 23.480469 23.660156 23.511719 C 23.660156 23.546875 23.664062 23.578125 23.664062 23.609375 C 23.667969 23.640625 23.671875 23.671875 23.679688 23.703125 C 23.683594 23.734375 23.691406 23.761719 23.703125 23.792969 C 23.710938 23.824219 23.722656 23.851562 23.734375 23.882812 C 23.746094 23.910156 23.757812 23.941406 23.773438 23.96875 C 23.789062 23.996094 23.804688 24.023438 23.820312 24.050781 C 23.839844 24.074219 23.855469 24.101562 23.878906 24.125 C 23.898438 24.148438 23.917969 24.171875 23.941406 24.195312 C 23.960938 24.21875 23.984375 24.238281 24.011719 24.257812 C 24.035156 24.28125 24.058594 24.296875 24.085938 24.316406 C 24.113281 24.332031 24.140625 24.351562 24.167969 24.363281 C 24.195312 24.378906 24.222656 24.394531 24.253906 24.40625 C 24.28125 24.417969 24.3125 24.429688 24.339844 24.4375 C 24.371094 24.445312 24.402344 24.453125 24.433594 24.460938 C 24.464844 24.46875 24.496094 24.472656 24.527344 24.476562 C 24.558594 24.480469 24.589844 24.480469 24.621094 24.480469 C 24.652344 24.480469 24.683594 24.480469 24.714844 24.476562 C 24.746094 24.472656 24.777344 24.46875 24.808594 24.460938 C 24.839844 24.457031 24.871094 24.449219 24.902344 24.441406 C 24.929688 24.429688 24.960938 24.421875 24.988281 24.410156 C 25.019531 24.394531 25.046875 24.382812 25.074219 24.367188 C 25.101562 24.351562 25.128906 24.335938 25.15625 24.320312 C 25.183594 24.300781 25.207031 24.285156 25.234375 24.265625 C 25.257812 24.242188 25.28125 24.222656 25.304688 24.199219 C 25.371094 24.132812 25.433594 24.066406 25.5 23.996094 C 25.5625 23.925781 25.625 23.855469 25.683594 23.785156 C 25.742188 23.710938 25.800781 23.636719 25.859375 23.5625 C 25.914062 23.484375 25.96875 23.410156 26.023438 23.332031 C 26.074219 23.253906 26.125 23.171875 26.171875 23.09375 C 26.222656 23.011719 26.269531 22.929688 26.3125 22.847656 C 26.359375 22.765625 26.402344 22.679688 26.441406 22.59375 C 26.480469 22.511719 26.519531 22.425781 26.554688 22.335938 C 26.59375 22.25 26.625 22.164062 26.660156 22.074219 C 26.691406 21.984375 26.71875 21.894531 26.746094 21.804688 C 26.773438 21.714844 26.800781 21.625 26.824219 21.535156 C 26.847656 21.441406 26.867188 21.351562 26.886719 21.257812 C 26.902344 21.167969 26.921875 21.074219 26.933594 20.980469 C 26.949219 20.886719 26.960938 20.792969 26.96875 20.699219 C 26.976562 20.605469 26.984375 20.511719 26.988281 20.417969 C 26.996094 20.324219 26.996094 20.230469 26.996094 20.136719 C 26.996094 20.042969 26.996094 19.949219 26.988281 19.855469 C 26.984375 19.757812 26.976562 19.664062 26.96875 19.570312 C 26.960938 19.476562 26.949219 19.382812 26.933594 19.292969 C 26.921875 19.199219 26.902344 19.105469 26.886719 19.011719 C 26.867188 18.921875 26.847656 18.828125 26.824219 18.738281 C 26.800781 18.644531 26.773438 18.554688 26.746094 18.464844 C 26.71875 18.375 26.691406 18.285156 26.660156 18.199219 C 26.625 18.109375 26.59375 18.019531 26.554688 17.933594 C 26.519531 17.847656 26.480469 17.761719 26.441406 17.675781 C 26.402344 17.589844 26.359375 17.507812 26.3125 17.425781 C 26.269531 17.339844 26.222656 17.257812 26.171875 17.179688 C 26.125 17.097656 26.074219 17.019531 26.023438 16.941406 C 25.96875 16.863281 25.914062 16.785156 25.859375 16.710938 C 25.800781 16.636719 25.742188 16.5625 25.683594 16.488281 C 25.625 16.414062 25.5625 16.34375 25.5 16.273438 C 25.433594 16.207031 25.371094 16.136719 25.304688 16.070312 Z M 25.304688 16.070312 "/>
<g clip-path="url(#clip2)" clip-rule="nonzero">
<path style=" stroke:none;fill-rule:nonzero;fill:rgb(1.568627%,2.352941%,2.352941%);fill-opacity:1;" d="M 10.273438 15.238281 C 9.515625 15.238281 8.929688 15.902344 9.03125 16.652344 L 9.734375 21.429688 C 9.769531 21.699219 10 21.902344 10.273438 21.902344 C 10.546875 21.902344 10.78125 21.699219 10.816406 21.429688 L 11.519531 16.652344 C 11.617188 15.902344 11.03125 15.238281 10.273438 15.238281 "/>
</g>
<g clip-path="url(#clip3)" clip-rule="nonzero">
<path style=" stroke:none;fill-rule:nonzero;fill:rgb(1.568627%,2.352941%,2.352941%);fill-opacity:1;" d="M 10.273438 22.855469 C 9.746094 22.855469 9.316406 23.28125 9.316406 23.808594 C 9.316406 24.332031 9.746094 24.757812 10.273438 24.757812 C 10.800781 24.757812 11.226562 24.332031 11.226562 23.808594 C 11.226562 23.28125 10.800781 22.855469 10.273438 22.855469 "/>
</g>
</g>
</svg>
