<?xml version="1.0" encoding="UTF-8"?>
<svg xmlns="http://www.w3.org/2000/svg" xmlns:xlink="http://www.w3.org/1999/xlink" width="40px" height="40px" viewBox="0 0 40 40" version="1.1">
<defs>
<clipPath id="clip1">
  <path d="M 0 0.894531 L 0 39.105469 C 0 39.597656 0.402344 40 0.894531 40 L 39.105469 40 C 39.597656 40 40 39.597656 40 39.105469 L 40 0.894531 C 40 0.402344 39.597656 0 39.105469 0 L 0.894531 0 C 0.402344 0 0 0.402344 0 0.894531 Z M 0 0.894531 "/>
</clipPath>
<clipPath id="clip2">
  <path d="M 9.027344 7.445312 L 31.375 7.445312 L 31.375 36.082031 L 9.027344 36.082031 Z M 9.027344 7.445312 "/>
</clipPath>
<clipPath id="clip3">
  <path d="M 12.027344 3.890625 L 22.804688 3.890625 L 22.804688 12.277344 L 12.027344 12.277344 Z M 12.027344 3.890625 "/>
</clipPath>
</defs>
<g id="surface1">
<rect x="0" y="0" width="40" height="40" style="fill:rgb(100%,100%,100%);fill-opacity:1;stroke:none;"/>
<g clip-path="url(#clip1)" clip-rule="nonzero">
<path style=" stroke:none;fill-rule:nonzero;fill:rgb(0%,0%,0%);fill-opacity:1;" d="M 35.234375 0 L 4.765625 0 C 4.6875 0 4.609375 0.00390625 4.53125 0.0078125 C 4.453125 0.0117188 4.375 0.015625 4.296875 0.0234375 C 4.222656 0.03125 4.144531 0.0429688 4.066406 0.0507812 C 3.988281 0.0625 3.914062 0.078125 3.835938 0.09375 C 3.761719 0.109375 3.683594 0.125 3.609375 0.144531 C 3.53125 0.164062 3.457031 0.183594 3.382812 0.207031 C 3.308594 0.230469 3.234375 0.253906 3.160156 0.28125 C 3.085938 0.308594 3.015625 0.335938 2.941406 0.363281 C 2.871094 0.394531 2.800781 0.425781 2.730469 0.460938 C 2.660156 0.492188 2.589844 0.527344 2.519531 0.566406 C 2.453125 0.601562 2.382812 0.640625 2.316406 0.679688 C 2.25 0.71875 2.183594 0.761719 2.121094 0.804688 C 2.054688 0.847656 1.992188 0.894531 1.929688 0.941406 C 1.867188 0.988281 1.804688 1.035156 1.746094 1.085938 C 1.683594 1.132812 1.625 1.183594 1.566406 1.238281 C 1.507812 1.289062 1.453125 1.34375 1.398438 1.398438 C 1.34375 1.453125 1.289062 1.507812 1.238281 1.566406 C 1.183594 1.625 1.132812 1.683594 1.085938 1.746094 C 1.035156 1.804688 0.988281 1.867188 0.941406 1.929688 C 0.894531 1.992188 0.847656 2.054688 0.804688 2.121094 C 0.761719 2.183594 0.71875 2.25 0.679688 2.316406 C 0.640625 2.382812 0.601562 2.453125 0.566406 2.519531 C 0.527344 2.589844 0.492188 2.660156 0.460938 2.730469 C 0.425781 2.800781 0.394531 2.871094 0.363281 2.941406 C 0.335938 3.015625 0.308594 3.085938 0.28125 3.160156 C 0.253906 3.234375 0.230469 3.308594 0.207031 3.382812 C 0.183594 3.457031 0.164062 3.53125 0.144531 3.609375 C 0.125 3.683594 0.109375 3.761719 0.09375 3.835938 C 0.078125 3.914062 0.0625 3.988281 0.0507812 4.066406 C 0.0390625 4.144531 0.03125 4.222656 0.0234375 4.300781 C 0.015625 4.375 0.0117188 4.453125 0.0078125 4.53125 C 0.00390625 4.609375 0 4.6875 0 4.765625 L 0 35.234375 C 0 35.3125 0.00390625 35.390625 0.0078125 35.46875 C 0.0117188 35.546875 0.015625 35.625 0.0234375 35.703125 C 0.03125 35.777344 0.0390625 35.855469 0.0507812 35.933594 C 0.0625 36.011719 0.078125 36.085938 0.09375 36.164062 C 0.109375 36.238281 0.125 36.316406 0.144531 36.390625 C 0.164062 36.46875 0.183594 36.542969 0.207031 36.617188 C 0.230469 36.691406 0.253906 36.765625 0.28125 36.839844 C 0.308594 36.914062 0.335938 36.984375 0.363281 37.058594 C 0.394531 37.128906 0.425781 37.199219 0.460938 37.269531 C 0.492188 37.339844 0.527344 37.410156 0.566406 37.480469 C 0.601562 37.546875 0.640625 37.617188 0.679688 37.683594 C 0.71875 37.75 0.761719 37.816406 0.804688 37.878906 C 0.847656 37.945312 0.894531 38.007812 0.941406 38.070312 C 0.988281 38.132812 1.035156 38.195312 1.085938 38.253906 C 1.132812 38.316406 1.183594 38.375 1.238281 38.433594 C 1.289062 38.492188 1.34375 38.546875 1.398438 38.601562 C 1.453125 38.65625 1.507812 38.710938 1.566406 38.761719 C 1.625 38.816406 1.683594 38.867188 1.746094 38.914062 C 1.804688 38.964844 1.867188 39.011719 1.929688 39.058594 C 1.992188 39.105469 2.054688 39.152344 2.121094 39.195312 C 2.183594 39.238281 2.25 39.28125 2.316406 39.320312 C 2.382812 39.359375 2.453125 39.398438 2.519531 39.433594 C 2.589844 39.472656 2.660156 39.507812 2.730469 39.539062 C 2.800781 39.574219 2.871094 39.605469 2.941406 39.636719 C 3.015625 39.664062 3.085938 39.691406 3.160156 39.71875 C 3.234375 39.746094 3.308594 39.769531 3.382812 39.792969 C 3.457031 39.816406 3.53125 39.835938 3.609375 39.855469 C 3.683594 39.875 3.761719 39.890625 3.835938 39.90625 C 3.914062 39.921875 3.988281 39.9375 4.066406 39.949219 C 4.144531 39.960938 4.222656 39.96875 4.296875 39.976562 C 4.375 39.984375 4.453125 39.988281 4.53125 39.992188 C 4.609375 39.996094 4.6875 40 4.765625 40 L 35.234375 40 C 35.3125 40 35.390625 39.996094 35.46875 39.992188 C 35.546875 39.988281 35.625 39.984375 35.703125 39.976562 C 35.777344 39.96875 35.855469 39.960938 35.933594 39.949219 C 36.011719 39.9375 36.085938 39.921875 36.164062 39.90625 C 36.238281 39.890625 36.316406 39.875 36.390625 39.855469 C 36.46875 39.835938 36.542969 39.816406 36.617188 39.792969 C 36.691406 39.769531 36.765625 39.746094 36.839844 39.71875 C 36.914062 39.691406 36.984375 39.664062 37.058594 39.636719 C 37.128906 39.605469 37.199219 39.574219 37.269531 39.539062 C 37.339844 39.507812 37.410156 39.472656 37.480469 39.433594 C 37.546875 39.398438 37.617188 39.359375 37.683594 39.320312 C 37.75 39.28125 37.816406 39.238281 37.878906 39.195312 C 37.945312 39.152344 38.007812 39.105469 38.070312 39.058594 C 38.132812 39.011719 38.195312 38.964844 38.253906 38.914062 C 38.316406 38.867188 38.375 38.816406 38.433594 38.761719 C 38.492188 38.710938 38.546875 38.65625 38.601562 38.601562 C 38.65625 38.546875 38.710938 38.492188 38.761719 38.433594 C 38.816406 38.375 38.867188 38.316406 38.914062 38.253906 C 38.964844 38.195312 39.011719 38.132812 39.058594 38.070312 C 39.105469 38.007812 39.152344 37.945312 39.195312 37.878906 C 39.238281 37.816406 39.28125 37.75 39.320312 37.683594 C 39.359375 37.617188 39.398438 37.546875 39.433594 37.480469 C 39.472656 37.410156 39.507812 37.339844 39.539062 37.269531 C 39.574219 37.199219 39.605469 37.128906 39.636719 37.058594 C 39.664062 36.984375 39.691406 36.914062 39.71875 36.839844 C 39.746094 36.765625 39.769531 36.691406 39.792969 36.617188 C 39.816406 36.542969 39.835938 36.46875 39.855469 36.390625 C 39.875 36.316406 39.890625 36.238281 39.90625 36.164062 C 39.921875 36.085938 39.9375 36.011719 39.949219 35.933594 C 39.960938 35.855469 39.96875 35.777344 39.976562 35.703125 C 39.984375 35.625 39.988281 35.546875 39.992188 35.46875 C 39.996094 35.390625 40 35.3125 40 35.234375 L 40 4.765625 C 40 4.6875 39.996094 4.609375 39.992188 4.53125 C 39.988281 4.453125 39.984375 4.375 39.976562 4.300781 C 39.96875 4.222656 39.960938 4.144531 39.949219 4.066406 C 39.9375 3.988281 39.921875 3.914062 39.90625 3.835938 C 39.890625 3.761719 39.875 3.683594 39.855469 3.609375 C 39.835938 3.53125 39.816406 3.457031 39.792969 3.382812 C 39.769531 3.308594 39.746094 3.234375 39.71875 3.160156 C 39.691406 3.085938 39.664062 3.015625 39.636719 2.941406 C 39.605469 2.871094 39.574219 2.800781 39.539062 2.730469 C 39.507812 2.660156 39.472656 2.589844 39.433594 2.519531 C 39.398438 2.453125 39.359375 2.382812 39.320312 2.316406 C 39.28125 2.25 39.238281 2.183594 39.195312 2.121094 C 39.152344 2.054688 39.105469 1.992188 39.058594 1.929688 C 39.011719 1.867188 38.964844 1.804688 38.914062 1.746094 C 38.867188 1.683594 38.816406 1.625 38.761719 1.566406 C 38.710938 1.507812 38.65625 1.453125 38.601562 1.398438 C 38.546875 1.34375 38.492188 1.289062 38.433594 1.238281 C 38.375 1.183594 38.316406 1.132812 38.253906 1.085938 C 38.195312 1.035156 38.132812 0.988281 38.070312 0.941406 C 38.007812 0.894531 37.945312 0.847656 37.878906 0.804688 C 37.816406 0.761719 37.75 0.71875 37.683594 0.679688 C 37.617188 0.640625 37.546875 0.601562 37.480469 0.566406 C 37.410156 0.527344 37.339844 0.492188 37.269531 0.460938 C 37.199219 0.425781 37.128906 0.394531 37.058594 0.363281 C 36.984375 0.335938 36.914062 0.308594 36.839844 0.28125 C 36.765625 0.253906 36.691406 0.230469 36.617188 0.207031 C 36.542969 0.183594 36.46875 0.164062 36.390625 0.144531 C 36.316406 0.125 36.238281 0.109375 36.164062 0.09375 C 36.085938 0.078125 36.011719 0.0625 35.933594 0.0507812 C 35.855469 0.0429688 35.777344 0.03125 35.703125 0.0234375 C 35.625 0.015625 35.546875 0.0117188 35.46875 0.0078125 C 35.390625 0.00390625 35.3125 0 35.234375 0 Z M 39.386719 35.234375 C 39.386719 35.300781 39.382812 35.371094 39.378906 35.4375 C 39.375 35.503906 39.371094 35.574219 39.363281 35.640625 C 39.359375 35.707031 39.351562 35.777344 39.339844 35.84375 C 39.328125 35.910156 39.316406 35.976562 39.304688 36.042969 C 39.292969 36.109375 39.277344 36.175781 39.257812 36.242188 C 39.242188 36.308594 39.226562 36.375 39.203125 36.4375 C 39.183594 36.503906 39.164062 36.566406 39.140625 36.632812 C 39.117188 36.695312 39.09375 36.757812 39.066406 36.820312 C 39.042969 36.882812 39.015625 36.945312 38.984375 37.007812 C 38.957031 37.070312 38.925781 37.128906 38.894531 37.191406 C 38.859375 37.25 38.828125 37.308594 38.792969 37.367188 C 38.757812 37.425781 38.722656 37.480469 38.683594 37.539062 C 38.644531 37.59375 38.605469 37.652344 38.566406 37.707031 C 38.527344 37.761719 38.484375 37.8125 38.441406 37.867188 C 38.398438 37.917969 38.351562 37.96875 38.308594 38.019531 C 38.261719 38.070312 38.214844 38.121094 38.167969 38.167969 C 38.121094 38.214844 38.070312 38.261719 38.019531 38.308594 C 37.96875 38.351562 37.917969 38.398438 37.867188 38.441406 C 37.8125 38.484375 37.757812 38.527344 37.707031 38.566406 C 37.652344 38.605469 37.59375 38.644531 37.539062 38.683594 C 37.480469 38.722656 37.425781 38.757812 37.367188 38.792969 C 37.308594 38.828125 37.25 38.859375 37.191406 38.894531 C 37.128906 38.925781 37.070312 38.957031 37.007812 38.984375 C 36.945312 39.015625 36.882812 39.042969 36.820312 39.066406 C 36.757812 39.09375 36.695312 39.117188 36.632812 39.140625 C 36.566406 39.164062 36.503906 39.183594 36.4375 39.207031 C 36.375 39.226562 36.308594 39.242188 36.242188 39.257812 C 36.175781 39.277344 36.109375 39.292969 36.042969 39.304688 C 35.976562 39.316406 35.910156 39.328125 35.84375 39.339844 C 35.777344 39.351562 35.707031 39.359375 35.640625 39.363281 C 35.574219 39.371094 35.503906 39.375 35.4375 39.378906 C 35.371094 39.382812 35.300781 39.386719 35.234375 39.386719 L 4.765625 39.386719 C 4.699219 39.386719 4.628906 39.382812 4.5625 39.378906 C 4.496094 39.375 4.425781 39.371094 4.359375 39.363281 C 4.292969 39.359375 4.222656 39.351562 4.15625 39.339844 C 4.089844 39.328125 4.023438 39.316406 3.957031 39.304688 C 3.890625 39.292969 3.824219 39.277344 3.757812 39.257812 C 3.691406 39.242188 3.625 39.226562 3.5625 39.207031 C 3.496094 39.183594 3.433594 39.164062 3.367188 39.140625 C 3.304688 39.117188 3.242188 39.09375 3.179688 39.066406 C 3.117188 39.042969 3.054688 39.015625 2.992188 38.984375 C 2.929688 38.957031 2.871094 38.925781 2.808594 38.894531 C 2.75 38.859375 2.691406 38.828125 2.632812 38.792969 C 2.574219 38.757812 2.519531 38.722656 2.460938 38.683594 C 2.40625 38.644531 2.347656 38.605469 2.292969 38.566406 C 2.242188 38.527344 2.1875 38.484375 2.132812 38.441406 C 2.082031 38.398438 2.03125 38.351562 1.980469 38.308594 C 1.929688 38.261719 1.878906 38.214844 1.832031 38.167969 C 1.785156 38.121094 1.738281 38.070312 1.691406 38.019531 C 1.648438 37.96875 1.601562 37.917969 1.558594 37.867188 C 1.515625 37.8125 1.472656 37.761719 1.433594 37.707031 C 1.394531 37.652344 1.355469 37.59375 1.316406 37.539062 C 1.277344 37.480469 1.242188 37.425781 1.207031 37.367188 C 1.171875 37.308594 1.140625 37.25 1.105469 37.191406 C 1.074219 37.128906 1.042969 37.070312 1.015625 37.007812 C 0.984375 36.945312 0.957031 36.882812 0.933594 36.820312 C 0.90625 36.757812 0.882812 36.695312 0.859375 36.632812 C 0.835938 36.566406 0.816406 36.503906 0.796875 36.4375 C 0.773438 36.375 0.757812 36.308594 0.742188 36.242188 C 0.722656 36.175781 0.707031 36.109375 0.695312 36.042969 C 0.683594 35.976562 0.671875 35.910156 0.660156 35.84375 C 0.648438 35.777344 0.640625 35.707031 0.636719 35.640625 C 0.628906 35.574219 0.625 35.503906 0.621094 35.4375 C 0.617188 35.371094 0.613281 35.300781 0.613281 35.234375 L 0.613281 4.765625 C 0.613281 4.699219 0.617188 4.628906 0.621094 4.5625 C 0.625 4.496094 0.628906 4.425781 0.636719 4.359375 C 0.640625 4.292969 0.648438 4.222656 0.660156 4.15625 C 0.671875 4.089844 0.683594 4.023438 0.695312 3.957031 C 0.707031 3.890625 0.722656 3.824219 0.742188 3.757812 C 0.757812 3.691406 0.773438 3.625 0.796875 3.5625 C 0.816406 3.496094 0.835938 3.433594 0.859375 3.367188 C 0.882812 3.304688 0.90625 3.242188 0.933594 3.179688 C 0.957031 3.117188 0.984375 3.054688 1.015625 2.992188 C 1.042969 2.929688 1.074219 2.871094 1.105469 2.808594 C 1.140625 2.75 1.171875 2.691406 1.207031 2.632812 C 1.242188 2.574219 1.277344 2.519531 1.316406 2.460938 C 1.355469 2.40625 1.394531 2.347656 1.433594 2.292969 C 1.472656 2.242188 1.515625 2.1875 1.558594 2.132812 C 1.601562 2.082031 1.648438 2.03125 1.691406 1.980469 C 1.738281 1.929688 1.785156 1.878906 1.832031 1.832031 C 1.878906 1.785156 1.929688 1.738281 1.980469 1.691406 C 2.03125 1.648438 2.082031 1.601562 2.132812 1.558594 C 2.1875 1.515625 2.242188 1.472656 2.292969 1.433594 C 2.347656 1.394531 2.40625 1.355469 2.460938 1.316406 C 2.519531 1.277344 2.574219 1.242188 2.632812 1.207031 C 2.691406 1.171875 2.75 1.140625 2.808594 1.105469 C 2.871094 1.074219 2.929688 1.042969 2.992188 1.015625 C 3.054688 0.984375 3.117188 0.957031 3.179688 0.933594 C 3.242188 0.90625 3.304688 0.882812 3.367188 0.859375 C 3.433594 0.835938 3.496094 0.816406 3.5625 0.796875 C 3.625 0.773438 3.691406 0.757812 3.757812 0.742188 C 3.824219 0.722656 3.890625 0.707031 3.957031 0.695312 C 4.023438 0.683594 4.089844 0.671875 4.15625 0.660156 C 4.222656 0.648438 4.292969 0.640625 4.359375 0.636719 C 4.425781 0.628906 4.496094 0.625 4.5625 0.621094 C 4.628906 0.617188 4.699219 0.613281 4.765625 0.613281 L 35.234375 0.613281 C 35.300781 0.613281 35.371094 0.617188 35.4375 0.621094 C 35.503906 0.625 35.574219 0.628906 35.640625 0.636719 C 35.707031 0.640625 35.777344 0.648438 35.84375 0.660156 C 35.910156 0.671875 35.976562 0.683594 36.042969 0.695312 C 36.109375 0.707031 36.175781 0.722656 36.242188 0.742188 C 36.308594 0.757812 36.375 0.773438 36.4375 0.796875 C 36.503906 0.816406 36.566406 0.835938 36.632812 0.859375 C 36.695312 0.882812 36.757812 0.90625 36.820312 0.933594 C 36.882812 0.957031 36.945312 0.984375 37.007812 1.015625 C 37.070312 1.042969 37.128906 1.074219 37.191406 1.105469 C 37.25 1.140625 37.308594 1.171875 37.367188 1.207031 C 37.425781 1.242188 37.480469 1.277344 37.539062 1.316406 C 37.59375 1.355469 37.652344 1.394531 37.707031 1.433594 C 37.757812 1.472656 37.8125 1.515625 37.867188 1.558594 C 37.917969 1.601562 37.96875 1.648438 38.019531 1.691406 C 38.070312 1.738281 38.121094 1.785156 38.167969 1.832031 C 38.214844 1.878906 38.261719 1.929688 38.308594 1.980469 C 38.351562 2.03125 38.398438 2.082031 38.441406 2.132812 C 38.484375 2.1875 38.527344 2.242188 38.566406 2.292969 C 38.605469 2.347656 38.644531 2.40625 38.683594 2.460938 C 38.722656 2.519531 38.757812 2.574219 38.792969 2.632812 C 38.828125 2.691406 38.859375 2.75 38.894531 2.808594 C 38.925781 2.871094 38.957031 2.929688 38.984375 2.992188 C 39.015625 3.054688 39.042969 3.117188 39.066406 3.179688 C 39.09375 3.242188 39.117188 3.304688 39.140625 3.367188 C 39.164062 3.433594 39.183594 3.496094 39.203125 3.5625 C 39.226562 3.625 39.242188 3.691406 39.257812 3.757812 C 39.277344 3.824219 39.292969 3.890625 39.304688 3.957031 C 39.316406 4.023438 39.328125 4.089844 39.339844 4.15625 C 39.351562 4.222656 39.359375 4.292969 39.363281 4.359375 C 39.371094 4.425781 39.375 4.496094 39.378906 4.5625 C 39.382812 4.628906 39.386719 4.699219 39.386719 4.765625 Z M 39.386719 35.234375 "/>
</g>
<g clip-path="url(#clip2)" clip-rule="nonzero">
<path style=" stroke:none;fill-rule:nonzero;fill:rgb(0%,0%,0%);fill-opacity:1;" d="M 13.238281 29.441406 C 13.804688 30.390625 14.25 31.148438 14.5 31.527344 C 16.144531 34.371094 19.050781 36.078125 22.273438 36.078125 C 27.265625 36.078125 31.375 31.84375 31.375 26.664062 L 31.375 18.828125 C 31.375 17.5625 30.363281 16.488281 29.164062 16.488281 L 29.035156 16.488281 C 28.46875 16.488281 28.023438 16.679688 27.644531 17.058594 C 27.328125 16.046875 26.445312 15.351562 25.371094 15.351562 L 25.242188 15.351562 C 24.675781 15.351562 24.105469 15.605469 23.664062 15.984375 C 23.347656 14.972656 22.464844 14.277344 21.390625 14.277344 L 21.261719 14.277344 C 20.695312 14.277344 20.25 14.46875 19.808594 14.785156 L 19.808594 9.730469 C 19.808594 8.527344 18.734375 7.453125 17.40625 7.453125 L 17.28125 7.453125 C 15.953125 7.453125 14.878906 8.527344 14.878906 9.855469 L 14.878906 22.746094 C 13.238281 20.914062 11.277344 19.332031 10.015625 20.28125 C 8.625 21.355469 9.003906 22.683594 9.382812 23.1875 C 10.394531 24.703125 12.035156 27.421875 13.238281 29.441406 Z M 10.710938 20.976562 C 11.339844 20.535156 13.109375 21.859375 15.132812 24.261719 C 15.257812 24.386719 15.449219 24.453125 15.640625 24.386719 C 15.828125 24.324219 15.953125 24.136719 15.953125 23.945312 L 15.953125 9.792969 C 15.953125 8.96875 16.585938 8.339844 17.40625 8.339844 L 17.535156 8.339844 C 18.292969 8.339844 18.988281 8.96875 18.988281 9.664062 L 18.988281 20.21875 C 18.988281 20.46875 19.175781 20.722656 19.429688 20.722656 C 19.683594 20.722656 19.871094 20.535156 19.9375 20.28125 L 19.9375 16.679688 C 19.9375 15.921875 20.566406 15.289062 21.390625 15.289062 L 21.515625 15.289062 C 22.335938 15.289062 22.96875 15.921875 22.96875 16.742188 L 22.96875 20.34375 C 22.96875 20.597656 23.160156 20.851562 23.476562 20.851562 C 23.789062 20.851562 23.980469 20.660156 23.980469 20.34375 L 23.980469 17.941406 C 23.980469 17.121094 24.675781 16.363281 25.433594 16.363281 L 25.558594 16.363281 C 26.320312 16.363281 27.015625 17.121094 27.015625 17.941406 L 27.015625 20.34375 C 27.015625 20.597656 27.203125 20.851562 27.519531 20.851562 C 27.835938 20.851562 28.023438 20.660156 28.023438 20.34375 L 28.023438 18.953125 C 28.023438 18.195312 28.65625 17.5625 29.289062 17.5625 L 29.097656 17.5625 C 29.792969 17.5625 30.363281 18.257812 30.363281 18.953125 L 30.363281 26.851562 C 30.363281 31.527344 26.699219 35.320312 22.210938 35.320312 C 19.367188 35.320312 16.777344 33.804688 15.257812 31.277344 C 15.007812 30.832031 14.5625 30.074219 13.996094 29.191406 C 12.796875 27.167969 11.152344 24.453125 10.265625 22.871094 C 10.265625 22.554688 9.699219 21.671875 10.710938 20.976562 Z M 10.710938 20.976562 "/>
</g>
<g clip-path="url(#clip3)" clip-rule="nonzero">
<path style=" stroke:none;fill-rule:nonzero;fill:rgb(0%,0%,0%);fill-opacity:1;" d="M 13.300781 12.003906 C 13.554688 11.878906 13.617188 11.625 13.488281 11.371094 C 13.175781 10.738281 12.984375 10.042969 12.984375 9.351562 C 12.984375 6.886719 15.007812 4.925781 17.40625 4.925781 C 19.871094 4.925781 21.832031 6.949219 21.832031 9.351562 C 21.832031 10.109375 21.640625 10.929688 21.199219 11.5625 C 21.074219 11.8125 21.136719 12.066406 21.390625 12.191406 C 21.453125 12.257812 21.515625 12.257812 21.640625 12.257812 C 21.832031 12.257812 21.957031 12.191406 22.019531 12.003906 C 22.527344 11.183594 22.78125 10.234375 22.78125 9.285156 C 22.78125 6.316406 20.378906 3.914062 17.40625 3.914062 C 14.4375 3.914062 12.035156 6.316406 12.035156 9.285156 C 12.035156 10.171875 12.226562 10.992188 12.605469 11.75 C 12.730469 12.066406 13.046875 12.128906 13.300781 12.003906 Z M 13.300781 12.003906 "/>
</g>
</g>
</svg>
