<?xml version="1.0" encoding="UTF-8"?>
<svg xmlns="http://www.w3.org/2000/svg" xmlns:xlink="http://www.w3.org/1999/xlink" width="40px" height="40px" viewBox="0 0 40 40" version="1.1">
<defs>
<clipPath id="clip1">
  <path d="M 5.054688 5.464844 L 35.25 5.464844 L 35.25 31.714844 L 5.054688 31.714844 Z M 5.054688 5.464844 "/>
</clipPath>
</defs>
<g id="surface1">
<rect x="0" y="0" width="40" height="40" style="fill:rgb(100%,100%,100%);fill-opacity:1;stroke:none;"/>
<path style=" stroke:none;fill-rule:nonzero;fill:rgb(0%,0%,0%);fill-opacity:1;" d="M 20 0 C 8.953125 0 0 8.960938 0 20 C 0 31.039062 8.953125 40 20 40 C 31.046875 40 40 31.039062 40 20 C 40 8.960938 31.046875 0 20 0 Z M 20 38.734375 C 9.652344 38.734375 1.265625 30.347656 1.265625 20 C 1.265625 9.652344 9.652344 1.265625 20 1.265625 C 30.347656 1.265625 38.734375 9.652344 38.734375 20 C 38.734375 30.347656 30.347656 38.734375 20 38.734375 Z M 20 38.734375 "/>
<g clip-path="url(#clip1)" clip-rule="nonzero">
<path style=" stroke:none;fill-rule:nonzero;fill:rgb(0%,0%,0%);fill-opacity:1;" d="M 34.800781 31.71875 L 5.519531 31.71875 C 5.480469 31.71875 5.441406 31.710938 5.40625 31.703125 C 5.367188 31.691406 5.332031 31.675781 5.296875 31.65625 C 5.261719 31.636719 5.234375 31.613281 5.203125 31.585938 C 5.175781 31.558594 5.152344 31.527344 5.132812 31.492188 C 5.113281 31.460938 5.097656 31.421875 5.089844 31.386719 C 5.078125 31.347656 5.074219 31.308594 5.074219 31.269531 C 5.074219 31.230469 5.078125 31.191406 5.089844 31.15625 C 5.097656 31.117188 5.113281 31.082031 5.132812 31.046875 L 19.773438 5.6875 C 19.777344 5.679688 19.785156 5.671875 19.789062 5.664062 C 19.796875 5.65625 19.800781 5.648438 19.804688 5.640625 C 19.8125 5.632812 19.820312 5.625 19.824219 5.617188 C 19.832031 5.609375 19.839844 5.605469 19.84375 5.597656 C 19.851562 5.589844 19.859375 5.582031 19.867188 5.578125 C 19.875 5.570312 19.882812 5.5625 19.890625 5.558594 C 19.898438 5.550781 19.90625 5.546875 19.914062 5.542969 C 19.921875 5.535156 19.929688 5.53125 19.9375 5.527344 C 19.945312 5.519531 19.953125 5.515625 19.964844 5.511719 C 19.972656 5.507812 19.980469 5.503906 19.988281 5.5 C 20 5.496094 20.007812 5.492188 20.015625 5.488281 C 20.027344 5.488281 20.035156 5.484375 20.046875 5.480469 C 20.054688 5.480469 20.0625 5.476562 20.074219 5.472656 C 20.082031 5.472656 20.09375 5.472656 20.101562 5.46875 C 20.113281 5.46875 20.121094 5.46875 20.132812 5.46875 C 20.140625 5.464844 20.152344 5.464844 20.160156 5.464844 C 20.171875 5.464844 20.179688 5.464844 20.191406 5.46875 C 20.199219 5.46875 20.210938 5.46875 20.21875 5.46875 C 20.230469 5.472656 20.238281 5.472656 20.25 5.472656 C 20.257812 5.476562 20.265625 5.480469 20.277344 5.480469 C 20.285156 5.484375 20.296875 5.488281 20.304688 5.488281 C 20.3125 5.492188 20.324219 5.496094 20.332031 5.5 C 20.339844 5.503906 20.351562 5.507812 20.359375 5.511719 C 20.367188 5.515625 20.375 5.519531 20.382812 5.527344 C 20.394531 5.53125 20.402344 5.535156 20.410156 5.542969 C 20.417969 5.546875 20.425781 5.550781 20.433594 5.558594 C 20.441406 5.5625 20.449219 5.570312 20.457031 5.578125 C 20.464844 5.582031 20.46875 5.589844 20.476562 5.597656 C 20.484375 5.605469 20.492188 5.609375 20.496094 5.617188 C 20.503906 5.625 20.507812 5.632812 20.515625 5.640625 C 20.523438 5.648438 20.527344 5.65625 20.53125 5.664062 C 20.539062 5.671875 20.542969 5.679688 20.546875 5.6875 L 35.1875 31.046875 C 35.191406 31.054688 35.199219 31.0625 35.203125 31.074219 C 35.207031 31.082031 35.210938 31.089844 35.214844 31.097656 C 35.21875 31.109375 35.222656 31.117188 35.222656 31.125 C 35.226562 31.136719 35.230469 31.144531 35.234375 31.15625 C 35.234375 31.164062 35.238281 31.171875 35.238281 31.183594 C 35.242188 31.191406 35.242188 31.203125 35.246094 31.210938 C 35.246094 31.222656 35.246094 31.230469 35.246094 31.242188 C 35.246094 31.25 35.25 31.261719 35.25 31.269531 C 35.25 31.28125 35.246094 31.289062 35.246094 31.300781 C 35.246094 31.308594 35.246094 31.320312 35.246094 31.328125 C 35.242188 31.339844 35.242188 31.347656 35.238281 31.355469 C 35.238281 31.367188 35.234375 31.375 35.234375 31.386719 C 35.230469 31.394531 35.226562 31.40625 35.222656 31.414062 C 35.222656 31.421875 35.21875 31.433594 35.214844 31.441406 C 35.210938 31.449219 35.207031 31.460938 35.203125 31.46875 C 35.199219 31.476562 35.191406 31.484375 35.1875 31.492188 C 35.183594 31.503906 35.179688 31.511719 35.171875 31.519531 C 35.167969 31.527344 35.160156 31.535156 35.15625 31.542969 C 35.148438 31.550781 35.144531 31.558594 35.136719 31.566406 C 35.128906 31.570312 35.125 31.578125 35.117188 31.585938 C 35.109375 31.59375 35.101562 31.601562 35.097656 31.605469 C 35.089844 31.613281 35.082031 31.617188 35.074219 31.625 C 35.066406 31.628906 35.058594 31.636719 35.050781 31.640625 C 35.042969 31.648438 35.03125 31.652344 35.023438 31.65625 C 35.015625 31.660156 35.007812 31.667969 35 31.671875 C 34.988281 31.675781 34.980469 31.679688 34.972656 31.683594 C 34.964844 31.6875 34.953125 31.691406 34.945312 31.691406 C 34.9375 31.695312 34.925781 31.699219 34.917969 31.703125 C 34.90625 31.703125 34.898438 31.707031 34.886719 31.707031 C 34.878906 31.710938 34.867188 31.710938 34.859375 31.714844 C 34.851562 31.714844 34.839844 31.714844 34.832031 31.714844 C 34.820312 31.714844 34.8125 31.71875 34.800781 31.71875 Z M 6.296875 30.824219 L 34.027344 30.824219 L 20.160156 6.804688 Z M 6.296875 30.824219 "/>
</g>
<path style=" stroke:none;fill-rule:nonzero;fill:rgb(0%,0%,0%);fill-opacity:1;" d="M 19.765625 20.210938 L 1.101562 20.210938 C 1.089844 20.210938 1.074219 20.210938 1.058594 20.210938 C 1.042969 20.207031 1.03125 20.207031 1.015625 20.203125 C 1 20.199219 0.988281 20.199219 0.972656 20.191406 C 0.960938 20.1875 0.945312 20.183594 0.933594 20.179688 C 0.917969 20.171875 0.90625 20.167969 0.890625 20.160156 C 0.878906 20.152344 0.867188 20.144531 0.855469 20.136719 C 0.84375 20.128906 0.832031 20.121094 0.820312 20.109375 C 0.808594 20.101562 0.796875 20.09375 0.789062 20.082031 C 0.777344 20.070312 0.765625 20.058594 0.757812 20.050781 C 0.75 20.039062 0.738281 20.027344 0.730469 20.015625 C 0.722656 20 0.714844 19.988281 0.710938 19.976562 C 0.703125 19.964844 0.695312 19.949219 0.691406 19.9375 C 0.683594 19.921875 0.679688 19.910156 0.675781 19.894531 C 0.671875 19.882812 0.667969 19.867188 0.664062 19.851562 C 0.660156 19.839844 0.660156 19.824219 0.660156 19.808594 C 0.65625 19.792969 0.65625 19.78125 0.65625 19.765625 C 0.65625 19.75 0.65625 19.734375 0.660156 19.722656 C 0.660156 19.707031 0.660156 19.691406 0.664062 19.679688 C 0.667969 19.664062 0.671875 19.648438 0.675781 19.636719 C 0.679688 19.621094 0.683594 19.609375 0.691406 19.59375 C 0.695312 19.582031 0.703125 19.566406 0.710938 19.554688 C 0.714844 19.542969 0.722656 19.53125 0.730469 19.515625 C 0.738281 19.503906 0.75 19.492188 0.757812 19.480469 C 0.765625 19.46875 0.777344 19.460938 0.789062 19.449219 C 0.796875 19.4375 0.808594 19.429688 0.820312 19.421875 C 0.832031 19.410156 0.84375 19.402344 0.855469 19.394531 C 0.867188 19.386719 0.878906 19.378906 0.890625 19.371094 C 0.90625 19.363281 0.917969 19.359375 0.933594 19.351562 C 0.945312 19.347656 0.960938 19.34375 0.972656 19.335938 C 0.988281 19.332031 1 19.332031 1.015625 19.328125 C 1.03125 19.324219 1.042969 19.320312 1.058594 19.320312 C 1.074219 19.320312 1.089844 19.320312 1.101562 19.320312 L 19.636719 19.320312 L 36.351562 8.789062 C 36.363281 8.78125 36.375 8.773438 36.386719 8.769531 C 36.402344 8.761719 36.414062 8.753906 36.429688 8.75 C 36.441406 8.746094 36.457031 8.738281 36.46875 8.734375 C 36.484375 8.730469 36.5 8.726562 36.511719 8.726562 C 36.527344 8.722656 36.542969 8.722656 36.558594 8.71875 C 36.570312 8.71875 36.585938 8.71875 36.601562 8.71875 C 36.617188 8.71875 36.628906 8.71875 36.644531 8.722656 C 36.660156 8.722656 36.675781 8.726562 36.6875 8.730469 C 36.703125 8.734375 36.71875 8.738281 36.730469 8.742188 C 36.746094 8.746094 36.757812 8.75 36.773438 8.757812 C 36.785156 8.761719 36.796875 8.769531 36.8125 8.777344 C 36.824219 8.785156 36.835938 8.792969 36.847656 8.800781 C 36.859375 8.808594 36.871094 8.816406 36.882812 8.828125 C 36.894531 8.835938 36.90625 8.847656 36.914062 8.859375 C 36.925781 8.867188 36.933594 8.878906 36.945312 8.890625 C 36.953125 8.902344 36.960938 8.914062 36.96875 8.925781 C 36.976562 8.941406 36.984375 8.953125 36.992188 8.964844 C 36.996094 8.980469 37.003906 8.992188 37.007812 9.007812 C 37.015625 9.019531 37.019531 9.035156 37.023438 9.046875 C 37.027344 9.0625 37.03125 9.078125 37.03125 9.089844 C 37.035156 9.105469 37.035156 9.121094 37.039062 9.136719 C 37.039062 9.148438 37.039062 9.164062 37.039062 9.179688 C 37.039062 9.195312 37.035156 9.207031 37.035156 9.222656 C 37.03125 9.238281 37.03125 9.253906 37.027344 9.265625 C 37.023438 9.28125 37.019531 9.292969 37.015625 9.308594 C 37.011719 9.324219 37.003906 9.335938 37 9.351562 C 36.992188 9.363281 36.984375 9.375 36.976562 9.390625 C 36.972656 9.402344 36.964844 9.414062 36.953125 9.425781 C 36.945312 9.4375 36.9375 9.449219 36.925781 9.460938 C 36.917969 9.472656 36.90625 9.480469 36.894531 9.492188 C 36.886719 9.503906 36.875 9.511719 36.863281 9.519531 C 36.851562 9.53125 36.839844 9.539062 36.828125 9.546875 L 20.003906 20.144531 C 19.929688 20.1875 19.851562 20.210938 19.765625 20.210938 Z M 19.765625 20.210938 "/>
<path style=" stroke:none;fill-rule:nonzero;fill:rgb(0%,0%,0%);fill-opacity:1;" d="M 36.589844 23.535156 C 36.558594 23.535156 36.53125 23.53125 36.5 23.523438 L 19.679688 20.203125 C 19.652344 20.199219 19.628906 20.191406 19.605469 20.183594 C 19.578125 20.171875 19.554688 20.160156 19.535156 20.148438 C 19.511719 20.136719 19.492188 20.121094 19.472656 20.101562 C 19.453125 20.085938 19.433594 20.066406 19.417969 20.046875 C 19.402344 20.027344 19.386719 20.007812 19.375 19.984375 C 19.363281 19.960938 19.351562 19.9375 19.34375 19.914062 C 19.335938 19.890625 19.328125 19.863281 19.324219 19.839844 C 19.320312 19.8125 19.316406 19.789062 19.316406 19.761719 C 19.316406 19.738281 19.320312 19.710938 19.324219 19.683594 C 19.328125 19.660156 19.335938 19.636719 19.34375 19.609375 C 19.355469 19.585938 19.363281 19.5625 19.378906 19.542969 C 19.390625 19.519531 19.40625 19.496094 19.421875 19.476562 C 19.4375 19.457031 19.457031 19.441406 19.476562 19.421875 C 19.496094 19.40625 19.515625 19.390625 19.539062 19.378906 C 19.5625 19.367188 19.585938 19.355469 19.609375 19.347656 C 19.632812 19.335938 19.660156 19.332031 19.683594 19.324219 L 36.507812 16.246094 C 36.523438 16.242188 36.535156 16.242188 36.550781 16.242188 C 36.566406 16.238281 36.582031 16.238281 36.59375 16.238281 C 36.609375 16.238281 36.625 16.242188 36.640625 16.242188 C 36.652344 16.242188 36.667969 16.246094 36.683594 16.25 C 36.695312 16.253906 36.710938 16.257812 36.726562 16.261719 C 36.738281 16.265625 36.753906 16.269531 36.765625 16.277344 C 36.78125 16.28125 36.792969 16.289062 36.804688 16.296875 C 36.816406 16.300781 36.832031 16.308594 36.84375 16.316406 C 36.855469 16.328125 36.867188 16.335938 36.878906 16.34375 C 36.890625 16.355469 36.898438 16.363281 36.910156 16.375 C 36.917969 16.386719 36.929688 16.394531 36.9375 16.40625 C 36.949219 16.417969 36.957031 16.429688 36.964844 16.445312 C 36.972656 16.457031 36.980469 16.46875 36.984375 16.480469 C 36.992188 16.496094 37 16.507812 37.003906 16.519531 C 37.011719 16.535156 37.015625 16.546875 37.019531 16.5625 C 37.023438 16.578125 37.027344 16.589844 37.027344 16.605469 C 37.03125 16.621094 37.03125 16.632812 37.035156 16.648438 C 37.035156 16.664062 37.035156 16.679688 37.035156 16.691406 C 37.035156 16.707031 37.035156 16.722656 37.03125 16.738281 C 37.03125 16.75 37.027344 16.765625 37.027344 16.78125 C 37.023438 16.792969 37.019531 16.808594 37.015625 16.824219 C 37.011719 16.835938 37.003906 16.851562 37 16.863281 C 36.992188 16.878906 36.988281 16.890625 36.980469 16.902344 C 36.972656 16.914062 36.964844 16.929688 36.957031 16.941406 C 36.949219 16.953125 36.9375 16.964844 36.929688 16.976562 C 36.921875 16.988281 36.910156 16.996094 36.898438 17.007812 C 36.890625 17.015625 36.878906 17.027344 36.867188 17.035156 C 36.855469 17.046875 36.84375 17.054688 36.832031 17.0625 C 36.820312 17.070312 36.804688 17.078125 36.792969 17.082031 C 36.78125 17.089844 36.765625 17.097656 36.753906 17.101562 C 36.738281 17.105469 36.726562 17.113281 36.710938 17.117188 C 36.699219 17.121094 36.683594 17.125 36.667969 17.125 L 22.15625 19.78125 L 36.675781 22.648438 C 36.703125 22.652344 36.726562 22.660156 36.753906 22.671875 C 36.78125 22.679688 36.804688 22.695312 36.828125 22.707031 C 36.851562 22.722656 36.871094 22.738281 36.890625 22.757812 C 36.914062 22.777344 36.929688 22.796875 36.945312 22.820312 C 36.964844 22.839844 36.976562 22.863281 36.988281 22.890625 C 37.003906 22.914062 37.011719 22.941406 37.019531 22.964844 C 37.027344 22.992188 37.03125 23.019531 37.035156 23.046875 C 37.035156 23.074219 37.035156 23.101562 37.035156 23.128906 C 37.03125 23.15625 37.027344 23.183594 37.019531 23.210938 C 37.011719 23.238281 37 23.261719 36.988281 23.285156 C 36.976562 23.3125 36.960938 23.335938 36.945312 23.355469 C 36.929688 23.378906 36.910156 23.398438 36.890625 23.417969 C 36.867188 23.4375 36.847656 23.453125 36.824219 23.46875 C 36.800781 23.480469 36.773438 23.492188 36.75 23.503906 C 36.722656 23.511719 36.699219 23.519531 36.671875 23.527344 C 36.644531 23.53125 36.617188 23.535156 36.589844 23.535156 Z M 36.589844 23.535156 "/>
<path style=" stroke:none;fill-rule:nonzero;fill:rgb(0%,0%,0%);fill-opacity:1;" d="M 36.589844 28.460938 C 36.519531 28.460938 36.453125 28.445312 36.390625 28.417969 L 19.566406 20.167969 C 19.554688 20.160156 19.542969 20.152344 19.527344 20.144531 C 19.515625 20.136719 19.503906 20.128906 19.492188 20.121094 C 19.480469 20.113281 19.46875 20.101562 19.460938 20.09375 C 19.449219 20.082031 19.4375 20.070312 19.429688 20.0625 C 19.417969 20.050781 19.410156 20.039062 19.402344 20.027344 C 19.394531 20.015625 19.386719 20.003906 19.378906 19.988281 C 19.371094 19.976562 19.363281 19.964844 19.359375 19.949219 C 19.351562 19.9375 19.347656 19.925781 19.339844 19.910156 C 19.335938 19.894531 19.332031 19.882812 19.328125 19.867188 C 19.328125 19.855469 19.324219 19.839844 19.320312 19.824219 C 19.320312 19.808594 19.320312 19.796875 19.316406 19.78125 C 19.316406 19.765625 19.316406 19.75 19.320312 19.738281 C 19.320312 19.722656 19.320312 19.707031 19.324219 19.695312 C 19.324219 19.679688 19.328125 19.664062 19.332031 19.652344 C 19.335938 19.636719 19.339844 19.621094 19.347656 19.609375 C 19.351562 19.59375 19.355469 19.582031 19.363281 19.570312 C 19.371094 19.554688 19.375 19.542969 19.382812 19.53125 C 19.390625 19.519531 19.402344 19.507812 19.410156 19.496094 C 19.417969 19.484375 19.429688 19.472656 19.4375 19.460938 C 19.449219 19.449219 19.457031 19.441406 19.46875 19.429688 C 19.480469 19.421875 19.492188 19.410156 19.503906 19.402344 C 19.515625 19.394531 19.527344 19.386719 19.539062 19.378906 C 19.554688 19.371094 19.566406 19.367188 19.578125 19.359375 C 19.59375 19.351562 19.605469 19.347656 19.621094 19.34375 C 19.632812 19.339844 19.648438 19.335938 19.660156 19.332031 C 19.675781 19.328125 19.691406 19.324219 19.703125 19.324219 C 19.71875 19.320312 19.734375 19.320312 19.75 19.320312 C 19.761719 19.320312 19.777344 19.320312 19.792969 19.320312 C 19.808594 19.320312 19.820312 19.320312 19.835938 19.324219 C 19.851562 19.328125 19.863281 19.328125 19.878906 19.332031 C 19.894531 19.335938 19.90625 19.34375 19.921875 19.347656 C 19.933594 19.351562 19.949219 19.359375 19.960938 19.363281 L 36.785156 27.613281 C 36.808594 27.625 36.828125 27.636719 36.847656 27.652344 C 36.871094 27.667969 36.886719 27.683594 36.90625 27.703125 C 36.921875 27.71875 36.941406 27.738281 36.953125 27.757812 C 36.96875 27.78125 36.980469 27.800781 36.992188 27.824219 C 37.003906 27.847656 37.011719 27.871094 37.019531 27.894531 C 37.023438 27.917969 37.03125 27.941406 37.03125 27.96875 C 37.035156 27.992188 37.035156 28.015625 37.035156 28.042969 C 37.03125 28.066406 37.03125 28.09375 37.023438 28.117188 C 37.019531 28.140625 37.011719 28.164062 37 28.1875 C 36.992188 28.210938 36.980469 28.234375 36.964844 28.253906 C 36.953125 28.277344 36.9375 28.296875 36.921875 28.3125 C 36.902344 28.332031 36.886719 28.351562 36.867188 28.367188 C 36.847656 28.382812 36.824219 28.394531 36.804688 28.40625 C 36.78125 28.417969 36.757812 28.429688 36.734375 28.4375 C 36.710938 28.445312 36.6875 28.453125 36.664062 28.457031 C 36.636719 28.460938 36.613281 28.460938 36.585938 28.460938 Z M 36.589844 28.460938 "/>
</g>
</svg>
