<?xml version="1.0" encoding="UTF-8"?>
<svg xmlns="http://www.w3.org/2000/svg" xmlns:xlink="http://www.w3.org/1999/xlink" width="40px" height="40px" viewBox="0 0 40 40" version="1.1">
<defs>
<clipPath id="clip1">
  <path d="M 7.59375 7.59375 L 32.222656 7.59375 L 32.222656 32.222656 L 7.59375 32.222656 Z M 7.59375 7.59375 "/>
</clipPath>
</defs>
<g id="surface1">
<rect x="0" y="0" width="40" height="40" style="fill:rgb(100%,100%,100%);fill-opacity:1;stroke:none;"/>
<path style=" stroke:none;fill-rule:nonzero;fill:rgb(0%,0%,0%);fill-opacity:1;" d="M 20 0 C 8.953125 0 0 8.960938 0 20 C 0 31.039062 8.953125 40 20 40 C 31.046875 40 40 31.039062 40 20 C 40 8.960938 31.046875 0 20 0 Z M 20 38.734375 C 9.652344 38.734375 1.265625 30.347656 1.265625 20 C 1.265625 9.652344 9.652344 1.265625 20 1.265625 C 30.347656 1.265625 38.734375 9.652344 38.734375 20 C 38.734375 30.347656 30.347656 38.734375 20 38.734375 Z M 20 38.734375 "/>
<g clip-path="url(#clip1)" clip-rule="nonzero">
<path style=" stroke:none;fill-rule:nonzero;fill:rgb(0%,0%,0%);fill-opacity:1;" d="M 8.542969 7.59375 C 8.511719 7.59375 8.480469 7.597656 8.449219 7.601562 C 8.417969 7.601562 8.386719 7.609375 8.359375 7.613281 C 8.328125 7.621094 8.296875 7.628906 8.265625 7.636719 C 8.238281 7.644531 8.207031 7.65625 8.179688 7.667969 C 8.152344 7.679688 8.125 7.691406 8.097656 7.707031 C 8.070312 7.722656 8.042969 7.738281 8.015625 7.753906 C 7.992188 7.773438 7.964844 7.789062 7.941406 7.808594 C 7.917969 7.832031 7.894531 7.851562 7.871094 7.871094 C 7.851562 7.894531 7.828125 7.917969 7.808594 7.941406 C 7.789062 7.964844 7.773438 7.992188 7.753906 8.015625 C 7.738281 8.042969 7.722656 8.070312 7.707031 8.097656 C 7.691406 8.125 7.679688 8.152344 7.667969 8.179688 C 7.65625 8.207031 7.644531 8.238281 7.636719 8.269531 C 7.628906 8.296875 7.621094 8.328125 7.613281 8.359375 C 7.609375 8.386719 7.601562 8.417969 7.601562 8.449219 C 7.597656 8.480469 7.59375 8.511719 7.59375 8.542969 C 7.59375 8.574219 7.597656 8.605469 7.601562 8.636719 C 7.601562 8.667969 7.609375 8.695312 7.613281 8.726562 C 7.621094 8.757812 7.628906 8.789062 7.636719 8.816406 C 7.644531 8.847656 7.65625 8.875 7.667969 8.90625 C 7.679688 8.933594 7.691406 8.960938 7.707031 8.988281 C 7.722656 9.015625 7.738281 9.042969 7.753906 9.070312 C 7.773438 9.09375 7.789062 9.121094 7.808594 9.144531 C 7.828125 9.167969 7.851562 9.191406 7.871094 9.210938 C 7.894531 9.234375 7.917969 9.253906 7.941406 9.273438 C 7.964844 9.292969 7.992188 9.3125 8.015625 9.328125 C 8.042969 9.347656 8.070312 9.363281 8.097656 9.378906 C 8.125 9.390625 8.152344 9.40625 8.179688 9.417969 C 8.207031 9.429688 8.238281 9.441406 8.265625 9.449219 C 8.296875 9.457031 8.328125 9.464844 8.359375 9.472656 C 8.386719 9.476562 8.417969 9.480469 8.449219 9.484375 C 8.480469 9.488281 8.511719 9.488281 8.542969 9.488281 C 8.574219 9.488281 8.605469 9.488281 8.636719 9.484375 C 8.667969 9.480469 8.695312 9.476562 8.726562 9.472656 C 8.757812 9.464844 8.789062 9.457031 8.816406 9.449219 C 8.847656 9.441406 8.875 9.429688 8.90625 9.417969 C 8.933594 9.40625 8.960938 9.390625 8.988281 9.378906 C 9.015625 9.363281 9.042969 9.347656 9.070312 9.328125 C 9.09375 9.3125 9.121094 9.292969 9.144531 9.273438 C 9.167969 9.253906 9.191406 9.234375 9.210938 9.210938 C 9.234375 9.191406 9.253906 9.167969 9.273438 9.144531 C 9.292969 9.121094 9.3125 9.09375 9.328125 9.070312 C 9.347656 9.042969 9.363281 9.015625 9.378906 8.988281 C 9.390625 8.960938 9.40625 8.933594 9.417969 8.90625 C 9.429688 8.875 9.441406 8.847656 9.449219 8.816406 C 9.457031 8.789062 9.464844 8.757812 9.472656 8.726562 C 9.476562 8.695312 9.480469 8.667969 9.484375 8.636719 C 9.488281 8.605469 9.488281 8.574219 9.488281 8.542969 C 9.488281 8.511719 9.488281 8.480469 9.484375 8.449219 C 9.480469 8.417969 9.476562 8.386719 9.472656 8.359375 C 9.464844 8.328125 9.457031 8.296875 9.449219 8.269531 C 9.441406 8.238281 9.429688 8.207031 9.417969 8.179688 C 9.40625 8.152344 9.390625 8.125 9.378906 8.097656 C 9.363281 8.070312 9.347656 8.042969 9.328125 8.015625 C 9.3125 7.992188 9.292969 7.964844 9.273438 7.941406 C 9.253906 7.917969 9.234375 7.894531 9.210938 7.871094 C 9.191406 7.851562 9.167969 7.832031 9.144531 7.808594 C 9.121094 7.789062 9.09375 7.773438 9.070312 7.753906 C 9.042969 7.738281 9.015625 7.722656 8.988281 7.707031 C 8.960938 7.691406 8.933594 7.679688 8.90625 7.667969 C 8.875 7.65625 8.847656 7.644531 8.816406 7.636719 C 8.789062 7.628906 8.757812 7.621094 8.726562 7.613281 C 8.695312 7.609375 8.667969 7.601562 8.636719 7.601562 C 8.605469 7.597656 8.574219 7.59375 8.542969 7.59375 Z M 10.4375 9.488281 C 10.40625 9.488281 10.375 9.492188 10.34375 9.496094 C 10.3125 9.496094 10.28125 9.5 10.25 9.507812 C 10.222656 9.515625 10.191406 9.519531 10.160156 9.53125 C 10.132812 9.539062 10.101562 9.550781 10.074219 9.5625 C 10.046875 9.574219 10.015625 9.585938 9.988281 9.601562 C 9.960938 9.617188 9.9375 9.632812 9.910156 9.648438 C 9.882812 9.667969 9.859375 9.683594 9.835938 9.703125 C 9.8125 9.722656 9.789062 9.746094 9.765625 9.765625 C 9.746094 9.789062 9.722656 9.8125 9.703125 9.835938 C 9.683594 9.859375 9.667969 9.882812 9.648438 9.910156 C 9.632812 9.9375 9.617188 9.960938 9.601562 9.988281 C 9.585938 10.015625 9.574219 10.046875 9.5625 10.074219 C 9.550781 10.101562 9.539062 10.132812 9.53125 10.160156 C 9.519531 10.191406 9.515625 10.222656 9.507812 10.25 C 9.5 10.28125 9.496094 10.3125 9.492188 10.34375 C 9.492188 10.375 9.488281 10.40625 9.488281 10.4375 C 9.488281 10.46875 9.492188 10.5 9.492188 10.53125 C 9.496094 10.558594 9.5 10.589844 9.507812 10.621094 C 9.515625 10.652344 9.519531 10.683594 9.53125 10.710938 C 9.539062 10.742188 9.550781 10.769531 9.5625 10.800781 C 9.574219 10.828125 9.585938 10.855469 9.601562 10.882812 C 9.617188 10.910156 9.632812 10.9375 9.648438 10.960938 C 9.667969 10.988281 9.683594 11.011719 9.703125 11.039062 C 9.722656 11.0625 9.746094 11.085938 9.765625 11.105469 C 9.789062 11.128906 9.8125 11.148438 9.835938 11.167969 C 9.859375 11.1875 9.882812 11.207031 9.910156 11.222656 C 9.9375 11.242188 9.960938 11.257812 9.988281 11.273438 C 10.015625 11.285156 10.046875 11.300781 10.074219 11.3125 C 10.101562 11.324219 10.132812 11.332031 10.160156 11.34375 C 10.191406 11.351562 10.222656 11.359375 10.25 11.367188 C 10.28125 11.371094 10.3125 11.375 10.34375 11.378906 C 10.375 11.382812 10.40625 11.382812 10.4375 11.382812 C 10.46875 11.382812 10.5 11.382812 10.53125 11.378906 C 10.558594 11.375 10.589844 11.371094 10.621094 11.367188 C 10.652344 11.359375 10.683594 11.351562 10.710938 11.34375 C 10.742188 11.332031 10.769531 11.324219 10.800781 11.3125 C 10.828125 11.300781 10.855469 11.285156 10.882812 11.273438 C 10.910156 11.257812 10.9375 11.242188 10.960938 11.222656 C 10.988281 11.207031 11.011719 11.1875 11.039062 11.167969 C 11.0625 11.148438 11.085938 11.128906 11.105469 11.105469 C 11.128906 11.085938 11.148438 11.0625 11.167969 11.039062 C 11.1875 11.011719 11.207031 10.988281 11.222656 10.960938 C 11.242188 10.9375 11.257812 10.910156 11.273438 10.882812 C 11.285156 10.855469 11.300781 10.828125 11.3125 10.800781 C 11.324219 10.769531 11.332031 10.742188 11.34375 10.710938 C 11.351562 10.683594 11.359375 10.652344 11.367188 10.621094 C 11.371094 10.589844 11.375 10.558594 11.378906 10.53125 C 11.382812 10.5 11.382812 10.46875 11.382812 10.4375 C 11.382812 10.40625 11.382812 10.375 11.378906 10.34375 C 11.375 10.3125 11.371094 10.28125 11.367188 10.25 C 11.359375 10.222656 11.351562 10.191406 11.34375 10.160156 C 11.332031 10.132812 11.324219 10.101562 11.3125 10.074219 C 11.300781 10.046875 11.285156 10.015625 11.273438 9.988281 C 11.257812 9.960938 11.242188 9.9375 11.222656 9.910156 C 11.207031 9.882812 11.1875 9.859375 11.167969 9.835938 C 11.148438 9.8125 11.128906 9.789062 11.105469 9.765625 C 11.085938 9.746094 11.0625 9.722656 11.039062 9.703125 C 11.011719 9.683594 10.988281 9.667969 10.960938 9.648438 C 10.9375 9.632812 10.910156 9.617188 10.882812 9.601562 C 10.855469 9.585938 10.828125 9.574219 10.800781 9.5625 C 10.769531 9.550781 10.742188 9.539062 10.710938 9.53125 C 10.683594 9.519531 10.652344 9.515625 10.621094 9.507812 C 10.589844 9.5 10.558594 9.496094 10.53125 9.496094 C 10.5 9.492188 10.46875 9.488281 10.4375 9.488281 Z M 12.332031 11.382812 C 12.300781 11.382812 12.269531 11.386719 12.238281 11.386719 C 12.207031 11.390625 12.175781 11.394531 12.144531 11.402344 C 12.117188 11.40625 12.085938 11.414062 12.054688 11.425781 C 12.027344 11.433594 11.996094 11.445312 11.96875 11.457031 C 11.941406 11.46875 11.910156 11.480469 11.882812 11.496094 C 11.855469 11.511719 11.832031 11.527344 11.804688 11.542969 C 11.777344 11.558594 11.753906 11.578125 11.730469 11.597656 C 11.707031 11.617188 11.683594 11.640625 11.660156 11.660156 C 11.640625 11.683594 11.617188 11.707031 11.597656 11.730469 C 11.578125 11.753906 11.558594 11.777344 11.542969 11.804688 C 11.527344 11.832031 11.511719 11.855469 11.496094 11.882812 C 11.480469 11.910156 11.46875 11.941406 11.457031 11.96875 C 11.445312 11.996094 11.433594 12.027344 11.425781 12.054688 C 11.414062 12.085938 11.40625 12.117188 11.402344 12.144531 C 11.394531 12.175781 11.390625 12.207031 11.386719 12.238281 C 11.386719 12.269531 11.382812 12.300781 11.382812 12.332031 C 11.382812 12.363281 11.386719 12.394531 11.386719 12.421875 C 11.390625 12.453125 11.394531 12.484375 11.402344 12.515625 C 11.40625 12.546875 11.414062 12.574219 11.425781 12.605469 C 11.433594 12.636719 11.445312 12.664062 11.457031 12.691406 C 11.46875 12.722656 11.480469 12.75 11.496094 12.777344 C 11.511719 12.804688 11.527344 12.832031 11.542969 12.855469 C 11.558594 12.882812 11.578125 12.90625 11.597656 12.929688 C 11.617188 12.957031 11.640625 12.976562 11.660156 13 C 11.683594 13.023438 11.707031 13.042969 11.730469 13.0625 C 11.753906 13.082031 11.777344 13.101562 11.804688 13.117188 C 11.832031 13.136719 11.855469 13.152344 11.882812 13.164062 C 11.910156 13.179688 11.941406 13.195312 11.96875 13.207031 C 11.996094 13.21875 12.027344 13.226562 12.054688 13.238281 C 12.085938 13.246094 12.117188 13.253906 12.144531 13.257812 C 12.175781 13.265625 12.207031 13.269531 12.238281 13.273438 C 12.269531 13.277344 12.300781 13.277344 12.332031 13.277344 C 12.363281 13.277344 12.390625 13.277344 12.421875 13.273438 C 12.453125 13.269531 12.484375 13.265625 12.515625 13.257812 C 12.546875 13.253906 12.574219 13.246094 12.605469 13.238281 C 12.636719 13.226562 12.664062 13.21875 12.691406 13.207031 C 12.722656 13.195312 12.75 13.179688 12.777344 13.164062 C 12.804688 13.152344 12.832031 13.136719 12.855469 13.117188 C 12.882812 13.101562 12.90625 13.082031 12.929688 13.0625 C 12.957031 13.042969 12.976562 13.023438 13 13 C 13.023438 12.976562 13.042969 12.957031 13.0625 12.929688 C 13.082031 12.90625 13.101562 12.882812 13.117188 12.855469 C 13.136719 12.832031 13.152344 12.804688 13.164062 12.777344 C 13.179688 12.75 13.195312 12.722656 13.207031 12.691406 C 13.21875 12.664062 13.226562 12.636719 13.238281 12.605469 C 13.246094 12.574219 13.253906 12.546875 13.257812 12.515625 C 13.265625 12.484375 13.269531 12.453125 13.273438 12.421875 C 13.277344 12.394531 13.277344 12.363281 13.277344 12.332031 C 13.277344 12.300781 13.277344 12.269531 13.273438 12.238281 C 13.269531 12.207031 13.265625 12.175781 13.257812 12.144531 C 13.253906 12.117188 13.246094 12.085938 13.238281 12.054688 C 13.226562 12.027344 13.21875 11.996094 13.207031 11.96875 C 13.195312 11.941406 13.179688 11.910156 13.164062 11.882812 C 13.152344 11.855469 13.136719 11.832031 13.117188 11.804688 C 13.101562 11.777344 13.082031 11.753906 13.0625 11.730469 C 13.042969 11.707031 13.023438 11.683594 13 11.660156 C 12.976562 11.640625 12.957031 11.617188 12.929688 11.597656 C 12.90625 11.578125 12.882812 11.558594 12.855469 11.542969 C 12.832031 11.527344 12.804688 11.511719 12.777344 11.496094 C 12.75 11.480469 12.722656 11.46875 12.691406 11.457031 C 12.664062 11.445312 12.636719 11.433594 12.605469 11.425781 C 12.574219 11.414062 12.546875 11.40625 12.515625 11.402344 C 12.484375 11.394531 12.453125 11.390625 12.421875 11.386719 C 12.390625 11.386719 12.363281 11.382812 12.332031 11.382812 Z M 16.089844 13.277344 C 15.902344 13.277344 15.722656 13.355469 15.59375 13.484375 L 13.484375 15.59375 C 13.210938 15.867188 13.210938 16.308594 13.484375 16.585938 L 15.792969 18.894531 L 14.109375 20.578125 C 13.578125 21.109375 13.277344 21.832031 13.277344 22.585938 L 13.277344 26.535156 L 15.171875 26.535156 L 15.171875 22.585938 C 15.171875 22.582031 15.171875 22.582031 15.171875 22.578125 L 18.960938 26.367188 L 18.960938 32.21875 L 20.855469 32.21875 L 20.855469 28.261719 L 24 31.40625 C 25.078125 32.484375 26.851562 32.484375 27.929688 31.40625 L 31.402344 27.933594 C 32.480469 26.855469 32.480469 25.082031 31.402344 24.003906 L 22.574219 15.175781 C 22.578125 15.175781 22.582031 15.171875 22.585938 15.171875 L 26.53125 15.171875 L 26.53125 13.277344 L 22.585938 13.277344 C 21.832031 13.277344 21.105469 13.574219 20.574219 14.109375 L 18.894531 15.792969 L 16.585938 13.484375 C 16.453125 13.355469 16.273438 13.277344 16.089844 13.277344 Z M 21.042969 16.324219 L 30.0625 25.339844 C 30.414062 25.695312 30.414062 26.242188 30.0625 26.59375 L 26.59375 30.066406 C 26.238281 30.417969 25.691406 30.417969 25.335938 30.066406 L 16.320312 21.046875 Z M 21.042969 16.324219 "/>
</g>
</g>
</svg>
