<?xml version="1.0" encoding="UTF-8"?>
<svg xmlns="http://www.w3.org/2000/svg" xmlns:xlink="http://www.w3.org/1999/xlink" width="40px" height="40px" viewBox="0 0 40 40" version="1.1">
<defs>
<clipPath id="clip1">
  <path d="M 24.917969 9.445312 L 26 9.445312 L 26 12.582031 L 24.917969 12.582031 Z M 24.917969 9.445312 "/>
</clipPath>
<clipPath id="clip2">
  <path d="M 1.730469 19.035156 L 19.996094 0.769531 L 38.265625 19.035156 L 19.996094 37.304688 Z M 1.730469 19.035156 "/>
</clipPath>
<clipPath id="clip3">
  <path d="M 1.730469 19.035156 L 19.996094 0.769531 L 38.265625 19.035156 L 19.996094 37.304688 Z M 1.730469 19.035156 "/>
</clipPath>
<clipPath id="clip4">
  <path d="M 1.730469 19.035156 L 19.996094 0.769531 L 38.265625 19.035156 L 19.996094 37.304688 Z M 1.730469 19.035156 "/>
</clipPath>
<clipPath id="clip5">
  <path d="M 27 10.054688 L 29.527344 10.054688 L 29.527344 12.582031 L 27 12.582031 Z M 27 10.054688 "/>
</clipPath>
<clipPath id="clip6">
  <path d="M 1.730469 19.035156 L 19.996094 0.769531 L 38.265625 19.035156 L 19.996094 37.304688 Z M 1.730469 19.035156 "/>
</clipPath>
<clipPath id="clip7">
  <path d="M 1.730469 19.035156 L 19.996094 0.769531 L 38.265625 19.035156 L 19.996094 37.304688 Z M 1.730469 19.035156 "/>
</clipPath>
<clipPath id="clip8">
  <path d="M 1.730469 19.035156 L 19.996094 0.769531 L 38.265625 19.035156 L 19.996094 37.304688 Z M 1.730469 19.035156 "/>
</clipPath>
<clipPath id="clip9">
  <path d="M 21.359375 10.054688 L 23.917969 10.054688 L 23.917969 12.582031 L 21.359375 12.582031 Z M 21.359375 10.054688 "/>
</clipPath>
<clipPath id="clip10">
  <path d="M 1.730469 19.035156 L 19.996094 0.769531 L 38.265625 19.035156 L 19.996094 37.304688 Z M 1.730469 19.035156 "/>
</clipPath>
<clipPath id="clip11">
  <path d="M 1.730469 19.035156 L 19.996094 0.769531 L 38.265625 19.035156 L 19.996094 37.304688 Z M 1.730469 19.035156 "/>
</clipPath>
<clipPath id="clip12">
  <path d="M 1.730469 19.035156 L 19.996094 0.769531 L 38.265625 19.035156 L 19.996094 37.304688 Z M 1.730469 19.035156 "/>
</clipPath>
<clipPath id="clip13">
  <path d="M 14 9.445312 L 15.054688 9.445312 L 15.054688 12.582031 L 14 12.582031 Z M 14 9.445312 "/>
</clipPath>
<clipPath id="clip14">
  <path d="M 1.730469 19.035156 L 19.996094 0.769531 L 38.265625 19.035156 L 19.996094 37.304688 Z M 1.730469 19.035156 "/>
</clipPath>
<clipPath id="clip15">
  <path d="M 1.730469 19.035156 L 19.996094 0.769531 L 38.265625 19.035156 L 19.996094 37.304688 Z M 1.730469 19.035156 "/>
</clipPath>
<clipPath id="clip16">
  <path d="M 1.730469 19.035156 L 19.996094 0.769531 L 38.265625 19.035156 L 19.996094 37.304688 Z M 1.730469 19.035156 "/>
</clipPath>
<clipPath id="clip17">
  <path d="M 16.082031 10.054688 L 18.609375 10.054688 L 18.609375 12.582031 L 16.082031 12.582031 Z M 16.082031 10.054688 "/>
</clipPath>
<clipPath id="clip18">
  <path d="M 1.730469 19.035156 L 19.996094 0.769531 L 38.265625 19.035156 L 19.996094 37.304688 Z M 1.730469 19.035156 "/>
</clipPath>
<clipPath id="clip19">
  <path d="M 1.730469 19.035156 L 19.996094 0.769531 L 38.265625 19.035156 L 19.996094 37.304688 Z M 1.730469 19.035156 "/>
</clipPath>
<clipPath id="clip20">
  <path d="M 1.730469 19.035156 L 19.996094 0.769531 L 38.265625 19.035156 L 19.996094 37.304688 Z M 1.730469 19.035156 "/>
</clipPath>
<clipPath id="clip21">
  <path d="M 10.445312 10.054688 L 12.972656 10.054688 L 12.972656 12.582031 L 10.445312 12.582031 Z M 10.445312 10.054688 "/>
</clipPath>
<clipPath id="clip22">
  <path d="M 1.730469 19.035156 L 19.996094 0.769531 L 38.265625 19.035156 L 19.996094 37.304688 Z M 1.730469 19.035156 "/>
</clipPath>
<clipPath id="clip23">
  <path d="M 1.730469 19.035156 L 19.996094 0.769531 L 38.265625 19.035156 L 19.996094 37.304688 Z M 1.730469 19.035156 "/>
</clipPath>
<clipPath id="clip24">
  <path d="M 1.730469 19.035156 L 19.996094 0.769531 L 38.265625 19.035156 L 19.996094 37.304688 Z M 1.730469 19.035156 "/>
</clipPath>
<clipPath id="clip25">
  <path d="M 11.667969 13.609375 L 28.332031 13.609375 L 28.332031 32.722656 L 11.667969 32.722656 Z M 11.667969 13.609375 "/>
</clipPath>
<clipPath id="clip26">
  <path d="M 1.730469 19.035156 L 19.996094 0.769531 L 38.265625 19.035156 L 19.996094 37.304688 Z M 1.730469 19.035156 "/>
</clipPath>
<clipPath id="clip27">
  <path d="M 1.730469 19.035156 L 19.996094 0.769531 L 38.265625 19.035156 L 19.996094 37.304688 Z M 1.730469 19.035156 "/>
</clipPath>
<clipPath id="clip28">
  <path d="M 1.730469 19.035156 L 19.996094 0.769531 L 38.265625 19.035156 L 19.996094 37.304688 Z M 1.730469 19.035156 "/>
</clipPath>
</defs>
<g id="surface1">
<rect x="0" y="0" width="40" height="40" style="fill:rgb(100%,100%,100%);fill-opacity:1;stroke:none;"/>
<path style=" stroke:none;fill-rule:nonzero;fill:rgb(0%,0%,0%);fill-opacity:1;" d="M 20 0 C 8.953125 0 0 8.960938 0 20 C 0 31.039062 8.953125 40 20 40 C 31.046875 40 40 31.039062 40 20 C 40 8.960938 31.046875 0 20 0 Z M 20 38.734375 C 9.652344 38.734375 1.265625 30.347656 1.265625 20 C 1.265625 9.652344 9.652344 1.265625 20 1.265625 C 30.347656 1.265625 38.734375 9.652344 38.734375 20 C 38.734375 30.347656 30.347656 38.734375 20 38.734375 Z M 20 38.734375 "/>
<g clip-path="url(#clip1)" clip-rule="nonzero">
<g clip-path="url(#clip2)" clip-rule="nonzero">
<g clip-path="url(#clip3)" clip-rule="nonzero">
<g clip-path="url(#clip4)" clip-rule="nonzero">
<path style=" stroke:none;fill-rule:nonzero;fill:rgb(0.392157%,0.392157%,0.392157%);fill-opacity:1;" d="M 25.820312 12.429688 C 25.925781 12.328125 25.972656 12.195312 25.976562 12.0625 L 25.972656 9.980469 C 25.972656 9.847656 25.921875 9.714844 25.820312 9.613281 C 25.617188 9.410156 25.289062 9.410156 25.085938 9.613281 C 24.984375 9.714844 24.933594 9.847656 24.933594 9.980469 L 24.933594 12.0625 C 24.933594 12.195312 24.984375 12.328125 25.085938 12.429688 C 25.289062 12.632812 25.617188 12.632812 25.820312 12.429688 Z M 25.820312 12.429688 "/>
</g>
</g>
</g>
</g>
<g clip-path="url(#clip5)" clip-rule="nonzero">
<g clip-path="url(#clip6)" clip-rule="nonzero">
<g clip-path="url(#clip7)" clip-rule="nonzero">
<g clip-path="url(#clip8)" clip-rule="nonzero">
<path style=" stroke:none;fill-rule:nonzero;fill:rgb(0.392157%,0.392157%,0.392157%);fill-opacity:1;" d="M 29.003906 10.070312 C 28.863281 10.070312 28.734375 10.128906 28.636719 10.222656 L 27.167969 11.695312 C 27.074219 11.789062 27.015625 11.917969 27.015625 12.0625 C 27.015625 12.347656 27.246094 12.582031 27.535156 12.582031 C 27.679688 12.582031 27.808594 12.523438 27.902344 12.429688 L 29.375 10.960938 C 29.46875 10.863281 29.527344 10.734375 29.527344 10.589844 C 29.527344 10.304688 29.292969 10.070312 29.003906 10.070312 Z M 29.003906 10.070312 "/>
</g>
</g>
</g>
</g>
<g clip-path="url(#clip9)" clip-rule="nonzero">
<g clip-path="url(#clip10)" clip-rule="nonzero">
<g clip-path="url(#clip11)" clip-rule="nonzero">
<g clip-path="url(#clip12)" clip-rule="nonzero">
<path style=" stroke:none;fill-rule:nonzero;fill:rgb(0.392157%,0.392157%,0.392157%);fill-opacity:1;" d="M 23.894531 12.0625 C 23.894531 11.917969 23.835938 11.789062 23.742188 11.695312 L 22.269531 10.222656 C 22.175781 10.128906 22.046875 10.070312 21.902344 10.070312 C 21.613281 10.070312 21.382812 10.304688 21.382812 10.589844 C 21.382812 10.734375 21.441406 10.863281 21.535156 10.957031 L 23.003906 12.429688 C 23.097656 12.523438 23.230469 12.582031 23.375 12.582031 C 23.660156 12.582031 23.894531 12.347656 23.894531 12.0625 Z M 23.894531 12.0625 "/>
</g>
</g>
</g>
</g>
<g clip-path="url(#clip13)" clip-rule="nonzero">
<g clip-path="url(#clip14)" clip-rule="nonzero">
<g clip-path="url(#clip15)" clip-rule="nonzero">
<g clip-path="url(#clip16)" clip-rule="nonzero">
<path style=" stroke:none;fill-rule:nonzero;fill:rgb(0.392157%,0.392157%,0.392157%);fill-opacity:1;" d="M 14.902344 12.429688 C 15 12.328125 15.050781 12.195312 15.050781 12.0625 L 15.050781 9.980469 C 15.050781 9.847656 15 9.714844 14.902344 9.613281 C 14.699219 9.410156 14.367188 9.410156 14.164062 9.613281 C 14.0625 9.714844 14.011719 9.847656 14.011719 9.980469 L 14.011719 12.0625 C 14.011719 12.195312 14.0625 12.328125 14.164062 12.429688 C 14.367188 12.632812 14.699219 12.632812 14.902344 12.429688 Z M 14.902344 12.429688 "/>
</g>
</g>
</g>
</g>
<g clip-path="url(#clip17)" clip-rule="nonzero">
<g clip-path="url(#clip18)" clip-rule="nonzero">
<g clip-path="url(#clip19)" clip-rule="nonzero">
<g clip-path="url(#clip20)" clip-rule="nonzero">
<path style=" stroke:none;fill-rule:nonzero;fill:rgb(0.392157%,0.392157%,0.392157%);fill-opacity:1;" d="M 16.09375 12.0625 C 16.09375 12.347656 16.328125 12.582031 16.613281 12.582031 C 16.757812 12.582031 16.886719 12.523438 16.980469 12.429688 L 18.453125 10.960938 C 18.546875 10.863281 18.605469 10.734375 18.605469 10.589844 C 18.605469 10.304688 18.371094 10.070312 18.085938 10.070312 C 17.941406 10.070312 17.808594 10.128906 17.714844 10.222656 L 16.246094 11.695312 C 16.152344 11.789062 16.09375 11.917969 16.09375 12.0625 Z M 16.09375 12.0625 "/>
</g>
</g>
</g>
</g>
<g clip-path="url(#clip21)" clip-rule="nonzero">
<g clip-path="url(#clip22)" clip-rule="nonzero">
<g clip-path="url(#clip23)" clip-rule="nonzero">
<g clip-path="url(#clip24)" clip-rule="nonzero">
<path style=" stroke:none;fill-rule:nonzero;fill:rgb(0.392157%,0.392157%,0.392157%);fill-opacity:1;" d="M 12.972656 12.0625 C 12.972656 11.917969 12.914062 11.789062 12.820312 11.695312 L 11.347656 10.222656 C 11.253906 10.128906 11.125 10.070312 10.980469 10.070312 C 10.695312 10.070312 10.460938 10.304688 10.460938 10.589844 C 10.460938 10.734375 10.519531 10.863281 10.613281 10.960938 L 12.082031 12.429688 C 12.179688 12.523438 12.308594 12.582031 12.453125 12.582031 C 12.738281 12.582031 12.972656 12.347656 12.972656 12.0625 Z M 12.972656 12.0625 "/>
</g>
</g>
</g>
</g>
<g clip-path="url(#clip25)" clip-rule="nonzero">
<g clip-path="url(#clip26)" clip-rule="nonzero">
<g clip-path="url(#clip27)" clip-rule="nonzero">
<g clip-path="url(#clip28)" clip-rule="nonzero">
<path style=" stroke:none;fill-rule:nonzero;fill:rgb(0.392157%,0.392157%,0.392157%);fill-opacity:1;" d="M 27.988281 13.621094 L 22.59375 13.621094 L 22.59375 24.386719 C 22.59375 25.820312 21.429688 26.984375 19.992188 26.984375 C 18.558594 26.984375 17.394531 25.820312 17.394531 24.386719 L 17.394531 13.621094 L 11.671875 13.621094 L 11.671875 24.386719 C 11.671875 28.980469 15.398438 32.707031 19.996094 32.707031 C 24.589844 32.707031 28.316406 28.980469 28.316406 24.386719 L 28.316406 13.621094 Z M 27.277344 24.382812 C 27.277344 25.367188 27.085938 26.324219 26.703125 27.21875 C 26.335938 28.085938 25.8125 28.863281 25.144531 29.535156 C 24.476562 30.203125 23.695312 30.726562 22.828125 31.09375 C 21.929688 31.476562 20.976562 31.667969 19.992188 31.667969 C 19.011719 31.667969 18.054688 31.476562 17.160156 31.09375 C 16.292969 30.726562 15.511719 30.203125 14.84375 29.535156 C 14.175781 28.863281 13.652344 28.085938 13.285156 27.21875 C 12.90625 26.324219 12.710938 25.367188 12.710938 24.386719 L 12.710938 18.824219 L 16.351562 18.824219 L 16.351562 24.386719 C 16.351562 26.394531 17.984375 28.027344 19.996094 28.027344 C 22.003906 28.027344 23.636719 26.394531 23.636719 24.386719 L 23.636719 18.824219 L 27.277344 18.824219 Z M 27.277344 24.382812 "/>
</g>
</g>
</g>
</g>
</g>
</svg>
