<?xml version="1.0" encoding="UTF-8"?>
<svg xmlns="http://www.w3.org/2000/svg" xmlns:xlink="http://www.w3.org/1999/xlink" width="40px" height="40px" viewBox="0 0 40 40" version="1.1">
<defs>
<clipPath id="clip1">
  <path d="M 1.824219 4.742188 L 38.167969 4.742188 L 38.167969 36.230469 L 1.824219 36.230469 Z M 1.824219 4.742188 "/>
</clipPath>
<clipPath id="clip2">
  <path d="M 1.007812 3.925781 L 38.964844 3.925781 L 38.964844 36.828125 L 1.007812 36.828125 Z M 1.007812 3.925781 "/>
</clipPath>
<clipPath id="clip3">
  <path d="M 0.863281 3.917969 L 39.140625 3.917969 L 39.140625 37.082031 L 0.863281 37.082031 Z M 0.863281 3.917969 "/>
</clipPath>
<clipPath id="clip4">
  <path d="M 0 2.675781 L 39.984375 2.675781 L 39.984375 37.332031 L 0 37.332031 Z M 0 2.675781 "/>
</clipPath>
</defs>
<g id="surface1">
<rect x="0" y="0" width="40" height="40" style="fill:rgb(100%,100%,100%);fill-opacity:1;stroke:none;"/>
<g clip-path="url(#clip1)" clip-rule="nonzero">
<path style=" stroke:none;fill-rule:nonzero;fill:rgb(0%,0%,0%);fill-opacity:1;" d="M 38.175781 36.226562 L 1.824219 36.226562 L 20 4.75 Z M 3.503906 35.257812 L 36.496094 35.257812 L 20 6.6875 Z M 3.503906 35.257812 "/>
</g>
<g clip-path="url(#clip2)" clip-rule="nonzero">
<path style=" stroke:none;fill-rule:nonzero;fill:rgb(0%,0%,0%);fill-opacity:1;" d="M 38.992188 36.828125 L 1.007812 36.828125 L 20 3.933594 Z M 2.761719 35.820312 L 37.238281 35.820312 L 20 5.960938 Z M 2.761719 35.820312 "/>
</g>
<g clip-path="url(#clip3)" clip-rule="nonzero">
<path style=" stroke:none;fill-rule:nonzero;fill:rgb(0%,0%,0%);fill-opacity:1;" d="M 39.136719 37.066406 L 0.863281 37.066406 L 20 3.921875 Z M 2.632812 36.046875 L 37.367188 36.046875 L 20 5.964844 Z M 2.632812 36.046875 "/>
</g>
<g clip-path="url(#clip4)" clip-rule="nonzero">
<path style=" stroke:none;fill-rule:nonzero;fill:rgb(0%,0%,0%);fill-opacity:1;" d="M 40 37.320312 L 0 37.320312 L 20 2.679688 Z M 1.847656 36.253906 L 38.152344 36.253906 L 20 4.816406 Z M 1.847656 36.253906 "/>
</g>
<path style=" stroke:none;fill-rule:nonzero;fill:rgb(0%,0%,0%);fill-opacity:1;" d="M 8.632812 34.445312 L 7.636719 34.445312 L 7.636719 28.945312 L 9.058594 28.945312 L 10.449219 32.988281 L 10.53125 32.988281 L 11.914062 28.945312 L 13.304688 28.945312 L 13.304688 34.445312 L 12.273438 34.445312 L 12.273438 30.8125 L 12.179688 30.796875 L 10.90625 34.445312 L 10 34.445312 L 8.726562 30.796875 L 8.632812 30.8125 Z M 8.632812 34.445312 "/>
<path style=" stroke:none;fill-rule:nonzero;fill:rgb(0%,0%,0%);fill-opacity:1;" d="M 15.824219 34.445312 L 14.738281 34.445312 L 14.738281 28.945312 L 15.824219 28.945312 Z M 15.824219 34.445312 "/>
<path style=" stroke:none;fill-rule:nonzero;fill:rgb(0%,0%,0%);fill-opacity:1;" d="M 19.550781 34.523438 C 19.042969 34.523438 18.597656 34.417969 18.210938 34.210938 C 17.824219 34 17.523438 33.679688 17.304688 33.257812 C 17.085938 32.835938 16.976562 32.316406 16.976562 31.695312 C 16.976562 31.074219 17.085938 30.554688 17.304688 30.132812 C 17.523438 29.707031 17.824219 29.390625 18.210938 29.179688 C 18.597656 28.972656 19.042969 28.867188 19.550781 28.867188 C 20.078125 28.867188 20.527344 28.96875 20.898438 29.175781 C 21.269531 29.382812 21.535156 29.699219 21.691406 30.121094 L 20.898438 30.609375 L 20.804688 30.605469 C 20.683594 30.316406 20.523438 30.113281 20.324219 29.988281 C 20.121094 29.863281 19.863281 29.800781 19.550781 29.800781 C 19.09375 29.800781 18.738281 29.953125 18.480469 30.257812 C 18.226562 30.558594 18.097656 31.039062 18.097656 31.695312 C 18.097656 32.351562 18.226562 32.828125 18.480469 33.132812 C 18.738281 33.433594 19.09375 33.585938 19.550781 33.585938 C 20.265625 33.585938 20.703125 33.238281 20.863281 32.542969 L 20.957031 32.542969 L 21.757812 32.960938 C 21.609375 33.480469 21.351562 33.875 20.988281 34.132812 C 20.625 34.394531 20.144531 34.523438 19.550781 34.523438 Z M 19.550781 34.523438 "/>
<path style=" stroke:none;fill-rule:nonzero;fill:rgb(0%,0%,0%);fill-opacity:1;" d="M 22.652344 34.445312 L 22.652344 28.945312 L 24.863281 28.945312 C 25.433594 28.945312 25.863281 29.074219 26.152344 29.335938 C 26.441406 29.601562 26.585938 29.960938 26.585938 30.421875 C 26.585938 30.757812 26.503906 31.03125 26.332031 31.242188 C 26.164062 31.457031 25.910156 31.621094 25.574219 31.734375 L 25.574219 31.8125 C 25.746094 31.886719 25.886719 32 25.992188 32.148438 C 26.101562 32.296875 26.203125 32.515625 26.296875 32.804688 L 26.847656 34.445312 L 25.730469 34.445312 L 25.191406 32.800781 C 25.136719 32.636719 25.074219 32.507812 25.003906 32.417969 C 24.933594 32.324219 24.847656 32.257812 24.742188 32.214844 C 24.632812 32.175781 24.496094 32.15625 24.324219 32.15625 L 23.742188 32.15625 L 23.742188 34.445312 Z M 24.730469 31.292969 C 25.257812 31.292969 25.523438 31.046875 25.523438 30.554688 C 25.523438 30.054688 25.257812 29.804688 24.730469 29.804688 L 23.742188 29.804688 L 23.742188 31.292969 Z M 24.730469 31.292969 "/>
<path style=" stroke:none;fill-rule:nonzero;fill:rgb(0%,0%,0%);fill-opacity:1;" d="M 30.082031 34.523438 C 29.578125 34.523438 29.132812 34.421875 28.75 34.214844 C 28.363281 34.011719 28.0625 33.695312 27.84375 33.273438 C 27.625 32.851562 27.515625 32.324219 27.515625 31.695312 C 27.515625 31.066406 27.625 30.539062 27.84375 30.117188 C 28.0625 29.695312 28.363281 29.378906 28.75 29.175781 C 29.132812 28.96875 29.578125 28.867188 30.082031 28.867188 C 30.585938 28.867188 31.03125 28.96875 31.414062 29.171875 C 31.796875 29.375 32.097656 29.691406 32.316406 30.113281 C 32.53125 30.539062 32.640625 31.066406 32.640625 31.695312 C 32.640625 32.324219 32.53125 32.851562 32.316406 33.277344 C 32.097656 33.699219 31.796875 34.015625 31.414062 34.21875 C 31.03125 34.421875 30.585938 34.523438 30.082031 34.523438 Z M 30.082031 33.582031 C 30.550781 33.582031 30.90625 33.429688 31.152344 33.132812 C 31.398438 32.832031 31.519531 32.351562 31.519531 31.695312 C 31.519531 31.039062 31.398438 30.558594 31.152344 30.257812 C 30.90625 29.957031 30.550781 29.804688 30.082031 29.804688 C 29.613281 29.804688 29.253906 29.957031 29.007812 30.257812 C 28.761719 30.558594 28.636719 31.039062 28.636719 31.695312 C 28.636719 32.351562 28.761719 32.832031 29.007812 33.132812 C 29.253906 33.429688 29.613281 33.582031 30.082031 33.582031 Z M 30.082031 33.582031 "/>
</g>
</svg>
