<?xml version="1.0" encoding="UTF-8"?>
<svg xmlns="http://www.w3.org/2000/svg" xmlns:xlink="http://www.w3.org/1999/xlink" width="40px" height="40px" viewBox="0 0 40 40" version="1.1">
<defs>
<clipPath id="clip1">
  <path d="M 8.125 10.246094 L 31.875 10.246094 L 31.875 27.222656 L 8.125 27.222656 Z M 8.125 10.246094 "/>
</clipPath>
<clipPath id="clip2">
  <path d="M 14.890625 28.027344 L 25.109375 28.027344 L 25.109375 29.746094 L 14.890625 29.746094 Z M 14.890625 28.027344 "/>
</clipPath>
</defs>
<g id="surface1">
<rect x="0" y="0" width="40" height="40" style="fill:rgb(100%,100%,100%);fill-opacity:1;stroke:none;"/>
<path style=" stroke:none;fill-rule:nonzero;fill:rgb(0%,0%,0%);fill-opacity:1;" d="M 20 0 C 8.953125 0 0 8.960938 0 20 C 0 31.039062 8.953125 40 20 40 C 31.046875 40 40 31.039062 40 20 C 40 8.960938 31.046875 0 20 0 Z M 20 38.734375 C 9.652344 38.734375 1.265625 30.347656 1.265625 20 C 1.265625 9.652344 9.652344 1.265625 20 1.265625 C 30.347656 1.265625 38.734375 9.652344 38.734375 20 C 38.734375 30.347656 30.347656 38.734375 20 38.734375 Z M 20 38.734375 "/>
<g clip-path="url(#clip1)" clip-rule="nonzero">
<path style=" stroke:none;fill-rule:nonzero;fill:rgb(0%,0%,0%);fill-opacity:1;" d="M 29.328125 27.203125 L 10.671875 27.203125 C 10.628906 27.203125 10.589844 27.203125 10.546875 27.199219 C 10.503906 27.199219 10.464844 27.195312 10.421875 27.191406 C 10.378906 27.1875 10.339844 27.183594 10.296875 27.175781 C 10.257812 27.171875 10.214844 27.164062 10.175781 27.15625 C 10.132812 27.148438 10.09375 27.136719 10.054688 27.128906 C 10.011719 27.117188 9.972656 27.105469 9.933594 27.09375 C 9.894531 27.082031 9.855469 27.070312 9.8125 27.054688 C 9.773438 27.042969 9.738281 27.027344 9.699219 27.011719 C 9.660156 26.996094 9.621094 26.976562 9.582031 26.960938 C 9.546875 26.941406 9.507812 26.921875 9.472656 26.902344 C 9.4375 26.882812 9.398438 26.863281 9.363281 26.84375 C 9.328125 26.820312 9.292969 26.796875 9.257812 26.777344 C 9.222656 26.753906 9.1875 26.726562 9.15625 26.703125 C 9.121094 26.679688 9.089844 26.652344 9.058594 26.625 C 9.023438 26.601562 8.992188 26.574219 8.964844 26.546875 C 8.933594 26.515625 8.902344 26.488281 8.871094 26.460938 C 8.84375 26.429688 8.8125 26.398438 8.785156 26.367188 C 8.757812 26.335938 8.730469 26.304688 8.703125 26.273438 C 8.679688 26.242188 8.652344 26.210938 8.628906 26.175781 C 8.601562 26.140625 8.578125 26.109375 8.554688 26.074219 C 8.53125 26.039062 8.511719 26.003906 8.488281 25.96875 C 8.46875 25.933594 8.449219 25.894531 8.429688 25.859375 C 8.40625 25.824219 8.390625 25.785156 8.371094 25.75 C 8.355469 25.710938 8.335938 25.671875 8.320312 25.632812 C 8.304688 25.59375 8.289062 25.558594 8.277344 25.515625 C 8.261719 25.476562 8.25 25.4375 8.238281 25.398438 C 8.226562 25.359375 8.214844 25.320312 8.203125 25.277344 C 8.195312 25.238281 8.183594 25.199219 8.175781 25.15625 C 8.167969 25.117188 8.160156 25.074219 8.15625 25.035156 C 8.148438 24.992188 8.144531 24.953125 8.140625 24.910156 C 8.136719 24.867188 8.132812 24.828125 8.128906 24.785156 C 8.128906 24.742188 8.128906 24.703125 8.128906 24.660156 L 8.128906 12.792969 C 8.128906 12.75 8.128906 12.707031 8.128906 12.667969 C 8.132812 12.625 8.136719 12.582031 8.140625 12.542969 C 8.144531 12.5 8.148438 12.460938 8.15625 12.417969 C 8.160156 12.375 8.167969 12.335938 8.175781 12.292969 C 8.183594 12.253906 8.195312 12.214844 8.203125 12.171875 C 8.214844 12.132812 8.226562 12.09375 8.238281 12.050781 C 8.25 12.011719 8.261719 11.972656 8.277344 11.933594 C 8.289062 11.894531 8.304688 11.855469 8.320312 11.816406 C 8.335938 11.777344 8.355469 11.742188 8.371094 11.703125 C 8.390625 11.664062 8.40625 11.628906 8.429688 11.59375 C 8.449219 11.554688 8.46875 11.519531 8.488281 11.484375 C 8.511719 11.449219 8.53125 11.414062 8.554688 11.378906 C 8.578125 11.34375 8.601562 11.308594 8.628906 11.277344 C 8.652344 11.242188 8.679688 11.210938 8.703125 11.175781 C 8.730469 11.144531 8.757812 11.113281 8.785156 11.082031 C 8.8125 11.050781 8.84375 11.023438 8.871094 10.992188 C 8.902344 10.964844 8.933594 10.933594 8.964844 10.90625 C 8.992188 10.878906 9.023438 10.851562 9.058594 10.824219 C 9.089844 10.796875 9.121094 10.773438 9.15625 10.75 C 9.1875 10.722656 9.222656 10.699219 9.257812 10.675781 C 9.292969 10.652344 9.328125 10.628906 9.363281 10.609375 C 9.398438 10.589844 9.4375 10.566406 9.472656 10.546875 C 9.507812 10.527344 9.546875 10.507812 9.582031 10.492188 C 9.621094 10.472656 9.660156 10.457031 9.699219 10.441406 C 9.738281 10.425781 9.773438 10.410156 9.8125 10.394531 C 9.855469 10.382812 9.894531 10.371094 9.933594 10.355469 C 9.972656 10.34375 10.011719 10.332031 10.054688 10.324219 C 10.09375 10.3125 10.132812 10.304688 10.175781 10.296875 C 10.214844 10.289062 10.257812 10.28125 10.296875 10.273438 C 10.339844 10.269531 10.378906 10.265625 10.421875 10.261719 C 10.464844 10.253906 10.503906 10.253906 10.546875 10.25 C 10.589844 10.25 10.628906 10.246094 10.671875 10.246094 L 29.328125 10.246094 C 29.371094 10.246094 29.410156 10.25 29.453125 10.25 C 29.496094 10.253906 29.535156 10.253906 29.578125 10.261719 C 29.617188 10.265625 29.660156 10.269531 29.703125 10.273438 C 29.742188 10.28125 29.785156 10.289062 29.824219 10.296875 C 29.867188 10.304688 29.90625 10.3125 29.945312 10.324219 C 29.988281 10.332031 30.027344 10.34375 30.066406 10.355469 C 30.105469 10.371094 30.144531 10.382812 30.183594 10.394531 C 30.222656 10.410156 30.261719 10.425781 30.300781 10.441406 C 30.339844 10.457031 30.378906 10.472656 30.414062 10.492188 C 30.453125 10.507812 30.492188 10.527344 30.527344 10.546875 C 30.5625 10.566406 30.601562 10.589844 30.636719 10.609375 C 30.671875 10.628906 30.707031 10.652344 30.742188 10.675781 C 30.777344 10.699219 30.808594 10.722656 30.84375 10.75 C 30.878906 10.773438 30.910156 10.796875 30.941406 10.824219 C 30.972656 10.851562 31.003906 10.878906 31.035156 10.90625 C 31.066406 10.933594 31.097656 10.964844 31.128906 10.992188 C 31.15625 11.023438 31.183594 11.050781 31.214844 11.082031 C 31.242188 11.113281 31.269531 11.144531 31.292969 11.175781 C 31.320312 11.210938 31.347656 11.242188 31.371094 11.277344 C 31.394531 11.308594 31.421875 11.34375 31.445312 11.378906 C 31.464844 11.414062 31.488281 11.449219 31.511719 11.484375 C 31.53125 11.519531 31.550781 11.554688 31.570312 11.59375 C 31.589844 11.628906 31.609375 11.664062 31.628906 11.703125 C 31.644531 11.742188 31.664062 11.777344 31.679688 11.816406 C 31.695312 11.855469 31.710938 11.894531 31.722656 11.933594 C 31.738281 11.972656 31.75 12.011719 31.761719 12.050781 C 31.773438 12.09375 31.785156 12.132812 31.796875 12.171875 C 31.804688 12.214844 31.816406 12.253906 31.824219 12.292969 C 31.832031 12.335938 31.839844 12.375 31.84375 12.417969 C 31.851562 12.460938 31.855469 12.5 31.859375 12.542969 C 31.863281 12.582031 31.867188 12.625 31.867188 12.667969 C 31.871094 12.707031 31.871094 12.75 31.871094 12.792969 L 31.871094 24.660156 C 31.871094 24.703125 31.871094 24.742188 31.867188 24.785156 C 31.867188 24.828125 31.863281 24.867188 31.859375 24.910156 C 31.855469 24.953125 31.851562 24.992188 31.84375 25.035156 C 31.839844 25.074219 31.832031 25.117188 31.824219 25.15625 C 31.816406 25.199219 31.804688 25.238281 31.796875 25.277344 C 31.785156 25.320312 31.773438 25.359375 31.761719 25.398438 C 31.75 25.4375 31.738281 25.476562 31.722656 25.515625 C 31.710938 25.558594 31.695312 25.59375 31.679688 25.632812 C 31.664062 25.671875 31.644531 25.710938 31.628906 25.75 C 31.609375 25.785156 31.589844 25.824219 31.570312 25.859375 C 31.550781 25.894531 31.53125 25.933594 31.511719 25.96875 C 31.488281 26.003906 31.464844 26.039062 31.445312 26.074219 C 31.421875 26.109375 31.394531 26.140625 31.371094 26.175781 C 31.347656 26.210938 31.320312 26.242188 31.292969 26.273438 C 31.269531 26.304688 31.242188 26.335938 31.214844 26.367188 C 31.183594 26.398438 31.15625 26.429688 31.128906 26.460938 C 31.097656 26.488281 31.066406 26.515625 31.035156 26.546875 C 31.003906 26.574219 30.972656 26.601562 30.941406 26.625 C 30.910156 26.652344 30.878906 26.679688 30.84375 26.703125 C 30.808594 26.726562 30.777344 26.753906 30.742188 26.777344 C 30.707031 26.796875 30.671875 26.820312 30.636719 26.84375 C 30.601562 26.863281 30.5625 26.882812 30.527344 26.902344 C 30.492188 26.921875 30.453125 26.941406 30.414062 26.960938 C 30.378906 26.976562 30.339844 26.996094 30.300781 27.011719 C 30.261719 27.027344 30.222656 27.042969 30.183594 27.054688 C 30.144531 27.070312 30.105469 27.082031 30.066406 27.09375 C 30.027344 27.105469 29.988281 27.117188 29.945312 27.128906 C 29.90625 27.136719 29.867188 27.148438 29.824219 27.15625 C 29.785156 27.164062 29.742188 27.171875 29.703125 27.175781 C 29.660156 27.183594 29.617188 27.1875 29.578125 27.191406 C 29.535156 27.195312 29.496094 27.199219 29.453125 27.199219 C 29.410156 27.203125 29.371094 27.203125 29.328125 27.203125 Z M 10.671875 11.941406 C 10.644531 11.941406 10.617188 11.945312 10.589844 11.949219 C 10.5625 11.949219 10.535156 11.953125 10.507812 11.960938 C 10.480469 11.964844 10.453125 11.972656 10.425781 11.980469 C 10.398438 11.988281 10.371094 11.996094 10.347656 12.007812 C 10.320312 12.019531 10.296875 12.03125 10.273438 12.042969 C 10.246094 12.054688 10.222656 12.070312 10.199219 12.085938 C 10.175781 12.101562 10.15625 12.117188 10.132812 12.136719 C 10.113281 12.152344 10.089844 12.171875 10.070312 12.191406 C 10.050781 12.210938 10.035156 12.230469 10.015625 12.253906 C 10 12.273438 9.980469 12.296875 9.964844 12.320312 C 9.949219 12.34375 9.9375 12.367188 9.921875 12.390625 C 9.910156 12.414062 9.898438 12.441406 9.886719 12.464844 C 9.878906 12.492188 9.867188 12.519531 9.859375 12.542969 C 9.851562 12.570312 9.84375 12.597656 9.839844 12.625 C 9.835938 12.652344 9.832031 12.679688 9.828125 12.707031 C 9.824219 12.734375 9.824219 12.761719 9.824219 12.792969 L 9.824219 24.660156 C 9.824219 24.6875 9.824219 24.714844 9.828125 24.742188 C 9.832031 24.769531 9.835938 24.796875 9.839844 24.824219 C 9.84375 24.851562 9.851562 24.878906 9.859375 24.90625 C 9.867188 24.933594 9.878906 24.960938 9.886719 24.984375 C 9.898438 25.011719 9.910156 25.035156 9.921875 25.058594 C 9.9375 25.085938 9.949219 25.109375 9.964844 25.132812 C 9.980469 25.15625 10 25.175781 10.015625 25.199219 C 10.035156 25.21875 10.050781 25.242188 10.070312 25.261719 C 10.089844 25.28125 10.113281 25.296875 10.132812 25.316406 C 10.15625 25.332031 10.175781 25.351562 10.199219 25.367188 C 10.222656 25.382812 10.246094 25.394531 10.273438 25.410156 C 10.296875 25.421875 10.320312 25.433594 10.347656 25.445312 C 10.371094 25.453125 10.398438 25.464844 10.425781 25.472656 C 10.453125 25.480469 10.480469 25.488281 10.507812 25.492188 C 10.535156 25.496094 10.5625 25.5 10.589844 25.503906 C 10.617188 25.507812 10.644531 25.507812 10.671875 25.507812 L 29.328125 25.507812 C 29.355469 25.507812 29.382812 25.507812 29.410156 25.503906 C 29.4375 25.5 29.464844 25.496094 29.492188 25.492188 C 29.519531 25.488281 29.546875 25.480469 29.574219 25.472656 C 29.601562 25.464844 29.625 25.453125 29.652344 25.445312 C 29.679688 25.433594 29.703125 25.421875 29.726562 25.410156 C 29.753906 25.394531 29.777344 25.382812 29.800781 25.367188 C 29.820312 25.351562 29.84375 25.332031 29.867188 25.316406 C 29.886719 25.296875 29.90625 25.28125 29.929688 25.261719 C 29.949219 25.242188 29.964844 25.21875 29.984375 25.199219 C 30 25.175781 30.019531 25.15625 30.03125 25.132812 C 30.046875 25.109375 30.0625 25.085938 30.074219 25.058594 C 30.089844 25.035156 30.101562 25.011719 30.113281 24.984375 C 30.121094 24.960938 30.132812 24.933594 30.140625 24.90625 C 30.148438 24.878906 30.15625 24.851562 30.160156 24.824219 C 30.164062 24.796875 30.167969 24.769531 30.171875 24.742188 C 30.175781 24.714844 30.175781 24.6875 30.175781 24.660156 L 30.175781 12.792969 C 30.175781 12.761719 30.175781 12.734375 30.171875 12.707031 C 30.167969 12.679688 30.164062 12.652344 30.160156 12.625 C 30.15625 12.597656 30.148438 12.570312 30.140625 12.542969 C 30.132812 12.519531 30.121094 12.492188 30.113281 12.464844 C 30.101562 12.441406 30.089844 12.414062 30.074219 12.390625 C 30.0625 12.367188 30.046875 12.34375 30.03125 12.320312 C 30.019531 12.296875 30 12.273438 29.984375 12.253906 C 29.964844 12.230469 29.949219 12.210938 29.929688 12.191406 C 29.90625 12.171875 29.886719 12.152344 29.867188 12.136719 C 29.84375 12.117188 29.820312 12.101562 29.800781 12.085938 C 29.777344 12.070312 29.753906 12.054688 29.726562 12.042969 C 29.703125 12.03125 29.679688 12.019531 29.652344 12.007812 C 29.625 11.996094 29.601562 11.988281 29.574219 11.980469 C 29.546875 11.972656 29.519531 11.964844 29.492188 11.960938 C 29.464844 11.953125 29.4375 11.949219 29.410156 11.949219 C 29.382812 11.945312 29.355469 11.941406 29.328125 11.941406 Z M 10.671875 11.941406 "/>
</g>
<g clip-path="url(#clip2)" clip-rule="nonzero">
<path style=" stroke:none;fill-rule:nonzero;fill:rgb(0%,0%,0%);fill-opacity:1;" d="M 24.238281 29.746094 L 15.757812 29.746094 C 15.730469 29.746094 15.703125 29.746094 15.675781 29.742188 C 15.648438 29.742188 15.621094 29.738281 15.59375 29.730469 C 15.566406 29.726562 15.539062 29.71875 15.511719 29.710938 C 15.488281 29.703125 15.460938 29.695312 15.433594 29.683594 C 15.410156 29.671875 15.382812 29.660156 15.359375 29.648438 C 15.335938 29.632812 15.3125 29.621094 15.289062 29.605469 C 15.265625 29.589844 15.242188 29.574219 15.222656 29.554688 C 15.199219 29.539062 15.179688 29.519531 15.160156 29.5 C 15.140625 29.480469 15.121094 29.460938 15.105469 29.4375 C 15.085938 29.417969 15.070312 29.394531 15.054688 29.371094 C 15.039062 29.347656 15.023438 29.324219 15.011719 29.300781 C 15 29.273438 14.988281 29.25 14.976562 29.222656 C 14.964844 29.199219 14.957031 29.171875 14.949219 29.144531 C 14.941406 29.121094 14.933594 29.09375 14.929688 29.066406 C 14.921875 29.039062 14.917969 29.011719 14.914062 28.984375 C 14.914062 28.957031 14.910156 28.925781 14.910156 28.898438 C 14.910156 28.871094 14.914062 28.84375 14.914062 28.816406 C 14.917969 28.789062 14.921875 28.761719 14.929688 28.734375 C 14.933594 28.707031 14.941406 28.679688 14.949219 28.652344 C 14.957031 28.628906 14.964844 28.601562 14.976562 28.574219 C 14.988281 28.550781 15 28.523438 15.011719 28.5 C 15.023438 28.476562 15.039062 28.453125 15.054688 28.429688 C 15.070312 28.40625 15.085938 28.382812 15.105469 28.363281 C 15.121094 28.339844 15.140625 28.320312 15.160156 28.300781 C 15.179688 28.28125 15.199219 28.261719 15.222656 28.246094 C 15.242188 28.226562 15.265625 28.210938 15.289062 28.195312 C 15.3125 28.179688 15.335938 28.164062 15.359375 28.152344 C 15.382812 28.140625 15.410156 28.128906 15.433594 28.117188 C 15.460938 28.105469 15.488281 28.097656 15.511719 28.089844 C 15.539062 28.082031 15.566406 28.074219 15.59375 28.066406 C 15.621094 28.0625 15.648438 28.058594 15.675781 28.054688 C 15.703125 28.054688 15.730469 28.050781 15.757812 28.050781 L 24.238281 28.050781 C 24.269531 28.050781 24.296875 28.054688 24.324219 28.054688 C 24.351562 28.058594 24.378906 28.0625 24.40625 28.066406 C 24.433594 28.074219 24.460938 28.082031 24.484375 28.089844 C 24.511719 28.097656 24.539062 28.105469 24.5625 28.117188 C 24.589844 28.128906 24.617188 28.140625 24.640625 28.152344 C 24.664062 28.164062 24.6875 28.179688 24.710938 28.195312 C 24.734375 28.210938 24.757812 28.226562 24.777344 28.246094 C 24.800781 28.261719 24.820312 28.28125 24.839844 28.300781 C 24.859375 28.320312 24.878906 28.339844 24.894531 28.363281 C 24.914062 28.382812 24.929688 28.40625 24.945312 28.429688 C 24.960938 28.453125 24.976562 28.476562 24.988281 28.5 C 25 28.523438 25.011719 28.550781 25.023438 28.574219 C 25.035156 28.601562 25.042969 28.628906 25.050781 28.652344 C 25.058594 28.679688 25.066406 28.707031 25.070312 28.734375 C 25.078125 28.761719 25.082031 28.789062 25.082031 28.816406 C 25.085938 28.84375 25.089844 28.871094 25.089844 28.898438 C 25.089844 28.925781 25.085938 28.957031 25.082031 28.984375 C 25.082031 29.011719 25.078125 29.039062 25.070312 29.066406 C 25.066406 29.09375 25.058594 29.121094 25.050781 29.144531 C 25.042969 29.171875 25.035156 29.199219 25.023438 29.222656 C 25.011719 29.25 25 29.273438 24.988281 29.300781 C 24.976562 29.324219 24.960938 29.347656 24.945312 29.371094 C 24.929688 29.394531 24.914062 29.417969 24.894531 29.4375 C 24.878906 29.460938 24.859375 29.480469 24.839844 29.5 C 24.820312 29.519531 24.800781 29.539062 24.777344 29.554688 C 24.757812 29.574219 24.734375 29.589844 24.710938 29.605469 C 24.6875 29.621094 24.664062 29.632812 24.640625 29.648438 C 24.617188 29.660156 24.589844 29.671875 24.5625 29.683594 C 24.539062 29.695312 24.511719 29.703125 24.484375 29.710938 C 24.460938 29.71875 24.433594 29.726562 24.40625 29.730469 C 24.378906 29.738281 24.351562 29.742188 24.324219 29.742188 C 24.296875 29.746094 24.269531 29.746094 24.238281 29.746094 Z M 24.238281 29.746094 "/>
</g>
</g>
</svg>
