<?xml version="1.0" encoding="UTF-8"?>
<svg xmlns="http://www.w3.org/2000/svg" xmlns:xlink="http://www.w3.org/1999/xlink" width="40px" height="40px" viewBox="0 0 40 40" version="1.1">
<defs>
<clipPath id="clip1">
  <path d="M 1.824219 4.742188 L 38.167969 4.742188 L 38.167969 36.230469 L 1.824219 36.230469 Z M 1.824219 4.742188 "/>
</clipPath>
<clipPath id="clip2">
  <path d="M 1.007812 3.925781 L 38.964844 3.925781 L 38.964844 36.828125 L 1.007812 36.828125 Z M 1.007812 3.925781 "/>
</clipPath>
<clipPath id="clip3">
  <path d="M 0.863281 3.917969 L 39.140625 3.917969 L 39.140625 37.082031 L 0.863281 37.082031 Z M 0.863281 3.917969 "/>
</clipPath>
<clipPath id="clip4">
  <path d="M 0 2.675781 L 39.984375 2.675781 L 39.984375 37.332031 L 0 37.332031 Z M 0 2.675781 "/>
</clipPath>
</defs>
<g id="surface1">
<rect x="0" y="0" width="40" height="40" style="fill:rgb(100%,100%,100%);fill-opacity:1;stroke:none;"/>
<g clip-path="url(#clip1)" clip-rule="nonzero">
<path style=" stroke:none;fill-rule:nonzero;fill:rgb(0%,0%,0%);fill-opacity:1;" d="M 38.175781 36.226562 L 1.824219 36.226562 L 20 4.746094 Z M 3.503906 35.257812 L 36.496094 35.257812 L 20 6.6875 Z M 3.503906 35.257812 "/>
</g>
<g clip-path="url(#clip2)" clip-rule="nonzero">
<path style=" stroke:none;fill-rule:nonzero;fill:rgb(0%,0%,0%);fill-opacity:1;" d="M 38.992188 36.828125 L 1.007812 36.828125 L 20 3.933594 Z M 2.761719 35.820312 L 37.238281 35.820312 L 20 5.960938 Z M 2.761719 35.820312 "/>
</g>
<g clip-path="url(#clip3)" clip-rule="nonzero">
<path style=" stroke:none;fill-rule:nonzero;fill:rgb(0%,0%,0%);fill-opacity:1;" d="M 39.136719 37.066406 L 0.863281 37.066406 L 20 3.921875 Z M 2.632812 36.046875 L 37.367188 36.046875 L 20 5.964844 Z M 2.632812 36.046875 "/>
</g>
<g clip-path="url(#clip4)" clip-rule="nonzero">
<path style=" stroke:none;fill-rule:nonzero;fill:rgb(0%,0%,0%);fill-opacity:1;" d="M 40 37.320312 L 0 37.320312 L 20 2.679688 Z M 1.847656 36.253906 L 38.152344 36.253906 L 20 4.816406 Z M 1.847656 36.253906 "/>
</g>
<path style=" stroke:none;fill-rule:nonzero;fill:rgb(0%,0%,0%);fill-opacity:1;" d="M 19.066406 28.945312 C 19.460938 28.945312 19.796875 29.015625 20.078125 29.160156 C 20.355469 29.304688 20.566406 29.507812 20.710938 29.765625 C 20.855469 30.027344 20.925781 30.328125 20.925781 30.671875 C 20.925781 31.015625 20.855469 31.316406 20.710938 31.574219 C 20.566406 31.832031 20.355469 32.035156 20.078125 32.179688 C 19.796875 32.324219 19.460938 32.394531 19.066406 32.394531 L 18.027344 32.394531 L 18.027344 34.445312 L 16.941406 34.445312 L 16.941406 28.945312 Z M 18.925781 31.535156 C 19.527344 31.535156 19.832031 31.246094 19.832031 30.671875 C 19.832031 30.09375 19.527344 29.804688 18.925781 29.804688 L 18.027344 29.804688 L 18.027344 31.535156 Z M 18.925781 31.535156 "/>
<path style=" stroke:none;fill-rule:nonzero;fill:rgb(0%,0%,0%);fill-opacity:1;" d="M 23.054688 34.445312 L 21.96875 34.445312 L 21.96875 28.945312 L 23.054688 28.945312 Z M 23.054688 34.445312 "/>
</g>
</svg>
