<?xml version="1.0" encoding="UTF-8"?>
<svg xmlns="http://www.w3.org/2000/svg" xmlns:xlink="http://www.w3.org/1999/xlink" width="40px" height="40px" viewBox="0 0 40 40" version="1.1">
<defs>
<clipPath id="clip1">
  <path d="M 17.472656 30.609375 L 22.527344 30.609375 L 22.527344 39.992188 L 17.472656 39.992188 Z M 17.472656 30.609375 "/>
</clipPath>
<clipPath id="clip2">
  <path d="M 3.773438 19.390625 L 36.230469 19.390625 L 36.230469 20.667969 L 3.773438 20.667969 Z M 3.773438 19.390625 "/>
</clipPath>
<clipPath id="clip3">
  <path d="M 17.472656 0.0546875 L 22.527344 0.0546875 L 22.527344 9.445312 L 17.472656 9.445312 Z M 17.472656 0.0546875 "/>
</clipPath>
</defs>
<g id="surface1">
<rect x="0" y="0" width="40" height="40" style="fill:rgb(100%,100%,100%);fill-opacity:1;stroke:none;"/>
<path style=" stroke:none;fill-rule:nonzero;fill:rgb(0%,0%,0%);fill-opacity:1;" d="M 20 0 C 8.953125 0 0 8.960938 0 20 C 0 31.039062 8.953125 40 20 40 C 31.046875 40 40 31.039062 40 20 C 40 8.960938 31.046875 0 20 0 Z M 20 38.734375 C 9.652344 38.734375 1.265625 30.347656 1.265625 20 C 1.265625 9.652344 9.652344 1.265625 20 1.265625 C 30.347656 1.265625 38.734375 9.652344 38.734375 20 C 38.734375 30.347656 30.347656 38.734375 20 38.734375 Z M 20 38.734375 "/>
<g clip-path="url(#clip1)" clip-rule="nonzero">
<path style=" stroke:none;fill-rule:nonzero;fill:rgb(0%,0%,0%);fill-opacity:1;" d="M 20.5 30.882812 C 20.25 30.539062 19.71875 30.539062 19.472656 30.882812 L 17.597656 33.566406 C 17.410156 33.847656 17.472656 34.25 17.753906 34.4375 C 18.035156 34.625 18.441406 34.5625 18.628906 34.28125 L 19.378906 33.222656 L 19.378906 39.367188 C 19.378906 39.710938 19.660156 39.992188 20 39.992188 C 20.34375 39.992188 20.625 39.710938 20.625 39.367188 L 20.625 33.253906 C 20.625 33.253906 21.375 34.3125 21.375 34.3125 C 21.5625 34.5625 21.96875 34.65625 22.25 34.46875 C 22.53125 34.28125 22.59375 33.878906 22.40625 33.597656 C 22.375 33.597656 20.53125 30.914062 20.5 30.882812 Z M 20.5 30.882812 "/>
</g>
<g clip-path="url(#clip2)" clip-rule="nonzero">
<path style=" stroke:none;fill-rule:nonzero;fill:rgb(0%,0%,0%);fill-opacity:1;" d="M 35.605469 19.398438 L 4.398438 19.398438 C 4.054688 19.398438 3.773438 19.679688 3.773438 20.023438 C 3.773438 20.367188 4.054688 20.648438 4.398438 20.648438 L 35.605469 20.648438 C 35.949219 20.648438 36.230469 20.367188 36.230469 20.023438 C 36.230469 19.679688 35.949219 19.398438 35.605469 19.398438 Z M 35.605469 19.398438 "/>
</g>
<path style=" stroke:none;fill-rule:nonzero;fill:rgb(0%,0%,0%);fill-opacity:1;" d="M 35.605469 26.980469 C 26.710938 21.800781 18.722656 22.082031 13.542969 23.238281 C 7.953125 24.484375 4.492188 26.917969 4.335938 27.011719 C 4.054688 27.199219 3.992188 27.605469 4.179688 27.886719 C 4.367188 28.167969 4.769531 28.230469 5.050781 28.042969 C 5.082031 28.011719 8.484375 25.640625 13.851562 24.453125 C 18.785156 23.363281 26.460938 23.113281 34.953125 28.074219 C 35.230469 28.230469 35.636719 28.136719 35.792969 27.855469 C 36.011719 27.511719 35.917969 27.136719 35.605469 26.980469 Z M 35.605469 26.980469 "/>
<path style=" stroke:none;fill-rule:nonzero;fill:rgb(0%,0%,0%);fill-opacity:1;" d="M 35.605469 31.351562 C 26.710938 26.171875 18.722656 26.453125 13.542969 27.605469 C 7.953125 28.855469 4.492188 31.289062 4.335938 31.382812 C 4.054688 31.570312 3.992188 31.972656 4.179688 32.253906 C 4.367188 32.535156 4.769531 32.597656 5.050781 32.410156 C 5.082031 32.378906 8.484375 30.007812 13.851562 28.824219 C 18.785156 27.730469 26.460938 27.480469 34.953125 32.441406 C 35.230469 32.597656 35.636719 32.503906 35.792969 32.222656 C 36.011719 31.878906 35.917969 31.507812 35.605469 31.351562 Z M 35.605469 31.351562 "/>
<g clip-path="url(#clip3)" clip-rule="nonzero">
<path style=" stroke:none;fill-rule:nonzero;fill:rgb(0%,0%,0%);fill-opacity:1;" d="M 19.503906 9.167969 C 19.75 9.507812 20.28125 9.507812 20.53125 9.167969 C 20.53125 9.167969 22.40625 6.484375 22.40625 6.484375 C 22.59375 6.203125 22.53125 5.796875 22.25 5.609375 C 21.96875 5.421875 21.5625 5.515625 21.375 5.765625 C 21.375 5.765625 20.625 6.824219 20.625 6.824219 L 20.625 0.679688 C 20.625 0.335938 20.34375 0.0546875 20 0.0546875 C 19.660156 0.0546875 19.378906 0.335938 19.378906 0.679688 L 19.378906 6.796875 L 18.628906 5.734375 C 18.441406 5.453125 18.035156 5.390625 17.753906 5.578125 C 17.472656 5.765625 17.410156 6.171875 17.597656 6.453125 Z M 19.503906 9.167969 "/>
</g>
<path style=" stroke:none;fill-rule:nonzero;fill:rgb(0%,0%,0%);fill-opacity:1;" d="M 4.335938 13.035156 C 4.492188 13.128906 7.921875 15.59375 13.542969 16.808594 C 18.691406 17.964844 26.710938 18.246094 35.605469 13.066406 C 35.917969 12.878906 36.011719 12.503906 35.824219 12.222656 C 35.667969 11.941406 35.261719 11.816406 34.984375 12.003906 C 26.460938 16.964844 18.816406 16.71875 13.882812 15.625 C 8.515625 14.4375 5.113281 12.035156 5.082031 12.035156 C 4.800781 11.847656 4.429688 11.910156 4.210938 12.191406 C 3.992188 12.441406 4.054688 12.847656 4.335938 13.035156 Z M 4.335938 13.035156 "/>
<path style=" stroke:none;fill-rule:nonzero;fill:rgb(0%,0%,0%);fill-opacity:1;" d="M 4.335938 8.667969 C 4.492188 8.761719 7.921875 11.226562 13.542969 12.441406 C 18.691406 13.597656 26.710938 13.878906 35.605469 8.699219 C 35.917969 8.511719 36.011719 8.136719 35.824219 7.855469 C 35.667969 7.574219 35.261719 7.449219 34.984375 7.636719 C 26.460938 12.597656 18.816406 12.347656 13.882812 11.257812 C 8.515625 10.070312 5.113281 7.667969 5.082031 7.667969 C 4.800781 7.480469 4.429688 7.542969 4.210938 7.824219 C 3.992188 8.074219 4.054688 8.480469 4.335938 8.667969 Z M 4.335938 8.667969 "/>
</g>
</svg>
