<?xml version="1.0" encoding="UTF-8"?>
<svg xmlns="http://www.w3.org/2000/svg" xmlns:xlink="http://www.w3.org/1999/xlink" width="40px" height="40px" viewBox="0 0 40 40" version="1.1">
<g id="surface1">
<rect x="0" y="0" width="40" height="40" style="fill:rgb(100%,100%,100%);fill-opacity:1;stroke:none;"/>
<path style=" stroke:none;fill-rule:nonzero;fill:rgb(0%,0%,0%);fill-opacity:1;" d="M 20 0 C 8.953125 0 0 8.960938 0 20 C 0 31.039062 8.953125 40 20 40 C 31.046875 40 40 31.039062 40 20 C 40 8.960938 31.046875 0 20 0 Z M 20 38.734375 C 9.652344 38.734375 1.265625 30.347656 1.265625 20 C 1.265625 9.652344 9.652344 1.265625 20 1.265625 C 30.347656 1.265625 38.734375 9.652344 38.734375 20 C 38.734375 30.347656 30.347656 38.734375 20 38.734375 Z M 20 38.734375 "/>
<path style=" stroke:none;fill-rule:evenodd;fill:rgb(0%,0%,0%);fill-opacity:1;" d="M 28.375 18 C 28.421875 17.835938 28.460938 17.675781 28.5 17.511719 C 28.535156 17.347656 28.570312 17.183594 28.59375 17.015625 C 28.621094 16.851562 28.644531 16.683594 28.664062 16.519531 C 28.679688 16.351562 28.691406 16.183594 28.699219 16.015625 C 28.707031 15.847656 28.710938 15.683594 28.710938 15.515625 C 28.707031 15.347656 28.703125 15.179688 28.691406 15.011719 C 28.679688 14.84375 28.664062 14.675781 28.640625 14.511719 C 28.621094 14.34375 28.59375 14.179688 28.5625 14.015625 C 28.53125 13.847656 28.496094 13.683594 28.457031 13.523438 C 28.417969 13.359375 28.371094 13.199219 28.324219 13.039062 C 28.273438 12.878906 28.21875 12.71875 28.160156 12.5625 C 28.101562 12.402344 28.039062 12.25 27.972656 12.09375 C 27.902344 11.941406 27.832031 11.789062 27.753906 11.640625 C 27.679688 11.492188 27.597656 11.34375 27.511719 11.199219 C 27.429688 11.054688 27.339844 10.914062 27.246094 10.773438 C 27.152344 10.632812 27.054688 10.496094 26.953125 10.363281 C 26.851562 10.230469 26.75 10.097656 26.640625 9.972656 C 26.53125 9.84375 26.417969 9.71875 26.304688 9.597656 C 26.1875 9.476562 26.070312 9.359375 25.945312 9.242188 C 25.824219 9.128906 25.695312 9.019531 25.566406 8.910156 C 25.4375 8.804688 25.308594 8.699219 25.171875 8.601562 C 25.035156 8.5 24.898438 8.40625 24.757812 8.3125 C 24.617188 8.222656 24.476562 8.132812 24.328125 8.050781 C 24.183594 7.96875 24.035156 7.886719 23.886719 7.8125 C 23.734375 7.738281 23.582031 7.667969 23.429688 7.601562 C 23.273438 7.535156 23.117188 7.476562 22.960938 7.417969 C 22.804688 7.359375 22.644531 7.308594 22.484375 7.261719 C 22.320312 7.214844 22.160156 7.171875 21.996094 7.132812 C 21.832031 7.09375 21.667969 7.058594 21.503906 7.03125 C 21.339844 7 21.171875 6.976562 21.003906 6.957031 C 20.839844 6.9375 20.671875 6.925781 20.503906 6.914062 C 20.335938 6.90625 20.167969 6.898438 20 6.898438 C 19.832031 6.898438 19.664062 6.90625 19.5 6.914062 C 19.332031 6.925781 19.164062 6.9375 18.996094 6.957031 C 18.828125 6.976562 18.664062 7 18.5 7.03125 C 18.332031 7.058594 18.167969 7.09375 18.003906 7.132812 C 17.84375 7.171875 17.679688 7.214844 17.519531 7.261719 C 17.359375 7.308594 17.199219 7.359375 17.042969 7.417969 C 16.882812 7.476562 16.726562 7.535156 16.574219 7.601562 C 16.417969 7.667969 16.265625 7.738281 16.117188 7.8125 C 15.964844 7.886719 15.820312 7.96875 15.671875 8.050781 C 15.527344 8.132812 15.382812 8.222656 15.242188 8.3125 C 15.101562 8.40625 14.964844 8.5 14.828125 8.601562 C 14.695312 8.699219 14.5625 8.804688 14.433594 8.910156 C 14.304688 9.019531 14.179688 9.128906 14.054688 9.242188 C 13.933594 9.359375 13.816406 9.476562 13.699219 9.597656 C 13.582031 9.71875 13.46875 9.84375 13.363281 9.972656 C 13.253906 10.097656 13.148438 10.230469 13.046875 10.363281 C 12.945312 10.496094 12.847656 10.632812 12.757812 10.773438 C 12.664062 10.914062 12.574219 11.054688 12.488281 11.199219 C 12.402344 11.34375 12.324219 11.492188 12.246094 11.640625 C 12.171875 11.789062 12.097656 11.941406 12.03125 12.09375 C 11.964844 12.25 11.898438 12.402344 11.839844 12.5625 C 11.78125 12.71875 11.730469 12.878906 11.679688 13.039062 C 11.628906 13.199219 11.585938 13.359375 11.542969 13.523438 C 11.503906 13.683594 11.46875 13.847656 11.4375 14.015625 C 11.40625 14.179688 11.382812 14.34375 11.359375 14.511719 C 11.339844 14.675781 11.324219 14.84375 11.3125 15.011719 C 11.300781 15.179688 11.292969 15.347656 11.292969 15.515625 C 11.289062 15.683594 11.292969 15.847656 11.300781 16.015625 C 11.308594 16.183594 11.320312 16.351562 11.339844 16.519531 C 11.355469 16.683594 11.378906 16.851562 11.40625 17.015625 C 11.433594 17.183594 11.464844 17.347656 11.503906 17.511719 C 11.539062 17.675781 11.582031 17.835938 11.625 18 C 11.496094 18.054688 11.371094 18.117188 11.242188 18.179688 C 11.117188 18.242188 10.992188 18.308594 10.871094 18.378906 C 10.75 18.449219 10.628906 18.523438 10.507812 18.601562 C 10.390625 18.675781 10.273438 18.757812 10.160156 18.839844 C 10.046875 18.921875 9.933594 19.007812 9.824219 19.097656 C 9.714844 19.1875 9.609375 19.28125 9.503906 19.375 C 9.398438 19.46875 9.296875 19.566406 9.199219 19.667969 C 9.097656 19.769531 9.003906 19.871094 8.910156 19.976562 C 8.816406 20.082031 8.722656 20.191406 8.636719 20.300781 C 8.546875 20.410156 8.464844 20.523438 8.382812 20.640625 C 8.300781 20.753906 8.222656 20.871094 8.148438 20.992188 C 8.070312 21.109375 8 21.230469 7.929688 21.355469 C 7.863281 21.476562 7.796875 21.601562 7.734375 21.730469 C 7.671875 21.855469 7.613281 21.984375 7.558594 22.117188 C 7.503906 22.246094 7.453125 22.375 7.402344 22.507812 C 7.355469 22.640625 7.3125 22.777344 7.269531 22.910156 C 7.230469 23.046875 7.191406 23.183594 7.160156 23.320312 C 7.125 23.457031 7.09375 23.59375 7.070312 23.734375 C 7.042969 23.871094 7.023438 24.011719 7.003906 24.152344 C 6.984375 24.292969 6.96875 24.433594 6.960938 24.574219 C 6.949219 24.714844 6.941406 24.855469 6.9375 24.996094 C 6.933594 25.136719 6.9375 25.277344 6.941406 25.417969 C 6.945312 25.558594 6.953125 25.699219 6.964844 25.839844 C 6.976562 25.980469 6.992188 26.121094 7.011719 26.261719 C 7.03125 26.402344 7.054688 26.542969 7.082031 26.679688 C 7.109375 26.816406 7.140625 26.957031 7.175781 27.09375 C 7.210938 27.230469 7.246094 27.367188 7.289062 27.5 C 7.332031 27.636719 7.375 27.769531 7.425781 27.902344 C 7.476562 28.03125 7.527344 28.164062 7.585938 28.292969 C 7.640625 28.421875 7.699219 28.550781 7.761719 28.675781 C 7.828125 28.804688 7.894531 28.929688 7.960938 29.050781 C 8.03125 29.171875 8.105469 29.292969 8.183594 29.414062 C 8.257812 29.53125 8.335938 29.648438 8.421875 29.761719 C 8.503906 29.875 8.589844 29.988281 8.679688 30.097656 C 8.765625 30.207031 8.859375 30.316406 8.953125 30.421875 C 9.046875 30.527344 9.144531 30.628906 9.246094 30.726562 C 9.34375 30.828125 9.449219 30.925781 9.554688 31.019531 C 9.65625 31.113281 9.765625 31.203125 9.875 31.292969 C 9.984375 31.378906 10.097656 31.464844 10.214844 31.546875 C 10.328125 31.628906 10.445312 31.707031 10.566406 31.785156 C 10.683594 31.859375 10.804688 31.933594 10.929688 32 C 11.050781 32.070312 11.175781 32.136719 11.300781 32.199219 C 11.429688 32.261719 11.558594 32.320312 11.6875 32.375 C 11.816406 32.433594 11.949219 32.484375 12.082031 32.53125 C 12.214844 32.582031 12.347656 32.625 12.480469 32.667969 C 12.617188 32.707031 12.753906 32.746094 12.890625 32.78125 C 13.027344 32.8125 13.164062 32.84375 13.304688 32.871094 C 13.441406 32.898438 13.582031 32.917969 13.722656 32.9375 C 13.863281 32.957031 14.003906 32.972656 14.144531 32.984375 C 14.285156 32.996094 14.425781 33.003906 14.566406 33.007812 C 14.707031 33.011719 14.847656 33.011719 14.988281 33.007812 C 15.128906 33.003906 15.273438 32.996094 15.414062 32.984375 C 15.554688 32.972656 15.695312 32.957031 15.832031 32.9375 C 15.972656 32.917969 16.113281 32.894531 16.25 32.871094 C 16.390625 32.84375 16.527344 32.8125 16.664062 32.777344 C 16.800781 32.746094 16.9375 32.707031 17.074219 32.664062 C 17.207031 32.625 17.339844 32.578125 17.472656 32.53125 C 17.605469 32.480469 17.738281 32.429688 17.867188 32.375 C 17.996094 32.316406 18.125 32.257812 18.253906 32.195312 C 18.378906 32.132812 18.503906 32.066406 18.625 32 C 18.75 31.929688 18.871094 31.855469 18.988281 31.78125 C 19.109375 31.703125 19.226562 31.625 19.339844 31.542969 C 19.457031 31.460938 19.566406 31.375 19.679688 31.289062 C 19.789062 31.199219 19.894531 31.109375 20 31.015625 C 20.105469 31.109375 20.214844 31.199219 20.324219 31.289062 C 20.433594 31.375 20.546875 31.460938 20.660156 31.542969 C 20.777344 31.625 20.894531 31.707031 21.011719 31.78125 C 21.132812 31.855469 21.253906 31.929688 21.375 32 C 21.5 32.070312 21.625 32.132812 21.75 32.195312 C 21.875 32.261719 22.003906 32.320312 22.132812 32.375 C 22.265625 32.429688 22.394531 32.484375 22.527344 32.53125 C 22.660156 32.582031 22.792969 32.625 22.929688 32.667969 C 23.0625 32.707031 23.199219 32.746094 23.335938 32.78125 C 23.472656 32.8125 23.613281 32.84375 23.75 32.871094 C 23.890625 32.898438 24.027344 32.921875 24.167969 32.941406 C 24.308594 32.957031 24.449219 32.972656 24.589844 32.984375 C 24.730469 32.996094 24.871094 33.003906 25.011719 33.007812 C 25.152344 33.011719 25.296875 33.011719 25.4375 33.007812 C 25.578125 33.003906 25.71875 32.996094 25.859375 32.984375 C 26 32.976562 26.140625 32.960938 26.28125 32.941406 C 26.421875 32.921875 26.558594 32.898438 26.699219 32.871094 C 26.835938 32.847656 26.976562 32.816406 27.113281 32.78125 C 27.25 32.75 27.386719 32.710938 27.519531 32.667969 C 27.65625 32.628906 27.789062 32.582031 27.921875 32.535156 C 28.054688 32.484375 28.1875 32.433594 28.316406 32.378906 C 28.445312 32.324219 28.574219 32.265625 28.699219 32.203125 C 28.828125 32.136719 28.953125 32.074219 29.074219 32.003906 C 29.199219 31.933594 29.320312 31.863281 29.4375 31.785156 C 29.558594 31.710938 29.675781 31.632812 29.789062 31.550781 C 29.90625 31.464844 30.015625 31.382812 30.128906 31.292969 C 30.238281 31.207031 30.34375 31.113281 30.449219 31.019531 C 30.554688 30.925781 30.660156 30.828125 30.757812 30.730469 C 30.859375 30.628906 30.957031 30.527344 31.050781 30.421875 C 31.144531 30.316406 31.238281 30.210938 31.324219 30.101562 C 31.414062 29.992188 31.5 29.878906 31.582031 29.765625 C 31.664062 29.648438 31.746094 29.535156 31.820312 29.414062 C 31.898438 29.296875 31.972656 29.175781 32.042969 29.050781 C 32.109375 28.929688 32.179688 28.804688 32.242188 28.679688 C 32.304688 28.550781 32.363281 28.425781 32.421875 28.296875 C 32.476562 28.164062 32.527344 28.035156 32.578125 27.902344 C 32.628906 27.769531 32.671875 27.636719 32.714844 27.5 C 32.757812 27.367188 32.792969 27.230469 32.828125 27.09375 C 32.863281 26.957031 32.894531 26.820312 32.921875 26.679688 C 32.949219 26.542969 32.972656 26.402344 32.992188 26.261719 C 33.011719 26.125 33.027344 25.984375 33.039062 25.84375 C 33.050781 25.703125 33.058594 25.5625 33.0625 25.421875 C 33.070312 25.277344 33.070312 25.136719 33.066406 24.996094 C 33.0625 24.855469 33.054688 24.714844 33.042969 24.574219 C 33.035156 24.433594 33.019531 24.292969 33 24.152344 C 32.980469 24.011719 32.960938 23.875 32.933594 23.734375 C 32.90625 23.597656 32.878906 23.457031 32.84375 23.320312 C 32.8125 23.183594 32.773438 23.046875 32.734375 22.910156 C 32.691406 22.777344 32.648438 22.644531 32.601562 22.511719 C 32.550781 22.378906 32.5 22.246094 32.445312 22.117188 C 32.390625 21.984375 32.332031 21.859375 32.269531 21.730469 C 32.207031 21.605469 32.140625 21.480469 32.074219 21.355469 C 32.003906 21.234375 31.933594 21.109375 31.855469 20.992188 C 31.78125 20.871094 31.703125 20.753906 31.621094 20.640625 C 31.539062 20.523438 31.453125 20.414062 31.367188 20.300781 C 31.277344 20.191406 31.1875 20.082031 31.09375 19.976562 C 31 19.871094 30.902344 19.769531 30.804688 19.667969 C 30.707031 19.566406 30.601562 19.46875 30.5 19.375 C 30.394531 19.28125 30.289062 19.1875 30.179688 19.097656 C 30.066406 19.011719 29.957031 18.925781 29.84375 18.839844 C 29.726562 18.757812 29.613281 18.679688 29.492188 18.601562 C 29.375 18.523438 29.253906 18.449219 29.132812 18.378906 C 29.007812 18.308594 28.882812 18.242188 28.757812 18.179688 C 28.632812 18.117188 28.503906 18.054688 28.375 18 Z M 20 8.632812 C 20.136719 8.632812 20.269531 8.636719 20.402344 8.644531 C 20.535156 8.652344 20.667969 8.664062 20.800781 8.679688 C 20.933594 8.695312 21.066406 8.714844 21.199219 8.738281 C 21.332031 8.761719 21.460938 8.789062 21.59375 8.820312 C 21.722656 8.847656 21.851562 8.882812 21.980469 8.921875 C 22.109375 8.960938 22.234375 9 22.363281 9.046875 C 22.488281 9.09375 22.613281 9.140625 22.734375 9.195312 C 22.859375 9.246094 22.980469 9.304688 23.101562 9.363281 C 23.21875 9.421875 23.339844 9.484375 23.453125 9.550781 C 23.570312 9.617188 23.683594 9.6875 23.796875 9.761719 C 23.910156 9.832031 24.019531 9.910156 24.128906 9.988281 C 24.234375 10.066406 24.339844 10.148438 24.445312 10.234375 C 24.546875 10.320312 24.648438 10.410156 24.746094 10.5 C 24.84375 10.589844 24.9375 10.683594 25.03125 10.78125 C 25.125 10.878906 25.214844 10.976562 25.300781 11.078125 C 25.386719 11.179688 25.472656 11.285156 25.550781 11.390625 C 25.632812 11.5 25.710938 11.609375 25.785156 11.71875 C 25.859375 11.832031 25.929688 11.945312 26 12.058594 C 26.066406 12.175781 26.132812 12.292969 26.191406 12.410156 C 26.253906 12.527344 26.3125 12.648438 26.367188 12.773438 C 26.421875 12.894531 26.472656 13.019531 26.519531 13.144531 C 26.566406 13.269531 26.609375 13.394531 26.648438 13.523438 C 26.691406 13.652344 26.726562 13.777344 26.757812 13.910156 C 26.789062 14.039062 26.820312 14.167969 26.84375 14.300781 C 26.871094 14.433594 26.890625 14.566406 26.90625 14.695312 C 26.925781 14.828125 26.9375 14.964844 26.949219 15.097656 C 26.957031 15.230469 26.964844 15.363281 26.964844 15.496094 C 26.96875 15.632812 26.964844 15.765625 26.960938 15.898438 C 26.953125 16.03125 26.945312 16.164062 26.929688 16.300781 C 26.917969 16.433594 26.902344 16.566406 26.878906 16.695312 C 26.859375 16.828125 26.832031 16.960938 26.804688 17.089844 C 26.777344 17.222656 26.742188 17.351562 26.707031 17.480469 C 26.558594 17.453125 26.410156 17.429688 26.261719 17.410156 C 26.113281 17.390625 25.964844 17.375 25.816406 17.363281 C 25.664062 17.351562 25.515625 17.34375 25.363281 17.339844 C 25.214844 17.339844 25.0625 17.339844 24.914062 17.347656 C 24.765625 17.351562 24.613281 17.363281 24.464844 17.378906 C 24.316406 17.394531 24.164062 17.410156 24.015625 17.433594 C 23.867188 17.457031 23.722656 17.484375 23.574219 17.515625 C 23.429688 17.550781 23.28125 17.585938 23.136719 17.625 C 22.992188 17.664062 22.847656 17.710938 22.707031 17.757812 C 22.5625 17.804688 22.421875 17.859375 22.285156 17.914062 C 22.144531 17.972656 22.007812 18.03125 21.871094 18.097656 C 21.734375 18.160156 21.601562 18.230469 21.46875 18.300781 C 21.339844 18.371094 21.207031 18.449219 21.082031 18.527344 C 20.953125 18.605469 20.828125 18.691406 20.707031 18.777344 C 20.582031 18.863281 20.464844 18.953125 20.34375 19.046875 C 20.226562 19.140625 20.113281 19.238281 20 19.335938 C 19.890625 19.238281 19.773438 19.140625 19.65625 19.046875 C 19.539062 18.953125 19.417969 18.863281 19.296875 18.777344 C 19.171875 18.691406 19.046875 18.605469 18.921875 18.527344 C 18.792969 18.449219 18.664062 18.371094 18.53125 18.300781 C 18.398438 18.230469 18.265625 18.160156 18.128906 18.097656 C 17.996094 18.03125 17.855469 17.972656 17.71875 17.914062 C 17.578125 17.859375 17.4375 17.804688 17.296875 17.757812 C 17.152344 17.710938 17.011719 17.664062 16.863281 17.625 C 16.71875 17.585938 16.574219 17.550781 16.425781 17.515625 C 16.28125 17.484375 16.132812 17.457031 15.984375 17.433594 C 15.835938 17.410156 15.6875 17.394531 15.539062 17.378906 C 15.386719 17.363281 15.238281 17.351562 15.089844 17.347656 C 14.9375 17.339844 14.789062 17.339844 14.636719 17.339844 C 14.488281 17.34375 14.335938 17.351562 14.1875 17.363281 C 14.039062 17.375 13.886719 17.390625 13.738281 17.410156 C 13.589844 17.429688 13.441406 17.453125 13.292969 17.480469 C 13.257812 17.351562 13.226562 17.222656 13.199219 17.089844 C 13.167969 16.960938 13.144531 16.828125 13.121094 16.695312 C 13.101562 16.566406 13.085938 16.433594 13.070312 16.300781 C 13.058594 16.164062 13.046875 16.03125 13.042969 15.898438 C 13.035156 15.765625 13.035156 15.632812 13.035156 15.496094 C 13.039062 15.363281 13.042969 15.230469 13.054688 15.097656 C 13.0625 14.964844 13.078125 14.828125 13.09375 14.695312 C 13.113281 14.566406 13.132812 14.433594 13.15625 14.300781 C 13.183594 14.167969 13.210938 14.039062 13.242188 13.910156 C 13.277344 13.777344 13.3125 13.652344 13.351562 13.523438 C 13.390625 13.394531 13.4375 13.269531 13.484375 13.144531 C 13.53125 13.019531 13.582031 12.894531 13.636719 12.773438 C 13.691406 12.648438 13.746094 12.527344 13.808594 12.410156 C 13.871094 12.292969 13.933594 12.175781 14.003906 12.058594 C 14.070312 11.945312 14.140625 11.832031 14.21875 11.71875 C 14.292969 11.609375 14.367188 11.5 14.449219 11.390625 C 14.53125 11.285156 14.613281 11.179688 14.703125 11.078125 C 14.789062 10.976562 14.878906 10.878906 14.972656 10.78125 C 15.0625 10.683594 15.160156 10.589844 15.257812 10.5 C 15.355469 10.410156 15.457031 10.320312 15.558594 10.234375 C 15.660156 10.148438 15.765625 10.066406 15.875 9.988281 C 15.984375 9.910156 16.09375 9.832031 16.203125 9.761719 C 16.316406 9.6875 16.429688 9.617188 16.546875 9.550781 C 16.664062 9.484375 16.78125 9.421875 16.902344 9.363281 C 17.023438 9.304688 17.144531 9.246094 17.265625 9.195312 C 17.390625 9.140625 17.515625 9.09375 17.640625 9.046875 C 17.765625 9 17.894531 8.960938 18.019531 8.921875 C 18.148438 8.882812 18.277344 8.847656 18.410156 8.820312 C 18.539062 8.789062 18.671875 8.761719 18.800781 8.738281 C 18.933594 8.714844 19.066406 8.695312 19.199219 8.679688 C 19.332031 8.664062 19.464844 8.652344 19.601562 8.644531 C 19.734375 8.636719 19.867188 8.632812 20 8.632812 Z M 26.011719 19.132812 C 25.902344 19.316406 25.785156 19.496094 25.65625 19.671875 C 25.53125 19.84375 25.398438 20.011719 25.257812 20.175781 C 25.117188 20.335938 24.96875 20.492188 24.8125 20.640625 C 24.65625 20.789062 24.492188 20.929688 24.324219 21.0625 C 24.15625 21.195312 23.980469 21.320312 23.800781 21.4375 C 23.621094 21.554688 23.4375 21.664062 23.246094 21.765625 C 23.054688 21.867188 22.859375 21.957031 22.660156 22.039062 C 22.464844 22.121094 22.261719 22.195312 22.054688 22.257812 C 21.824219 21.679688 21.527344 21.140625 21.167969 20.636719 C 21.304688 20.511719 21.449219 20.394531 21.597656 20.285156 C 21.746094 20.171875 21.898438 20.070312 22.058594 19.972656 C 22.214844 19.875 22.378906 19.785156 22.542969 19.707031 C 22.710938 19.625 22.878906 19.550781 23.054688 19.484375 C 23.226562 19.417969 23.402344 19.359375 23.582031 19.308594 C 23.757812 19.257812 23.9375 19.214844 24.121094 19.183594 C 24.304688 19.148438 24.488281 19.125 24.671875 19.105469 C 24.855469 19.089844 25.042969 19.082031 25.226562 19.082031 C 25.488281 19.082031 25.75 19.097656 26.011719 19.132812 Z M 20.285156 22.558594 C 20.1875 22.5625 20.09375 22.5625 20 22.5625 C 19.90625 22.5625 19.8125 22.5625 19.71875 22.558594 C 19.804688 22.378906 19.898438 22.207031 20 22.035156 C 20.101562 22.207031 20.195312 22.378906 20.28125 22.558594 Z M 14.773438 31.269531 C 14.6875 31.269531 14.601562 31.269531 14.515625 31.265625 C 14.429688 31.261719 14.34375 31.253906 14.257812 31.25 C 14.171875 31.242188 14.085938 31.230469 14 31.222656 C 13.914062 31.210938 13.828125 31.195312 13.742188 31.183594 C 13.660156 31.167969 13.574219 31.152344 13.488281 31.132812 C 13.40625 31.117188 13.320312 31.09375 13.238281 31.074219 C 13.152344 31.050781 13.070312 31.027344 12.988281 31.003906 C 12.90625 30.976562 12.824219 30.949219 12.742188 30.921875 C 12.660156 30.894531 12.578125 30.863281 12.5 30.832031 C 12.417969 30.796875 12.339844 30.765625 12.261719 30.730469 C 12.183594 30.695312 12.105469 30.65625 12.027344 30.617188 C 11.949219 30.578125 11.875 30.539062 11.800781 30.496094 C 11.722656 30.453125 11.648438 30.410156 11.574219 30.363281 C 11.503906 30.320312 11.429688 30.273438 11.359375 30.222656 C 11.285156 30.175781 11.214844 30.125 11.144531 30.074219 C 11.078125 30.023438 11.007812 29.96875 10.941406 29.917969 C 10.875 29.863281 10.808594 29.804688 10.742188 29.75 C 10.679688 29.691406 10.613281 29.632812 10.554688 29.574219 C 10.492188 29.515625 10.429688 29.453125 10.371094 29.390625 C 10.308594 29.328125 10.25 29.265625 10.195312 29.199219 C 10.136719 29.136719 10.082031 29.070312 10.027344 29.003906 C 9.972656 28.933594 9.921875 28.867188 9.871094 28.796875 C 9.816406 28.726562 9.769531 28.65625 9.71875 28.585938 C 9.671875 28.515625 9.625 28.441406 9.578125 28.367188 C 9.535156 28.292969 9.492188 28.21875 9.449219 28.144531 C 9.40625 28.070312 9.367188 27.992188 9.328125 27.914062 C 9.289062 27.839844 9.25 27.761719 9.214844 27.683594 C 9.179688 27.601562 9.144531 27.523438 9.113281 27.445312 C 9.082031 27.363281 9.050781 27.28125 9.023438 27.203125 C 8.992188 27.121094 8.96875 27.039062 8.941406 26.957031 C 8.917969 26.871094 8.894531 26.789062 8.871094 26.707031 C 8.851562 26.621094 8.828125 26.539062 8.8125 26.453125 C 8.792969 26.371094 8.777344 26.285156 8.761719 26.199219 C 8.75 26.113281 8.734375 26.03125 8.726562 25.945312 C 8.714844 25.859375 8.703125 25.773438 8.699219 25.6875 C 8.691406 25.601562 8.683594 25.515625 8.679688 25.429688 C 8.675781 25.339844 8.675781 25.253906 8.675781 25.167969 C 8.675781 25.082031 8.679688 24.996094 8.683594 24.910156 C 8.6875 24.824219 8.691406 24.738281 8.699219 24.652344 C 8.707031 24.566406 8.714844 24.480469 8.726562 24.394531 C 8.738281 24.308594 8.75 24.222656 8.765625 24.136719 C 8.78125 24.054688 8.796875 23.96875 8.816406 23.882812 C 8.832031 23.800781 8.851562 23.714844 8.875 23.632812 C 8.898438 23.546875 8.921875 23.464844 8.945312 23.382812 C 8.972656 23.300781 9 23.21875 9.027344 23.136719 C 9.054688 23.054688 9.085938 22.976562 9.117188 22.894531 C 9.152344 22.816406 9.183594 22.734375 9.222656 22.65625 C 9.257812 22.578125 9.292969 22.5 9.332031 22.421875 C 9.371094 22.347656 9.414062 22.269531 9.453125 22.195312 C 9.496094 22.121094 9.542969 22.046875 9.585938 21.972656 C 9.632812 21.898438 9.679688 21.824219 9.726562 21.753906 C 9.777344 21.683594 9.824219 21.613281 9.878906 21.542969 C 9.929688 21.472656 9.980469 21.40625 10.035156 21.339844 C 10.089844 21.273438 10.144531 21.207031 10.203125 21.140625 C 10.261719 21.078125 10.320312 21.011719 10.378906 20.949219 C 10.4375 20.886719 10.5 20.828125 10.5625 20.769531 C 10.625 20.707031 10.6875 20.648438 10.753906 20.59375 C 10.820312 20.535156 10.882812 20.480469 10.953125 20.425781 C 11.019531 20.371094 11.085938 20.320312 11.15625 20.269531 C 11.226562 20.21875 11.296875 20.167969 11.367188 20.121094 C 11.441406 20.070312 11.511719 20.023438 11.585938 19.980469 C 11.660156 19.933594 11.734375 19.890625 11.8125 19.847656 C 11.886719 19.808594 11.960938 19.765625 12.039062 19.726562 C 12.117188 19.6875 12.195312 19.652344 12.273438 19.617188 C 12.339844 19.746094 12.410156 19.871094 12.484375 19.996094 C 12.558594 20.121094 12.632812 20.246094 12.714844 20.367188 C 12.792969 20.488281 12.875 20.605469 12.960938 20.722656 C 13.046875 20.839844 13.132812 20.953125 13.226562 21.066406 C 13.316406 21.179688 13.410156 21.289062 13.507812 21.398438 C 13.601562 21.507812 13.703125 21.613281 13.804688 21.714844 C 13.90625 21.816406 14.011719 21.917969 14.117188 22.015625 C 14.222656 22.113281 14.332031 22.207031 14.445312 22.300781 C 14.554688 22.394531 14.667969 22.484375 14.785156 22.570312 C 14.902344 22.65625 15.019531 22.742188 15.140625 22.820312 C 15.261719 22.902344 15.382812 22.980469 15.507812 23.054688 C 15.628906 23.128906 15.757812 23.203125 15.882812 23.269531 C 16.011719 23.339844 16.140625 23.402344 16.269531 23.464844 C 16.402344 23.527344 16.535156 23.585938 16.667969 23.644531 C 16.800781 23.699219 16.9375 23.75 17.074219 23.800781 C 17.210938 23.847656 17.347656 23.894531 17.484375 23.9375 C 17.421875 24.347656 17.386719 24.761719 17.386719 25.175781 C 17.386719 25.378906 17.394531 25.578125 17.410156 25.78125 C 17.425781 25.980469 17.449219 26.183594 17.480469 26.382812 C 17.511719 26.582031 17.550781 26.78125 17.597656 26.976562 C 17.644531 27.171875 17.695312 27.367188 17.757812 27.558594 C 17.820312 27.753906 17.886719 27.941406 17.964844 28.128906 C 18.039062 28.316406 18.125 28.5 18.214844 28.679688 C 18.304688 28.859375 18.402344 29.039062 18.507812 29.210938 C 18.613281 29.382812 18.722656 29.550781 18.839844 29.71875 C 18.703125 29.839844 18.558594 29.957031 18.410156 30.070312 C 18.261719 30.179688 18.105469 30.285156 17.949219 30.378906 C 17.789062 30.476562 17.628906 30.566406 17.460938 30.648438 C 17.292969 30.730469 17.125 30.804688 16.953125 30.871094 C 16.777344 30.9375 16.601562 30.992188 16.421875 31.042969 C 16.246094 31.09375 16.0625 31.136719 15.882812 31.167969 C 15.699219 31.203125 15.515625 31.226562 15.332031 31.246094 C 15.144531 31.261719 14.960938 31.269531 14.773438 31.269531 Z M 17.949219 22.257812 C 17.746094 22.191406 17.542969 22.121094 17.34375 22.039062 C 17.144531 21.957031 16.949219 21.863281 16.757812 21.765625 C 16.570312 21.664062 16.382812 21.554688 16.203125 21.4375 C 16.023438 21.320312 15.847656 21.195312 15.679688 21.0625 C 15.511719 20.929688 15.347656 20.789062 15.191406 20.640625 C 15.035156 20.492188 14.886719 20.335938 14.746094 20.175781 C 14.605469 20.011719 14.46875 19.84375 14.34375 19.671875 C 14.21875 19.496094 14.101562 19.316406 13.992188 19.132812 C 14.25 19.097656 14.511719 19.082031 14.773438 19.082031 C 14.960938 19.082031 15.144531 19.089844 15.332031 19.105469 C 15.515625 19.125 15.699219 19.148438 15.882812 19.183594 C 16.0625 19.214844 16.246094 19.257812 16.421875 19.308594 C 16.601562 19.355469 16.777344 19.414062 16.953125 19.480469 C 17.125 19.546875 17.292969 19.621094 17.460938 19.703125 C 17.628906 19.785156 17.789062 19.875 17.949219 19.972656 C 18.105469 20.066406 18.261719 20.171875 18.410156 20.28125 C 18.558594 20.394531 18.703125 20.511719 18.839844 20.632812 C 18.480469 21.140625 18.183594 21.679688 17.949219 22.257812 Z M 20 28.3125 C 19.910156 28.164062 19.828125 28.011719 19.75 27.851562 C 19.671875 27.695312 19.601562 27.535156 19.539062 27.371094 C 19.476562 27.207031 19.421875 27.039062 19.371094 26.871094 C 19.324219 26.703125 19.28125 26.535156 19.246094 26.359375 C 19.214844 26.1875 19.1875 26.015625 19.167969 25.839844 C 19.148438 25.667969 19.136719 25.492188 19.132812 25.316406 C 19.128906 25.140625 19.132812 24.964844 19.140625 24.792969 C 19.152344 24.617188 19.171875 24.441406 19.195312 24.269531 C 19.460938 24.292969 19.730469 24.304688 20 24.304688 C 20.273438 24.304688 20.539062 24.292969 20.804688 24.269531 C 20.832031 24.441406 20.847656 24.617188 20.859375 24.792969 C 20.871094 24.964844 20.875 25.140625 20.871094 25.316406 C 20.867188 25.492188 20.855469 25.667969 20.835938 25.839844 C 20.816406 26.015625 20.789062 26.1875 20.753906 26.359375 C 20.71875 26.535156 20.679688 26.703125 20.628906 26.871094 C 20.582031 27.039062 20.523438 27.207031 20.460938 27.371094 C 20.398438 27.535156 20.328125 27.695312 20.25 27.851562 C 20.175781 28.011719 20.089844 28.164062 20 28.3125 Z M 25.226562 31.269531 C 25.042969 31.269531 24.855469 31.261719 24.671875 31.246094 C 24.488281 31.226562 24.304688 31.203125 24.121094 31.167969 C 23.9375 31.136719 23.757812 31.09375 23.578125 31.042969 C 23.398438 30.992188 23.222656 30.9375 23.050781 30.871094 C 22.878906 30.804688 22.707031 30.730469 22.539062 30.648438 C 22.375 30.566406 22.210938 30.476562 22.054688 30.378906 C 21.894531 30.285156 21.742188 30.179688 21.59375 30.070312 C 21.445312 29.957031 21.300781 29.839844 21.160156 29.71875 C 21.308594 29.511719 21.445312 29.296875 21.574219 29.074219 C 21.699219 28.855469 21.8125 28.628906 21.917969 28.398438 C 22.023438 28.167969 22.117188 27.929688 22.199219 27.691406 C 22.28125 27.449219 22.347656 27.207031 22.40625 26.960938 C 22.464844 26.710938 22.511719 26.460938 22.542969 26.210938 C 22.578125 25.960938 22.601562 25.707031 22.609375 25.453125 C 22.617188 25.199219 22.613281 24.945312 22.597656 24.691406 C 22.585938 24.4375 22.554688 24.1875 22.515625 23.9375 C 22.65625 23.894531 22.792969 23.847656 22.929688 23.800781 C 23.066406 23.75 23.199219 23.699219 23.335938 23.644531 C 23.46875 23.585938 23.601562 23.527344 23.730469 23.464844 C 23.863281 23.402344 23.992188 23.339844 24.117188 23.269531 C 24.246094 23.203125 24.371094 23.128906 24.496094 23.054688 C 24.621094 22.980469 24.742188 22.902344 24.863281 22.820312 C 24.980469 22.742188 25.101562 22.65625 25.214844 22.570312 C 25.332031 22.484375 25.445312 22.394531 25.558594 22.300781 C 25.667969 22.207031 25.777344 22.113281 25.886719 22.015625 C 25.992188 21.917969 26.097656 21.816406 26.199219 21.714844 C 26.300781 21.613281 26.398438 21.507812 26.496094 21.398438 C 26.59375 21.289062 26.6875 21.179688 26.777344 21.066406 C 26.867188 20.953125 26.957031 20.839844 27.042969 20.722656 C 27.125 20.605469 27.210938 20.488281 27.289062 20.367188 C 27.367188 20.246094 27.445312 20.121094 27.519531 19.996094 C 27.589844 19.871094 27.660156 19.746094 27.726562 19.617188 C 27.808594 19.652344 27.886719 19.6875 27.960938 19.726562 C 28.039062 19.765625 28.117188 19.808594 28.191406 19.847656 C 28.265625 19.890625 28.339844 19.933594 28.414062 19.980469 C 28.488281 20.023438 28.5625 20.070312 28.632812 20.121094 C 28.703125 20.167969 28.773438 20.21875 28.84375 20.269531 C 28.914062 20.320312 28.984375 20.371094 29.050781 20.425781 C 29.117188 20.480469 29.183594 20.535156 29.25 20.59375 C 29.3125 20.648438 29.378906 20.707031 29.441406 20.769531 C 29.503906 20.828125 29.5625 20.886719 29.625 20.949219 C 29.683594 21.011719 29.742188 21.078125 29.796875 21.140625 C 29.855469 21.207031 29.910156 21.273438 29.964844 21.339844 C 30.019531 21.40625 30.074219 21.472656 30.125 21.542969 C 30.175781 21.613281 30.226562 21.683594 30.273438 21.753906 C 30.324219 21.824219 30.371094 21.898438 30.414062 21.972656 C 30.460938 22.046875 30.503906 22.121094 30.546875 22.195312 C 30.589844 22.269531 30.628906 22.347656 30.667969 22.421875 C 30.707031 22.5 30.746094 22.578125 30.78125 22.65625 C 30.816406 22.734375 30.851562 22.816406 30.882812 22.894531 C 30.914062 22.976562 30.945312 23.054688 30.976562 23.136719 C 31.003906 23.21875 31.03125 23.300781 31.054688 23.382812 C 31.082031 23.464844 31.105469 23.546875 31.128906 23.632812 C 31.148438 23.714844 31.167969 23.800781 31.1875 23.882812 C 31.207031 23.96875 31.222656 24.054688 31.238281 24.136719 C 31.25 24.222656 31.265625 24.308594 31.277344 24.394531 C 31.285156 24.480469 31.296875 24.566406 31.304688 24.652344 C 31.3125 24.738281 31.316406 24.824219 31.320312 24.910156 C 31.324219 24.996094 31.324219 25.082031 31.324219 25.167969 C 31.328125 25.253906 31.324219 25.339844 31.320312 25.429688 C 31.316406 25.515625 31.3125 25.601562 31.304688 25.6875 C 31.296875 25.773438 31.289062 25.859375 31.277344 25.945312 C 31.265625 26.03125 31.253906 26.113281 31.238281 26.199219 C 31.226562 26.285156 31.207031 26.371094 31.191406 26.453125 C 31.171875 26.539062 31.152344 26.621094 31.128906 26.707031 C 31.109375 26.789062 31.085938 26.871094 31.058594 26.957031 C 31.035156 27.039062 31.007812 27.121094 30.980469 27.203125 C 30.949219 27.28125 30.921875 27.363281 30.886719 27.445312 C 30.855469 27.523438 30.820312 27.601562 30.785156 27.683594 C 30.75 27.761719 30.714844 27.839844 30.675781 27.914062 C 30.636719 27.992188 30.597656 28.070312 30.554688 28.144531 C 30.511719 28.21875 30.46875 28.292969 30.421875 28.367188 C 30.378906 28.441406 30.332031 28.515625 30.28125 28.585938 C 30.234375 28.65625 30.183594 28.726562 30.132812 28.796875 C 30.082031 28.867188 30.027344 28.933594 29.976562 29.003906 C 29.921875 29.070312 29.863281 29.136719 29.808594 29.199219 C 29.75 29.265625 29.691406 29.328125 29.632812 29.390625 C 29.574219 29.453125 29.511719 29.515625 29.449219 29.574219 C 29.386719 29.632812 29.324219 29.691406 29.257812 29.75 C 29.195312 29.804688 29.128906 29.863281 29.0625 29.917969 C 28.992188 29.96875 28.925781 30.023438 28.855469 30.074219 C 28.785156 30.125 28.714844 30.175781 28.644531 30.222656 C 28.574219 30.273438 28.5 30.320312 28.425781 30.363281 C 28.351562 30.410156 28.277344 30.453125 28.203125 30.496094 C 28.128906 30.539062 28.050781 30.578125 27.972656 30.617188 C 27.898438 30.65625 27.820312 30.695312 27.742188 30.730469 C 27.660156 30.765625 27.582031 30.796875 27.503906 30.832031 C 27.421875 30.863281 27.339844 30.894531 27.261719 30.921875 C 27.179688 30.949219 27.097656 30.976562 27.015625 31.003906 C 26.929688 31.027344 26.847656 31.050781 26.765625 31.074219 C 26.679688 31.09375 26.597656 31.117188 26.511719 31.132812 C 26.429688 31.152344 26.34375 31.167969 26.257812 31.183594 C 26.171875 31.195312 26.085938 31.210938 26 31.222656 C 25.917969 31.230469 25.832031 31.242188 25.746094 31.25 C 25.660156 31.253906 25.570312 31.261719 25.484375 31.265625 C 25.398438 31.269531 25.3125 31.269531 25.226562 31.269531 Z M 25.226562 31.269531 "/>
</g>
</svg>
