<?xml version="1.0" encoding="UTF-8"?>
<svg xmlns="http://www.w3.org/2000/svg" xmlns:xlink="http://www.w3.org/1999/xlink" width="40px" height="40px" viewBox="0 0 40 40" version="1.1">
<defs>
<clipPath id="clip1">
  <path d="M 18.890625 8.953125 L 21.109375 8.953125 L 21.109375 11.722656 L 18.890625 11.722656 Z M 18.890625 8.953125 "/>
</clipPath>
<clipPath id="clip2">
  <path d="M 6.75 21.082031 L 9.527344 21.082031 L 9.527344 23.332031 L 6.75 23.332031 Z M 6.75 21.082031 "/>
</clipPath>
<clipPath id="clip3">
  <path d="M 30.472656 21.082031 L 33.25 21.082031 L 33.25 23.332031 L 30.472656 23.332031 Z M 30.472656 21.082031 "/>
</clipPath>
</defs>
<g id="surface1">
<rect x="0" y="0" width="40" height="40" style="fill:rgb(100%,100%,100%);fill-opacity:1;stroke:none;"/>
<path style=" stroke:none;fill-rule:nonzero;fill:rgb(0%,0%,0%);fill-opacity:1;" d="M 20 0 C 8.953125 0 0 8.960938 0 20 C 0 31.039062 8.953125 40 20 40 C 31.046875 40 40 31.039062 40 20 C 40 8.960938 31.046875 0 20 0 Z M 20 38.734375 C 9.652344 38.734375 1.265625 30.347656 1.265625 20 C 1.265625 9.652344 9.652344 1.265625 20 1.265625 C 30.347656 1.265625 38.734375 9.652344 38.734375 20 C 38.734375 30.347656 30.347656 38.734375 20 38.734375 Z M 20 38.734375 "/>
<path style=" stroke:none;fill-rule:nonzero;fill:rgb(0%,0%,0%);fill-opacity:1;" d="M 24.417969 14.5625 C 20.199219 12.125 14.785156 13.574219 12.351562 17.796875 C 9.914062 22.015625 11.363281 27.433594 15.582031 29.867188 C 16.96875 30.667969 18.488281 31.050781 19.984375 31.050781 C 23.039062 31.050781 26.015625 29.464844 27.648438 26.632812 C 30.085938 22.414062 28.632812 17 24.417969 14.5625 Z M 25.738281 25.527344 C 23.910156 28.691406 19.851562 29.78125 16.6875 27.957031 C 13.523438 26.128906 12.433594 22.066406 14.261719 18.902344 C 15.898438 16.0625 19.332031 14.902344 22.304688 16.007812 L 20.699219 18.792969 C 20.394531 19.320312 20.574219 19.996094 21.101562 20.300781 C 21.277344 20.402344 21.46875 20.449219 21.652344 20.449219 C 22.035156 20.449219 22.40625 20.253906 22.613281 19.898438 L 24.21875 17.113281 C 26.664062 19.136719 27.375 22.691406 25.738281 25.527344 Z M 25.738281 25.527344 "/>
<g clip-path="url(#clip1)" clip-rule="nonzero">
<path style=" stroke:none;fill-rule:nonzero;fill:rgb(0%,0%,0%);fill-opacity:1;" d="M 20 8.960938 C 19.390625 8.960938 18.894531 9.453125 18.894531 10.0625 L 18.894531 10.617188 C 18.894531 11.226562 19.390625 11.722656 20 11.722656 C 20.609375 11.722656 21.101562 11.226562 21.101562 10.617188 L 21.101562 10.0625 C 21.101562 9.453125 20.609375 8.960938 20 8.960938 Z M 20 8.960938 "/>
</g>
<path style=" stroke:none;fill-rule:nonzero;fill:rgb(0%,0%,0%);fill-opacity:1;" d="M 15.160156 11.617188 L 14.882812 11.140625 C 14.578125 10.609375 13.902344 10.429688 13.375 10.734375 C 12.847656 11.039062 12.664062 11.714844 12.96875 12.242188 L 13.246094 12.722656 C 13.449219 13.078125 13.820312 13.273438 14.203125 13.273438 C 14.390625 13.273438 14.582031 13.226562 14.753906 13.125 C 15.28125 12.820312 15.464844 12.144531 15.160156 11.617188 Z M 15.160156 11.617188 "/>
<path style=" stroke:none;fill-rule:nonzero;fill:rgb(0%,0%,0%);fill-opacity:1;" d="M 10.511719 15.460938 L 10.03125 15.183594 C 9.503906 14.878906 8.828125 15.058594 8.523438 15.585938 C 8.21875 16.117188 8.398438 16.792969 8.929688 17.097656 L 9.40625 17.371094 C 9.582031 17.472656 9.769531 17.519531 9.957031 17.519531 C 10.339844 17.519531 10.710938 17.324219 10.914062 16.96875 C 11.21875 16.441406 11.039062 15.765625 10.511719 15.460938 Z M 10.511719 15.460938 "/>
<g clip-path="url(#clip2)" clip-rule="nonzero">
<path style=" stroke:none;fill-rule:nonzero;fill:rgb(0%,0%,0%);fill-opacity:1;" d="M 8.40625 21.109375 L 7.855469 21.109375 C 7.242188 21.109375 6.75 21.605469 6.75 22.214844 C 6.75 22.824219 7.242188 23.320312 7.855469 23.320312 L 8.40625 23.320312 C 9.015625 23.320312 9.511719 22.824219 9.511719 22.214844 C 9.511719 21.605469 9.015625 21.109375 8.40625 21.109375 Z M 8.40625 21.109375 "/>
</g>
<path style=" stroke:none;fill-rule:nonzero;fill:rgb(0%,0%,0%);fill-opacity:1;" d="M 26.625 10.734375 C 26.097656 10.429688 25.421875 10.609375 25.117188 11.140625 L 24.839844 11.617188 C 24.535156 12.144531 24.714844 12.820312 25.242188 13.125 C 25.417969 13.226562 25.609375 13.273438 25.796875 13.273438 C 26.175781 13.273438 26.546875 13.078125 26.753906 12.722656 L 27.027344 12.246094 C 27.332031 11.714844 27.152344 11.039062 26.625 10.734375 Z M 26.625 10.734375 "/>
<path style=" stroke:none;fill-rule:nonzero;fill:rgb(0%,0%,0%);fill-opacity:1;" d="M 31.476562 15.585938 C 31.167969 15.058594 30.496094 14.878906 29.964844 15.183594 L 29.488281 15.460938 C 28.960938 15.765625 28.78125 16.441406 29.082031 16.96875 C 29.289062 17.324219 29.660156 17.519531 30.042969 17.519531 C 30.226562 17.519531 30.417969 17.472656 30.59375 17.371094 L 31.070312 17.097656 C 31.597656 16.792969 31.78125 16.117188 31.476562 15.585938 Z M 31.476562 15.585938 "/>
<g clip-path="url(#clip3)" clip-rule="nonzero">
<path style=" stroke:none;fill-rule:nonzero;fill:rgb(0%,0%,0%);fill-opacity:1;" d="M 32.144531 21.109375 L 31.59375 21.109375 C 30.984375 21.109375 30.488281 21.605469 30.488281 22.214844 C 30.488281 22.824219 30.984375 23.320312 31.59375 23.320312 L 32.144531 23.320312 C 32.753906 23.320312 33.25 22.824219 33.25 22.214844 C 33.25 21.605469 32.753906 21.109375 32.144531 21.109375 Z M 32.144531 21.109375 "/>
</g>
</g>
</svg>
