<?xml version="1.0" encoding="UTF-8"?>
<svg xmlns="http://www.w3.org/2000/svg" xmlns:xlink="http://www.w3.org/1999/xlink" width="40px" height="40px" viewBox="0 0 40 40" version="1.1">
<defs>
<clipPath id="clip1">
  <path d="M 1.824219 4.742188 L 38.167969 4.742188 L 38.167969 36.230469 L 1.824219 36.230469 Z M 1.824219 4.742188 "/>
</clipPath>
<clipPath id="clip2">
  <path d="M 1.007812 3.925781 L 38.964844 3.925781 L 38.964844 36.828125 L 1.007812 36.828125 Z M 1.007812 3.925781 "/>
</clipPath>
<clipPath id="clip3">
  <path d="M 0.863281 3.917969 L 39.140625 3.917969 L 39.140625 37.082031 L 0.863281 37.082031 Z M 0.863281 3.917969 "/>
</clipPath>
<clipPath id="clip4">
  <path d="M 0 2.675781 L 39.984375 2.675781 L 39.984375 37.332031 L 0 37.332031 Z M 0 2.675781 "/>
</clipPath>
</defs>
<g id="surface1">
<rect x="0" y="0" width="40" height="40" style="fill:rgb(100%,100%,100%);fill-opacity:1;stroke:none;"/>
<g clip-path="url(#clip1)" clip-rule="nonzero">
<path style=" stroke:none;fill-rule:nonzero;fill:rgb(0%,0%,0%);fill-opacity:1;" d="M 38.175781 36.226562 L 1.824219 36.226562 L 20 4.746094 Z M 3.503906 35.257812 L 36.496094 35.257812 L 20 6.6875 Z M 3.503906 35.257812 "/>
</g>
<g clip-path="url(#clip2)" clip-rule="nonzero">
<path style=" stroke:none;fill-rule:nonzero;fill:rgb(0%,0%,0%);fill-opacity:1;" d="M 38.992188 36.828125 L 1.007812 36.828125 L 20 3.933594 Z M 2.761719 35.820312 L 37.238281 35.820312 L 20 5.960938 Z M 2.761719 35.820312 "/>
</g>
<g clip-path="url(#clip3)" clip-rule="nonzero">
<path style=" stroke:none;fill-rule:nonzero;fill:rgb(0%,0%,0%);fill-opacity:1;" d="M 39.136719 37.066406 L 0.863281 37.066406 L 20 3.921875 Z M 2.632812 36.046875 L 37.367188 36.046875 L 20 5.964844 Z M 2.632812 36.046875 "/>
</g>
<g clip-path="url(#clip4)" clip-rule="nonzero">
<path style=" stroke:none;fill-rule:nonzero;fill:rgb(0%,0%,0%);fill-opacity:1;" d="M 40 37.320312 L 0 37.320312 L 20 2.679688 Z M 1.847656 36.253906 L 38.152344 36.253906 L 20 4.816406 Z M 1.847656 36.253906 "/>
</g>
<path style=" stroke:none;fill-rule:nonzero;fill:rgb(0%,0%,0%);fill-opacity:1;" d="M 13.371094 28.945312 C 13.765625 28.945312 14.101562 29.015625 14.382812 29.160156 C 14.660156 29.304688 14.871094 29.507812 15.015625 29.765625 C 15.160156 30.027344 15.230469 30.328125 15.230469 30.671875 C 15.230469 31.015625 15.160156 31.316406 15.015625 31.574219 C 14.871094 31.832031 14.660156 32.035156 14.382812 32.179688 C 14.101562 32.324219 13.765625 32.394531 13.371094 32.394531 L 12.332031 32.394531 L 12.332031 34.445312 L 11.246094 34.445312 L 11.246094 28.945312 Z M 13.226562 31.535156 C 13.832031 31.535156 14.136719 31.246094 14.136719 30.671875 C 14.136719 30.09375 13.832031 29.804688 13.226562 29.804688 L 12.332031 29.804688 L 12.332031 31.535156 Z M 13.226562 31.535156 "/>
<path style=" stroke:none;fill-rule:nonzero;fill:rgb(0%,0%,0%);fill-opacity:1;" d="M 17.359375 34.445312 L 16.273438 34.445312 L 16.273438 28.945312 L 17.359375 28.945312 Z M 17.359375 34.445312 "/>
<path style=" stroke:none;fill-rule:nonzero;fill:rgb(0%,0%,0%);fill-opacity:1;" d="M 21.085938 34.523438 C 20.578125 34.523438 20.132812 34.417969 19.746094 34.210938 C 19.359375 34 19.058594 33.679688 18.839844 33.257812 C 18.621094 32.835938 18.511719 32.316406 18.511719 31.695312 C 18.511719 31.074219 18.621094 30.554688 18.839844 30.132812 C 19.058594 29.707031 19.359375 29.390625 19.746094 29.179688 C 20.132812 28.972656 20.578125 28.867188 21.085938 28.867188 C 21.613281 28.867188 22.0625 28.96875 22.433594 29.175781 C 22.804688 29.382812 23.070312 29.699219 23.226562 30.121094 L 22.433594 30.609375 L 22.339844 30.605469 C 22.21875 30.316406 22.058594 30.113281 21.859375 29.988281 C 21.65625 29.863281 21.398438 29.800781 21.085938 29.800781 C 20.628906 29.800781 20.273438 29.953125 20.015625 30.257812 C 19.761719 30.558594 19.632812 31.039062 19.632812 31.695312 C 19.632812 32.351562 19.761719 32.828125 20.015625 33.132812 C 20.273438 33.433594 20.628906 33.585938 21.085938 33.585938 C 21.800781 33.585938 22.238281 33.238281 22.398438 32.542969 L 22.492188 32.542969 L 23.292969 32.960938 C 23.144531 33.480469 22.886719 33.875 22.523438 34.132812 C 22.160156 34.394531 21.679688 34.523438 21.085938 34.523438 Z M 21.085938 34.523438 "/>
<path style=" stroke:none;fill-rule:nonzero;fill:rgb(0%,0%,0%);fill-opacity:1;" d="M 26.472656 34.523438 C 25.96875 34.523438 25.523438 34.421875 25.140625 34.214844 C 24.753906 34.011719 24.453125 33.695312 24.234375 33.273438 C 24.015625 32.851562 23.90625 32.324219 23.90625 31.695312 C 23.90625 31.066406 24.015625 30.539062 24.234375 30.117188 C 24.453125 29.695312 24.753906 29.378906 25.140625 29.175781 C 25.523438 28.96875 25.96875 28.867188 26.472656 28.867188 C 26.976562 28.867188 27.421875 28.96875 27.804688 29.171875 C 28.191406 29.375 28.492188 29.691406 28.707031 30.113281 C 28.925781 30.539062 29.03125 31.066406 29.03125 31.695312 C 29.03125 32.324219 28.925781 32.851562 28.707031 33.277344 C 28.492188 33.699219 28.191406 34.015625 27.804688 34.21875 C 27.421875 34.421875 26.976562 34.523438 26.472656 34.523438 Z M 26.472656 33.582031 C 26.941406 33.582031 27.296875 33.429688 27.542969 33.132812 C 27.789062 32.832031 27.910156 32.351562 27.910156 31.695312 C 27.910156 31.039062 27.789062 30.558594 27.542969 30.257812 C 27.296875 29.957031 26.941406 29.804688 26.472656 29.804688 C 26.003906 29.804688 25.648438 29.957031 25.398438 30.257812 C 25.152344 30.558594 25.027344 31.039062 25.027344 31.695312 C 25.027344 32.351562 25.152344 32.832031 25.398438 33.132812 C 25.648438 33.429688 26.003906 33.582031 26.472656 33.582031 Z M 26.472656 33.582031 "/>
</g>
</svg>
