<?xml version="1.0" encoding="UTF-8"?>
<svg xmlns="http://www.w3.org/2000/svg" xmlns:xlink="http://www.w3.org/1999/xlink" width="40px" height="40px" viewBox="0 0 40 40" version="1.1">
<defs>
<clipPath id="clip1">
  <path d="M 18.890625 1.253906 L 20.527344 1.253906 L 20.527344 20.195312 L 18.890625 20.195312 Z M 18.890625 1.253906 "/>
</clipPath>
<clipPath id="clip2">
  <path d="M 19.417969 19.027344 L 33.875 19.027344 L 33.875 21.222656 L 19.417969 21.222656 Z M 19.417969 19.027344 "/>
</clipPath>
<clipPath id="clip3">
  <path d="M 18.457031 17.140625 L 22.472656 17.140625 L 22.472656 21.253906 L 18.457031 21.253906 Z M 18.457031 17.140625 "/>
</clipPath>
</defs>
<g id="surface1">
<rect x="0" y="0" width="40" height="40" style="fill:rgb(100%,100%,100%);fill-opacity:1;stroke:none;"/>
<path style=" stroke:none;fill-rule:nonzero;fill:rgb(0%,0%,0%);fill-opacity:1;" d="M 20 0 C 8.953125 0 0 8.960938 0 20 C 0 31.039062 8.953125 40 20 40 C 31.046875 40 40 31.039062 40 20 C 40 8.960938 31.046875 0 20 0 Z M 20 38.734375 C 9.652344 38.734375 1.265625 30.347656 1.265625 20 C 1.265625 9.652344 9.652344 1.265625 20 1.265625 C 30.347656 1.265625 38.734375 9.652344 38.734375 20 C 38.734375 30.347656 30.347656 38.734375 20 38.734375 Z M 20 38.734375 "/>
<g clip-path="url(#clip1)" clip-rule="nonzero">
<path style=" stroke:none;fill-rule:nonzero;fill:rgb(0%,0%,0%);fill-opacity:1;" d="M 19.359375 20.1875 C 19.269531 18.605469 19.207031 17.027344 19.144531 15.445312 L 19.066406 13.074219 L 19.007812 10.703125 C 18.992188 9.921875 18.941406 9.125 18.910156 8.335938 C 18.875 7.546875 18.886719 6.753906 18.949219 5.96875 C 19.011719 5.183594 19.105469 4.398438 19.230469 3.605469 C 19.347656 2.808594 19.523438 2.027344 19.75 1.253906 L 19.90625 1.253906 C 20.105469 2.035156 20.246094 2.828125 20.332031 3.628906 C 20.425781 4.421875 20.484375 5.210938 20.511719 6.003906 C 20.542969 6.792969 20.523438 7.582031 20.457031 8.371094 C 20.390625 9.152344 20.308594 9.945312 20.257812 10.734375 L 20.105469 13.097656 L 19.925781 15.460938 C 19.796875 17.035156 19.667969 18.613281 19.515625 20.1875 Z M 19.359375 20.1875 "/>
</g>
<g clip-path="url(#clip2)" clip-rule="nonzero">
<path style=" stroke:none;fill-rule:nonzero;fill:rgb(0%,0%,0%);fill-opacity:1;" d="M 19.4375 19.953125 C 20.640625 19.792969 21.847656 19.675781 23.050781 19.5625 C 24.253906 19.445312 25.457031 19.347656 26.660156 19.269531 C 27.265625 19.230469 27.867188 19.144531 28.46875 19.082031 C 29.070312 19.019531 29.671875 19.019531 30.273438 19.082031 C 30.878906 19.148438 31.480469 19.253906 32.074219 19.402344 C 32.699219 19.550781 33.300781 19.765625 33.875 20.046875 L 33.875 20.257812 C 33.296875 20.53125 32.695312 20.738281 32.066406 20.878906 C 31.472656 21.019531 30.871094 21.117188 30.261719 21.175781 C 29.660156 21.230469 29.054688 21.226562 28.457031 21.152344 C 27.855469 21.082031 27.253906 20.988281 26.652344 20.941406 C 25.449219 20.855469 24.246094 20.742188 23.042969 20.605469 C 21.84375 20.476562 20.640625 20.339844 19.4375 20.167969 Z M 19.4375 19.953125 "/>
</g>
<path style=" stroke:none;fill-rule:nonzero;fill:rgb(0%,0%,0%);fill-opacity:1;" d="M 20.613281 20.054688 C 20.613281 20.089844 20.609375 20.125 20.609375 20.160156 C 20.605469 20.191406 20.597656 20.226562 20.59375 20.261719 C 20.585938 20.292969 20.578125 20.328125 20.566406 20.359375 C 20.558594 20.390625 20.546875 20.425781 20.53125 20.457031 C 20.519531 20.488281 20.503906 20.519531 20.488281 20.546875 C 20.472656 20.578125 20.457031 20.609375 20.4375 20.636719 C 20.417969 20.664062 20.398438 20.691406 20.375 20.71875 C 20.355469 20.746094 20.332031 20.769531 20.308594 20.792969 C 20.28125 20.820312 20.257812 20.84375 20.230469 20.863281 C 20.203125 20.886719 20.175781 20.90625 20.148438 20.925781 C 20.121094 20.945312 20.089844 20.960938 20.0625 20.976562 C 20.03125 20.992188 20 21.007812 19.96875 21.019531 C 19.9375 21.035156 19.90625 21.046875 19.871094 21.054688 C 19.839844 21.066406 19.804688 21.074219 19.773438 21.082031 C 19.738281 21.085938 19.703125 21.09375 19.671875 21.097656 C 19.636719 21.097656 19.601562 21.101562 19.570312 21.101562 C 19.535156 21.101562 19.5 21.097656 19.464844 21.097656 C 19.433594 21.09375 19.398438 21.085938 19.363281 21.082031 C 19.332031 21.074219 19.296875 21.066406 19.265625 21.054688 C 19.234375 21.046875 19.199219 21.035156 19.167969 21.019531 C 19.136719 21.007812 19.105469 20.992188 19.078125 20.976562 C 19.046875 20.960938 19.015625 20.945312 18.988281 20.925781 C 18.960938 20.90625 18.933594 20.886719 18.90625 20.863281 C 18.878906 20.84375 18.855469 20.820312 18.828125 20.792969 C 18.804688 20.769531 18.78125 20.746094 18.761719 20.71875 C 18.738281 20.691406 18.71875 20.664062 18.699219 20.636719 C 18.679688 20.609375 18.664062 20.578125 18.648438 20.546875 C 18.632812 20.519531 18.617188 20.488281 18.605469 20.457031 C 18.589844 20.425781 18.578125 20.390625 18.570312 20.359375 C 18.558594 20.328125 18.550781 20.292969 18.542969 20.261719 C 18.539062 20.226562 18.53125 20.191406 18.527344 20.160156 C 18.527344 20.125 18.523438 20.089844 18.523438 20.054688 C 18.523438 20.023438 18.527344 19.988281 18.527344 19.953125 C 18.53125 19.917969 18.539062 19.886719 18.542969 19.851562 C 18.550781 19.820312 18.558594 19.785156 18.570312 19.753906 C 18.578125 19.71875 18.589844 19.6875 18.605469 19.65625 C 18.617188 19.625 18.632812 19.59375 18.648438 19.5625 C 18.664062 19.535156 18.679688 19.503906 18.699219 19.476562 C 18.71875 19.445312 18.738281 19.417969 18.761719 19.394531 C 18.78125 19.367188 18.804688 19.339844 18.828125 19.316406 C 18.855469 19.292969 18.878906 19.269531 18.90625 19.25 C 18.933594 19.226562 18.960938 19.207031 18.988281 19.1875 C 19.015625 19.167969 19.046875 19.152344 19.078125 19.132812 C 19.105469 19.117188 19.136719 19.105469 19.167969 19.089844 C 19.199219 19.078125 19.234375 19.066406 19.265625 19.054688 C 19.296875 19.046875 19.332031 19.039062 19.363281 19.03125 C 19.398438 19.023438 19.433594 19.019531 19.464844 19.015625 C 19.5 19.011719 19.535156 19.011719 19.570312 19.011719 C 19.601562 19.011719 19.636719 19.011719 19.671875 19.015625 C 19.703125 19.019531 19.738281 19.023438 19.773438 19.03125 C 19.804688 19.039062 19.839844 19.046875 19.871094 19.054688 C 19.90625 19.066406 19.9375 19.078125 19.96875 19.089844 C 20 19.105469 20.03125 19.117188 20.0625 19.132812 C 20.089844 19.152344 20.121094 19.167969 20.148438 19.1875 C 20.175781 19.207031 20.203125 19.226562 20.230469 19.25 C 20.257812 19.269531 20.28125 19.292969 20.308594 19.316406 C 20.332031 19.339844 20.355469 19.367188 20.375 19.394531 C 20.398438 19.417969 20.417969 19.445312 20.4375 19.476562 C 20.457031 19.503906 20.472656 19.535156 20.488281 19.5625 C 20.503906 19.59375 20.519531 19.625 20.53125 19.65625 C 20.546875 19.6875 20.558594 19.71875 20.566406 19.753906 C 20.578125 19.785156 20.585938 19.820312 20.59375 19.851562 C 20.597656 19.886719 20.605469 19.917969 20.609375 19.953125 C 20.609375 19.988281 20.613281 20.023438 20.613281 20.054688 Z M 20.613281 20.054688 "/>
<g clip-path="url(#clip3)" clip-rule="nonzero">
<path style="fill:none;stroke-width:1;stroke-linecap:butt;stroke-linejoin:miter;stroke:rgb(0%,0%,0%);stroke-opacity:1;stroke-miterlimit:10;" d="M 16.504109 143.98988 C 16.504109 144.259052 16.474185 144.528224 16.474185 144.797396 C 16.444261 145.03666 16.384413 145.305833 16.354489 145.575005 C 16.294641 145.814269 16.234793 146.083441 16.145021 146.322705 C 16.085173 146.561969 15.995401 146.831141 15.905629 147.070405 C 15.785933 147.309669 15.666237 147.548933 15.546542 147.758289 C 15.426846 147.997553 15.30715 148.236817 15.15753 148.446173 C 15.00791 148.655529 14.85829 148.864885 14.678746 149.074242 C 14.529126 149.283598 14.349582 149.463046 14.170038 149.642494 C 13.96057 149.85185 13.781026 150.031298 13.571558 150.180838 C 13.36209 150.360286 13.152622 150.509826 12.943155 150.659366 C 12.733687 150.808906 12.494295 150.928538 12.284827 151.04817 C 12.045435 151.167802 11.806043 151.287434 11.566651 151.377158 C 11.327259 151.49679 11.057943 151.586514 10.818551 151.64633 C 10.579159 151.736054 10.309844 151.79587 10.070452 151.855686 C 9.801136 151.885594 9.53182 151.94541 9.292428 151.975318 C 9.023112 151.975318 8.753796 152.005226 8.514404 152.005226 C 8.245088 152.005226 7.975772 151.975318 7.706457 151.975318 C 7.467065 151.94541 7.197749 151.885594 6.928433 151.855686 C 6.689041 151.79587 6.419725 151.736054 6.180333 151.64633 C 5.940941 151.586514 5.671625 151.49679 5.432233 151.377158 C 5.192842 151.287434 4.95345 151.167802 4.743982 151.04817 C 4.50459 150.928538 4.265198 150.808906 4.05573 150.659366 C 3.846262 150.509826 3.636794 150.360286 3.427326 150.180838 C 3.217858 150.031298 3.038314 149.85185 2.828846 149.642494 C 2.649303 149.463046 2.469759 149.283598 2.320139 149.074242 C 2.140595 148.864885 1.990975 148.655529 1.841355 148.446173 C 1.691735 148.236817 1.572039 147.997553 1.452343 147.758289 C 1.332647 147.548933 1.212951 147.309669 1.123179 147.070405 C 1.003483 146.831141 0.913711 146.561969 0.853863 146.322705 C 0.764091 146.083441 0.704243 145.814269 0.644395 145.575005 C 0.614471 145.305833 0.554623 145.03666 0.524699 144.797396 C 0.524699 144.528224 0.494775 144.259052 0.494775 143.98988 C 0.494775 143.750616 0.524699 143.481444 0.524699 143.212272 C 0.554623 142.9431 0.614471 142.703836 0.644395 142.434664 C 0.704243 142.1954 0.764091 141.926228 0.853863 141.686964 C 0.913711 141.417792 1.003483 141.178527 1.123179 140.939263 C 1.212951 140.699999 1.332647 140.460735 1.452343 140.221471 C 1.572039 140.012115 1.691735 139.772851 1.841355 139.563495 C 1.990975 139.324231 2.140595 139.114875 2.320139 138.935427 C 2.469759 138.726071 2.649303 138.516715 2.828846 138.337267 C 3.038314 138.157819 3.217858 137.978371 3.427326 137.828831 C 3.636794 137.649383 3.846262 137.499843 4.05573 137.350302 C 4.265198 137.200762 4.50459 137.08113 4.743982 136.93159 C 4.95345 136.811958 5.192842 136.722234 5.432233 136.602602 C 5.671625 136.512878 5.940941 136.423154 6.180333 136.33343 C 6.419725 136.273614 6.689041 136.213798 6.928433 136.153982 C 7.197749 136.094166 7.467065 136.064258 7.706457 136.03435 C 7.975772 136.004442 8.245088 136.004442 8.514404 136.004442 C 8.753796 136.004442 9.023112 136.004442 9.292428 136.03435 C 9.53182 136.064258 9.801136 136.094166 10.070452 136.153982 C 10.309844 136.213798 10.579159 136.273614 10.818551 136.33343 C 11.057943 136.423154 11.327259 136.512878 11.566651 136.602602 C 11.806043 136.722234 12.045435 136.811958 12.284827 136.93159 C 12.494295 137.08113 12.733687 137.200762 12.943155 137.350302 C 13.152622 137.499843 13.36209 137.649383 13.571558 137.828831 C 13.781026 137.978371 13.96057 138.157819 14.170038 138.337267 C 14.349582 138.516715 14.529126 138.726071 14.678746 138.935427 C 14.85829 139.114875 15.00791 139.324231 15.15753 139.563495 C 15.30715 139.772851 15.426846 140.012115 15.546542 140.221471 C 15.666237 140.460735 15.785933 140.699999 15.905629 140.939263 C 15.995401 141.178527 16.085173 141.417792 16.145021 141.686964 C 16.234793 141.926228 16.294641 142.1954 16.354489 142.434664 C 16.384413 142.703836 16.444261 142.9431 16.474185 143.212272 C 16.474185 143.481444 16.504109 143.750616 16.504109 143.98988 Z M 16.504109 143.98988 " transform="matrix(0.130539,0,0,0.130609,18.45885,1.248337)"/>
</g>
</g>
</svg>
