<?xml version="1.0" encoding="UTF-8"?>
<svg xmlns="http://www.w3.org/2000/svg" xmlns:xlink="http://www.w3.org/1999/xlink" width="40px" height="40px" viewBox="0 0 40 40" version="1.1">
<defs>
<clipPath id="clip1">
  <path d="M 0 0.894531 L 0 39.105469 C 0 39.597656 0.402344 40 0.894531 40 L 39.105469 40 C 39.597656 40 40 39.597656 40 39.105469 L 40 0.894531 C 40 0.402344 39.597656 0 39.105469 0 L 0.894531 0 C 0.402344 0 0 0.402344 0 0.894531 Z M 0 0.894531 "/>
</clipPath>
</defs>
<g id="surface1">
<rect x="0" y="0" width="40" height="40" style="fill:rgb(100%,100%,100%);fill-opacity:1;stroke:none;"/>
<g clip-path="url(#clip1)" clip-rule="nonzero">
<path style=" stroke:none;fill-rule:nonzero;fill:rgb(0%,0%,0%);fill-opacity:1;" d="M 35.234375 0 L 4.765625 0 C 4.6875 0 4.609375 0.00390625 4.53125 0.0078125 C 4.453125 0.0117188 4.375 0.015625 4.296875 0.0234375 C 4.222656 0.03125 4.144531 0.0429688 4.066406 0.0507812 C 3.988281 0.0625 3.914062 0.078125 3.835938 0.09375 C 3.761719 0.109375 3.683594 0.125 3.609375 0.144531 C 3.53125 0.164062 3.457031 0.183594 3.382812 0.207031 C 3.308594 0.230469 3.234375 0.253906 3.160156 0.28125 C 3.085938 0.308594 3.015625 0.335938 2.941406 0.363281 C 2.871094 0.394531 2.800781 0.425781 2.730469 0.460938 C 2.660156 0.492188 2.589844 0.527344 2.519531 0.566406 C 2.453125 0.601562 2.382812 0.640625 2.316406 0.679688 C 2.25 0.71875 2.183594 0.761719 2.121094 0.804688 C 2.054688 0.847656 1.992188 0.894531 1.929688 0.941406 C 1.867188 0.988281 1.804688 1.035156 1.746094 1.085938 C 1.683594 1.132812 1.625 1.183594 1.566406 1.238281 C 1.507812 1.289062 1.453125 1.34375 1.398438 1.398438 C 1.34375 1.453125 1.289062 1.507812 1.238281 1.566406 C 1.183594 1.625 1.132812 1.683594 1.085938 1.746094 C 1.035156 1.804688 0.988281 1.867188 0.941406 1.929688 C 0.894531 1.992188 0.847656 2.054688 0.804688 2.121094 C 0.761719 2.183594 0.71875 2.25 0.679688 2.316406 C 0.640625 2.382812 0.601562 2.453125 0.566406 2.519531 C 0.527344 2.589844 0.492188 2.660156 0.460938 2.730469 C 0.425781 2.800781 0.394531 2.871094 0.363281 2.941406 C 0.335938 3.015625 0.308594 3.085938 0.28125 3.160156 C 0.253906 3.234375 0.230469 3.308594 0.207031 3.382812 C 0.183594 3.457031 0.164062 3.53125 0.144531 3.609375 C 0.125 3.683594 0.109375 3.761719 0.09375 3.835938 C 0.078125 3.914062 0.0625 3.988281 0.0507812 4.066406 C 0.0390625 4.144531 0.03125 4.222656 0.0234375 4.300781 C 0.015625 4.375 0.0117188 4.453125 0.0078125 4.53125 C 0.00390625 4.609375 0 4.6875 0 4.765625 L 0 35.234375 C 0 35.3125 0.00390625 35.390625 0.0078125 35.46875 C 0.0117188 35.546875 0.015625 35.625 0.0234375 35.703125 C 0.03125 35.777344 0.0390625 35.855469 0.0507812 35.933594 C 0.0625 36.011719 0.078125 36.085938 0.09375 36.164062 C 0.109375 36.238281 0.125 36.316406 0.144531 36.390625 C 0.164062 36.46875 0.183594 36.542969 0.207031 36.617188 C 0.230469 36.691406 0.253906 36.765625 0.28125 36.839844 C 0.308594 36.914062 0.335938 36.984375 0.363281 37.058594 C 0.394531 37.128906 0.425781 37.199219 0.460938 37.269531 C 0.492188 37.339844 0.527344 37.410156 0.566406 37.480469 C 0.601562 37.546875 0.640625 37.617188 0.679688 37.683594 C 0.71875 37.75 0.761719 37.816406 0.804688 37.878906 C 0.847656 37.945312 0.894531 38.007812 0.941406 38.070312 C 0.988281 38.132812 1.035156 38.195312 1.085938 38.253906 C 1.132812 38.316406 1.183594 38.375 1.238281 38.433594 C 1.289062 38.492188 1.34375 38.546875 1.398438 38.601562 C 1.453125 38.65625 1.507812 38.710938 1.566406 38.761719 C 1.625 38.816406 1.683594 38.867188 1.746094 38.914062 C 1.804688 38.964844 1.867188 39.011719 1.929688 39.058594 C 1.992188 39.105469 2.054688 39.152344 2.121094 39.195312 C 2.183594 39.238281 2.25 39.28125 2.316406 39.320312 C 2.382812 39.359375 2.453125 39.398438 2.519531 39.433594 C 2.589844 39.472656 2.660156 39.507812 2.730469 39.539062 C 2.800781 39.574219 2.871094 39.605469 2.941406 39.636719 C 3.015625 39.664062 3.085938 39.691406 3.160156 39.71875 C 3.234375 39.746094 3.308594 39.769531 3.382812 39.792969 C 3.457031 39.816406 3.53125 39.835938 3.609375 39.855469 C 3.683594 39.875 3.761719 39.890625 3.835938 39.90625 C 3.914062 39.921875 3.988281 39.9375 4.066406 39.949219 C 4.144531 39.960938 4.222656 39.96875 4.296875 39.976562 C 4.375 39.984375 4.453125 39.988281 4.53125 39.992188 C 4.609375 39.996094 4.6875 40 4.765625 40 L 35.234375 40 C 35.3125 40 35.390625 39.996094 35.46875 39.992188 C 35.546875 39.988281 35.625 39.984375 35.703125 39.976562 C 35.777344 39.96875 35.855469 39.960938 35.933594 39.949219 C 36.011719 39.9375 36.085938 39.921875 36.164062 39.90625 C 36.238281 39.890625 36.316406 39.875 36.390625 39.855469 C 36.46875 39.835938 36.542969 39.816406 36.617188 39.792969 C 36.691406 39.769531 36.765625 39.746094 36.839844 39.71875 C 36.914062 39.691406 36.984375 39.664062 37.058594 39.636719 C 37.128906 39.605469 37.199219 39.574219 37.269531 39.539062 C 37.339844 39.507812 37.410156 39.472656 37.480469 39.433594 C 37.546875 39.398438 37.617188 39.359375 37.683594 39.320312 C 37.75 39.28125 37.816406 39.238281 37.878906 39.195312 C 37.945312 39.152344 38.007812 39.105469 38.070312 39.058594 C 38.132812 39.011719 38.195312 38.964844 38.253906 38.914062 C 38.316406 38.867188 38.375 38.816406 38.433594 38.761719 C 38.492188 38.710938 38.546875 38.65625 38.601562 38.601562 C 38.65625 38.546875 38.710938 38.492188 38.761719 38.433594 C 38.816406 38.375 38.867188 38.316406 38.914062 38.253906 C 38.964844 38.195312 39.011719 38.132812 39.058594 38.070312 C 39.105469 38.007812 39.152344 37.945312 39.195312 37.878906 C 39.238281 37.816406 39.28125 37.75 39.320312 37.683594 C 39.359375 37.617188 39.398438 37.546875 39.433594 37.480469 C 39.472656 37.410156 39.507812 37.339844 39.539062 37.269531 C 39.574219 37.199219 39.605469 37.128906 39.636719 37.058594 C 39.664062 36.984375 39.691406 36.914062 39.71875 36.839844 C 39.746094 36.765625 39.769531 36.691406 39.792969 36.617188 C 39.816406 36.542969 39.835938 36.46875 39.855469 36.390625 C 39.875 36.316406 39.890625 36.238281 39.90625 36.164062 C 39.921875 36.085938 39.9375 36.011719 39.949219 35.933594 C 39.960938 35.855469 39.96875 35.777344 39.976562 35.703125 C 39.984375 35.625 39.988281 35.546875 39.992188 35.46875 C 39.996094 35.390625 40 35.3125 40 35.234375 L 40 4.765625 C 40 4.6875 39.996094 4.609375 39.992188 4.53125 C 39.988281 4.453125 39.984375 4.375 39.976562 4.300781 C 39.96875 4.222656 39.960938 4.144531 39.949219 4.066406 C 39.9375 3.988281 39.921875 3.914062 39.90625 3.835938 C 39.890625 3.761719 39.875 3.683594 39.855469 3.609375 C 39.835938 3.53125 39.816406 3.457031 39.792969 3.382812 C 39.769531 3.308594 39.746094 3.234375 39.71875 3.160156 C 39.691406 3.085938 39.664062 3.015625 39.636719 2.941406 C 39.605469 2.871094 39.574219 2.800781 39.539062 2.730469 C 39.507812 2.660156 39.472656 2.589844 39.433594 2.519531 C 39.398438 2.453125 39.359375 2.382812 39.320312 2.316406 C 39.28125 2.25 39.238281 2.183594 39.195312 2.121094 C 39.152344 2.054688 39.105469 1.992188 39.058594 1.929688 C 39.011719 1.867188 38.964844 1.804688 38.914062 1.746094 C 38.867188 1.683594 38.816406 1.625 38.761719 1.566406 C 38.710938 1.507812 38.65625 1.453125 38.601562 1.398438 C 38.546875 1.34375 38.492188 1.289062 38.433594 1.238281 C 38.375 1.183594 38.316406 1.132812 38.253906 1.085938 C 38.195312 1.035156 38.132812 0.988281 38.070312 0.941406 C 38.007812 0.894531 37.945312 0.847656 37.878906 0.804688 C 37.816406 0.761719 37.75 0.71875 37.683594 0.679688 C 37.617188 0.640625 37.546875 0.601562 37.480469 0.566406 C 37.410156 0.527344 37.339844 0.492188 37.269531 0.460938 C 37.199219 0.425781 37.128906 0.394531 37.058594 0.363281 C 36.984375 0.335938 36.914062 0.308594 36.839844 0.28125 C 36.765625 0.253906 36.691406 0.230469 36.617188 0.207031 C 36.542969 0.183594 36.46875 0.164062 36.390625 0.144531 C 36.316406 0.125 36.238281 0.109375 36.164062 0.09375 C 36.085938 0.078125 36.011719 0.0625 35.933594 0.0507812 C 35.855469 0.0429688 35.777344 0.03125 35.703125 0.0234375 C 35.625 0.015625 35.546875 0.0117188 35.46875 0.0078125 C 35.390625 0.00390625 35.3125 0 35.234375 0 Z M 39.386719 35.234375 C 39.386719 35.300781 39.382812 35.371094 39.378906 35.4375 C 39.375 35.503906 39.371094 35.574219 39.363281 35.640625 C 39.359375 35.707031 39.351562 35.777344 39.339844 35.84375 C 39.328125 35.910156 39.316406 35.976562 39.304688 36.042969 C 39.292969 36.109375 39.277344 36.175781 39.257812 36.242188 C 39.242188 36.308594 39.226562 36.375 39.203125 36.4375 C 39.183594 36.503906 39.164062 36.566406 39.140625 36.632812 C 39.117188 36.695312 39.09375 36.757812 39.066406 36.820312 C 39.042969 36.882812 39.015625 36.945312 38.984375 37.007812 C 38.957031 37.070312 38.925781 37.128906 38.894531 37.191406 C 38.859375 37.25 38.828125 37.308594 38.792969 37.367188 C 38.757812 37.425781 38.722656 37.480469 38.683594 37.539062 C 38.644531 37.59375 38.605469 37.652344 38.566406 37.707031 C 38.527344 37.761719 38.484375 37.8125 38.441406 37.867188 C 38.398438 37.917969 38.351562 37.96875 38.308594 38.019531 C 38.261719 38.070312 38.214844 38.121094 38.167969 38.167969 C 38.121094 38.214844 38.070312 38.261719 38.019531 38.308594 C 37.96875 38.351562 37.917969 38.398438 37.867188 38.441406 C 37.8125 38.484375 37.757812 38.527344 37.707031 38.566406 C 37.652344 38.605469 37.59375 38.644531 37.539062 38.683594 C 37.480469 38.722656 37.425781 38.757812 37.367188 38.792969 C 37.308594 38.828125 37.25 38.859375 37.191406 38.894531 C 37.128906 38.925781 37.070312 38.957031 37.007812 38.984375 C 36.945312 39.015625 36.882812 39.042969 36.820312 39.066406 C 36.757812 39.09375 36.695312 39.117188 36.632812 39.140625 C 36.566406 39.164062 36.503906 39.183594 36.4375 39.207031 C 36.375 39.226562 36.308594 39.242188 36.242188 39.257812 C 36.175781 39.277344 36.109375 39.292969 36.042969 39.304688 C 35.976562 39.316406 35.910156 39.328125 35.84375 39.339844 C 35.777344 39.351562 35.707031 39.359375 35.640625 39.363281 C 35.574219 39.371094 35.503906 39.375 35.4375 39.378906 C 35.371094 39.382812 35.300781 39.386719 35.234375 39.386719 L 4.765625 39.386719 C 4.699219 39.386719 4.628906 39.382812 4.5625 39.378906 C 4.496094 39.375 4.425781 39.371094 4.359375 39.363281 C 4.292969 39.359375 4.222656 39.351562 4.15625 39.339844 C 4.089844 39.328125 4.023438 39.316406 3.957031 39.304688 C 3.890625 39.292969 3.824219 39.277344 3.757812 39.257812 C 3.691406 39.242188 3.625 39.226562 3.5625 39.207031 C 3.496094 39.183594 3.433594 39.164062 3.367188 39.140625 C 3.304688 39.117188 3.242188 39.09375 3.179688 39.066406 C 3.117188 39.042969 3.054688 39.015625 2.992188 38.984375 C 2.929688 38.957031 2.871094 38.925781 2.808594 38.894531 C 2.75 38.859375 2.691406 38.828125 2.632812 38.792969 C 2.574219 38.757812 2.519531 38.722656 2.460938 38.683594 C 2.40625 38.644531 2.347656 38.605469 2.292969 38.566406 C 2.242188 38.527344 2.1875 38.484375 2.132812 38.441406 C 2.082031 38.398438 2.03125 38.351562 1.980469 38.308594 C 1.929688 38.261719 1.878906 38.214844 1.832031 38.167969 C 1.785156 38.121094 1.738281 38.070312 1.691406 38.019531 C 1.648438 37.96875 1.601562 37.917969 1.558594 37.867188 C 1.515625 37.8125 1.472656 37.761719 1.433594 37.707031 C 1.394531 37.652344 1.355469 37.59375 1.316406 37.539062 C 1.277344 37.480469 1.242188 37.425781 1.207031 37.367188 C 1.171875 37.308594 1.140625 37.25 1.105469 37.191406 C 1.074219 37.128906 1.042969 37.070312 1.015625 37.007812 C 0.984375 36.945312 0.957031 36.882812 0.933594 36.820312 C 0.90625 36.757812 0.882812 36.695312 0.859375 36.632812 C 0.835938 36.566406 0.816406 36.503906 0.796875 36.4375 C 0.773438 36.375 0.757812 36.308594 0.742188 36.242188 C 0.722656 36.175781 0.707031 36.109375 0.695312 36.042969 C 0.683594 35.976562 0.671875 35.910156 0.660156 35.84375 C 0.648438 35.777344 0.640625 35.707031 0.636719 35.640625 C 0.628906 35.574219 0.625 35.503906 0.621094 35.4375 C 0.617188 35.371094 0.613281 35.300781 0.613281 35.234375 L 0.613281 4.765625 C 0.613281 4.699219 0.617188 4.628906 0.621094 4.5625 C 0.625 4.496094 0.628906 4.425781 0.636719 4.359375 C 0.640625 4.292969 0.648438 4.222656 0.660156 4.15625 C 0.671875 4.089844 0.683594 4.023438 0.695312 3.957031 C 0.707031 3.890625 0.722656 3.824219 0.742188 3.757812 C 0.757812 3.691406 0.773438 3.625 0.796875 3.5625 C 0.816406 3.496094 0.835938 3.433594 0.859375 3.367188 C 0.882812 3.304688 0.90625 3.242188 0.933594 3.179688 C 0.957031 3.117188 0.984375 3.054688 1.015625 2.992188 C 1.042969 2.929688 1.074219 2.871094 1.105469 2.808594 C 1.140625 2.75 1.171875 2.691406 1.207031 2.632812 C 1.242188 2.574219 1.277344 2.519531 1.316406 2.460938 C 1.355469 2.40625 1.394531 2.347656 1.433594 2.292969 C 1.472656 2.242188 1.515625 2.1875 1.558594 2.132812 C 1.601562 2.082031 1.648438 2.03125 1.691406 1.980469 C 1.738281 1.929688 1.785156 1.878906 1.832031 1.832031 C 1.878906 1.785156 1.929688 1.738281 1.980469 1.691406 C 2.03125 1.648438 2.082031 1.601562 2.132812 1.558594 C 2.1875 1.515625 2.242188 1.472656 2.292969 1.433594 C 2.347656 1.394531 2.40625 1.355469 2.460938 1.316406 C 2.519531 1.277344 2.574219 1.242188 2.632812 1.207031 C 2.691406 1.171875 2.75 1.140625 2.808594 1.105469 C 2.871094 1.074219 2.929688 1.042969 2.992188 1.015625 C 3.054688 0.984375 3.117188 0.957031 3.179688 0.933594 C 3.242188 0.90625 3.304688 0.882812 3.367188 0.859375 C 3.433594 0.835938 3.496094 0.816406 3.5625 0.796875 C 3.625 0.773438 3.691406 0.757812 3.757812 0.742188 C 3.824219 0.722656 3.890625 0.707031 3.957031 0.695312 C 4.023438 0.683594 4.089844 0.671875 4.15625 0.660156 C 4.222656 0.648438 4.292969 0.640625 4.359375 0.636719 C 4.425781 0.628906 4.496094 0.625 4.5625 0.621094 C 4.628906 0.617188 4.699219 0.613281 4.765625 0.613281 L 35.234375 0.613281 C 35.300781 0.613281 35.371094 0.617188 35.4375 0.621094 C 35.503906 0.625 35.574219 0.628906 35.640625 0.636719 C 35.707031 0.640625 35.777344 0.648438 35.84375 0.660156 C 35.910156 0.671875 35.976562 0.683594 36.042969 0.695312 C 36.109375 0.707031 36.175781 0.722656 36.242188 0.742188 C 36.308594 0.757812 36.375 0.773438 36.4375 0.796875 C 36.503906 0.816406 36.566406 0.835938 36.632812 0.859375 C 36.695312 0.882812 36.757812 0.90625 36.820312 0.933594 C 36.882812 0.957031 36.945312 0.984375 37.007812 1.015625 C 37.070312 1.042969 37.128906 1.074219 37.191406 1.105469 C 37.25 1.140625 37.308594 1.171875 37.367188 1.207031 C 37.425781 1.242188 37.480469 1.277344 37.539062 1.316406 C 37.59375 1.355469 37.652344 1.394531 37.707031 1.433594 C 37.757812 1.472656 37.8125 1.515625 37.867188 1.558594 C 37.917969 1.601562 37.96875 1.648438 38.019531 1.691406 C 38.070312 1.738281 38.121094 1.785156 38.167969 1.832031 C 38.214844 1.878906 38.261719 1.929688 38.308594 1.980469 C 38.351562 2.03125 38.398438 2.082031 38.441406 2.132812 C 38.484375 2.1875 38.527344 2.242188 38.566406 2.292969 C 38.605469 2.347656 38.644531 2.40625 38.683594 2.460938 C 38.722656 2.519531 38.757812 2.574219 38.792969 2.632812 C 38.828125 2.691406 38.859375 2.75 38.894531 2.808594 C 38.925781 2.871094 38.957031 2.929688 38.984375 2.992188 C 39.015625 3.054688 39.042969 3.117188 39.066406 3.179688 C 39.09375 3.242188 39.117188 3.304688 39.140625 3.367188 C 39.164062 3.433594 39.183594 3.496094 39.203125 3.5625 C 39.226562 3.625 39.242188 3.691406 39.257812 3.757812 C 39.277344 3.824219 39.292969 3.890625 39.304688 3.957031 C 39.316406 4.023438 39.328125 4.089844 39.339844 4.15625 C 39.351562 4.222656 39.359375 4.292969 39.363281 4.359375 C 39.371094 4.425781 39.375 4.496094 39.378906 4.5625 C 39.382812 4.628906 39.386719 4.699219 39.386719 4.765625 Z M 39.386719 35.234375 "/>
</g>
<path style=" stroke:none;fill-rule:nonzero;fill:rgb(0%,0%,0%);fill-opacity:1;" d="M 34.0625 18.457031 L 34.027344 18.128906 L 30.707031 17.777344 C 30.625 17.375 30.515625 16.980469 30.390625 16.589844 L 33.09375 14.636719 L 32.960938 14.332031 C 32.539062 13.375 32.019531 12.472656 31.398438 11.628906 L 31.203125 11.363281 L 28.152344 12.71875 C 27.878906 12.414062 27.589844 12.125 27.28125 11.847656 L 28.65625 8.8125 L 28.390625 8.617188 C 27.546875 7.996094 26.644531 7.480469 25.6875 7.058594 L 25.386719 6.925781 L 23.425781 9.625 C 23.046875 9.5 22.660156 9.398438 22.273438 9.316406 L 21.921875 5.996094 L 21.59375 5.957031 C 20.558594 5.835938 19.519531 5.835938 18.480469 5.949219 L 18.144531 5.984375 L 17.816406 9.296875 C 17.40625 9.378906 17 9.484375 16.605469 9.613281 L 14.640625 6.914062 L 14.339844 7.046875 C 13.382812 7.464844 12.484375 7.984375 11.644531 8.601562 L 11.371094 8.796875 L 12.742188 11.832031 C 12.425781 12.109375 12.128906 12.40625 11.847656 12.71875 L 8.800781 11.363281 L 8.605469 11.628906 C 7.988281 12.46875 7.46875 13.367188 7.050781 14.324219 L 6.914062 14.628906 L 9.613281 16.570312 C 9.484375 16.964844 9.378906 17.367188 9.292969 17.773438 L 5.972656 18.125 L 5.9375 18.457031 C 5.820312 19.496094 5.820312 20.53125 5.9375 21.570312 L 5.972656 21.898438 L 9.289062 22.230469 C 9.371094 22.636719 9.480469 23.039062 9.609375 23.4375 L 6.910156 25.398438 L 7.042969 25.703125 C 7.464844 26.65625 7.984375 27.554688 8.601562 28.398438 L 8.796875 28.664062 L 11.832031 27.292969 C 12.109375 27.601562 12.402344 27.894531 12.710938 28.171875 L 11.355469 31.222656 L 11.621094 31.417969 C 12.464844 32.035156 13.367188 32.554688 14.324219 32.972656 L 14.628906 33.105469 L 16.570312 30.402344 C 16.976562 30.535156 17.390625 30.644531 17.8125 30.730469 L 18.140625 34.042969 L 18.472656 34.078125 C 18.980469 34.132812 19.488281 34.160156 20 34.164062 C 20.53125 34.160156 21.066406 34.132812 21.59375 34.070312 L 21.921875 34.035156 L 22.273438 30.714844 C 22.671875 30.628906 23.066406 30.523438 23.453125 30.394531 L 25.394531 33.097656 L 25.699219 32.964844 C 26.660156 32.542969 27.5625 32.019531 28.40625 31.394531 L 28.667969 31.199219 L 27.3125 28.148438 C 27.613281 27.875 27.898438 27.589844 28.167969 27.285156 L 31.203125 28.660156 L 31.402344 28.390625 C 32.019531 27.546875 32.539062 26.644531 32.957031 25.6875 L 33.089844 25.382812 L 30.390625 23.421875 C 30.519531 23.03125 30.621094 22.632812 30.703125 22.230469 L 34.019531 21.902344 L 34.054688 21.570312 C 34.171875 20.535156 34.171875 19.496094 34.054688 18.460938 Z M 33.277344 21.144531 L 30.015625 21.46875 L 29.960938 21.777344 C 29.863281 22.339844 29.71875 22.890625 29.523438 23.429688 L 29.421875 23.714844 L 32.074219 25.644531 C 31.75 26.339844 31.371094 27 30.933594 27.625 L 27.945312 26.273438 L 27.746094 26.523438 C 27.378906 26.957031 26.980469 27.359375 26.546875 27.726562 L 26.3125 27.921875 L 27.648438 30.925781 C 27.023438 31.367188 26.363281 31.75 25.667969 32.074219 L 23.757812 29.414062 L 23.46875 29.523438 C 22.929688 29.714844 22.382812 29.863281 21.820312 29.964844 L 21.519531 30.023438 L 21.175781 33.289062 C 20.773438 33.324219 20.378906 33.34375 20 33.34375 C 19.617188 33.34375 19.265625 33.328125 18.894531 33.296875 L 18.570312 30.035156 L 18.261719 29.980469 C 17.683594 29.882812 17.117188 29.730469 16.566406 29.53125 L 16.273438 29.425781 L 14.355469 32.089844 C 13.660156 31.765625 13 31.382812 12.375 30.945312 L 13.710938 27.945312 L 13.472656 27.746094 C 13.035156 27.375 12.628906 26.964844 12.257812 26.523438 L 12.058594 26.285156 L 9.070312 27.636719 C 8.636719 27.015625 8.253906 26.359375 7.929688 25.671875 L 10.585938 23.742188 L 10.480469 23.460938 C 10.285156 22.917969 10.136719 22.359375 10.039062 21.792969 L 9.984375 21.484375 L 6.722656 21.144531 C 6.6875 20.761719 6.671875 20.378906 6.671875 20.015625 C 6.671875 19.648438 6.6875 19.257812 6.722656 18.871094 L 9.988281 18.527344 L 10.042969 18.222656 C 10.144531 17.652344 10.292969 17.097656 10.488281 16.554688 L 10.59375 16.261719 L 7.933594 14.355469 C 8.257812 13.664062 8.636719 13.007812 9.074219 12.386719 L 12.078125 13.71875 L 12.273438 13.484375 C 12.652344 13.039062 13.0625 12.628906 13.507812 12.253906 L 13.746094 12.054688 L 12.398438 9.070312 C 13.019531 8.636719 13.675781 8.257812 14.367188 7.9375 L 16.296875 10.589844 L 16.582031 10.488281 C 17.125 10.292969 17.683594 10.144531 18.253906 10.046875 L 18.5625 9.992188 L 18.886719 6.738281 C 19.261719 6.707031 19.628906 6.691406 19.992188 6.691406 C 20.355469 6.691406 20.769531 6.710938 21.167969 6.746094 L 21.511719 10.015625 L 21.816406 10.070312 C 22.367188 10.167969 22.90625 10.3125 23.433594 10.503906 L 23.714844 10.609375 L 25.660156 7.945312 C 26.351562 8.269531 27.011719 8.652344 27.640625 9.089844 L 26.28125 12.078125 L 26.519531 12.277344 C 26.957031 12.648438 27.359375 13.050781 27.730469 13.488281 L 27.921875 13.722656 L 30.925781 12.386719 C 31.363281 13.015625 31.742188 13.675781 32.066406 14.367188 L 29.40625 16.277344 L 29.511719 16.570312 C 29.703125 17.109375 29.851562 17.660156 29.953125 18.222656 L 30.007812 18.527344 L 33.273438 18.871094 C 33.304688 19.261719 33.320312 19.644531 33.320312 20.015625 C 33.320312 20.386719 33.3125 20.765625 33.277344 21.144531 Z M 33.277344 21.144531 "/>
<path style=" stroke:none;fill-rule:nonzero;fill:rgb(0%,0%,0%);fill-opacity:1;" d="M 20 13.449219 C 19.890625 13.449219 19.785156 13.453125 19.679688 13.457031 C 19.570312 13.460938 19.464844 13.46875 19.355469 13.480469 C 19.25 13.492188 19.144531 13.503906 19.035156 13.519531 C 18.929688 13.535156 18.824219 13.554688 18.71875 13.574219 C 18.613281 13.597656 18.507812 13.621094 18.40625 13.644531 C 18.300781 13.671875 18.195312 13.699219 18.09375 13.730469 C 17.992188 13.761719 17.890625 13.796875 17.789062 13.832031 C 17.6875 13.871094 17.585938 13.90625 17.488281 13.949219 C 17.386719 13.988281 17.289062 14.035156 17.191406 14.078125 C 17.097656 14.125 17 14.171875 16.90625 14.222656 C 16.8125 14.273438 16.71875 14.328125 16.625 14.382812 C 16.53125 14.4375 16.441406 14.496094 16.351562 14.554688 C 16.261719 14.617188 16.175781 14.675781 16.089844 14.742188 C 16.003906 14.804688 15.917969 14.871094 15.835938 14.9375 C 15.753906 15.007812 15.671875 15.078125 15.589844 15.148438 C 15.511719 15.222656 15.433594 15.296875 15.359375 15.371094 C 15.28125 15.449219 15.207031 15.527344 15.136719 15.605469 C 15.0625 15.683594 14.992188 15.765625 14.925781 15.847656 C 14.855469 15.933594 14.789062 16.015625 14.726562 16.101562 C 14.664062 16.191406 14.601562 16.277344 14.542969 16.367188 C 14.480469 16.457031 14.425781 16.546875 14.367188 16.640625 C 14.3125 16.730469 14.261719 16.824219 14.210938 16.917969 C 14.160156 17.015625 14.109375 17.109375 14.066406 17.207031 C 14.019531 17.304688 13.976562 17.402344 13.933594 17.5 C 13.894531 17.601562 13.855469 17.703125 13.820312 17.800781 C 13.78125 17.902344 13.75 18.003906 13.71875 18.109375 C 13.6875 18.210938 13.65625 18.316406 13.632812 18.417969 C 13.605469 18.523438 13.582031 18.628906 13.5625 18.734375 C 13.539062 18.839844 13.523438 18.945312 13.507812 19.050781 C 13.492188 19.15625 13.476562 19.265625 13.464844 19.371094 C 13.457031 19.476562 13.449219 19.585938 13.441406 19.691406 C 13.4375 19.800781 13.433594 19.90625 13.433594 20.015625 C 13.433594 20.121094 13.4375 20.230469 13.441406 20.335938 C 13.449219 20.445312 13.457031 20.550781 13.464844 20.65625 C 13.476562 20.765625 13.492188 20.871094 13.507812 20.976562 C 13.523438 21.082031 13.539062 21.191406 13.5625 21.296875 C 13.582031 21.398438 13.605469 21.503906 13.632812 21.609375 C 13.65625 21.714844 13.6875 21.816406 13.71875 21.917969 C 13.75 22.023438 13.78125 22.125 13.820312 22.226562 C 13.855469 22.328125 13.894531 22.425781 13.933594 22.527344 C 13.976562 22.625 14.019531 22.722656 14.066406 22.820312 C 14.109375 22.917969 14.160156 23.015625 14.210938 23.109375 C 14.261719 23.203125 14.3125 23.296875 14.367188 23.390625 C 14.425781 23.480469 14.480469 23.570312 14.542969 23.660156 C 14.601562 23.75 14.664062 23.839844 14.726562 23.925781 C 14.789062 24.011719 14.855469 24.097656 14.925781 24.179688 C 14.992188 24.261719 15.0625 24.34375 15.136719 24.421875 C 15.207031 24.503906 15.28125 24.582031 15.359375 24.65625 C 15.433594 24.730469 15.511719 24.804688 15.589844 24.878906 C 15.671875 24.949219 15.753906 25.019531 15.835938 25.089844 C 15.917969 25.15625 16.003906 25.222656 16.089844 25.289062 C 16.175781 25.351562 16.261719 25.414062 16.351562 25.472656 C 16.441406 25.53125 16.53125 25.589844 16.625 25.644531 C 16.71875 25.699219 16.8125 25.753906 16.90625 25.804688 C 17 25.855469 17.097656 25.902344 17.191406 25.949219 C 17.289062 25.996094 17.386719 26.039062 17.488281 26.078125 C 17.585938 26.121094 17.6875 26.160156 17.789062 26.195312 C 17.890625 26.230469 17.992188 26.265625 18.09375 26.296875 C 18.195312 26.328125 18.300781 26.355469 18.40625 26.382812 C 18.507812 26.410156 18.613281 26.433594 18.71875 26.453125 C 18.824219 26.472656 18.929688 26.492188 19.035156 26.507812 C 19.144531 26.523438 19.25 26.535156 19.355469 26.546875 C 19.464844 26.558594 19.570312 26.566406 19.679688 26.570312 C 19.785156 26.578125 19.890625 26.578125 20 26.578125 C 20.109375 26.578125 20.214844 26.578125 20.320312 26.570312 C 20.429688 26.566406 20.535156 26.558594 20.644531 26.546875 C 20.75 26.535156 20.855469 26.523438 20.964844 26.507812 C 21.070312 26.492188 21.175781 26.472656 21.28125 26.453125 C 21.386719 26.433594 21.492188 26.410156 21.59375 26.382812 C 21.699219 26.355469 21.804688 26.328125 21.90625 26.296875 C 22.007812 26.265625 22.109375 26.230469 22.210938 26.195312 C 22.3125 26.160156 22.414062 26.121094 22.511719 26.078125 C 22.613281 26.039062 22.710938 25.996094 22.808594 25.949219 C 22.902344 25.902344 23 25.855469 23.09375 25.804688 C 23.1875 25.753906 23.28125 25.699219 23.375 25.644531 C 23.46875 25.589844 23.558594 25.53125 23.648438 25.472656 C 23.738281 25.414062 23.824219 25.351562 23.910156 25.289062 C 23.996094 25.222656 24.082031 25.15625 24.164062 25.089844 C 24.246094 25.019531 24.328125 24.949219 24.410156 24.878906 C 24.488281 24.804688 24.566406 24.730469 24.640625 24.65625 C 24.71875 24.582031 24.792969 24.503906 24.863281 24.421875 C 24.9375 24.34375 25.007812 24.261719 25.074219 24.179688 C 25.144531 24.097656 25.210938 24.011719 25.273438 23.925781 C 25.335938 23.839844 25.398438 23.75 25.457031 23.660156 C 25.519531 23.570312 25.574219 23.480469 25.632812 23.390625 C 25.6875 23.296875 25.738281 23.203125 25.789062 23.109375 C 25.839844 23.015625 25.890625 22.917969 25.933594 22.820312 C 25.980469 22.722656 26.023438 22.625 26.066406 22.527344 C 26.105469 22.425781 26.144531 22.328125 26.179688 22.226562 C 26.21875 22.125 26.25 22.023438 26.28125 21.917969 C 26.3125 21.816406 26.34375 21.714844 26.367188 21.609375 C 26.394531 21.503906 26.417969 21.398438 26.4375 21.296875 C 26.460938 21.191406 26.476562 21.082031 26.492188 20.976562 C 26.507812 20.871094 26.523438 20.765625 26.535156 20.65625 C 26.542969 20.550781 26.550781 20.445312 26.558594 20.335938 C 26.5625 20.230469 26.566406 20.121094 26.566406 20.015625 C 26.566406 19.90625 26.5625 19.800781 26.554688 19.691406 C 26.550781 19.585938 26.542969 19.476562 26.53125 19.371094 C 26.523438 19.265625 26.507812 19.15625 26.492188 19.050781 C 26.476562 18.945312 26.457031 18.839844 26.4375 18.734375 C 26.417969 18.628906 26.394531 18.523438 26.367188 18.417969 C 26.339844 18.316406 26.3125 18.210938 26.28125 18.109375 C 26.25 18.007812 26.214844 17.90625 26.179688 17.804688 C 26.144531 17.703125 26.105469 17.601562 26.0625 17.503906 C 26.023438 17.402344 25.980469 17.304688 25.933594 17.207031 C 25.886719 17.113281 25.839844 17.015625 25.789062 16.921875 C 25.738281 16.824219 25.683594 16.734375 25.628906 16.640625 C 25.574219 16.546875 25.515625 16.457031 25.457031 16.367188 C 25.398438 16.277344 25.335938 16.191406 25.269531 16.105469 C 25.207031 16.019531 25.140625 15.933594 25.074219 15.851562 C 25.003906 15.769531 24.933594 15.6875 24.863281 15.605469 C 24.789062 15.527344 24.714844 15.449219 24.640625 15.375 C 24.5625 15.296875 24.484375 15.222656 24.40625 15.152344 C 24.328125 15.078125 24.246094 15.007812 24.164062 14.941406 C 24.078125 14.875 23.996094 14.808594 23.910156 14.742188 C 23.824219 14.679688 23.734375 14.617188 23.644531 14.558594 C 23.554688 14.5 23.464844 14.441406 23.375 14.386719 C 23.28125 14.332031 23.1875 14.277344 23.09375 14.226562 C 23 14.175781 22.902344 14.128906 22.804688 14.082031 C 22.707031 14.035156 22.609375 13.992188 22.511719 13.949219 C 22.410156 13.910156 22.3125 13.871094 22.210938 13.835938 C 22.109375 13.796875 22.007812 13.765625 21.90625 13.734375 C 21.800781 13.703125 21.699219 13.671875 21.59375 13.648438 C 21.492188 13.621094 21.386719 13.597656 21.28125 13.578125 C 21.175781 13.554688 21.070312 13.535156 20.960938 13.519531 C 20.855469 13.503906 20.75 13.492188 20.644531 13.480469 C 20.535156 13.472656 20.429688 13.460938 20.320312 13.457031 C 20.214844 13.453125 20.109375 13.449219 20 13.449219 Z M 20 25.757812 C 19.90625 25.757812 19.8125 25.757812 19.71875 25.75 C 19.625 25.746094 19.53125 25.738281 19.4375 25.730469 C 19.34375 25.722656 19.25 25.710938 19.15625 25.695312 C 19.0625 25.683594 18.972656 25.667969 18.878906 25.648438 C 18.789062 25.628906 18.695312 25.609375 18.605469 25.585938 C 18.511719 25.5625 18.421875 25.539062 18.332031 25.511719 C 18.242188 25.484375 18.152344 25.453125 18.066406 25.421875 C 17.976562 25.390625 17.886719 25.355469 17.800781 25.320312 C 17.714844 25.285156 17.628906 25.246094 17.542969 25.207031 C 17.460938 25.167969 17.375 25.125 17.292969 25.082031 C 17.210938 25.035156 17.128906 24.988281 17.046875 24.941406 C 16.964844 24.894531 16.886719 24.84375 16.808594 24.789062 C 16.730469 24.738281 16.652344 24.683594 16.578125 24.628906 C 16.503906 24.570312 16.429688 24.515625 16.355469 24.453125 C 16.28125 24.394531 16.210938 24.332031 16.140625 24.269531 C 16.074219 24.207031 16.003906 24.140625 15.9375 24.074219 C 15.871094 24.007812 15.808594 23.941406 15.742188 23.871094 C 15.679688 23.800781 15.617188 23.730469 15.558594 23.660156 C 15.5 23.585938 15.441406 23.511719 15.386719 23.4375 C 15.328125 23.359375 15.277344 23.285156 15.222656 23.207031 C 15.171875 23.128906 15.121094 23.046875 15.074219 22.96875 C 15.023438 22.886719 14.976562 22.804688 14.933594 22.722656 C 14.890625 22.640625 14.847656 22.554688 14.808594 22.46875 C 14.765625 22.386719 14.730469 22.300781 14.691406 22.210938 C 14.65625 22.125 14.625 22.039062 14.589844 21.949219 C 14.558594 21.859375 14.53125 21.773438 14.503906 21.683594 C 14.476562 21.589844 14.449219 21.5 14.429688 21.410156 C 14.40625 21.320312 14.382812 21.226562 14.367188 21.136719 C 14.347656 21.042969 14.332031 20.949219 14.316406 20.855469 C 14.304688 20.765625 14.292969 20.671875 14.285156 20.578125 C 14.273438 20.484375 14.265625 20.390625 14.261719 20.296875 C 14.257812 20.203125 14.253906 20.109375 14.253906 20.015625 C 14.253906 19.921875 14.257812 19.828125 14.261719 19.730469 C 14.265625 19.636719 14.273438 19.542969 14.285156 19.449219 C 14.292969 19.359375 14.304688 19.265625 14.316406 19.171875 C 14.332031 19.078125 14.347656 18.984375 14.367188 18.894531 C 14.382812 18.800781 14.40625 18.710938 14.429688 18.617188 C 14.449219 18.527344 14.476562 18.4375 14.503906 18.347656 C 14.53125 18.257812 14.558594 18.167969 14.589844 18.078125 C 14.625 17.992188 14.65625 17.902344 14.691406 17.816406 C 14.730469 17.730469 14.765625 17.644531 14.808594 17.558594 C 14.847656 17.472656 14.890625 17.390625 14.933594 17.304688 C 14.976562 17.222656 15.023438 17.140625 15.074219 17.0625 C 15.121094 16.980469 15.171875 16.902344 15.222656 16.824219 C 15.277344 16.746094 15.328125 16.667969 15.386719 16.59375 C 15.441406 16.515625 15.5 16.441406 15.558594 16.371094 C 15.617188 16.296875 15.679688 16.226562 15.742188 16.15625 C 15.808594 16.085938 15.871094 16.019531 15.9375 15.953125 C 16.003906 15.886719 16.074219 15.820312 16.140625 15.757812 C 16.210938 15.695312 16.28125 15.632812 16.355469 15.574219 C 16.429688 15.515625 16.503906 15.457031 16.578125 15.398438 C 16.652344 15.34375 16.730469 15.289062 16.808594 15.238281 C 16.886719 15.1875 16.964844 15.136719 17.046875 15.085938 C 17.128906 15.039062 17.210938 14.992188 17.292969 14.949219 C 17.375 14.902344 17.460938 14.863281 17.542969 14.820312 C 17.628906 14.78125 17.714844 14.742188 17.800781 14.707031 C 17.886719 14.671875 17.976562 14.636719 18.066406 14.605469 C 18.152344 14.574219 18.242188 14.542969 18.332031 14.515625 C 18.421875 14.488281 18.511719 14.464844 18.605469 14.441406 C 18.695312 14.417969 18.789062 14.398438 18.878906 14.378906 C 18.972656 14.363281 19.0625 14.347656 19.15625 14.332031 C 19.25 14.316406 19.34375 14.308594 19.4375 14.296875 C 19.53125 14.289062 19.625 14.28125 19.71875 14.277344 C 19.8125 14.273438 19.90625 14.269531 20 14.269531 C 20.09375 14.269531 20.1875 14.273438 20.28125 14.277344 C 20.375 14.28125 20.46875 14.289062 20.5625 14.296875 C 20.65625 14.308594 20.75 14.316406 20.84375 14.332031 C 20.9375 14.347656 21.027344 14.363281 21.121094 14.378906 C 21.210938 14.398438 21.304688 14.417969 21.394531 14.441406 C 21.488281 14.464844 21.578125 14.488281 21.667969 14.515625 C 21.757812 14.542969 21.847656 14.574219 21.933594 14.605469 C 22.023438 14.636719 22.109375 14.671875 22.199219 14.707031 C 22.285156 14.742188 22.371094 14.78125 22.457031 14.820312 C 22.539062 14.863281 22.625 14.902344 22.707031 14.949219 C 22.789062 14.992188 22.871094 15.039062 22.953125 15.085938 C 23.035156 15.136719 23.113281 15.1875 23.191406 15.238281 C 23.269531 15.289062 23.347656 15.34375 23.421875 15.398438 C 23.496094 15.457031 23.570312 15.515625 23.644531 15.574219 C 23.71875 15.632812 23.789062 15.695312 23.859375 15.757812 C 23.925781 15.820312 23.996094 15.886719 24.0625 15.953125 C 24.128906 16.019531 24.191406 16.085938 24.257812 16.15625 C 24.320312 16.226562 24.378906 16.296875 24.441406 16.371094 C 24.5 16.441406 24.558594 16.515625 24.613281 16.59375 C 24.671875 16.667969 24.722656 16.746094 24.777344 16.824219 C 24.828125 16.902344 24.878906 16.980469 24.925781 17.0625 C 24.976562 17.140625 25.023438 17.222656 25.066406 17.304688 C 25.109375 17.390625 25.152344 17.472656 25.191406 17.558594 C 25.234375 17.644531 25.269531 17.730469 25.308594 17.816406 C 25.34375 17.902344 25.375 17.992188 25.410156 18.078125 C 25.441406 18.167969 25.46875 18.257812 25.496094 18.347656 C 25.523438 18.4375 25.550781 18.527344 25.570312 18.617188 C 25.59375 18.710938 25.617188 18.800781 25.632812 18.894531 C 25.652344 18.984375 25.667969 19.078125 25.683594 19.171875 C 25.695312 19.265625 25.707031 19.359375 25.714844 19.449219 C 25.726562 19.542969 25.734375 19.636719 25.738281 19.730469 C 25.742188 19.828125 25.746094 19.921875 25.746094 20.015625 C 25.746094 20.109375 25.742188 20.203125 25.738281 20.296875 C 25.734375 20.390625 25.726562 20.484375 25.714844 20.578125 C 25.707031 20.671875 25.695312 20.765625 25.679688 20.855469 C 25.667969 20.949219 25.652344 21.042969 25.632812 21.132812 C 25.613281 21.226562 25.59375 21.316406 25.570312 21.410156 C 25.546875 21.5 25.523438 21.589844 25.496094 21.679688 C 25.46875 21.769531 25.4375 21.859375 25.40625 21.949219 C 25.375 22.035156 25.339844 22.125 25.304688 22.210938 C 25.269531 22.296875 25.230469 22.382812 25.191406 22.46875 C 25.152344 22.554688 25.109375 22.636719 25.0625 22.722656 C 25.019531 22.804688 24.972656 22.886719 24.925781 22.964844 C 24.875 23.046875 24.828125 23.125 24.773438 23.203125 C 24.722656 23.28125 24.667969 23.359375 24.613281 23.433594 C 24.554688 23.511719 24.5 23.585938 24.4375 23.65625 C 24.378906 23.730469 24.316406 23.800781 24.253906 23.871094 C 24.191406 23.941406 24.125 24.007812 24.058594 24.074219 C 23.992188 24.140625 23.925781 24.207031 23.855469 24.269531 C 23.785156 24.332031 23.714844 24.394531 23.640625 24.453125 C 23.570312 24.511719 23.496094 24.570312 23.421875 24.625 C 23.34375 24.683594 23.269531 24.738281 23.191406 24.789062 C 23.113281 24.839844 23.03125 24.890625 22.953125 24.941406 C 22.871094 24.988281 22.789062 25.035156 22.707031 25.078125 C 22.625 25.121094 22.539062 25.164062 22.453125 25.207031 C 22.371094 25.246094 22.285156 25.285156 22.199219 25.320312 C 22.109375 25.355469 22.023438 25.390625 21.933594 25.421875 C 21.847656 25.453125 21.757812 25.484375 21.667969 25.511719 C 21.578125 25.539062 21.484375 25.5625 21.394531 25.585938 C 21.304688 25.609375 21.210938 25.628906 21.121094 25.648438 C 21.027344 25.664062 20.9375 25.683594 20.84375 25.695312 C 20.75 25.710938 20.65625 25.722656 20.5625 25.730469 C 20.46875 25.738281 20.375 25.746094 20.28125 25.75 C 20.1875 25.757812 20.09375 25.757812 20 25.757812 Z M 20 25.757812 "/>
</g>
</svg>
