<?xml version="1.0" encoding="UTF-8"?>
<svg xmlns="http://www.w3.org/2000/svg" xmlns:xlink="http://www.w3.org/1999/xlink" width="40px" height="40px" viewBox="0 0 40 40" version="1.1">
<defs>
<clipPath id="clip1">
  <path d="M 8.757812 8.101562 L 31.238281 8.101562 L 31.238281 31.894531 L 8.757812 31.894531 Z M 8.757812 8.101562 "/>
</clipPath>
</defs>
<g id="surface1">
<rect x="0" y="0" width="40" height="40" style="fill:rgb(100%,100%,100%);fill-opacity:1;stroke:none;"/>
<path style=" stroke:none;fill-rule:nonzero;fill:rgb(0%,0%,0%);fill-opacity:1;" d="M 20 0 C 8.953125 0 0 8.960938 0 20 C 0 31.039062 8.953125 40 20 40 C 31.046875 40 40 31.039062 40 20 C 40 8.960938 31.046875 0 20 0 Z M 20 38.734375 C 9.652344 38.734375 1.265625 30.347656 1.265625 20 C 1.265625 9.652344 9.652344 1.265625 20 1.265625 C 30.347656 1.265625 38.734375 9.652344 38.734375 20 C 38.734375 30.347656 30.347656 38.734375 20 38.734375 Z M 20 38.734375 "/>
<g clip-path="url(#clip1)" clip-rule="nonzero">
<path style=" stroke:none;fill-rule:evenodd;fill:rgb(0%,0%,0%);fill-opacity:1;" d="M 20 31.894531 C 19.101562 31.894531 18.375 31.164062 18.375 30.269531 L 18.375 20.019531 L 12 13.648438 L 12 14.894531 C 12 15.785156 11.277344 16.515625 10.378906 16.515625 C 9.488281 16.515625 8.757812 15.785156 8.757812 14.894531 L 8.757812 9.730469 C 8.757812 8.835938 9.488281 8.105469 10.378906 8.105469 L 15.542969 8.105469 C 16.4375 8.105469 17.164062 8.835938 17.164062 9.730469 C 17.164062 10.625 16.4375 11.351562 15.542969 11.351562 L 14.300781 11.351562 L 20 17.054688 L 25.695312 11.351562 L 24.453125 11.351562 C 23.558594 11.351562 22.828125 10.625 22.828125 9.730469 C 22.828125 8.835938 23.558594 8.105469 24.453125 8.105469 L 29.613281 8.105469 C 30.507812 8.105469 31.238281 8.835938 31.238281 9.730469 L 31.238281 14.894531 C 31.238281 15.785156 30.507812 16.515625 29.613281 16.515625 C 28.71875 16.515625 27.992188 15.785156 27.992188 14.894531 L 27.992188 13.648438 L 21.621094 20.019531 L 21.621094 30.269531 C 21.621094 31.164062 20.890625 31.894531 20 31.894531 Z M 20 31.894531 "/>
</g>
</g>
</svg>
