<?xml version="1.0" encoding="UTF-8"?>
<svg xmlns="http://www.w3.org/2000/svg" xmlns:xlink="http://www.w3.org/1999/xlink" width="40px" height="40px" viewBox="0 0 40 40" version="1.1">
<g id="surface1">
<rect x="0" y="0" width="40" height="40" style="fill:rgb(100%,100%,100%);fill-opacity:1;stroke:none;"/>
<path style=" stroke:none;fill-rule:nonzero;fill:rgb(0%,0%,0%);fill-opacity:1;" d="M 20 0 C 8.953125 0 0 8.960938 0 20 C 0 31.039062 8.953125 40 20 40 C 31.046875 40 40 31.039062 40 20 C 40 8.960938 31.046875 0 20 0 Z M 20 38.734375 C 9.652344 38.734375 1.265625 30.347656 1.265625 20 C 1.265625 9.652344 9.652344 1.265625 20 1.265625 C 30.347656 1.265625 38.734375 9.652344 38.734375 20 C 38.734375 30.347656 30.347656 38.734375 20 38.734375 Z M 20 38.734375 "/>
<path style=" stroke:none;fill-rule:nonzero;fill:rgb(0%,0%,0%);fill-opacity:1;" d="M 22.320312 22.128906 C 22.320312 21.164062 22.324219 11.132812 22.320312 10.167969 C 22.304688 9.242188 21.960938 8.492188 21.347656 8.097656 C 20.660156 7.65625 19.628906 7.507812 18.925781 7.988281 C 18.222656 8.46875 17.824219 9.300781 17.816406 10.140625 C 17.804688 11.988281 17.800781 22.902344 17.820312 24.746094 C 17.828125 25.144531 17.726562 25.425781 17.433594 25.699219 C 16.75 26.34375 16.382812 27.164062 16.328125 28.101562 C 16.191406 30.476562 18.214844 32.34375 20.574219 32.035156 C 22.777344 31.75 24.242188 29.574219 23.691406 27.417969 C 23.492188 26.625 23.046875 25.992188 22.460938 25.445312 C 22.355469 25.347656 22.316406 25.246094 22.316406 25.101562 C 22.324219 24.109375 22.320312 23.121094 22.320312 22.128906 Z M 23.800781 21.789062 C 23.800781 22.679688 23.800781 23.570312 23.796875 24.457031 C 23.796875 24.621094 23.835938 24.742188 23.949219 24.867188 C 24.882812 25.910156 25.335938 27.136719 25.285156 28.53125 C 25.1875 31.070312 23.308594 33.136719 20.792969 33.503906 C 18.027344 33.910156 15.359375 31.964844 14.921875 29.21875 C 14.65625 27.574219 15.085938 26.128906 16.171875 24.878906 C 16.292969 24.738281 16.335938 24.609375 16.335938 24.429688 C 16.328125 22.6875 16.316406 11.875 16.335938 10.132812 C 16.359375 8.292969 17.5625 6.542969 19.453125 6.296875 C 20.640625 6.140625 21.875 6.554688 22.734375 7.386719 C 23.441406 8.199219 23.804688 9.144531 23.800781 10.222656 C 23.796875 11.054688 23.800781 20.957031 23.800781 21.789062 "/>
<path style=" stroke:none;fill-rule:nonzero;fill:rgb(0%,0%,0%);fill-opacity:1;" d="M 21.101562 26.0625 C 21.089844 26.015625 21.085938 25.96875 21.085938 25.921875 C 21.078125 25.101562 21.074219 18.152344 21.074219 18.152344 C 21.074219 17.609375 20.625 17.167969 20.074219 17.167969 C 19.519531 17.167969 19.074219 17.609375 19.074219 18.152344 C 19.074219 18.152344 19.074219 24.082031 19.078125 25.863281 C 19.082031 25.929688 19.074219 25.988281 19.0625 26.046875 C 18.152344 26.4375 17.515625 27.339844 17.515625 28.390625 C 17.515625 28.632812 17.546875 28.863281 17.613281 29.082031 C 17.914062 30.15625 18.898438 30.941406 20.066406 30.941406 C 21.300781 30.941406 22.328125 30.066406 22.566406 28.90625 C 22.597656 28.742188 22.617188 28.570312 22.617188 28.390625 C 22.617188 27.351562 21.996094 26.457031 21.101562 26.0625 "/>
</g>
</svg>
