<?xml version="1.0" encoding="UTF-8"?>
<svg xmlns="http://www.w3.org/2000/svg" xmlns:xlink="http://www.w3.org/1999/xlink" width="40px" height="40px" viewBox="0 0 40 40" version="1.1">
<defs>
<clipPath id="clip1">
  <path d="M 0 0.894531 L 0 39.105469 C 0 39.597656 0.402344 40 0.894531 40 L 39.105469 40 C 39.597656 40 40 39.597656 40 39.105469 L 40 0.894531 C 40 0.402344 39.597656 0 39.105469 0 L 0.894531 0 C 0.402344 0 0 0.402344 0 0.894531 Z M 0 0.894531 "/>
</clipPath>
<clipPath id="clip2">
  <path d="M 3.695312 7.191406 L 36.332031 7.191406 L 36.332031 32.796875 L 3.695312 32.796875 Z M 3.695312 7.191406 "/>
</clipPath>
</defs>
<g id="surface1">
<rect x="0" y="0" width="40" height="40" style="fill:rgb(100%,100%,100%);fill-opacity:1;stroke:none;"/>
<g clip-path="url(#clip1)" clip-rule="nonzero">
<path style=" stroke:none;fill-rule:nonzero;fill:rgb(0%,0%,0%);fill-opacity:1;" d="M 35.234375 0 L 4.765625 0 C 4.6875 0 4.609375 0.00390625 4.53125 0.0078125 C 4.453125 0.0117188 4.375 0.015625 4.296875 0.0234375 C 4.222656 0.03125 4.144531 0.0429688 4.066406 0.0507812 C 3.988281 0.0625 3.914062 0.078125 3.835938 0.09375 C 3.761719 0.109375 3.683594 0.125 3.609375 0.144531 C 3.53125 0.164062 3.457031 0.183594 3.382812 0.207031 C 3.308594 0.230469 3.234375 0.253906 3.160156 0.28125 C 3.085938 0.308594 3.015625 0.335938 2.941406 0.363281 C 2.871094 0.394531 2.800781 0.425781 2.730469 0.460938 C 2.660156 0.492188 2.589844 0.527344 2.519531 0.566406 C 2.453125 0.601562 2.382812 0.640625 2.316406 0.679688 C 2.25 0.71875 2.183594 0.761719 2.121094 0.804688 C 2.054688 0.847656 1.992188 0.894531 1.929688 0.941406 C 1.867188 0.988281 1.804688 1.035156 1.746094 1.085938 C 1.683594 1.132812 1.625 1.183594 1.566406 1.238281 C 1.507812 1.289062 1.453125 1.34375 1.398438 1.398438 C 1.34375 1.453125 1.289062 1.507812 1.238281 1.566406 C 1.183594 1.625 1.132812 1.683594 1.085938 1.746094 C 1.035156 1.804688 0.988281 1.867188 0.941406 1.929688 C 0.894531 1.992188 0.847656 2.054688 0.804688 2.121094 C 0.761719 2.183594 0.71875 2.25 0.679688 2.316406 C 0.640625 2.382812 0.601562 2.453125 0.566406 2.519531 C 0.527344 2.589844 0.492188 2.660156 0.460938 2.730469 C 0.425781 2.800781 0.394531 2.871094 0.363281 2.941406 C 0.335938 3.015625 0.308594 3.085938 0.28125 3.160156 C 0.253906 3.234375 0.230469 3.308594 0.207031 3.382812 C 0.183594 3.457031 0.164062 3.53125 0.144531 3.609375 C 0.125 3.683594 0.109375 3.761719 0.09375 3.835938 C 0.078125 3.914062 0.0625 3.988281 0.0507812 4.066406 C 0.0390625 4.144531 0.03125 4.222656 0.0234375 4.300781 C 0.015625 4.375 0.0117188 4.453125 0.0078125 4.53125 C 0.00390625 4.609375 0 4.6875 0 4.765625 L 0 35.234375 C 0 35.3125 0.00390625 35.390625 0.0078125 35.46875 C 0.0117188 35.546875 0.015625 35.625 0.0234375 35.703125 C 0.03125 35.777344 0.0390625 35.855469 0.0507812 35.933594 C 0.0625 36.011719 0.078125 36.085938 0.09375 36.164062 C 0.109375 36.238281 0.125 36.316406 0.144531 36.390625 C 0.164062 36.46875 0.183594 36.542969 0.207031 36.617188 C 0.230469 36.691406 0.253906 36.765625 0.28125 36.839844 C 0.308594 36.914062 0.335938 36.984375 0.363281 37.058594 C 0.394531 37.128906 0.425781 37.199219 0.460938 37.269531 C 0.492188 37.339844 0.527344 37.410156 0.566406 37.480469 C 0.601562 37.546875 0.640625 37.617188 0.679688 37.683594 C 0.71875 37.75 0.761719 37.816406 0.804688 37.878906 C 0.847656 37.945312 0.894531 38.007812 0.941406 38.070312 C 0.988281 38.132812 1.035156 38.195312 1.085938 38.253906 C 1.132812 38.316406 1.183594 38.375 1.238281 38.433594 C 1.289062 38.492188 1.34375 38.546875 1.398438 38.601562 C 1.453125 38.65625 1.507812 38.710938 1.566406 38.761719 C 1.625 38.816406 1.683594 38.867188 1.746094 38.914062 C 1.804688 38.964844 1.867188 39.011719 1.929688 39.058594 C 1.992188 39.105469 2.054688 39.152344 2.121094 39.195312 C 2.183594 39.238281 2.25 39.28125 2.316406 39.320312 C 2.382812 39.359375 2.453125 39.398438 2.519531 39.433594 C 2.589844 39.472656 2.660156 39.507812 2.730469 39.539062 C 2.800781 39.574219 2.871094 39.605469 2.941406 39.636719 C 3.015625 39.664062 3.085938 39.691406 3.160156 39.71875 C 3.234375 39.746094 3.308594 39.769531 3.382812 39.792969 C 3.457031 39.816406 3.53125 39.835938 3.609375 39.855469 C 3.683594 39.875 3.761719 39.890625 3.835938 39.90625 C 3.914062 39.921875 3.988281 39.9375 4.066406 39.949219 C 4.144531 39.960938 4.222656 39.96875 4.296875 39.976562 C 4.375 39.984375 4.453125 39.988281 4.53125 39.992188 C 4.609375 39.996094 4.6875 40 4.765625 40 L 35.234375 40 C 35.3125 40 35.390625 39.996094 35.46875 39.992188 C 35.546875 39.988281 35.625 39.984375 35.703125 39.976562 C 35.777344 39.96875 35.855469 39.960938 35.933594 39.949219 C 36.011719 39.9375 36.085938 39.921875 36.164062 39.90625 C 36.238281 39.890625 36.316406 39.875 36.390625 39.855469 C 36.46875 39.835938 36.542969 39.816406 36.617188 39.792969 C 36.691406 39.769531 36.765625 39.746094 36.839844 39.71875 C 36.914062 39.691406 36.984375 39.664062 37.058594 39.636719 C 37.128906 39.605469 37.199219 39.574219 37.269531 39.539062 C 37.339844 39.507812 37.410156 39.472656 37.480469 39.433594 C 37.546875 39.398438 37.617188 39.359375 37.683594 39.320312 C 37.75 39.28125 37.816406 39.238281 37.878906 39.195312 C 37.945312 39.152344 38.007812 39.105469 38.070312 39.058594 C 38.132812 39.011719 38.195312 38.964844 38.253906 38.914062 C 38.316406 38.867188 38.375 38.816406 38.433594 38.761719 C 38.492188 38.710938 38.546875 38.65625 38.601562 38.601562 C 38.65625 38.546875 38.710938 38.492188 38.761719 38.433594 C 38.816406 38.375 38.867188 38.316406 38.914062 38.253906 C 38.964844 38.195312 39.011719 38.132812 39.058594 38.070312 C 39.105469 38.007812 39.152344 37.945312 39.195312 37.878906 C 39.238281 37.816406 39.28125 37.75 39.320312 37.683594 C 39.359375 37.617188 39.398438 37.546875 39.433594 37.480469 C 39.472656 37.410156 39.507812 37.339844 39.539062 37.269531 C 39.574219 37.199219 39.605469 37.128906 39.636719 37.058594 C 39.664062 36.984375 39.691406 36.914062 39.71875 36.839844 C 39.746094 36.765625 39.769531 36.691406 39.792969 36.617188 C 39.816406 36.542969 39.835938 36.46875 39.855469 36.390625 C 39.875 36.316406 39.890625 36.238281 39.90625 36.164062 C 39.921875 36.085938 39.9375 36.011719 39.949219 35.933594 C 39.960938 35.855469 39.96875 35.777344 39.976562 35.703125 C 39.984375 35.625 39.988281 35.546875 39.992188 35.46875 C 39.996094 35.390625 40 35.3125 40 35.234375 L 40 4.765625 C 40 4.6875 39.996094 4.609375 39.992188 4.53125 C 39.988281 4.453125 39.984375 4.375 39.976562 4.300781 C 39.96875 4.222656 39.960938 4.144531 39.949219 4.066406 C 39.9375 3.988281 39.921875 3.914062 39.90625 3.835938 C 39.890625 3.761719 39.875 3.683594 39.855469 3.609375 C 39.835938 3.53125 39.816406 3.457031 39.792969 3.382812 C 39.769531 3.308594 39.746094 3.234375 39.71875 3.160156 C 39.691406 3.085938 39.664062 3.015625 39.636719 2.941406 C 39.605469 2.871094 39.574219 2.800781 39.539062 2.730469 C 39.507812 2.660156 39.472656 2.589844 39.433594 2.519531 C 39.398438 2.453125 39.359375 2.382812 39.320312 2.316406 C 39.28125 2.25 39.238281 2.183594 39.195312 2.121094 C 39.152344 2.054688 39.105469 1.992188 39.058594 1.929688 C 39.011719 1.867188 38.964844 1.804688 38.914062 1.746094 C 38.867188 1.683594 38.816406 1.625 38.761719 1.566406 C 38.710938 1.507812 38.65625 1.453125 38.601562 1.398438 C 38.546875 1.34375 38.492188 1.289062 38.433594 1.238281 C 38.375 1.183594 38.316406 1.132812 38.253906 1.085938 C 38.195312 1.035156 38.132812 0.988281 38.070312 0.941406 C 38.007812 0.894531 37.945312 0.847656 37.878906 0.804688 C 37.816406 0.761719 37.75 0.71875 37.683594 0.679688 C 37.617188 0.640625 37.546875 0.601562 37.480469 0.566406 C 37.410156 0.527344 37.339844 0.492188 37.269531 0.460938 C 37.199219 0.425781 37.128906 0.394531 37.058594 0.363281 C 36.984375 0.335938 36.914062 0.308594 36.839844 0.28125 C 36.765625 0.253906 36.691406 0.230469 36.617188 0.207031 C 36.542969 0.183594 36.46875 0.164062 36.390625 0.144531 C 36.316406 0.125 36.238281 0.109375 36.164062 0.09375 C 36.085938 0.078125 36.011719 0.0625 35.933594 0.0507812 C 35.855469 0.0429688 35.777344 0.03125 35.703125 0.0234375 C 35.625 0.015625 35.546875 0.0117188 35.46875 0.0078125 C 35.390625 0.00390625 35.3125 0 35.234375 0 Z M 39.386719 35.234375 C 39.386719 35.300781 39.382812 35.371094 39.378906 35.4375 C 39.375 35.503906 39.371094 35.574219 39.363281 35.640625 C 39.359375 35.707031 39.351562 35.777344 39.339844 35.84375 C 39.328125 35.910156 39.316406 35.976562 39.304688 36.042969 C 39.292969 36.109375 39.277344 36.175781 39.257812 36.242188 C 39.242188 36.308594 39.226562 36.375 39.203125 36.4375 C 39.183594 36.503906 39.164062 36.566406 39.140625 36.632812 C 39.117188 36.695312 39.09375 36.757812 39.066406 36.820312 C 39.042969 36.882812 39.015625 36.945312 38.984375 37.007812 C 38.957031 37.070312 38.925781 37.128906 38.894531 37.191406 C 38.859375 37.25 38.828125 37.308594 38.792969 37.367188 C 38.757812 37.425781 38.722656 37.480469 38.683594 37.539062 C 38.644531 37.59375 38.605469 37.652344 38.566406 37.707031 C 38.527344 37.761719 38.484375 37.8125 38.441406 37.867188 C 38.398438 37.917969 38.351562 37.96875 38.308594 38.019531 C 38.261719 38.070312 38.214844 38.121094 38.167969 38.167969 C 38.121094 38.214844 38.070312 38.261719 38.019531 38.308594 C 37.96875 38.351562 37.917969 38.398438 37.867188 38.441406 C 37.8125 38.484375 37.757812 38.527344 37.707031 38.566406 C 37.652344 38.605469 37.59375 38.644531 37.539062 38.683594 C 37.480469 38.722656 37.425781 38.757812 37.367188 38.792969 C 37.308594 38.828125 37.25 38.859375 37.191406 38.894531 C 37.128906 38.925781 37.070312 38.957031 37.007812 38.984375 C 36.945312 39.015625 36.882812 39.042969 36.820312 39.066406 C 36.757812 39.09375 36.695312 39.117188 36.632812 39.140625 C 36.566406 39.164062 36.503906 39.183594 36.4375 39.207031 C 36.375 39.226562 36.308594 39.242188 36.242188 39.257812 C 36.175781 39.277344 36.109375 39.292969 36.042969 39.304688 C 35.976562 39.316406 35.910156 39.328125 35.84375 39.339844 C 35.777344 39.351562 35.707031 39.359375 35.640625 39.363281 C 35.574219 39.371094 35.503906 39.375 35.4375 39.378906 C 35.371094 39.382812 35.300781 39.386719 35.234375 39.386719 L 4.765625 39.386719 C 4.699219 39.386719 4.628906 39.382812 4.5625 39.378906 C 4.496094 39.375 4.425781 39.371094 4.359375 39.363281 C 4.292969 39.359375 4.222656 39.351562 4.15625 39.339844 C 4.089844 39.328125 4.023438 39.316406 3.957031 39.304688 C 3.890625 39.292969 3.824219 39.277344 3.757812 39.257812 C 3.691406 39.242188 3.625 39.226562 3.5625 39.207031 C 3.496094 39.183594 3.433594 39.164062 3.367188 39.140625 C 3.304688 39.117188 3.242188 39.09375 3.179688 39.066406 C 3.117188 39.042969 3.054688 39.015625 2.992188 38.984375 C 2.929688 38.957031 2.871094 38.925781 2.808594 38.894531 C 2.75 38.859375 2.691406 38.828125 2.632812 38.792969 C 2.574219 38.757812 2.519531 38.722656 2.460938 38.683594 C 2.40625 38.644531 2.347656 38.605469 2.292969 38.566406 C 2.242188 38.527344 2.1875 38.484375 2.132812 38.441406 C 2.082031 38.398438 2.03125 38.351562 1.980469 38.308594 C 1.929688 38.261719 1.878906 38.214844 1.832031 38.167969 C 1.785156 38.121094 1.738281 38.070312 1.691406 38.019531 C 1.648438 37.96875 1.601562 37.917969 1.558594 37.867188 C 1.515625 37.8125 1.472656 37.761719 1.433594 37.707031 C 1.394531 37.652344 1.355469 37.59375 1.316406 37.539062 C 1.277344 37.480469 1.242188 37.425781 1.207031 37.367188 C 1.171875 37.308594 1.140625 37.25 1.105469 37.191406 C 1.074219 37.128906 1.042969 37.070312 1.015625 37.007812 C 0.984375 36.945312 0.957031 36.882812 0.933594 36.820312 C 0.90625 36.757812 0.882812 36.695312 0.859375 36.632812 C 0.835938 36.566406 0.816406 36.503906 0.796875 36.4375 C 0.773438 36.375 0.757812 36.308594 0.742188 36.242188 C 0.722656 36.175781 0.707031 36.109375 0.695312 36.042969 C 0.683594 35.976562 0.671875 35.910156 0.660156 35.84375 C 0.648438 35.777344 0.640625 35.707031 0.636719 35.640625 C 0.628906 35.574219 0.625 35.503906 0.621094 35.4375 C 0.617188 35.371094 0.613281 35.300781 0.613281 35.234375 L 0.613281 4.765625 C 0.613281 4.699219 0.617188 4.628906 0.621094 4.5625 C 0.625 4.496094 0.628906 4.425781 0.636719 4.359375 C 0.640625 4.292969 0.648438 4.222656 0.660156 4.15625 C 0.671875 4.089844 0.683594 4.023438 0.695312 3.957031 C 0.707031 3.890625 0.722656 3.824219 0.742188 3.757812 C 0.757812 3.691406 0.773438 3.625 0.796875 3.5625 C 0.816406 3.496094 0.835938 3.433594 0.859375 3.367188 C 0.882812 3.304688 0.90625 3.242188 0.933594 3.179688 C 0.957031 3.117188 0.984375 3.054688 1.015625 2.992188 C 1.042969 2.929688 1.074219 2.871094 1.105469 2.808594 C 1.140625 2.75 1.171875 2.691406 1.207031 2.632812 C 1.242188 2.574219 1.277344 2.519531 1.316406 2.460938 C 1.355469 2.40625 1.394531 2.347656 1.433594 2.292969 C 1.472656 2.242188 1.515625 2.1875 1.558594 2.132812 C 1.601562 2.082031 1.648438 2.03125 1.691406 1.980469 C 1.738281 1.929688 1.785156 1.878906 1.832031 1.832031 C 1.878906 1.785156 1.929688 1.738281 1.980469 1.691406 C 2.03125 1.648438 2.082031 1.601562 2.132812 1.558594 C 2.1875 1.515625 2.242188 1.472656 2.292969 1.433594 C 2.347656 1.394531 2.40625 1.355469 2.460938 1.316406 C 2.519531 1.277344 2.574219 1.242188 2.632812 1.207031 C 2.691406 1.171875 2.75 1.140625 2.808594 1.105469 C 2.871094 1.074219 2.929688 1.042969 2.992188 1.015625 C 3.054688 0.984375 3.117188 0.957031 3.179688 0.933594 C 3.242188 0.90625 3.304688 0.882812 3.367188 0.859375 C 3.433594 0.835938 3.496094 0.816406 3.5625 0.796875 C 3.625 0.773438 3.691406 0.757812 3.757812 0.742188 C 3.824219 0.722656 3.890625 0.707031 3.957031 0.695312 C 4.023438 0.683594 4.089844 0.671875 4.15625 0.660156 C 4.222656 0.648438 4.292969 0.640625 4.359375 0.636719 C 4.425781 0.628906 4.496094 0.625 4.5625 0.621094 C 4.628906 0.617188 4.699219 0.613281 4.765625 0.613281 L 35.234375 0.613281 C 35.300781 0.613281 35.371094 0.617188 35.4375 0.621094 C 35.503906 0.625 35.574219 0.628906 35.640625 0.636719 C 35.707031 0.640625 35.777344 0.648438 35.84375 0.660156 C 35.910156 0.671875 35.976562 0.683594 36.042969 0.695312 C 36.109375 0.707031 36.175781 0.722656 36.242188 0.742188 C 36.308594 0.757812 36.375 0.773438 36.4375 0.796875 C 36.503906 0.816406 36.566406 0.835938 36.632812 0.859375 C 36.695312 0.882812 36.757812 0.90625 36.820312 0.933594 C 36.882812 0.957031 36.945312 0.984375 37.007812 1.015625 C 37.070312 1.042969 37.128906 1.074219 37.191406 1.105469 C 37.25 1.140625 37.308594 1.171875 37.367188 1.207031 C 37.425781 1.242188 37.480469 1.277344 37.539062 1.316406 C 37.59375 1.355469 37.652344 1.394531 37.707031 1.433594 C 37.757812 1.472656 37.8125 1.515625 37.867188 1.558594 C 37.917969 1.601562 37.96875 1.648438 38.019531 1.691406 C 38.070312 1.738281 38.121094 1.785156 38.167969 1.832031 C 38.214844 1.878906 38.261719 1.929688 38.308594 1.980469 C 38.351562 2.03125 38.398438 2.082031 38.441406 2.132812 C 38.484375 2.1875 38.527344 2.242188 38.566406 2.292969 C 38.605469 2.347656 38.644531 2.40625 38.683594 2.460938 C 38.722656 2.519531 38.757812 2.574219 38.792969 2.632812 C 38.828125 2.691406 38.859375 2.75 38.894531 2.808594 C 38.925781 2.871094 38.957031 2.929688 38.984375 2.992188 C 39.015625 3.054688 39.042969 3.117188 39.066406 3.179688 C 39.09375 3.242188 39.117188 3.304688 39.140625 3.367188 C 39.164062 3.433594 39.183594 3.496094 39.203125 3.5625 C 39.226562 3.625 39.242188 3.691406 39.257812 3.757812 C 39.277344 3.824219 39.292969 3.890625 39.304688 3.957031 C 39.316406 4.023438 39.328125 4.089844 39.339844 4.15625 C 39.351562 4.222656 39.359375 4.292969 39.363281 4.359375 C 39.371094 4.425781 39.375 4.496094 39.378906 4.5625 C 39.382812 4.628906 39.386719 4.699219 39.386719 4.765625 Z M 39.386719 35.234375 "/>
</g>
<g clip-path="url(#clip2)" clip-rule="nonzero">
<path style=" stroke:none;fill-rule:nonzero;fill:rgb(0%,0%,0%);fill-opacity:1;" d="M 34.726562 16.480469 C 34.625 16.480469 34.519531 16.46875 34.414062 16.449219 C 34.3125 16.429688 34.210938 16.398438 34.117188 16.359375 C 34.019531 16.320312 33.925781 16.269531 33.839844 16.210938 C 33.75 16.152344 33.671875 16.085938 33.597656 16.011719 C 26.105469 8.519531 13.914062 8.519531 6.421875 16.011719 C 6.386719 16.046875 6.347656 16.082031 6.304688 16.117188 C 6.265625 16.148438 6.222656 16.179688 6.179688 16.207031 C 6.136719 16.238281 6.09375 16.265625 6.046875 16.289062 C 6 16.3125 5.953125 16.335938 5.902344 16.355469 C 5.855469 16.375 5.804688 16.390625 5.757812 16.40625 C 5.707031 16.421875 5.65625 16.433594 5.605469 16.445312 C 5.554688 16.453125 5.5 16.460938 5.449219 16.464844 C 5.398438 16.472656 5.34375 16.472656 5.292969 16.472656 C 5.242188 16.472656 5.1875 16.472656 5.136719 16.464844 C 5.085938 16.460938 5.03125 16.453125 4.980469 16.441406 C 4.929688 16.433594 4.878906 16.417969 4.832031 16.402344 C 4.78125 16.390625 4.730469 16.371094 4.683594 16.351562 C 4.632812 16.332031 4.585938 16.308594 4.542969 16.285156 C 4.496094 16.257812 4.449219 16.234375 4.40625 16.203125 C 4.363281 16.175781 4.320312 16.144531 4.28125 16.109375 C 4.242188 16.078125 4.203125 16.042969 4.164062 16.003906 C 4.128906 15.96875 4.09375 15.929688 4.0625 15.890625 C 4.027344 15.847656 3.996094 15.808594 3.96875 15.761719 C 3.9375 15.71875 3.910156 15.675781 3.886719 15.628906 C 3.863281 15.582031 3.839844 15.535156 3.820312 15.488281 C 3.800781 15.441406 3.78125 15.390625 3.765625 15.339844 C 3.75 15.289062 3.738281 15.238281 3.726562 15.1875 C 3.71875 15.136719 3.710938 15.085938 3.703125 15.035156 C 3.699219 14.980469 3.695312 14.929688 3.695312 14.878906 C 3.695312 14.824219 3.699219 14.773438 3.703125 14.722656 C 3.707031 14.667969 3.714844 14.617188 3.726562 14.566406 C 3.734375 14.515625 3.75 14.464844 3.765625 14.414062 C 3.777344 14.363281 3.796875 14.316406 3.816406 14.265625 C 3.835938 14.21875 3.859375 14.171875 3.882812 14.125 C 3.90625 14.078125 3.933594 14.035156 3.960938 13.992188 C 3.992188 13.945312 4.019531 13.90625 4.054688 13.863281 C 4.085938 13.824219 4.121094 13.785156 4.160156 13.746094 C 8.390625 9.519531 14.015625 7.191406 20.007812 7.191406 C 26.003906 7.191406 31.632812 9.519531 35.859375 13.746094 C 35.886719 13.777344 35.914062 13.804688 35.941406 13.835938 C 35.964844 13.863281 35.992188 13.894531 36.015625 13.925781 C 36.039062 13.957031 36.058594 13.988281 36.082031 14.023438 C 36.101562 14.054688 36.121094 14.089844 36.140625 14.125 C 36.160156 14.160156 36.175781 14.195312 36.191406 14.230469 C 36.207031 14.265625 36.222656 14.304688 36.234375 14.339844 C 36.25 14.378906 36.261719 14.414062 36.273438 14.453125 C 36.28125 14.492188 36.289062 14.527344 36.296875 14.566406 C 36.304688 14.605469 36.3125 14.644531 36.316406 14.683594 C 36.320312 14.722656 36.324219 14.761719 36.328125 14.800781 C 36.328125 14.839844 36.328125 14.878906 36.328125 14.917969 C 36.328125 14.957031 36.324219 14.996094 36.320312 15.035156 C 36.316406 15.074219 36.3125 15.113281 36.304688 15.152344 C 36.300781 15.191406 36.289062 15.230469 36.28125 15.269531 C 36.273438 15.308594 36.261719 15.34375 36.25 15.382812 C 36.234375 15.417969 36.222656 15.457031 36.207031 15.492188 C 36.191406 15.527344 36.175781 15.5625 36.160156 15.597656 C 36.140625 15.632812 36.121094 15.667969 36.101562 15.703125 C 36.082031 15.738281 36.058594 15.769531 36.039062 15.800781 C 36.015625 15.832031 35.992188 15.863281 35.964844 15.894531 C 35.941406 15.925781 35.914062 15.957031 35.886719 15.984375 C 35.859375 16.011719 35.832031 16.039062 35.804688 16.066406 C 35.773438 16.09375 35.746094 16.117188 35.714844 16.140625 C 35.683594 16.164062 35.648438 16.1875 35.617188 16.210938 C 35.585938 16.234375 35.550781 16.253906 35.515625 16.273438 C 35.484375 16.292969 35.449219 16.308594 35.414062 16.328125 C 35.378906 16.34375 35.339844 16.359375 35.304688 16.375 C 35.269531 16.386719 35.230469 16.398438 35.191406 16.410156 C 35.15625 16.421875 35.117188 16.433594 35.078125 16.441406 C 35.039062 16.449219 35 16.457031 34.964844 16.464844 C 34.925781 16.46875 34.886719 16.472656 34.847656 16.476562 C 34.808594 16.480469 34.765625 16.480469 34.726562 16.480469 Z M 31.332031 20.539062 C 31.371094 20.503906 31.40625 20.464844 31.4375 20.421875 C 31.472656 20.382812 31.503906 20.339844 31.53125 20.296875 C 31.5625 20.253906 31.589844 20.207031 31.613281 20.160156 C 31.636719 20.117188 31.660156 20.070312 31.679688 20.019531 C 31.699219 19.972656 31.71875 19.921875 31.734375 19.871094 C 31.75 19.820312 31.761719 19.769531 31.773438 19.71875 C 31.78125 19.667969 31.789062 19.617188 31.796875 19.5625 C 31.800781 19.511719 31.800781 19.460938 31.800781 19.40625 C 31.800781 19.355469 31.800781 19.300781 31.796875 19.25 C 31.789062 19.199219 31.78125 19.148438 31.773438 19.09375 C 31.761719 19.042969 31.75 18.992188 31.734375 18.941406 C 31.71875 18.890625 31.699219 18.84375 31.679688 18.792969 C 31.660156 18.746094 31.636719 18.699219 31.613281 18.652344 C 31.589844 18.605469 31.5625 18.5625 31.53125 18.519531 C 31.503906 18.472656 31.472656 18.433594 31.4375 18.390625 C 31.40625 18.351562 31.371094 18.3125 31.332031 18.273438 C 25.089844 12.035156 14.933594 12.035156 8.691406 18.273438 C 8.652344 18.3125 8.617188 18.351562 8.585938 18.390625 C 8.550781 18.433594 8.523438 18.472656 8.492188 18.519531 C 8.464844 18.5625 8.4375 18.605469 8.414062 18.652344 C 8.390625 18.699219 8.367188 18.746094 8.347656 18.792969 C 8.328125 18.84375 8.308594 18.890625 8.292969 18.941406 C 8.28125 18.992188 8.265625 19.042969 8.257812 19.09375 C 8.246094 19.144531 8.238281 19.195312 8.234375 19.25 C 8.230469 19.300781 8.226562 19.351562 8.226562 19.40625 C 8.226562 19.457031 8.230469 19.507812 8.234375 19.5625 C 8.242188 19.613281 8.25 19.664062 8.257812 19.714844 C 8.269531 19.769531 8.28125 19.816406 8.296875 19.867188 C 8.3125 19.917969 8.332031 19.96875 8.351562 20.015625 C 8.371094 20.0625 8.394531 20.109375 8.417969 20.15625 C 8.441406 20.203125 8.46875 20.246094 8.5 20.289062 C 8.527344 20.335938 8.558594 20.375 8.589844 20.417969 C 8.625 20.457031 8.660156 20.496094 8.695312 20.53125 C 8.734375 20.570312 8.773438 20.605469 8.8125 20.636719 C 8.851562 20.671875 8.894531 20.703125 8.9375 20.730469 C 8.980469 20.761719 9.027344 20.785156 9.074219 20.8125 C 9.117188 20.835938 9.164062 20.859375 9.214844 20.878906 C 9.261719 20.898438 9.3125 20.917969 9.359375 20.929688 C 9.410156 20.945312 9.460938 20.960938 9.511719 20.96875 C 9.5625 20.980469 9.617188 20.988281 9.667969 20.992188 C 9.71875 21 9.773438 21 9.824219 21 C 9.875 21 9.929688 21 9.980469 20.996094 C 10.03125 20.988281 10.085938 20.980469 10.136719 20.972656 C 10.1875 20.960938 10.238281 20.949219 10.289062 20.933594 C 10.335938 20.917969 10.386719 20.902344 10.433594 20.882812 C 10.484375 20.863281 10.53125 20.839844 10.578125 20.816406 C 10.621094 20.792969 10.667969 20.765625 10.710938 20.738281 C 10.753906 20.707031 10.796875 20.675781 10.835938 20.644531 C 10.878906 20.609375 10.917969 20.574219 10.953125 20.539062 C 15.949219 15.546875 24.074219 15.546875 29.070312 20.539062 C 29.105469 20.578125 29.144531 20.613281 29.1875 20.644531 C 29.226562 20.679688 29.269531 20.710938 29.3125 20.738281 C 29.355469 20.769531 29.398438 20.792969 29.445312 20.820312 C 29.492188 20.84375 29.539062 20.867188 29.589844 20.886719 C 29.636719 20.90625 29.6875 20.925781 29.738281 20.941406 C 29.785156 20.953125 29.835938 20.96875 29.890625 20.976562 C 29.941406 20.988281 29.992188 20.996094 30.042969 21 C 30.097656 21.007812 30.148438 21.007812 30.203125 21.007812 C 30.253906 21.007812 30.304688 21.007812 30.359375 21 C 30.410156 20.996094 30.460938 20.988281 30.515625 20.976562 C 30.566406 20.96875 30.617188 20.953125 30.667969 20.941406 C 30.714844 20.925781 30.765625 20.90625 30.8125 20.886719 C 30.863281 20.867188 30.910156 20.84375 30.957031 20.820312 C 31.003906 20.792969 31.046875 20.769531 31.089844 20.738281 C 31.132812 20.710938 31.175781 20.679688 31.21875 20.644531 C 31.257812 20.613281 31.296875 20.578125 31.332031 20.539062 Z M 26.804688 25.066406 C 26.839844 25.03125 26.875 24.992188 26.910156 24.953125 C 26.945312 24.910156 26.976562 24.867188 27.003906 24.824219 C 27.03125 24.78125 27.058594 24.738281 27.085938 24.691406 C 27.109375 24.644531 27.132812 24.597656 27.152344 24.546875 C 27.171875 24.5 27.1875 24.449219 27.203125 24.398438 C 27.21875 24.351562 27.234375 24.300781 27.242188 24.246094 C 27.253906 24.195312 27.261719 24.144531 27.265625 24.09375 C 27.269531 24.039062 27.273438 23.988281 27.273438 23.9375 C 27.273438 23.882812 27.269531 23.832031 27.265625 23.777344 C 27.261719 23.726562 27.253906 23.675781 27.242188 23.625 C 27.234375 23.570312 27.21875 23.519531 27.203125 23.472656 C 27.1875 23.421875 27.171875 23.371094 27.152344 23.324219 C 27.132812 23.273438 27.109375 23.226562 27.085938 23.179688 C 27.058594 23.132812 27.03125 23.089844 27.003906 23.046875 C 26.976562 23.003906 26.945312 22.960938 26.910156 22.921875 C 26.875 22.878906 26.839844 22.839844 26.804688 22.804688 C 23.058594 19.058594 16.964844 19.058594 13.21875 22.804688 C 13.183594 22.839844 13.148438 22.878906 13.117188 22.921875 C 13.085938 22.960938 13.054688 23.003906 13.027344 23.046875 C 12.996094 23.089844 12.972656 23.136719 12.949219 23.179688 C 12.925781 23.226562 12.902344 23.273438 12.882812 23.324219 C 12.863281 23.371094 12.847656 23.417969 12.832031 23.46875 C 12.820312 23.519531 12.808594 23.570312 12.796875 23.621094 C 12.789062 23.671875 12.78125 23.722656 12.777344 23.773438 C 12.773438 23.824219 12.769531 23.878906 12.769531 23.929688 C 12.769531 23.980469 12.773438 24.03125 12.777344 24.085938 C 12.785156 24.136719 12.792969 24.1875 12.804688 24.238281 C 12.8125 24.289062 12.828125 24.339844 12.839844 24.386719 C 12.855469 24.4375 12.875 24.488281 12.894531 24.535156 C 12.914062 24.582031 12.9375 24.628906 12.960938 24.675781 C 12.984375 24.71875 13.011719 24.765625 13.042969 24.808594 C 13.070312 24.851562 13.101562 24.890625 13.132812 24.933594 C 13.167969 24.972656 13.203125 25.011719 13.238281 25.046875 C 13.273438 25.082031 13.3125 25.117188 13.355469 25.152344 C 13.394531 25.183594 13.433594 25.214844 13.476562 25.246094 C 13.519531 25.273438 13.566406 25.300781 13.613281 25.324219 C 13.65625 25.347656 13.703125 25.371094 13.75 25.390625 C 13.800781 25.410156 13.847656 25.429688 13.898438 25.445312 C 13.945312 25.460938 13.996094 25.472656 14.046875 25.484375 C 14.097656 25.492188 14.148438 25.5 14.203125 25.507812 C 14.253906 25.511719 14.304688 25.515625 14.355469 25.515625 C 14.410156 25.515625 14.460938 25.515625 14.511719 25.511719 C 14.5625 25.503906 14.613281 25.5 14.664062 25.488281 C 14.714844 25.480469 14.765625 25.46875 14.816406 25.453125 C 14.867188 25.4375 14.914062 25.421875 14.964844 25.402344 C 15.011719 25.382812 15.058594 25.363281 15.105469 25.339844 C 15.152344 25.3125 15.195312 25.289062 15.238281 25.261719 C 15.28125 25.230469 15.324219 25.203125 15.367188 25.167969 C 15.40625 25.136719 15.445312 25.105469 15.484375 25.066406 C 15.558594 24.992188 15.632812 24.921875 15.710938 24.851562 C 15.789062 24.78125 15.867188 24.710938 15.949219 24.644531 C 16.03125 24.578125 16.113281 24.515625 16.195312 24.453125 C 16.28125 24.390625 16.367188 24.332031 16.453125 24.273438 C 16.539062 24.214844 16.628906 24.160156 16.71875 24.105469 C 16.808594 24.050781 16.902344 24 16.992188 23.949219 C 17.085938 23.902344 17.179688 23.855469 17.273438 23.808594 C 17.367188 23.765625 17.464844 23.722656 17.5625 23.683594 C 17.65625 23.640625 17.757812 23.605469 17.855469 23.570312 C 17.953125 23.535156 18.054688 23.5 18.152344 23.46875 C 18.253906 23.441406 18.355469 23.414062 18.457031 23.386719 C 18.558594 23.363281 18.660156 23.339844 18.761719 23.316406 C 18.867188 23.296875 18.96875 23.28125 19.070312 23.265625 C 19.175781 23.25 19.28125 23.234375 19.382812 23.226562 C 19.488281 23.214844 19.59375 23.207031 19.699219 23.203125 C 19.800781 23.199219 19.90625 23.195312 20.011719 23.195312 C 20.117188 23.195312 20.222656 23.199219 20.324219 23.203125 C 20.429688 23.207031 20.535156 23.214844 20.640625 23.226562 C 20.742188 23.234375 20.847656 23.25 20.953125 23.265625 C 21.054688 23.28125 21.15625 23.296875 21.261719 23.316406 C 21.363281 23.339844 21.464844 23.363281 21.566406 23.386719 C 21.667969 23.414062 21.769531 23.441406 21.871094 23.46875 C 21.96875 23.5 22.070312 23.535156 22.167969 23.570312 C 22.265625 23.605469 22.367188 23.640625 22.460938 23.683594 C 22.558594 23.722656 22.65625 23.765625 22.75 23.808594 C 22.84375 23.855469 22.9375 23.902344 23.03125 23.949219 C 23.121094 24 23.214844 24.050781 23.304688 24.105469 C 23.394531 24.160156 23.484375 24.214844 23.570312 24.273438 C 23.65625 24.332031 23.742188 24.390625 23.828125 24.453125 C 23.910156 24.515625 23.992188 24.578125 24.074219 24.644531 C 24.15625 24.710938 24.234375 24.78125 24.3125 24.851562 C 24.390625 24.921875 24.464844 24.992188 24.539062 25.066406 C 24.578125 25.105469 24.617188 25.140625 24.65625 25.171875 C 24.699219 25.207031 24.738281 25.238281 24.785156 25.265625 C 24.828125 25.296875 24.871094 25.324219 24.917969 25.347656 C 24.964844 25.371094 25.011719 25.394531 25.058594 25.414062 C 25.109375 25.433594 25.15625 25.453125 25.207031 25.46875 C 25.257812 25.484375 25.308594 25.496094 25.359375 25.503906 C 25.410156 25.515625 25.464844 25.523438 25.515625 25.527344 C 25.566406 25.535156 25.621094 25.535156 25.671875 25.535156 C 25.726562 25.535156 25.777344 25.535156 25.828125 25.527344 C 25.882812 25.523438 25.933594 25.515625 25.984375 25.503906 C 26.035156 25.496094 26.085938 25.484375 26.136719 25.46875 C 26.1875 25.453125 26.238281 25.433594 26.285156 25.414062 C 26.332031 25.394531 26.382812 25.371094 26.425781 25.347656 C 26.472656 25.324219 26.519531 25.296875 26.5625 25.265625 C 26.605469 25.238281 26.648438 25.207031 26.6875 25.171875 C 26.730469 25.140625 26.765625 25.105469 26.804688 25.066406 Z M 22.273438 31.859375 C 22.316406 31.816406 22.359375 31.773438 22.402344 31.726562 C 22.441406 31.679688 22.480469 31.632812 22.519531 31.585938 C 22.558594 31.539062 22.59375 31.488281 22.628906 31.4375 C 22.664062 31.390625 22.699219 31.335938 22.730469 31.285156 C 22.761719 31.234375 22.792969 31.179688 22.824219 31.128906 C 22.851562 31.074219 22.878906 31.019531 22.90625 30.964844 C 22.933594 30.910156 22.957031 30.851562 22.980469 30.796875 C 23.003906 30.738281 23.023438 30.679688 23.042969 30.625 C 23.0625 30.566406 23.082031 30.507812 23.097656 30.449219 C 23.113281 30.390625 23.128906 30.328125 23.140625 30.269531 C 23.15625 30.210938 23.167969 30.148438 23.175781 30.089844 C 23.1875 30.027344 23.195312 29.96875 23.199219 29.90625 C 23.207031 29.847656 23.210938 29.785156 23.210938 29.722656 C 23.214844 29.664062 23.214844 29.601562 23.214844 29.539062 C 23.214844 29.480469 23.210938 29.417969 23.207031 29.359375 C 23.203125 29.296875 23.195312 29.234375 23.1875 29.175781 C 23.179688 29.113281 23.171875 29.054688 23.160156 28.992188 C 23.148438 28.933594 23.136719 28.875 23.121094 28.8125 C 23.105469 28.753906 23.089844 28.695312 23.070312 28.636719 C 23.050781 28.578125 23.03125 28.519531 23.011719 28.464844 C 22.988281 28.40625 22.964844 28.351562 22.941406 28.292969 C 22.917969 28.238281 22.890625 28.183594 22.863281 28.128906 C 22.835938 28.074219 22.804688 28.019531 22.773438 27.96875 C 22.742188 27.914062 22.710938 27.863281 22.675781 27.8125 C 22.640625 27.761719 22.605469 27.710938 22.570312 27.660156 C 22.535156 27.613281 22.496094 27.566406 22.457031 27.519531 C 22.414062 27.472656 22.375 27.425781 22.332031 27.382812 C 22.289062 27.335938 22.246094 27.292969 22.203125 27.253906 C 22.15625 27.210938 22.113281 27.171875 22.066406 27.132812 C 22.019531 27.089844 21.96875 27.054688 21.921875 27.015625 C 21.871094 26.980469 21.820312 26.945312 21.769531 26.914062 C 21.71875 26.878906 21.667969 26.847656 21.613281 26.816406 C 21.5625 26.785156 21.507812 26.757812 21.453125 26.730469 C 21.398438 26.699219 21.34375 26.675781 21.285156 26.652344 C 21.230469 26.625 21.171875 26.601562 21.117188 26.582031 C 21.058594 26.5625 21 26.542969 20.941406 26.523438 C 20.882812 26.507812 20.824219 26.488281 20.765625 26.476562 C 20.707031 26.460938 20.644531 26.449219 20.585938 26.4375 C 20.523438 26.425781 20.464844 26.417969 20.402344 26.410156 C 20.34375 26.402344 20.28125 26.394531 20.222656 26.390625 C 20.160156 26.386719 20.097656 26.386719 20.039062 26.386719 C 19.976562 26.386719 19.914062 26.386719 19.855469 26.390625 C 19.792969 26.390625 19.730469 26.398438 19.671875 26.402344 C 19.609375 26.410156 19.550781 26.417969 19.488281 26.429688 C 19.429688 26.4375 19.367188 26.449219 19.308594 26.464844 C 19.25 26.476562 19.191406 26.492188 19.132812 26.507812 C 19.070312 26.523438 19.015625 26.542969 18.957031 26.5625 C 18.898438 26.582031 18.839844 26.605469 18.785156 26.628906 C 18.726562 26.652344 18.671875 26.675781 18.617188 26.703125 C 18.5625 26.730469 18.507812 26.757812 18.453125 26.789062 C 18.398438 26.816406 18.347656 26.847656 18.296875 26.882812 C 18.242188 26.914062 18.191406 26.949219 18.144531 26.984375 C 18.09375 27.019531 18.046875 27.058594 17.996094 27.09375 C 17.949219 27.132812 17.902344 27.171875 17.859375 27.214844 C 17.8125 27.257812 17.769531 27.296875 17.726562 27.34375 C 17.683594 27.386719 17.640625 27.429688 17.601562 27.476562 C 17.558594 27.523438 17.519531 27.570312 17.484375 27.617188 C 17.445312 27.664062 17.410156 27.714844 17.375 27.765625 C 17.339844 27.816406 17.304688 27.867188 17.273438 27.917969 C 17.242188 27.972656 17.210938 28.023438 17.183594 28.078125 C 17.152344 28.132812 17.125 28.1875 17.101562 28.242188 C 17.074219 28.296875 17.050781 28.355469 17.027344 28.410156 C 17.007812 28.46875 16.984375 28.527344 16.964844 28.585938 C 16.945312 28.640625 16.929688 28.699219 16.914062 28.761719 C 16.898438 28.820312 16.882812 28.878906 16.871094 28.9375 C 16.859375 29 16.847656 29.058594 16.839844 29.121094 C 16.828125 29.179688 16.824219 29.242188 16.816406 29.300781 C 16.8125 29.363281 16.808594 29.421875 16.804688 29.484375 C 16.804688 29.546875 16.804688 29.605469 16.804688 29.667969 C 16.804688 29.730469 16.808594 29.789062 16.8125 29.851562 C 16.820312 29.914062 16.828125 29.972656 16.835938 30.035156 C 16.84375 30.09375 16.851562 30.15625 16.867188 30.214844 C 16.878906 30.273438 16.890625 30.335938 16.90625 30.394531 C 16.921875 30.453125 16.9375 30.511719 16.957031 30.570312 C 16.976562 30.628906 16.996094 30.6875 17.019531 30.742188 C 17.039062 30.800781 17.0625 30.855469 17.089844 30.914062 C 17.113281 30.96875 17.140625 31.023438 17.167969 31.078125 C 17.199219 31.132812 17.226562 31.183594 17.257812 31.238281 C 17.292969 31.289062 17.324219 31.34375 17.359375 31.394531 C 17.394531 31.445312 17.429688 31.492188 17.464844 31.542969 C 17.503906 31.589844 17.542969 31.636719 17.582031 31.683594 C 17.621094 31.730469 17.664062 31.777344 17.707031 31.820312 C 17.75 31.863281 17.792969 31.90625 17.835938 31.949219 C 17.882812 31.988281 17.929688 32.03125 17.976562 32.066406 C 18.023438 32.105469 18.070312 32.144531 18.121094 32.179688 C 18.171875 32.214844 18.222656 32.25 18.273438 32.285156 C 18.324219 32.316406 18.375 32.347656 18.429688 32.378906 C 18.484375 32.410156 18.535156 32.4375 18.589844 32.464844 C 18.648438 32.492188 18.703125 32.519531 18.757812 32.542969 C 18.816406 32.566406 18.871094 32.585938 18.929688 32.609375 C 18.988281 32.628906 19.046875 32.648438 19.105469 32.664062 C 19.164062 32.683594 19.222656 32.699219 19.28125 32.710938 C 19.339844 32.726562 19.402344 32.738281 19.460938 32.75 C 19.523438 32.757812 19.582031 32.769531 19.644531 32.773438 C 19.703125 32.78125 19.765625 32.789062 19.828125 32.789062 C 19.886719 32.792969 19.949219 32.796875 20.007812 32.796875 C 20.113281 32.796875 20.21875 32.789062 20.324219 32.78125 C 20.429688 32.769531 20.53125 32.753906 20.632812 32.734375 C 20.738281 32.714844 20.839844 32.6875 20.9375 32.660156 C 21.039062 32.628906 21.136719 32.59375 21.234375 32.550781 C 21.332031 32.511719 21.425781 32.46875 21.519531 32.417969 C 21.613281 32.367188 21.703125 32.316406 21.789062 32.257812 C 21.875 32.199219 21.960938 32.136719 22.042969 32.070312 C 22.121094 32.003906 22.199219 31.933594 22.273438 31.859375 Z M 22.273438 31.859375 "/>
</g>
</g>
</svg>
