<?xml version="1.0" encoding="UTF-8"?>
<svg xmlns="http://www.w3.org/2000/svg" xmlns:xlink="http://www.w3.org/1999/xlink" width="40px" height="40px" viewBox="0 0 40 40" version="1.1">
<defs>
<clipPath id="clip1">
  <path d="M 0.578125 13.988281 L 38.890625 13.988281 L 38.890625 28.03125 L 0.578125 28.03125 Z M 0.578125 13.988281 "/>
</clipPath>
</defs>
<g id="surface1">
<rect x="0" y="0" width="40" height="40" style="fill:rgb(100%,100%,100%);fill-opacity:1;stroke:none;"/>
<path style=" stroke:none;fill-rule:nonzero;fill:rgb(0%,0%,0%);fill-opacity:1;" d="M 20 0 C 8.953125 0 0 8.960938 0 20 C 0 31.039062 8.953125 40 20 40 C 31.046875 40 40 31.039062 40 20 C 40 8.960938 31.046875 0 20 0 Z M 20 38.734375 C 9.652344 38.734375 1.265625 30.347656 1.265625 20 C 1.265625 9.652344 9.652344 1.265625 20 1.265625 C 30.347656 1.265625 38.734375 9.652344 38.734375 20 C 38.734375 30.347656 30.347656 38.734375 20 38.734375 Z M 20 38.734375 "/>
<g clip-path="url(#clip1)" clip-rule="nonzero">
<path style=" stroke:none;fill-rule:nonzero;fill:rgb(0%,0%,0%);fill-opacity:1;" d="M -12.777344 28.039062 C -9.691406 28.039062 -8.238281 24.582031 -6.839844 21.238281 C -5.527344 18.089844 -4.292969 15.160156 -1.984375 15.160156 C 0.320312 15.160156 1.5625 18.089844 2.871094 21.238281 C 4.273438 24.582031 5.71875 28.039062 8.808594 28.039062 C 11.898438 28.039062 13.339844 24.582031 14.738281 21.242188 C 16.050781 18.089844 17.292969 15.160156 19.597656 15.160156 C 21.90625 15.160156 23.140625 18.089844 24.453125 21.238281 C 25.863281 24.582031 27.304688 28.039062 30.386719 28.039062 C 33.472656 28.039062 34.917969 24.582031 36.320312 21.238281 C 37.628906 18.089844 38.867188 15.160156 41.171875 15.160156 L 41.171875 13.988281 C 38.085938 13.988281 36.640625 17.445312 35.230469 20.785156 C 33.929688 23.941406 32.695312 26.871094 30.386719 26.871094 C 28.082031 26.871094 26.839844 23.941406 25.527344 20.785156 C 24.105469 17.445312 22.683594 13.988281 19.597656 13.988281 C 16.511719 13.988281 15.0625 17.445312 13.664062 20.785156 C 12.351562 23.941406 11.117188 26.871094 8.808594 26.871094 C 6.503906 26.871094 5.261719 23.941406 3.949219 20.785156 C 2.550781 17.445312 1.105469 13.988281 -1.984375 13.988281 C -5.078125 13.988281 -6.519531 17.445312 -7.921875 20.785156 C -9.226562 23.941406 -10.46875 26.871094 -12.777344 26.871094 Z M -12.777344 28.039062 "/>
</g>
</g>
</svg>
